<svg width="16" height="16" viewBox="0 0 16 16" fill="none" xmlns="http://www.w3.org/2000/svg">
<path d="M11.3333 11.333H9.99998V15.333H8.66665V11.333H7.25331L6.22665 12.6197L7.80665 14.193L6.85998 15.1397L5.28665 13.5597C5.05331 13.333 4.91998 13.0197 4.89998 12.693C4.87998 12.3663 4.97998 12.0397 5.18665 11.7863L5.54665 11.333H4.66665L5.99998 8.66634V6.66634C5.58665 6.97967 5.25331 7.37967 5.01998 7.83967C4.78665 8.30634 4.66665 8.81301 4.66665 9.33301H3.33331C3.33331 8.09533 3.82498 6.90835 4.70015 6.03318C5.57532 5.15801 6.7623 4.66634 7.99998 4.66634C8.88665 4.66634 9.73331 4.31301 10.36 3.69301C10.98 3.06634 11.3333 2.21967 11.3333 1.33301H12.6666C12.6666 2.21301 12.4133 3.07967 11.94 3.81967C11.4688 4.56474 10.7961 5.16109 9.99998 5.53967V8.66634L11.3333 11.333ZM9.33331 2.66634C9.33331 2.93301 9.25331 3.18634 9.10665 3.40634C8.95998 3.62634 8.75331 3.79967 8.51331 3.89967C8.26923 4.00012 8.00084 4.02586 7.74212 3.97364C7.48339 3.92142 7.24599 3.79359 7.05998 3.60634C6.87331 3.41967 6.74665 3.18634 6.69331 2.92634C6.63998 2.66634 6.66665 2.39967 6.76665 2.15967C6.86665 1.91301 7.03998 1.70634 7.25998 1.55967C7.47998 1.41301 7.73331 1.33301 7.99998 1.33301C8.35331 1.33301 8.69331 1.47301 8.93998 1.72634C9.19331 1.97301 9.33331 2.31301 9.33331 2.66634Z" fill="#818080"/>
</svg>
