<svg width="16" height="16" viewBox="0 0 16 16" fill="none" xmlns="http://www.w3.org/2000/svg">
<path d="M1.33337 8.00003H14.6667M13.3334 8.00003V13.3334C13.3334 13.687 13.1929 14.0261 12.9428 14.2762C12.6928 14.5262 12.3537 14.6667 12 14.6667H4.00004C3.64642 14.6667 3.30728 14.5262 3.05723 14.2762C2.80718 14.0261 2.66671 13.687 2.66671 13.3334V8.00003M2.66671 5.33336L13.3334 2.6667M5.90671 4.52003L5.60671 3.31336C5.56372 3.14352 5.55464 2.96687 5.57996 2.79351C5.60529 2.62015 5.66453 2.45348 5.75431 2.30303C5.84408 2.15258 5.96263 2.02129 6.10317 1.91668C6.24371 1.81207 6.40349 1.73619 6.57337 1.69336L7.86671 1.37336C8.037 1.33049 8.21409 1.32167 8.38779 1.34742C8.5615 1.37318 8.72841 1.43299 8.87894 1.52343C9.02947 1.61387 9.16065 1.73316 9.26495 1.87444C9.36925 2.01572 9.44461 2.17621 9.48671 2.3467L9.78671 3.5467" stroke="#818080" stroke-width="2" stroke-linecap="round" stroke-linejoin="round"/>
</svg>
