<svg width="17" height="16" viewBox="0 0 17 16" fill="none" xmlns="http://www.w3.org/2000/svg">
<path d="M4.75 3.375C4.75 2.438 5.3885 1.5 6.375 1.5C7.3615 1.5 8 2.438 8 3.375C8 4.312 7.3615 5.25 6.375 5.25C5.3885 5.25 4.75 4.312 4.75 3.375ZM8.5 6.5C7.8806 6.49998 7.26786 6.62782 6.70015 6.87554C6.13244 7.12325 5.62198 7.4855 5.20074 7.93961C4.77949 8.39371 4.45653 8.92988 4.25206 9.51457C4.0476 10.0992 3.96604 10.7198 4.0125 11.3375C4.0835 12.2945 4.645 12.9755 5.364 13.3985C6.0715 13.815 6.9525 14 7.7775 14H9.2225C10.0475 14 10.9285 13.815 11.636 13.3985C12.355 12.9755 12.916 12.2945 12.9875 11.3375C12.9958 11.2258 13 11.1133 13 11C13 9.80653 12.5259 8.66193 11.682 7.81802C10.8381 6.97411 9.69347 6.5 8.5 6.5ZM9 3.375C9 2.438 9.6385 1.5 10.625 1.5C11.6115 1.5 12.25 2.438 12.25 3.375C12.25 4.312 11.6115 5.25 10.625 5.25C9.6385 5.25 9 4.312 9 3.375ZM12.5 5.625C12.5 4.688 13.1385 3.75 14.125 3.75C15.1115 3.75 15.75 4.688 15.75 5.625C15.75 6.562 15.1115 7.5 14.125 7.5C13.1385 7.5 12.5 6.562 12.5 5.625ZM1.25 5.625C1.25 4.688 1.8885 3.75 2.875 3.75C3.8615 3.75 4.5 4.688 4.5 5.625C4.5 6.562 3.8615 7.5 2.875 7.5C1.8885 7.5 1.25 6.562 1.25 5.625Z" fill="#818080"/>
</svg>
