<svg width="30" height="30" viewBox="0 0 30 30" fill="none" xmlns="http://www.w3.org/2000/svg">
<path fill-rule="evenodd" clip-rule="evenodd" d="M12.5379 8.08709C12.904 8.4532 12.904 9.0468 12.5379 9.41291L7.88833 14.0625L18.125 14.0625C19.3167 14.0625 21.0834 14.4123 22.579 15.4892C24.1225 16.6005 25.3125 18.4445 25.3125 21.25C25.3125 21.7678 24.8928 22.1875 24.375 22.1875C23.8572 22.1875 23.4375 21.7678 23.4375 21.25C23.4375 19.0556 22.5441 17.7745 21.4835 17.0108C20.375 16.2127 19.0166 15.9375 18.125 15.9375L7.88832 15.9375L12.5379 20.5871C12.904 20.9532 12.904 21.5468 12.5379 21.9129C12.1718 22.279 11.5782 22.279 11.2121 21.9129L4.96209 15.6629C4.59597 15.2968 4.59597 14.7032 4.96209 14.3371L11.2121 8.08709C11.5782 7.72097 12.1718 7.72097 12.5379 8.08709Z" fill="black"/>
</svg>
