<svg width="18" height="26" viewBox="0 0 18 26" fill="none" xmlns="http://www.w3.org/2000/svg">
<path d="M2.94161 0C2.48889 0.00431164 1.96072 0.0183245 1.52955 0.105096C1.26547 0.157914 1.04988 0.239835 0.947482 0.313132C0.882807 0.356249 0.861249 0.378885 0.85047 0.403138L2.1224 3.59321C2.1224 3.59105 2.12779 3.58836 2.12779 3.5862C2.40266 3.19169 2.75298 2.86347 3.23804 2.86347H4.36984L2.94161 0ZM15.0573 0L13.6291 2.86347H14.7609C15.2513 2.86347 15.5963 3.19869 15.8711 3.59914L17.1485 0.403138C17.1377 0.378885 17.1161 0.356249 17.0514 0.313132C16.949 0.239835 16.7335 0.157914 16.4694 0.105096C16.0382 0.0183245 15.51 0.00538954 15.0573 0ZM8.99946 0.703336C7.31792 0.703336 5.631 1.58507 5.631 3.34852H6.60111C6.60111 1.11617 11.3978 1.11617 11.3978 3.34852H12.3679C12.3679 1.58507 10.681 0.703336 8.99946 0.703336ZM3.23804 3.83358C3.23804 3.83358 3.11408 3.86646 2.92544 4.14348C2.73142 4.41296 2.51045 4.87107 2.30026 5.46392C1.87987 6.64962 1.47566 8.37966 1.13073 10.4061C0.452183 14.4321 0.0059285 19.66 0 24.4028C0.0722199 24.4513 0.240374 24.5321 0.473202 24.6022C0.942093 24.7477 1.66429 24.8824 2.5374 24.9902C4.28361 25.2004 6.64423 25.3082 8.99946 25.3082C11.3547 25.3082 13.7153 25.2004 15.4615 24.9902C16.3346 24.8824 17.0568 24.7477 17.5257 24.6022C17.7575 24.5321 17.9245 24.4513 18 24.4028C17.9946 19.8163 17.5473 14.5938 16.8682 10.5247C16.5233 8.47668 16.119 6.71968 15.6987 5.50704C15.4831 4.90341 15.2675 4.43452 15.0735 4.14887C14.8795 3.867 14.7501 3.83358 14.7609 3.83358H3.23804ZM8.99946 5.04354C10.2444 5.04354 11.4894 5.26451 12.5134 5.7334C13.5428 6.20229 14.3836 6.95143 14.6423 7.99701L14.6477 8.00239L16.3346 15.3483H1.66429L3.35122 8.00239L3.35661 7.99701C3.61531 6.95143 4.45608 6.20229 5.48548 5.7334C6.50949 5.26451 7.75448 5.04354 8.99946 5.04354ZM8.99946 6.01365C7.87305 6.01365 6.74663 6.22385 5.8843 6.61728C5.02737 7.01072 4.46685 7.55506 4.29439 8.22876L2.88233 14.3782H15.1166L13.7045 8.22876C13.5321 7.55506 12.9716 7.01072 12.1146 6.61728C11.2523 6.22385 10.1259 6.01365 8.99946 6.01365ZM5.55015 8.49284H12.4488V9.46296H7.75987V10.8966H6.78975V9.46296H5.55015V8.49284ZM1.78825 16.782H2.75837C2.75837 18.6629 3.00629 20.0426 3.42667 20.8888C3.85245 21.7296 4.35906 22.0583 5.15672 22.0583H12.8422C13.6399 22.0583 14.1465 21.7296 14.5722 20.8888C14.9926 20.0426 15.2406 18.6629 15.2406 16.782H16.2107C16.2107 18.7438 15.9735 20.2474 15.4346 21.32C14.8956 22.3979 13.9632 23.0284 12.8422 23.0284H5.15672C4.03569 23.0284 3.1033 22.3979 2.56435 21.32C2.02539 20.2474 1.78825 18.7438 1.78825 16.782Z" fill="#C29225"/>
</svg>
