<svg width="17" height="14" viewBox="0 0 17 14" fill="none" xmlns="http://www.w3.org/2000/svg">
<path d="M17 7.59668C15 7.59668 14.2218 8.34668 12.9718 8.34668C11.7218 8.34668 10.4718 7.59668 8.97175 7.59668C7.47175 7.59668 6.47175 8.34668 4.97175 8.34668C3.47175 8.34668 1.75 7.59668 1 7.59668V13.4032H17V7.59668Z" fill="#61B2E4"/>
<path d="M1 5.31738C1.75 5.31738 3.25 6.06738 4.75 6.06738C6.25 6.06738 7.25 5.31738 8.75 5.31738C10.25 5.31738 11.5 6.06738 12.75 6.06738C14 6.06738 14.5 5.31738 16.5 5.31738" stroke="black" stroke-width="0.5" stroke-linecap="round" stroke-linejoin="round"/>
<path d="M4.50879 4.01258V0.746833M3.25879 1.90033L4.47829 0.605083C4.48075 0.602433 4.48372 0.600318 4.48704 0.598872C4.49035 0.597426 4.49392 0.59668 4.49754 0.59668C4.50115 0.59668 4.50473 0.597426 4.50804 0.598872C4.51135 0.600318 4.51433 0.602433 4.51679 0.605083L5.75879 1.96608M12.6628 4.01258V0.746833M11.4128 1.90033L12.6325 0.605083C12.635 0.602473 12.638 0.600392 12.6412 0.598969C12.6445 0.597547 12.6481 0.596814 12.6517 0.596814C12.6552 0.596814 12.6588 0.597547 12.6621 0.598969C12.6654 0.600392 12.6683 0.602473 12.6708 0.605083L13.9128 1.96608" stroke="black" stroke-width="0.5" stroke-miterlimit="10" stroke-linecap="round"/>
</svg>
