<svg width="17" height="16" viewBox="0 0 17 16" fill="none" xmlns="http://www.w3.org/2000/svg">
<path d="M14 7.5C13.8618 7.50032 13.7238 7.51181 13.5875 7.53438L13.2237 6.58813C13.4783 6.52967 13.7387 6.5001 14 6.5C14.1326 6.5 14.2598 6.44732 14.3535 6.35355C14.4473 6.25979 14.5 6.13261 14.5 6C14.5 5.86739 14.4473 5.74021 14.3535 5.64645C14.2598 5.55268 14.1326 5.5 14 5.5H12.805L11.9669 3.32063C11.9306 3.22624 11.8665 3.14508 11.7832 3.08783C11.6998 3.03059 11.6011 2.99997 11.5 3H9.49998C9.36737 3 9.24019 3.05268 9.14642 3.14645C9.05266 3.24021 8.99998 3.36739 8.99998 3.5C8.99998 3.63261 9.05266 3.75979 9.14642 3.85355C9.24019 3.94732 9.36737 4 9.49998 4H11.1569L11.7337 5.5H9.99998C8.84373 5.5 7.90623 5.76937 7.28935 6.27875C7.14419 6.39585 6.96917 6.47003 6.78406 6.49289C6.59896 6.51575 6.41115 6.48639 6.24185 6.40812C5.5806 6.1075 1.66123 4.52562 1.62935 4.51687C1.50479 4.48026 1.37088 4.49354 1.25593 4.55389C1.14098 4.61424 1.05401 4.71693 1.01342 4.84025C0.972827 4.96357 0.981793 5.09784 1.03842 5.21467C1.09505 5.3315 1.1949 5.42172 1.31685 5.46625C1.31685 5.46625 4.7856 6.8375 5.47498 7.525C6.01054 8.05839 6.35784 8.75168 6.46435 9.5H5.44998C5.32607 8.89298 4.98118 8.35359 4.48218 7.9864C3.98318 7.61921 3.36562 7.45039 2.74922 7.51266C2.13281 7.57493 1.56149 7.86385 1.14601 8.32342C0.730528 8.78299 0.500488 9.38046 0.500488 10C0.500488 10.6195 0.730528 11.217 1.14601 11.6766C1.56149 12.1361 2.13281 12.4251 2.74922 12.4873C3.36562 12.5496 3.98318 12.3808 4.48218 12.0136C4.98118 11.6464 5.32607 11.107 5.44998 10.5H8.70748C9.14114 10.501 9.5633 10.3605 9.90999 10.1C10.2567 9.83949 10.509 9.47306 10.6287 9.05625C10.7535 8.6129 10.9644 8.19852 11.2496 7.83687C11.5348 7.47523 11.8886 7.17342 12.2906 6.94875L12.6544 7.89437C12.1476 8.21874 11.7748 8.71499 11.6044 9.29205C11.434 9.86911 11.4775 10.4883 11.7268 11.0359C11.9761 11.5835 12.4145 12.0228 12.9616 12.2732C13.5087 12.5236 14.1278 12.5683 14.7052 12.3991C15.2826 12.2299 15.7796 11.8581 16.105 11.352C16.4304 10.8458 16.5623 10.2393 16.4766 9.6438C16.3908 9.04825 16.0932 8.5036 15.6383 8.1098C15.1834 7.71601 14.6017 7.4995 14 7.5ZM2.99998 10.5H4.41373C4.29578 10.8336 4.06369 11.1148 3.75849 11.2938C3.45328 11.4729 3.09461 11.5382 2.74586 11.4784C2.39711 11.4186 2.08075 11.2374 1.85268 10.9668C1.6246 10.6963 1.49951 10.3538 1.49951 10C1.49951 9.64616 1.6246 9.3037 1.85268 9.03317C2.08075 8.76264 2.39711 8.58144 2.74586 8.5216C3.09461 8.46177 3.45328 8.52715 3.75849 8.70618C4.06369 8.88522 4.29578 9.16639 4.41373 9.5H2.99998C2.86737 9.5 2.74019 9.55268 2.64642 9.64645C2.55266 9.74021 2.49998 9.86739 2.49998 10C2.49998 10.1326 2.55266 10.2598 2.64642 10.3536C2.74019 10.4473 2.86737 10.5 2.99998 10.5ZM14 11.5C13.6936 11.4996 13.3947 11.4054 13.1434 11.2301C12.8921 11.0547 12.7006 10.8066 12.5946 10.5192C12.4885 10.2317 12.473 9.9187 12.5502 9.62219C12.6274 9.32568 12.7935 9.05991 13.0262 8.86063L13.5331 10.1794C13.5807 10.3032 13.6755 10.4031 13.7967 10.457C13.9179 10.5109 14.0555 10.5144 14.1794 10.4669C14.3032 10.4193 14.403 10.3245 14.4569 10.2033C14.5109 10.0821 14.5144 9.94445 14.4669 9.82063L13.9594 8.5H14C14.3978 8.5 14.7793 8.65804 15.0606 8.93934C15.3419 9.22064 15.5 9.60218 15.5 10C15.5 10.3978 15.3419 10.7794 15.0606 11.0607C14.7793 11.342 14.3978 11.5 14 11.5Z" fill="#818080"/>
</svg>
