<svg width="17" height="16" viewBox="0 0 17 16" fill="none" xmlns="http://www.w3.org/2000/svg">
<path d="M3.57733 13.3332C3.27022 13.3332 3.014 13.2305 2.80867 13.0252C2.60333 12.8198 2.50044 12.5634 2.5 12.2558V9.66651H7.16667V10.6665H9.83333V9.66651H14.5V12.2565C14.5 12.5632 14.3973 12.8192 14.192 13.0245C13.9867 13.2298 13.7304 13.3327 13.4233 13.3332H3.57733ZM7.83333 9.99984V8.66651H9.16667V9.99984H7.83333ZM2.5 8.99984V5.74384C2.5 5.43673 2.60289 5.18051 2.80867 4.97517C3.01444 4.76984 3.27044 4.66695 3.57667 4.66651H6.5V3.74317C6.5 3.43651 6.60289 3.18028 6.80867 2.97451C7.01444 2.76873 7.27067 2.66606 7.57733 2.66651H9.42333C9.73 2.66651 9.98622 2.76917 10.192 2.97451C10.3978 3.17984 10.5004 3.43606 10.5 3.74317V4.66651H13.4233C13.73 4.66651 13.986 4.76939 14.1913 4.97517C14.3967 5.18095 14.4996 5.43717 14.5 5.74384V8.99984H9.83333V7.99984H7.16667V8.99984H2.5ZM7.16667 4.66651H9.83333V3.74317C9.83333 3.64095 9.79067 3.54695 9.70533 3.46117C9.62 3.37539 9.526 3.33273 9.42333 3.33317H7.57667C7.47444 3.33317 7.38045 3.37584 7.29467 3.46117C7.20889 3.54651 7.16622 3.64051 7.16667 3.74317V4.66651Z" fill="#818080"/>
</svg>
