<svg width="16" height="16" viewBox="0 0 16 16" fill="none" xmlns="http://www.w3.org/2000/svg">
<path d="M2 13.7943V12.1276C2 12.009 2.01778 11.8956 2.05333 11.7876C2.08889 11.6796 2.14289 11.5776 2.21533 11.4816L7.59 4.25097L7.04133 3.5123C7.01111 3.47763 6.99133 3.43763 6.982 3.3923C6.97267 3.34786 6.97133 3.30519 6.978 3.2643C6.98511 3.22385 7 3.18386 7.02267 3.1443C7.04578 3.10519 7.07489 3.07074 7.11 3.04097C7.18867 2.98097 7.27 2.95786 7.354 2.97163C7.438 2.98541 7.50978 3.03141 7.56933 3.10963L8 3.6983L8.43067 3.10963C8.49067 3.03141 8.56467 2.98541 8.65267 2.97163C8.74067 2.95786 8.824 2.98097 8.90267 3.04097C8.98133 3.10097 9.02756 3.17474 9.04133 3.2623C9.05511 3.34986 9.032 3.43319 8.972 3.5123L8.42333 4.25097L13.7847 11.4816C13.8567 11.5785 13.9104 11.6807 13.946 11.7883C13.9816 11.8959 13.9996 12.0092 14 12.1283V13.795C14 13.9492 13.9489 14.0774 13.8467 14.1796C13.7444 14.2819 13.616 14.333 13.4613 14.333H2.53867C2.38356 14.333 2.25511 14.2819 2.15333 14.1796C2.05156 14.0774 2.00044 13.949 2 13.7943ZM5.25267 13.6663H10.7473L8 9.8163L5.25267 13.6663Z" fill="#818080"/>
</svg>
