<svg width="17" height="16" viewBox="0 0 17 16" fill="none" xmlns="http://www.w3.org/2000/svg">
<path d="M15.2627 7.30901L13.94 6.08021L12.7667 3.73354C12.6659 3.56969 12.5246 3.43455 12.3565 3.34114C12.1884 3.24773 11.999 3.19919 11.8067 3.20021H5.19332C5.00097 3.19919 4.81161 3.24773 4.64346 3.34114C4.47532 3.43455 4.33407 3.56969 4.23332 3.73354L3.05998 6.08021L1.73732 7.30901C1.68343 7.35898 1.64046 7.41955 1.61109 7.48692C1.58172 7.55428 1.56659 7.62699 1.56665 7.70048V12.2669C1.56665 12.4083 1.62284 12.544 1.72286 12.644C1.82288 12.744 1.95854 12.8002 2.09998 12.8002H4.23332C4.44665 12.8002 4.76665 12.5869 4.76665 12.3735V11.7335H12.2333V12.2669C12.2333 12.4802 12.4467 12.8002 12.66 12.8002H14.9C15.0414 12.8002 15.1771 12.744 15.2771 12.644C15.3771 12.544 15.4333 12.4083 15.4333 12.2669V7.70048C15.4334 7.62699 15.4182 7.55428 15.3889 7.48692C15.3595 7.41955 15.3165 7.35898 15.2627 7.30901ZM5.29998 4.26688H11.7L12.7667 6.40021H4.23332L5.29998 4.26688ZM5.83332 9.17355C5.83332 9.38688 5.51332 9.60021 5.29998 9.60021H3.05998C2.84665 9.60021 2.63332 9.28021 2.63332 9.06688V7.89354C2.73998 7.57354 2.95332 7.36021 3.27332 7.46688L5.40665 7.89354C5.61998 7.89354 5.83332 8.21354 5.83332 8.42688V9.17355ZM14.3667 9.06688C14.3667 9.28021 14.1533 9.60021 13.94 9.60021H11.7C11.4867 9.60021 11.1667 9.38688 11.1667 9.17355V8.42688C11.1667 8.21354 11.38 7.89354 11.5933 7.89354L13.7267 7.46688C14.0467 7.36021 14.26 7.57354 14.3667 7.89354V9.06688Z" fill="#818080"/>
</svg>
