<svg width="19" height="28" viewBox="0 0 19 28" fill="none" xmlns="http://www.w3.org/2000/svg">
<path d="M4.16667 26.0003H14.8333M9.5 19.3337V26.0003M9.5 19.3337C13.9187 19.3337 17.5 16.683 17.5 12.667L16.1667 4.66699M9.5 19.3337C5.08133 19.3337 1.5 16.683 1.5 12.667L2.83333 4.66699" stroke="#C29225" stroke-width="2.66667" stroke-linecap="round" stroke-linejoin="round"/>
<path d="M2.83325 4.66667C2.83325 5.37391 3.53563 6.05219 4.78587 6.55229C6.03612 7.05238 7.73181 7.33333 9.49992 7.33333C11.268 7.33333 12.9637 7.05238 14.214 6.55229C15.4642 6.05219 16.1666 5.37391 16.1666 4.66667C16.1666 3.95942 15.4642 3.28115 14.214 2.78105C12.9637 2.28095 11.268 2 9.49992 2C7.73181 2 6.03612 2.28095 4.78587 2.78105C3.53563 3.28115 2.83325 3.95942 2.83325 4.66667Z" stroke="#C29225" stroke-width="2.66667" stroke-linecap="round" stroke-linejoin="round"/>
</svg>
