<svg width="16" height="16" viewBox="0 0 16 16" fill="none" xmlns="http://www.w3.org/2000/svg">
<path d="M4.87033 14.8569H11.6429C12.0329 14.8567 12.4069 14.7017 12.6826 14.4259C12.9583 14.15 13.1132 13.776 13.1132 13.386V6.86258C14.492 6.80772 15.3189 5.27686 14.5818 4.08715L14.1509 3.39229C13.988 3.12921 13.7607 2.91208 13.4903 2.76148C13.22 2.61088 12.9158 2.53179 12.6063 2.53172H11.3766V1.98829C11.3766 1.76409 11.2876 1.54907 11.1291 1.39048C10.9706 1.2319 10.7557 1.14273 10.5315 1.14258C9.97568 1.14303 9.44279 1.3641 9.04988 1.75722C8.65698 2.15034 8.4362 2.68335 8.43605 3.23915V6.20201C7.34062 6.30886 6.51376 6.82772 5.90634 7.55686C5.23548 8.36258 4.84062 9.41286 4.60519 10.4214C4.36919 11.4357 4.28519 12.4431 4.26062 13.1929C4.2516 13.4617 4.24912 13.7307 4.25319 13.9997H3.68862C3.35943 13.9996 3.03745 13.9033 2.76224 13.7226C2.48703 13.542 2.27057 13.2849 2.13947 12.9829C2.00837 12.681 1.96832 12.3473 2.02426 12.0229C2.0802 11.6985 2.22968 11.3975 2.45433 11.1569L3.24291 10.3111C3.78655 9.72816 4.08265 8.95688 4.06879 8.15986C4.05493 7.36284 3.7322 6.60232 3.16862 6.03858L2.39548 5.26429C2.35624 5.22219 2.30893 5.18841 2.25636 5.16499C2.20379 5.14157 2.14703 5.12897 2.08949 5.12795C2.03195 5.12694 1.97479 5.13752 1.92142 5.15908C1.86806 5.18063 1.81958 5.21272 1.77888 5.25341C1.73819 5.29411 1.70611 5.34259 1.68455 5.39595C1.663 5.44932 1.65241 5.50647 1.65343 5.56402C1.65444 5.62156 1.66704 5.67831 1.69046 5.73089C1.71388 5.78346 1.74766 5.83077 1.78976 5.87001L2.56405 6.64486C2.97067 7.05132 3.2035 7.59984 3.21341 8.17469C3.22333 8.74954 3.00955 9.30577 2.61719 9.72601L1.82862 10.5717C1.49052 10.9345 1.26564 11.3881 1.18155 11.8768C1.09746 12.3656 1.15782 12.8682 1.35523 13.3231C1.55263 13.7781 1.8785 14.1655 2.29288 14.4379C2.70726 14.7104 3.19214 14.856 3.68805 14.8569H4.87033ZM10.52 1.99972V2.96086C10.52 3.19801 10.7115 3.38944 10.9486 3.38944H12.6058C12.9389 3.38944 13.2475 3.56144 13.4229 3.84429L13.8532 4.53972C14.2503 5.17972 13.7903 6.00772 13.0366 6.00772H12.6846C12.571 6.00772 12.4619 6.05287 12.3816 6.13325C12.3012 6.21362 12.256 6.32263 12.256 6.43629V13.386C12.256 13.7249 11.9818 13.9997 11.6429 13.9997H11.0292V13.386C11.0293 13.056 10.9645 12.7292 10.8383 12.4243C10.7122 12.1193 10.5272 11.8422 10.2939 11.6088C10.0606 11.3754 9.78365 11.1902 9.4788 11.0638C9.17395 10.9375 8.8472 10.8724 8.51719 10.8723H7.64862C7.53496 10.8723 7.42595 10.9174 7.34557 10.9978C7.2652 11.0782 7.22005 11.1872 7.22005 11.3009C7.22005 11.4145 7.2652 11.5235 7.34557 11.6039C7.42595 11.6843 7.53496 11.7294 7.64862 11.7294H8.51719C9.43148 11.7294 10.1726 12.4712 10.1726 13.386V13.9997H5.10976C5.10549 13.7401 5.10778 13.4804 5.11662 13.2209C5.14062 12.5043 5.22005 11.5569 5.43948 10.6163C5.66005 9.67058 6.01434 8.76601 6.56462 8.10601C7.10176 7.46086 7.83148 7.03858 8.86462 7.03858C8.9209 7.03858 8.97663 7.02749 9.02863 7.00596C9.08062 6.98442 9.12787 6.95285 9.16767 6.91305C9.20746 6.87326 9.23903 6.82601 9.26057 6.77401C9.28211 6.72202 9.29319 6.66629 9.29319 6.61001V3.23858C9.29319 2.55858 9.84119 2.00601 10.52 1.99972Z" fill="#818080"/>
</svg>
