<svg width="30" height="30" viewBox="0 0 30 30" fill="none" xmlns="http://www.w3.org/2000/svg">
<path d="M27.4999 15.0002C27.4999 21.9037 21.9034 27.5001 14.9998 27.5001C11.2664 27.5001 2.49984 27.5 2.49984 27.5C2.49984 27.5 2.4999 18.1701 2.49992 15C2.49997 8.09644 8.09644 2.50003 15 2.50008C21.9036 2.50012 27.5 8.09659 27.4999 15.0002Z" fill="#FF2A64"/>
<path fill-rule="evenodd" clip-rule="evenodd" d="M7.49999 11.25C7.5 10.5596 8.05964 10 8.75 10L20 10.0001C20.6904 10.0001 21.25 10.5597 21.25 11.2501C21.25 11.9404 20.6903 12.5001 20 12.5001L8.74998 12.5C8.05963 12.5 7.49999 11.9404 7.49999 11.25Z" fill="white"/>
<path fill-rule="evenodd" clip-rule="evenodd" d="M6.99999 16.25C7 15.5596 7.55964 15 8.25 15L19.5 15.0001C20.1904 15.0001 20.75 15.5597 20.75 16.2501C20.75 16.9404 20.1903 17.5001 19.5 17.5001L8.24998 17.5C7.55963 17.5 6.99999 16.9404 6.99999 16.25Z" fill="white"/>
<path fill-rule="evenodd" clip-rule="evenodd" d="M7.49999 21.25C7.5 20.5596 8.05964 20 8.75 20L15 20C15.6904 20.0001 16.25 20.5597 16.25 21.2501C16.25 21.9404 15.6903 22.5001 15 22.5L8.74998 22.5C8.05963 22.5 7.49999 21.9404 7.49999 21.25Z" fill="white"/>
</svg>
