<svg width="42" height="37" viewBox="0 0 42 37" fill="none" xmlns="http://www.w3.org/2000/svg">
<path d="M16.5875 25.9167C23.6271 25.9167 29.3333 20.7875 29.3333 14.4583C29.3333 8.12917 23.6271 3 16.5875 3C9.55 3 3.84375 8.12917 3.84375 14.4583C3.84375 16.1625 4.25625 17.7792 4.99792 19.2333L2.25 25.9167L10.2167 24.3833C12.1857 25.4004 14.3714 25.9264 16.5875 25.9167Z" stroke="#C29225" stroke-width="4.16667" stroke-linejoin="round"/>
<path d="M18.5088 32.4253C20.6093 33.6311 22.991 34.2607 25.413 34.2503C27.6298 34.2604 29.8162 33.7344 31.7859 32.717L39.7505 34.2503L37.0005 27.567C37.7611 26.0903 38.1575 24.4531 38.1567 22.792C38.1567 20.1982 37.1984 17.8066 35.5838 15.8857C34.0234 14.0316 31.8505 12.617 29.3338 11.8857" stroke="#C29225" stroke-width="4.16667" stroke-linecap="round" stroke-linejoin="round"/>
<path d="M22.041 14.4583C22.041 15.0336 22.5074 15.5 23.0827 15.5C23.658 15.5 24.1243 15.0336 24.1243 14.4583C24.1243 13.883 23.658 13.4167 23.0827 13.4167C22.5074 13.4167 22.041 13.883 22.041 14.4583Z" fill="#1E1E1E" stroke="#C29225" stroke-width="2.08333"/>
<path d="M15.791 14.4583C15.791 15.0336 16.2574 15.5 16.8327 15.5C17.408 15.5 17.8743 15.0336 17.8743 14.4583C17.8743 13.883 17.408 13.4167 16.8327 13.4167C16.2574 13.4167 15.791 13.883 15.791 14.4583Z" fill="#1E1E1E" stroke="#C29225" stroke-width="2.08333"/>
<path d="M9.54102 14.4583C9.54102 15.0336 10.0074 15.5 10.5827 15.5C11.158 15.5 11.6243 15.0336 11.6243 14.4583C11.6243 13.883 11.158 13.4167 10.5827 13.4167C10.0074 13.4167 9.54102 13.883 9.54102 14.4583Z" fill="#1E1E1E" stroke="#C29225" stroke-width="2.08333"/>
</svg>
