<svg width="16" height="16" viewBox="0 0 16 16" fill="none" xmlns="http://www.w3.org/2000/svg">
<path d="M14 0.5C14 0.635417 13.9505 0.752604 13.8516 0.851562L8 6.71094V15H10.5C10.6354 15 10.7526 15.0495 10.8516 15.1484C10.9505 15.2474 11 15.3646 11 15.5C11 15.6354 10.9505 15.7526 10.8516 15.8516C10.7526 15.9505 10.6354 16 10.5 16H4.5C4.36458 16 4.2474 15.9505 4.14844 15.8516C4.04948 15.7526 4 15.6354 4 15.5C4 15.3646 4.04948 15.2474 4.14844 15.1484C4.2474 15.0495 4.36458 15 4.5 15H7V6.71094L1.14844 0.851562C1.04948 0.752604 1 0.635417 1 0.5C1 0.364583 1.04948 0.247396 1.14844 0.148438C1.2474 0.0494792 1.36458 0 1.5 0H13.5C13.6354 0 13.7526 0.0494792 13.8516 0.148438C13.9505 0.247396 14 0.364583 14 0.5ZM2.70312 1L7.5 5.79688L12.2891 1H2.70312Z" fill="#818080"/>
</svg>
