<svg width="16" height="16" viewBox="0 0 16 16" fill="none" xmlns="http://www.w3.org/2000/svg">
<path d="M1.33331 8.00003H14.6666M13.3333 8.00003V13.3334C13.3333 13.687 13.1928 14.0261 12.9428 14.2762C12.6927 14.5262 12.3536 14.6667 12 14.6667H3.99998C3.64636 14.6667 3.30722 14.5262 3.05717 14.2762C2.80712 14.0261 2.66665 13.687 2.66665 13.3334V8.00003M2.66665 5.33336L13.3333 2.6667M5.90665 4.52003L5.60665 3.31336C5.56366 3.14352 5.55458 2.96687 5.5799 2.79351C5.60523 2.62015 5.66447 2.45348 5.75425 2.30303C5.84402 2.15258 5.96257 2.02129 6.10311 1.91668C6.24365 1.81207 6.40343 1.73619 6.57331 1.69336L7.86665 1.37336C8.03694 1.33049 8.21402 1.32167 8.38773 1.34742C8.56144 1.37318 8.72835 1.43299 8.87888 1.52343C9.02941 1.61387 9.16059 1.73316 9.26489 1.87444C9.36918 2.01572 9.44455 2.17621 9.48665 2.3467L9.78665 3.5467" stroke="#818080" stroke-width="1.33333" stroke-linecap="round" stroke-linejoin="round"/>
</svg>
