<svg width="16" height="16" viewBox="0 0 16 16" fill="none" xmlns="http://www.w3.org/2000/svg">
<path d="M7.33335 14.0002H4.66669V12.6669H7.33335V14.0002ZM10.3334 12.6669H11.3334V14.0002H8.66669V12.6669H8.80002L7.86669 8.60024L6.20002 9.00025C6.13335 9.33358 6.00002 9.60025 5.86669 9.86691C5.26669 10.8669 4.00002 11.1336 3.00002 10.5336C2.00002 9.93358 1.73335 8.66691 2.33335 7.66691C2.93335 6.66691 4.20002 6.40024 5.20002 7.00025C5.46669 7.13358 5.66669 7.40024 5.80002 7.60024L7.46669 7.20024L7.06669 5.53358C6.80002 5.46691 6.53335 5.33358 6.26669 5.20024C5.33335 4.60024 5.00002 3.33358 5.60002 2.33358C6.20002 1.33358 7.46669 1.06691 8.46669 1.66691C9.46669 2.26691 9.73335 3.53358 9.13335 4.53358C9.00002 4.80025 8.73335 5.00024 8.53335 5.13358L10.3334 12.6669ZM4.66669 7.86691C4.20002 7.53358 3.53335 7.73358 3.20002 8.20024C2.86669 8.66691 3.06669 9.33358 3.53335 9.60024C4.00002 9.93358 4.66669 9.80024 5.00002 9.26691C5.26669 8.80024 5.13335 8.13358 4.66669 7.86691ZM8.26669 4.00025C8.60002 3.53358 8.40002 2.86691 7.93335 2.53358C7.46669 2.20024 6.80002 2.40025 6.46669 2.86691C6.20002 3.33358 6.33335 4.00024 6.86669 4.33358C7.33335 4.60024 8.00002 4.46691 8.26669 4.00025ZM8.53335 7.53358C8.40002 7.46691 8.26669 7.46691 8.20002 7.60024C8.13335 7.73358 8.13335 7.86691 8.26669 7.93358C8.40002 8.00024 8.53335 8.00025 8.60002 7.86691C8.73335 7.73358 8.66669 7.60024 8.53335 7.53358ZM14 5.66691L9.66669 6.66691L10 8.13358L15 6.93358L15.3334 6.46691L14 5.66691ZM15.3334 12.6669H12.6667V14.0002H15.3334V12.6669ZM3.33335 12.6669H0.666687V14.0002H3.33335V12.6669Z" fill="#818080"/>
</svg>
