<svg width="21" height="22" viewBox="0 0 21 22" fill="none" xmlns="http://www.w3.org/2000/svg">
<path d="M13.5 4C14.6046 4 15.5 3.10457 15.5 2C15.5 0.89543 14.6046 0 13.5 0C12.3954 0 11.5 0.89543 11.5 2C11.5 3.10457 12.3954 4 13.5 4Z" fill="#C29225"/>
<path d="M16.5 14C14.294 14 12.5 15.794 12.5 18C12.5 20.206 14.294 22 16.5 22C18.706 22 20.5 20.206 20.5 18C20.5 15.794 18.706 14 16.5 14ZM16.5 20C15.397 20 14.5 19.103 14.5 18C14.5 16.897 15.397 16 16.5 16C17.603 16 18.5 16.897 18.5 18C18.5 19.103 17.603 20 16.5 20ZM4.5 22C6.706 22 8.5 20.206 8.5 18C8.5 15.794 6.706 14 4.5 14C2.294 14 0.5 15.794 0.5 18C0.5 20.206 2.294 22 4.5 22ZM4.5 16C5.603 16 6.5 16.897 6.5 18C6.5 19.103 5.603 20 4.5 20C3.397 20 2.5 19.103 2.5 18C2.5 16.897 3.397 16 4.5 16Z" fill="#C29225"/>
<path d="M9.086 13.4138V17.9998H11.086V13.4138C11.086 12.8878 10.872 12.3718 10.5 11.9998L8.5 9.99979L11.086 7.41379L13.086 9.41379C13.458 9.78579 13.974 9.99979 14.5 9.99979H18.086V7.99979H14.5L10.793 4.29279C10.6055 4.10532 10.3512 4 10.086 4C9.82084 4 9.56653 4.10532 9.379 4.29279L6.086 7.58579C5.708 7.96379 5.5 8.46579 5.5 8.99979C5.5 9.53379 5.708 10.0358 6.086 10.4138L9.086 13.4138Z" fill="#C29225"/>
</svg>
