<svg width="17" height="16" viewBox="0 0 17 16" fill="none" xmlns="http://www.w3.org/2000/svg">
<path d="M7.83335 10.2759V13.3332H9.16669V10.2759C9.16669 9.92519 9.02402 9.58119 8.77602 9.33319L7.44269 7.99986L9.16669 6.27586L10.5 7.60919C10.748 7.85719 11.092 7.99986 11.4427 7.99986H13.8334V6.66652H11.4427L8.97135 4.19519C8.84634 4.07021 8.6768 4 8.50002 4C8.32325 4 8.15371 4.07021 8.02869 4.19519L5.83335 6.39052C5.58135 6.64252 5.44269 6.97719 5.44269 7.33319C5.44269 7.68919 5.58135 8.02386 5.83335 8.27586L7.83335 10.2759Z" fill="#818080"/>
<path d="M11.1666 4.66667C11.903 4.66667 12.5 4.06971 12.5 3.33333C12.5 2.59695 11.903 2 11.1666 2C10.4303 2 9.83331 2.59695 9.83331 3.33333C9.83331 4.06971 10.4303 4.66667 11.1666 4.66667Z" fill="#818080"/>
<path d="M12.5 9.3335C11.0293 9.3335 9.83331 10.5295 9.83331 12.0002C9.83331 13.4708 11.0293 14.6668 12.5 14.6668C13.9706 14.6668 15.1666 13.4708 15.1666 12.0002C15.1666 10.5295 13.9706 9.3335 12.5 9.3335ZM12.5 13.3335C11.7646 13.3335 11.1666 12.7355 11.1666 12.0002C11.1666 11.2648 11.7646 10.6668 12.5 10.6668C13.2353 10.6668 13.8333 11.2648 13.8333 12.0002C13.8333 12.7355 13.2353 13.3335 12.5 13.3335ZM4.49998 14.6668C5.97065 14.6668 7.16665 13.4708 7.16665 12.0002C7.16665 10.5295 5.97065 9.3335 4.49998 9.3335C3.02931 9.3335 1.83331 10.5295 1.83331 12.0002C1.83331 13.4708 3.02931 14.6668 4.49998 14.6668ZM4.49998 10.6668C5.23531 10.6668 5.83331 11.2648 5.83331 12.0002C5.83331 12.7355 5.23531 13.3335 4.49998 13.3335C3.76465 13.3335 3.16665 12.7355 3.16665 12.0002C3.16665 11.2648 3.76465 10.6668 4.49998 10.6668Z" fill="#818080"/>
</svg>
