<svg width="16" height="16" viewBox="0 0 16 16" fill="none" xmlns="http://www.w3.org/2000/svg">
<path d="M9.33333 2.33301C9.33333 2.88634 8.88667 3.33301 8.33333 3.33301C7.78 3.33301 7.33333 2.88634 7.33333 2.33301C7.33333 1.77967 7.78 1.33301 8.33333 1.33301C8.88667 1.33301 9.33333 1.77967 9.33333 2.33301ZM5.66667 3.33301C5.11333 3.33301 4.66667 3.77967 4.66667 4.33301C4.66667 4.88634 5.11333 5.33301 5.66667 5.33301C6.22 5.33301 6.66667 4.88634 6.66667 4.33301C6.66667 3.77967 6.22 3.33301 5.66667 3.33301ZM9.33333 7.99967L8.81333 6.49967H10.7867L12.2267 5.77967C12.4733 5.66634 12.5733 5.35967 12.4467 5.11301C12.4185 5.05374 12.3787 5.00073 12.3296 4.95709C12.2806 4.91346 12.2233 4.88009 12.1612 4.85897C12.099 4.83784 12.0333 4.82937 11.9678 4.83408C11.9023 4.83878 11.8385 4.85655 11.78 4.88634L11.2333 5.15967L10.9067 4.59967C10.7133 4.16634 10.24 3.91967 9.77333 4.02634L8.12667 4.37967C7.66667 4.47967 7.33333 4.89967 7.33333 5.37967V5.84634L5.71333 6.92634H5.72C5.66667 6.97301 5.59333 7.03301 5.55333 7.11301L4.96 8.29301L3.77333 8.88634C3.52667 8.99967 3.42667 9.31301 3.55333 9.55968C3.61367 9.67793 3.71839 9.76746 3.84458 9.80869C3.97077 9.84992 4.10815 9.83949 4.22667 9.77967L5.70667 9.03967L6.4 7.66634L7.33333 8.66634C6.66667 10.6663 2 13.333 2 13.333C2 13.333 4.66667 14.6663 8 14.6663C11.3333 14.6663 14 13.333 14 13.333C14 13.333 10.6667 10.6663 9.33333 7.99967ZM11.2333 7.39301L11.02 7.49967H10.22L10.26 7.60634C10.6067 8.29301 11.1133 8.99967 11.6667 9.62634L11.3133 7.35301L11.2333 7.39301Z" fill="#818080"/>
</svg>
