<svg width="16" height="16" viewBox="0 0 16 16" fill="none" xmlns="http://www.w3.org/2000/svg">
<path d="M4.03423 1.14258C3.47195 1.14258 2.99538 1.56429 2.93709 2.12829C2.85252 2.93287 2.71423 4.38944 2.71423 5.28544C2.71423 6.13115 3.10166 6.88658 3.7068 7.38372C3.90566 7.54715 3.99995 7.72658 3.99995 7.87744V8.25572L3.99938 8.28258C3.97595 8.62487 3.71423 12.4466 3.71423 13.1426C3.71423 13.3677 3.75857 13.5906 3.84473 13.7986C3.93088 14.0066 4.05715 14.1956 4.21634 14.3548C4.37552 14.5139 4.5645 14.6402 4.77249 14.7264C4.98048 14.8125 5.2034 14.8569 5.42852 14.8569C5.65364 14.8569 5.87656 14.8125 6.08455 14.7264C6.29253 14.6402 6.48152 14.5139 6.6407 14.3548C6.79989 14.1956 6.92616 14.0066 7.01231 13.7986C7.09846 13.5906 7.1428 13.3677 7.1428 13.1426C7.1428 12.4466 6.88166 8.62487 6.85766 8.28258L6.85709 8.25572V7.87744C6.85709 7.72601 6.95138 7.54715 7.15023 7.38372C7.46084 7.12939 7.71102 6.80919 7.88268 6.4463C8.05435 6.0834 8.1432 5.68689 8.1428 5.28544C8.1428 4.38944 8.00452 2.93287 7.91995 2.12829C7.89139 1.85738 7.76343 1.60667 7.56079 1.42461C7.35815 1.24255 7.09522 1.14207 6.8228 1.14258C6.56166 1.14258 6.32109 1.23287 6.13138 1.3843C5.93057 1.22766 5.68319 1.14259 5.42852 1.14258C5.17385 1.14259 4.92647 1.22766 4.72566 1.3843C4.52945 1.22731 4.28552 1.14203 4.03423 1.14258ZM5.1428 2.28544C5.1428 2.20966 5.17291 2.13699 5.22649 2.08341C5.28007 2.02983 5.35274 1.99972 5.42852 1.99972C5.5043 1.99972 5.57697 2.02983 5.63055 2.08341C5.68413 2.13699 5.71423 2.20966 5.71423 2.28544V5.28544C5.71423 5.3991 5.75939 5.50811 5.83976 5.58848C5.92013 5.66886 6.02914 5.71401 6.1428 5.71401C6.25647 5.71401 6.36548 5.66886 6.44585 5.58848C6.52622 5.50811 6.57138 5.3991 6.57138 5.28544V2.25115C6.57138 2.18447 6.59787 2.12052 6.64502 2.07337C6.69217 2.02621 6.75612 1.99972 6.8228 1.99972C6.95138 1.99972 7.05538 2.09515 7.06795 2.21744C7.15252 3.02887 7.28566 4.44144 7.28566 5.28544C7.28607 5.56021 7.22531 5.83164 7.10779 6.08001C6.99028 6.32839 6.81895 6.5475 6.60623 6.72144C6.2988 6.97401 5.99995 7.37287 5.99995 7.87744V8.25572C5.99995 8.28429 6.00052 8.31058 6.0028 8.34144C6.02795 8.71001 6.28566 12.4849 6.28566 13.1426C6.28566 13.3699 6.19536 13.5879 6.03461 13.7487C5.87387 13.9094 5.65585 13.9997 5.42852 13.9997C5.20119 13.9997 4.98317 13.9094 4.82243 13.7487C4.66168 13.5879 4.57138 13.3699 4.57138 13.1426C4.57138 12.4854 4.82852 8.71001 4.85423 8.34144C4.85652 8.31058 4.85709 8.28429 4.85709 8.25572V7.87744C4.85709 7.37229 4.55823 6.97401 4.2508 6.72144C4.03809 6.5475 3.86676 6.32839 3.74924 6.08001C3.63173 5.83164 3.57097 5.56021 3.57138 5.28544C3.57138 4.44144 3.70452 3.02944 3.78909 2.21744C3.79562 2.15718 3.82433 2.10152 3.86965 2.06127C3.91496 2.02103 3.97363 1.99909 4.03423 1.99972C4.10092 1.99972 4.16487 2.02621 4.21202 2.07337C4.25917 2.12052 4.28566 2.18447 4.28566 2.25115V5.28544C4.28566 5.3991 4.33081 5.50811 4.41119 5.58848C4.49156 5.66886 4.60057 5.71401 4.71423 5.71401C4.8279 5.71401 4.93691 5.66886 5.01728 5.58848C5.09765 5.50811 5.1428 5.3991 5.1428 5.28544V2.28544ZM12.8571 2.00315V7.57115C12.8571 7.77115 12.9108 8.71229 12.9702 9.74829L12.9737 9.8083C13.0537 11.2003 13.1428 12.7597 13.1428 13.1426C13.1428 13.3699 13.0525 13.5879 12.8918 13.7487C12.731 13.9094 12.513 13.9997 12.2857 13.9997C12.0583 13.9997 11.8403 13.9094 11.6796 13.7487C11.5188 13.5879 11.4285 13.3699 11.4285 13.1426C11.4285 12.8026 11.4988 11.4266 11.5708 10.114C11.6129 9.34479 11.6564 8.57565 11.7011 7.80658L11.7137 7.59629L11.7142 7.57115C11.7142 7.45749 11.6691 7.34848 11.5887 7.26811C11.5083 7.18773 11.3993 7.14258 11.2857 7.14258H10.1428C10.1049 7.14258 10.0686 7.12753 10.0418 7.10074C10.015 7.07395 9.99995 7.03761 9.99995 6.99972V4.99972C9.99995 4.22881 10.2967 3.48749 10.8287 2.92954C11.3607 2.3716 12.0871 2.03986 12.8571 2.00315ZM10.8314 7.99972L10.8131 8.31744C10.7862 8.78429 10.7502 9.41458 10.7148 10.0672C10.6439 11.3626 10.5714 12.7723 10.5714 13.1426C10.5714 13.3677 10.6157 13.5906 10.7019 13.7986C10.788 14.0066 10.9143 14.1956 11.0735 14.3548C11.2327 14.5139 11.4216 14.6402 11.6296 14.7264C11.8376 14.8125 12.0605 14.8569 12.2857 14.8569C12.5108 14.8569 12.7337 14.8125 12.9417 14.7264C13.1497 14.6402 13.3387 14.5139 13.4978 14.3548C13.657 14.1956 13.7833 14.0066 13.8695 13.7986C13.9556 13.5906 13.9999 13.3677 13.9999 13.1426C13.9999 12.7306 13.9097 11.1574 13.8319 9.79687L13.8297 9.75915C13.7674 8.67401 13.7142 7.74258 13.7142 7.57115V1.57115C13.7142 1.45749 13.6691 1.34848 13.5887 1.26811C13.5083 1.18773 13.3993 1.14258 13.2857 1.14258H12.9999C11.977 1.14258 10.9959 1.54896 10.2725 2.27231C9.54918 2.99567 9.1428 3.97675 9.1428 4.99972V6.99972C9.1428 7.55172 9.5908 7.99972 10.1428 7.99972H10.8314Z" fill="#818080"/>
</svg>
