<svg width="16" height="16" viewBox="0 0 16 16" fill="none" xmlns="http://www.w3.org/2000/svg">
<path d="M8.83328 1.33301H10.9566C11.2959 1.33301 11.6279 1.42701 11.9166 1.60501L13.7619 2.74034C13.8347 2.7851 13.8948 2.84776 13.9364 2.92234C13.9781 2.99691 14 3.08092 13.9999 3.16634V4.16634C13.9999 4.56417 13.8419 4.9457 13.5606 5.227C13.2793 5.50831 12.8978 5.66634 12.4999 5.66634H12.3333V11.6977C12.9979 11.787 13.4633 12.0677 13.7299 12.5477C13.8786 12.8163 13.9419 13.1077 13.9713 13.3763C13.9999 13.637 13.9999 13.9097 13.9999 14.1497V14.1663C13.9999 14.299 13.9473 14.4261 13.8535 14.5199C13.7597 14.6137 13.6326 14.6663 13.4999 14.6663H3.88861C3.32922 14.6668 2.78513 14.4837 2.33983 14.1452C1.89453 13.8066 1.57262 13.3313 1.42351 12.7922C1.2744 12.253 1.30632 11.6798 1.51438 11.1606C1.72244 10.6413 2.09514 10.2047 2.57528 9.91768C2.68906 9.84943 2.82528 9.82917 2.954 9.86136C3.08271 9.89356 3.19336 9.97556 3.26161 10.0893C3.32986 10.2031 3.35012 10.3393 3.31792 10.4681C3.28573 10.5968 3.20372 10.7074 3.08994 10.7757C2.79759 10.9503 2.57061 11.216 2.44385 11.532C2.31709 11.8481 2.29756 12.197 2.38824 12.5252C2.47893 12.8534 2.67482 13.1428 2.94586 13.349C3.21689 13.5551 3.54809 13.6666 3.88861 13.6663C4.10128 13.6663 4.23328 13.611 4.32128 13.549C4.41394 13.4837 4.48661 13.3903 4.54194 13.2777C4.61223 13.1336 4.65454 12.9775 4.66661 12.8177V12.7943L4.66928 12.699C4.68868 12.2092 4.74664 11.7217 4.84261 11.241C5.01594 10.3803 5.37394 9.26234 6.14394 8.48167C6.70928 7.90834 7.01661 7.06901 7.17528 6.23901C7.33328 5.41967 7.33328 4.67167 7.33328 4.33301V2.83301C7.33328 2.43518 7.49131 2.05365 7.77262 1.77235C8.05392 1.49104 8.43545 1.33301 8.83328 1.33301ZM5.66661 12.8503V12.8543L5.66594 12.861L5.66461 12.8797L5.65994 12.9397C5.63457 13.1909 5.56861 13.4363 5.46461 13.6663H10.2979C10.2379 13.337 10.0713 12.9957 9.62261 12.7863L9.60061 12.7757C9.50462 12.7363 9.40368 12.7103 9.30061 12.6983C9.14589 12.6752 8.98972 12.6629 8.83328 12.6617L8.64461 12.6643L8.55061 12.6657H8.51061C8.44371 12.669 8.37682 12.6589 8.31391 12.6359C8.251 12.6129 8.19336 12.5775 8.1444 12.5318C8.09543 12.4861 8.05615 12.431 8.02889 12.3698C8.00162 12.3086 7.98693 12.2426 7.98568 12.1756C7.98443 12.1087 7.99665 12.0421 8.02161 11.98C8.04657 11.9178 8.08376 11.8613 8.13098 11.8138C8.17821 11.7663 8.23449 11.7288 8.2965 11.7034C8.3585 11.6781 8.42497 11.6655 8.49194 11.6663L8.53328 11.6657L8.62861 11.6643L8.83328 11.6617C8.98994 11.6617 9.16328 11.6723 9.33328 11.693V10.1683C9.33328 10.0357 9.38596 9.90856 9.47972 9.81479C9.57349 9.72102 9.70067 9.66834 9.83328 9.66834C9.96589 9.66834 10.0931 9.72102 10.1868 9.81479C10.2806 9.90856 10.3333 10.0357 10.3333 10.1683V12.0377C11.0433 12.4923 11.2493 13.173 11.3086 13.6663H12.9913C12.9882 13.6062 12.9836 13.5462 12.9773 13.4863C12.9553 13.2857 12.9146 13.1397 12.8553 13.033C12.7686 12.877 12.5666 12.6663 11.8333 12.6663C11.7007 12.6663 11.5735 12.6137 11.4797 12.5199C11.386 12.4261 11.3333 12.2989 11.3333 12.1663V5.16634C11.3333 5.03373 11.386 4.90656 11.4797 4.81279C11.5735 4.71902 11.7007 4.66634 11.8333 4.66634H12.4999C12.6326 4.66634 12.7597 4.61366 12.8535 4.51989C12.9473 4.42613 12.9999 4.29895 12.9999 4.16634V3.44634L11.3926 2.45634C11.2615 2.37575 11.1105 2.33306 10.9566 2.33301H8.83261C8.70012 2.33318 8.57311 2.38594 8.47949 2.47969C8.38586 2.57344 8.33328 2.70052 8.33328 2.83301V4.32101C8.337 4.45579 8.38503 4.5856 8.46994 4.69034C8.53728 4.76634 8.64328 4.83301 8.83328 4.83301C9.02461 4.83301 9.13528 4.76567 9.20394 4.68701C9.29205 4.57755 9.33794 4.44011 9.33328 4.29967C9.33328 4.16707 9.38596 4.03989 9.47972 3.94612C9.57349 3.85235 9.70067 3.79967 9.83328 3.79967C9.96589 3.79967 10.0931 3.85235 10.1868 3.94612C10.2806 4.03989 10.3333 4.16707 10.3333 4.29967C10.3333 4.66901 10.2153 5.04967 9.95594 5.34567C9.68928 5.65034 9.29994 5.83301 8.83328 5.83301C8.62439 5.83212 8.43439 5.7979 8.26328 5.73034C8.23695 5.96381 8.20181 6.19619 8.15794 6.42701C7.98328 7.33767 7.62394 8.40567 6.85594 9.18434C6.29261 9.75501 5.98394 10.6377 5.82328 11.4377C5.73457 11.8906 5.68219 12.3498 5.66661 12.811V12.8503Z" fill="#818080"/>
</svg>
