<svg width="40" height="40" viewBox="0 0 40 40" fill="none" xmlns="http://www.w3.org/2000/svg">
<path d="M27.9368 5.5C28.124 5.50012 28.3088 5.5423 28.4776 5.62344C28.6464 5.70457 28.7947 5.82258 28.9118 5.96875L29.0055 6.10125L34.3181 14.8513C34.4402 15.0521 34.5032 15.2833 34.4999 15.5184C34.4966 15.7534 34.427 15.9827 34.2993 16.1801L34.203 16.3076L20.453 32.5576C20.3439 32.6864 20.2099 32.7918 20.0591 32.8674C19.9082 32.943 19.7436 32.9872 19.5752 32.9975C19.4068 33.0078 19.238 32.9839 19.0791 32.9272C18.9202 32.8705 18.7744 32.7822 18.6505 32.6676L18.5455 32.5576L4.79539 16.3076C4.64372 16.1281 4.54568 15.9096 4.51252 15.677C4.47935 15.4444 4.51241 15.2072 4.60789 14.9926L4.68039 14.8513L9.99292 6.10125C10.09 5.9411 10.2219 5.80482 10.3788 5.70248C10.5356 5.60014 10.7135 5.53436 10.8992 5.51L11.0617 5.5H27.9368ZM23.893 16.7501H15.1042L17.3011 22.1701L19.498 27.5901L23.893 16.7501ZM30.5543 16.7501H26.5905L22.9442 25.7439L30.5543 16.7501ZM12.4067 16.7501H8.44291L16.0517 25.7414L12.4067 16.7501ZM14.0917 8.00001H11.7629L7.96791 14.25H12.3054L14.0917 8.00001ZM22.3067 8.00001H16.6905L14.9042 14.25H24.093L22.3067 8.00001ZM27.2343 8.00001H24.9055L26.6918 14.25H31.0293L27.2343 8.00001Z" fill="#FFC107"/>
</svg>
