<svg width="26" height="25" viewBox="0 0 26 25" fill="none" xmlns="http://www.w3.org/2000/svg">
<path d="M9.63517 15.0665C9.63517 16.3708 10.6362 17.4223 11.8798 17.4223H14.4177C15.4996 17.4223 16.3793 16.5022 16.3793 15.3698C16.3793 14.1362 15.8434 13.7015 15.0446 13.4183L10.9698 12.0028C10.1711 11.7197 9.63517 11.2849 9.63517 10.0513C9.63517 8.9189 10.5148 7.99878 11.5967 7.99878H14.1346C15.3783 7.99878 16.3793 9.05034 16.3793 10.3547M13.0003 6.64405V18.7774M23.1114 12.7107C23.1114 18.2949 18.5845 22.8218 13.0003 22.8218C7.41606 22.8218 2.88916 18.2949 2.88916 12.7107C2.88916 7.12651 7.41606 2.59961 13.0003 2.59961C18.5845 2.59961 23.1114 7.12651 23.1114 12.7107Z" stroke="#C29225" stroke-width="1.51667" stroke-linecap="round" stroke-linejoin="round"/>
</svg>
