<svg width="34" height="34" viewBox="0 0 34 34" fill="none" xmlns="http://www.w3.org/2000/svg">
<path d="M25.5 4.25C25.7331 4.24997 25.9627 4.30749 26.1683 4.41746C26.3739 4.52743 26.5492 4.68645 26.6786 4.88042L26.7665 5.03342L31.0165 13.5334C31.1294 13.7588 31.1801 14.0102 31.1634 14.2617C31.1467 14.5133 31.0632 14.7558 30.9215 14.9642L30.8025 15.1144L18.0908 29.2428C17.9403 29.4246 17.7464 29.5655 17.527 29.6524C17.3076 29.7393 17.0698 29.7695 16.8356 29.7401L16.6755 29.7132C16.3815 29.647 16.1169 29.4868 15.9219 29.257L3.19738 15.1158C3.02872 14.9287 2.91302 14.6999 2.86222 14.4531C2.81142 14.2063 2.82736 13.9505 2.90838 13.7119L2.98346 13.5348L7.23346 5.03483C7.33772 4.82632 7.49183 4.64676 7.68212 4.51208C7.8724 4.3774 8.09298 4.29176 8.3243 4.26275L8.49996 4.25H25.5ZM20.6493 15.5833H13.3492L17 24.5678L20.6493 15.5833ZM26.5667 15.5833H23.7079L21.3548 21.3747L26.5667 15.5833ZM10.2906 15.5833H7.4318L12.6423 21.3732L10.2906 15.5833ZM12.2145 7.08333H9.37546L6.54213 12.75H10.3728L12.2145 7.08333ZM18.8034 7.08333H15.1951L13.3549 12.75H20.6436L18.8034 7.08333ZM24.623 7.08333H21.784L23.6257 12.75H27.4564L24.623 7.08333Z" fill="white"/>
</svg>
