<svg width="31" height="30" viewBox="0 0 31 30" fill="none" xmlns="http://www.w3.org/2000/svg">
<rect x="1.5" y="1" width="28" height="28" rx="14" fill="#FF2A64"/>
<rect x="1.5" y="1" width="28" height="28" rx="14" stroke="white" stroke-width="2"/>
<path d="M10.3717 19.6144C10.4112 19.6144 10.4506 19.6104 10.49 19.6045L13.8052 19.0231C13.8446 19.0152 13.8821 18.9974 13.9097 18.9679L22.2647 10.6128C22.283 10.5946 22.2975 10.5729 22.3074 10.5491C22.3173 10.5252 22.3223 10.4997 22.3223 10.4739C22.3223 10.4481 22.3173 10.4225 22.3074 10.3987C22.2975 10.3748 22.283 10.3532 22.2647 10.3349L18.9889 7.05716C18.9515 7.01971 18.9022 7 18.849 7C18.7958 7 18.7465 7.01971 18.709 7.05716L10.354 15.4122C10.3244 15.4418 10.3067 15.4772 10.2988 15.5167L9.71737 18.8319C9.69819 18.9375 9.70504 19.0461 9.73733 19.1485C9.76961 19.2508 9.82635 19.3438 9.90264 19.4192C10.0327 19.5454 10.1963 19.6144 10.3717 19.6144ZM11.7002 16.1769L18.849 9.03012L20.2937 10.4749L13.1449 17.6217L11.3927 17.9311L11.7002 16.1769ZM22.6372 21.27H8.13072C7.78185 21.27 7.5 21.5518 7.5 21.9007V22.6103C7.5 22.697 7.57096 22.7679 7.65768 22.7679H23.1103C23.197 22.7679 23.2679 22.697 23.2679 22.6103V21.9007C23.2679 21.5518 22.9861 21.27 22.6372 21.27Z" fill="white"/>
</svg>
