<svg width="17" height="18" viewBox="0 0 17 18" fill="none" xmlns="http://www.w3.org/2000/svg">
<path d="M11.4183 0.400099C11.5765 0.439634 11.7126 0.540409 11.7967 0.680268C11.8807 0.820127 11.9057 0.987623 11.8662 1.14593L11.5586 2.37668C11.5406 2.45669 11.5067 2.53229 11.4591 2.59905C11.4115 2.6658 11.351 2.72236 11.2811 2.7654C11.2113 2.80844 11.1336 2.83709 11.0526 2.84967C10.9715 2.86225 10.8888 2.8585 10.8092 2.83865C10.7297 2.8188 10.6549 2.78324 10.5892 2.73407C10.5236 2.6849 10.4684 2.6231 10.427 2.55231C10.3856 2.48153 10.3588 2.40318 10.3481 2.32187C10.3374 2.24056 10.343 2.15793 10.3647 2.07884L10.6724 0.848091C10.712 0.689803 10.8127 0.553694 10.9526 0.469686C11.0924 0.385679 11.2599 0.360649 11.4183 0.400099ZM15.0896 1.7933C15.2049 1.9087 15.2697 2.0652 15.2697 2.22837C15.2697 2.39155 15.2049 2.54804 15.0896 2.66344L13.8588 3.89419C13.7434 4.00974 13.5869 4.07472 13.4236 4.07483C13.2603 4.07495 13.1036 4.01019 12.9881 3.8948C12.8725 3.77941 12.8075 3.62285 12.8074 3.45955C12.8073 3.29626 12.8721 3.1396 12.9875 3.02405L14.2182 1.7933C14.2754 1.736 14.3433 1.69053 14.418 1.65951C14.4928 1.62848 14.5729 1.61251 14.6539 1.61251C14.7348 1.61251 14.815 1.62848 14.8897 1.65951C14.9645 1.69053 15.0324 1.736 15.0896 1.7933ZM5.77282 15.1912C6.08168 15.7054 6.5677 16.0892 7.13954 16.2703C7.71138 16.4515 8.3297 16.4176 8.87832 16.175C9.42694 15.9325 9.8681 15.4979 10.1189 14.953C10.3697 14.4081 10.4129 13.7904 10.2404 13.2159L5.77282 15.1912ZM4.64053 15.6909L3.41225 16.2349C3.09445 16.3753 2.74164 16.4163 2.4001 16.3526C2.05857 16.2889 1.74427 16.1235 1.49844 15.878L1.00614 15.3869C0.760311 15.1431 0.594231 14.8305 0.529846 14.4903C0.46546 14.1502 0.505798 13.7985 0.64553 13.4817L5.40975 2.64129C5.52263 2.3853 5.69616 2.16064 5.91532 1.98674C6.13448 1.81284 6.3927 1.69493 6.66765 1.64319C6.9426 1.59144 7.22601 1.60743 7.49339 1.68977C7.76078 1.77211 8.0041 1.91831 8.20231 2.11576L14.7646 8.6584C14.9623 8.85558 15.109 9.09801 15.1918 9.36465C15.2746 9.6313 15.2912 9.91413 15.24 10.1886C15.1889 10.4631 15.0715 10.721 14.8982 10.9399C14.7248 11.1588 14.5007 11.3321 14.2453 11.4448L11.3715 12.7149C11.6753 13.5904 11.6387 14.5481 11.2691 15.3979C10.8995 16.2477 10.2238 16.9275 9.37629 17.3022C8.52874 17.6769 7.57126 17.7192 6.69396 17.4207C5.81665 17.1222 5.08367 16.5048 4.64053 15.6909ZM15.8846 5.30462H14.6539C14.4907 5.30462 14.3342 5.36946 14.2187 5.48486C14.1033 5.60027 14.0385 5.75679 14.0385 5.91999C14.0385 6.0832 14.1033 6.23972 14.2187 6.35513C14.3342 6.47053 14.4907 6.53537 14.6539 6.53537H15.8846C16.0478 6.53537 16.2044 6.47053 16.3198 6.35513C16.4352 6.23972 16.5 6.0832 16.5 5.91999C16.5 5.75679 16.4352 5.60027 16.3198 5.48486C16.2044 5.36946 16.0478 5.30462 15.8846 5.30462Z" fill="#C29225"/>
</svg>
