<svg width="17" height="16" viewBox="0 0 17 16" fill="none" xmlns="http://www.w3.org/2000/svg">
<path d="M8.5 1.3125C7.44125 1.3125 6.5 1 6.5 1V1.0625C6.5 1.59293 6.71071 2.10164 7.08579 2.47671C7.46086 2.85179 7.96957 3.0625 8.5 3.0625C9.03043 3.0625 9.53914 2.85179 9.91421 2.47671C10.2893 2.10164 10.5 1.59293 10.5 1.0625V1C10.5 1 9.55875 1.3125 8.5 1.3125Z" fill="#818080"/>
<path d="M11.5 1.375C11.3284 2.8675 10.0378 4.03125 8.5 4.03125C6.96219 4.03125 5.67156 2.8675 5.5 1.375L1 2.9375L1.5625 6.5L3.49094 6.73187C3.71219 6.76 3.71281 6.76 3.71281 6.98781L3.5 15H13.5L13.2872 6.98781C13.2806 6.76906 13.2806 6.76906 13.5091 6.73187L15.4375 6.5L16 2.9375L11.5 1.375Z" fill="#818080"/>
</svg>
