<svg width="21" height="18" viewBox="0 0 21 18" fill="none" xmlns="http://www.w3.org/2000/svg">
<path d="M3.01628 8.48899C3.86366 5.61737 7.34105 4.45774 10.0244 4.44833C12.565 4.43891 15.5967 5.20154 17.2836 7.25875C17.6618 7.71852 17.927 8.25832 18.0274 8.84206C18.2346 10.0299 17.6163 11.2555 16.6701 11.982C15.8088 12.6462 14.81 13.1094 13.7466 13.3378C13.1629 13.4633 12.5571 13.5528 11.9593 13.6014C11.1888 13.6626 10.3963 13.6532 9.62583 13.5967C8.95735 13.5481 8.28101 13.4602 7.62508 13.3315C6.4058 13.0899 5.08608 12.7305 4.1116 11.9381C3.6628 11.5725 3.31129 11.0327 3.12769 10.4913C2.93311 9.92637 2.84524 9.06959 3.01628 8.48899Z" fill="#855C52"/>
<path d="M20.4993 9.8944C20.5103 9.31223 20.3988 8.71437 20.1164 8.19339C19.9202 7.82934 19.6331 7.50452 19.2549 7.29268C19.0619 7.1844 18.85 7.10908 18.6288 7.06515C18.3808 7.0165 18.147 7.01493 17.9352 6.90823C17.7469 6.81408 17.6119 6.60223 17.4722 6.44688C17.3169 6.27741 17.1537 6.11579 16.9826 5.96357C16.6395 5.65666 16.2692 5.38145 15.8763 5.14132C14.974 4.58582 13.9682 4.20451 12.9341 4.00209C11.0306 3.63019 8.93255 3.55016 7.07145 4.16528C5.9526 4.53561 4.851 5.06443 3.96126 5.85844C3.76831 6.02976 3.59082 6.21774 3.43086 6.42021C3.29277 6.59596 3.16409 6.75602 2.97108 6.87841C2.91302 6.9145 2.8628 6.94589 2.79533 6.95844C2.4909 7.01336 2.18176 7.06672 1.89459 7.18284C1.09272 7.50452 0.651773 8.60766 0.546635 9.39383C0.466605 9.99012 0.454051 10.6413 0.803987 11.1545C1.21041 11.7492 1.97933 11.7131 2.41558 12.2372C2.77493 12.6687 2.84868 13.3074 3.12329 13.7938C3.52972 14.5141 4.10876 15.1229 4.77568 15.6078C6.08127 16.554 7.70228 17.0483 9.29974 17.1786C10.2036 17.2523 11.1797 17.2288 12.0773 17.1017C13.7893 16.8585 15.4542 16.0582 16.65 14.8013C17.0486 14.3807 17.3938 13.9084 17.6637 13.3953C17.8018 13.1316 17.9195 12.8555 18.0168 12.5746C18.1925 12.0614 18.5158 12.0018 18.996 11.8794C19.2 11.8276 19.3961 11.7523 19.5766 11.6488C19.9296 11.4448 20.1901 11.1388 20.3345 10.7779C20.4475 10.497 20.493 10.1941 20.4993 9.8944ZM3.01659 8.4884C3.86397 5.61678 7.34136 4.45715 10.0247 4.44774C12.5653 4.43832 15.597 5.20095 17.2839 7.25816C17.6621 7.71793 17.9273 8.25773 18.0277 8.84147C18.2349 10.0293 17.6166 11.2549 16.6704 11.9814C15.8091 12.6456 14.8103 13.1088 13.7469 13.3372C13.1632 13.4627 12.5574 13.5522 11.9596 13.6008C11.1891 13.662 10.3966 13.6526 9.62614 13.5961C8.95765 13.5475 8.28132 13.4596 7.62539 13.3309C6.4061 13.0893 5.08639 12.7299 4.1119 11.9375C3.66311 11.5719 3.3116 11.0321 3.128 10.4907C2.93342 9.92578 2.84554 9.069 3.01659 8.4884Z" fill="#C29225"/>
<path d="M8.01959 2.97295C7.99292 2.76582 8.18593 2.49748 8.28793 2.32487C8.42288 2.09891 8.59079 1.80076 8.7791 1.61403C8.93445 1.45868 9.35971 1.33785 9.57469 1.37708C9.70337 1.39905 9.86657 1.49477 9.98269 1.54812C10.1914 1.64071 10.4268 1.75369 10.6229 1.86667C10.7971 1.9671 11.1078 2.24641 11.3369 2.16168C11.4876 2.10519 11.6523 1.93414 11.8046 1.85725C12.0415 1.738 12.2863 1.63286 12.5185 1.50732C12.6613 1.43043 12.8716 1.25625 13.0427 1.25782C13.2906 1.25939 13.5072 1.46653 13.6892 1.60932C13.8194 1.71132 13.9575 1.78193 14.0799 1.89805C14.1992 2.0126 14.2824 2.14442 14.3891 2.26838C14.4926 2.38921 14.7955 2.64342 14.8002 2.81603C14.8033 2.9855 14.2871 3.19734 14.1505 3.25383C13.9356 3.34328 13.7017 3.3778 13.4805 3.45312C13.2984 3.51589 13.0442 3.52216 12.881 3.62102C12.6237 3.77637 12.5766 4.2691 12.495 4.52959C12.4464 4.68651 12.4071 4.79478 12.4056 4.96739C12.4024 5.19021 12.2031 5.32046 12.0195 5.44599C11.7747 5.6139 11.5221 5.72374 11.2585 5.85398C11.0168 5.97324 10.8724 6.00462 10.5994 6.00462C10.342 6.00619 10.3185 5.95127 10.2416 5.69863C10.138 5.35969 10.0878 5.02388 9.94189 4.69749C9.865 4.52645 9.77241 4.3711 9.70494 4.20162C9.65315 4.07295 9.62804 3.91132 9.51506 3.81717C9.37226 3.69321 9.17297 3.59592 9.01448 3.4845C8.89993 3.40604 8.7995 3.28365 8.6567 3.25383L8.01959 2.97295Z" fill="white"/>
<path d="M3.97425 5.28569C3.95385 5.19782 3.93659 5.10524 3.90364 5.02678C3.78908 4.75531 3.8189 4.45559 3.73416 4.18255C3.63059 3.84204 3.47053 3.53605 3.46426 3.16885C3.45798 2.77656 3.52546 2.52549 3.83459 2.27128C4.02133 2.1175 4.18924 1.96999 4.44188 1.97784C4.99425 1.9951 5.36615 2.4125 5.81809 2.66514C6.01267 2.77499 6.25904 2.73105 6.46774 2.80323C6.80826 2.92092 6.95577 3.21279 6.93223 3.55488C6.90712 3.89068 6.86789 4.25003 6.8726 4.5827C6.87731 4.78669 6.96519 5.14603 6.74549 5.27785C6.63094 5.34689 6.4395 5.34375 6.30768 5.32806C5.88085 5.27628 5.54347 4.97813 5.14489 4.84946C4.75415 4.72235 4.53603 5.04718 4.34145 5.32178C4.28339 5.40338 4.13588 5.64347 4.03702 5.46458C4.00721 5.41123 3.98838 5.35003 3.97425 5.28569Z" fill="#ED6C30"/>
<path d="M3.67434 6.52168C3.6712 7.06462 3.95837 7.41612 4.19218 7.87589C4.45424 8.39058 4.7524 8.78288 5.30005 9.03552C5.60919 9.17832 6.02817 9.21284 6.35457 9.11712C6.863 8.96491 7.12663 8.56476 7.30395 8.08459C7.49068 7.58245 7.47185 7.02696 7.3573 6.50912C7.31807 6.3271 7.38084 6.1231 7.32435 5.95677C7.2553 5.75434 7.0105 5.62253 6.8222 5.55506C6.61977 5.48287 6.36085 5.52995 6.14429 5.52524C5.87596 5.52053 5.65313 5.27574 5.46639 5.08744C5.34713 4.96818 5.24356 4.8395 5.07095 4.80655C4.79006 4.7532 4.3852 4.77831 4.16237 4.97602C3.72299 5.36675 3.67748 5.9756 3.67434 6.52168Z" fill="#ED6C30"/>
<path d="M6.66384 5.00664C6.66071 5.54958 6.94787 5.90108 7.18169 6.36086C7.44375 6.87555 7.7419 7.26785 8.28956 7.52049C8.59869 7.66328 9.0161 7.69938 9.34564 7.60209C9.85407 7.44987 10.1177 7.04973 10.295 6.56956C10.4425 6.17098 10.4472 5.57469 10.2825 5.17612C10.1711 4.90622 10.0016 4.62847 9.81484 4.40878C9.6281 4.18753 9.39742 3.99452 9.17616 3.81249C9.06004 3.71834 8.96746 3.63674 8.82937 3.5724C8.69284 3.50807 8.53592 3.51905 8.39783 3.46413C8.27857 3.41705 8.1954 3.31506 8.06359 3.28995C7.7827 3.2366 7.37784 3.2617 7.15501 3.45942C6.71249 3.85172 6.66855 4.459 6.66384 5.00664Z" fill="#ED6C30"/>
<path d="M14.8112 2.18192C14.7438 2.11916 14.681 2.06423 14.6402 2.01873C14.251 1.57465 13.8838 1.21059 13.3754 0.896756C12.925 0.61744 12.4904 0.893617 12.0965 1.13057C11.8297 1.28905 11.4468 1.53071 11.144 1.81159C11.1204 1.80218 11.0969 1.79276 11.0687 1.78649C10.9996 1.77079 10.794 1.59505 10.7485 1.56523C10.5367 1.41773 10.3139 1.29062 10.0785 1.18706C9.64066 0.997184 9.37075 0.931278 8.94236 1.1745C8.50141 1.42557 8.17501 1.86495 7.84233 2.23841C7.74818 2.34512 7.66501 2.47065 7.62421 2.61031C7.5787 2.76095 7.53634 2.96024 7.34018 2.89747C7.166 2.84255 7.07185 2.69976 6.93219 2.59462C6.73603 2.44869 6.47084 2.35296 6.22604 2.33884C5.78038 2.31217 5.61561 1.9999 5.24371 1.84769C4.89534 1.70332 4.55953 1.68606 4.18605 1.7143C3.56307 1.76295 2.97147 2.29334 2.96834 2.93984C2.96677 3.30232 2.95892 3.67108 3.11427 4.00846C3.17861 4.14969 3.23197 4.18421 3.24609 4.34113C3.25707 4.46666 3.29787 4.57494 3.31827 4.6989C3.35123 4.89662 3.37006 5.14769 3.30572 5.3407C3.24295 5.52901 3.22255 5.69848 3.18018 5.8962C3.15037 6.04527 3.13624 6.12687 3.1692 6.28536C3.20529 6.46581 3.24766 6.64156 3.2963 6.81888C3.36692 7.06995 3.45323 7.31475 3.53796 7.56111C3.61172 7.77609 3.66193 7.8875 3.8063 8.06639C4.01344 8.3206 4.26451 8.53558 4.43242 8.81646C4.58149 9.0691 4.86552 9.23857 5.16368 9.24485C5.32374 9.24799 5.64229 9.2527 5.68309 9.04556C5.71918 8.86511 5.47438 8.83372 5.36297 8.7584C4.97694 8.49321 4.64113 8.28294 4.40417 7.86396C4.19547 7.4952 4.0919 7.07937 3.99774 6.66981C3.91928 6.32929 3.90987 5.96681 4.01814 5.631C4.12956 5.28578 4.41359 5.11317 4.77608 5.08963C5.01617 5.07394 5.35041 5.51018 5.57638 5.63414C5.97182 5.84912 6.36099 5.51018 6.77213 5.83657C7.12834 6.11902 7.04203 6.69491 7.23818 7.06681C7.47827 7.51874 8.16402 7.1186 7.92393 6.6651C7.79996 6.43286 7.81252 6.11431 7.70424 5.86481C7.57243 5.56196 7.39981 5.33286 7.15502 5.15397C7.15345 5.13514 7.15658 5.11788 7.15188 5.09748C7.01536 4.60005 7.11892 3.74797 7.76544 3.69619C8.09498 3.66952 8.26288 3.73542 8.52338 3.93942C8.75091 4.11673 9.03965 4.16695 9.23423 4.38821C9.26405 4.42116 9.29543 4.44627 9.32838 4.46666C9.36134 4.57808 9.40998 4.69577 9.47432 4.8213C9.57475 5.01902 9.63909 5.24185 9.75521 5.43172C9.79444 5.49605 9.85564 5.54313 9.89487 5.60747C9.9498 5.70005 9.96235 5.81146 10.0173 5.90561C10.0659 5.98878 10.1099 6.13158 10.2134 6.13785C10.2966 6.14413 10.4143 6.09705 10.4912 6.06253C10.5822 6.02173 10.6889 5.99349 10.7689 5.93856C11.0263 5.75968 10.3044 4.61731 10.204 4.39448C10.1004 4.16381 10.1805 4.16067 10.3813 4.01944C10.6685 3.81545 11.0498 3.49534 11.4264 3.52044C11.643 3.53613 11.8234 3.65696 11.9553 3.81702C12.0761 3.95982 12.2346 4.32544 12.4637 4.13086C12.5594 4.04926 12.6379 3.94412 12.7242 3.85468C12.7587 3.82016 12.7901 3.77936 12.8105 3.73542C12.969 3.40589 12.5343 3.12187 12.3068 2.9728C12.1812 2.8912 12.0792 2.78449 11.938 2.72172C11.8737 2.69348 11.61 2.67936 11.5755 2.63856C11.439 2.47693 12.1389 2.0658 12.2299 2.00147C12.4543 1.84141 12.8576 1.45068 13.1385 1.65781C13.694 2.0658 14.0627 2.60717 14.5586 3.06538C14.7014 3.19719 14.9383 3.02615 15.0623 2.93513C15.3777 2.70132 15.056 2.40161 14.8112 2.18192ZM6.55244 5.06296C6.27311 5.05197 5.99065 5.04413 5.85099 4.90761C5.49635 4.56238 5.24527 4.42116 4.73999 4.36781C4.50303 4.3427 4.27236 4.39448 4.05894 4.48549C4.00559 4.32387 3.9287 4.16852 3.84553 4.00532C3.69332 3.70875 3.62113 3.40275 3.61486 3.07165C3.59916 2.29334 4.28334 2.26823 4.81374 2.38749C5.24371 2.48321 5.4069 3.00261 5.90592 3.03399C6.20564 3.05439 6.57283 3.03713 6.7784 3.32116C6.81449 3.37294 6.83333 3.42472 6.84745 3.47807C6.54459 3.92686 6.45828 4.51688 6.55244 5.06296ZM9.77091 3.5785C9.73167 3.61302 9.70029 3.64755 9.66577 3.68207C9.33152 3.42629 8.91725 3.22857 8.58458 3.00104C8.50298 2.94612 8.36331 2.93357 8.3335 2.83157C8.30682 2.74369 8.38058 2.62914 8.41667 2.55068C8.50454 2.3514 8.72737 2.15838 8.88116 2.00774C9.08986 1.80532 9.33152 1.38791 9.67048 1.5872C9.99687 1.78021 10.3091 1.99048 10.6324 2.1882C10.7752 2.27451 11.0122 2.42829 11.031 2.59933C11.0451 2.72957 11.1236 2.77508 10.9823 2.82686C10.5445 2.98692 10.1224 3.27251 9.77091 3.5785Z" fill="#FCC21B"/>
<path d="M14.2947 2.17104C14.2084 2.18987 14.1253 2.20713 14.0437 2.22283C13.904 2.25107 13.7863 2.30286 13.6529 2.34993C13.3532 2.4582 13.1178 2.56648 12.8903 2.79558C12.7239 2.96505 12.6298 3.15806 12.4995 3.34951C12.4305 3.4515 12.4054 3.56762 12.363 3.6806C12.3144 3.80614 12.2438 3.905 12.2061 4.03681C12.1496 4.23453 12.1088 4.4244 12.0931 4.63153C12.0743 4.85907 12.1559 5.06934 12.1935 5.29373C12.2108 5.40201 12.2406 5.49302 12.2861 5.59188C12.3411 5.71271 12.341 5.84138 12.3913 5.96221C12.4838 6.18033 12.6408 6.3702 12.793 6.54752C12.9499 6.73111 13.1304 6.88332 13.3171 7.03397C13.62 7.27876 13.9777 7.35408 14.3575 7.41214C14.7451 7.47334 15.1217 7.39488 15.5109 7.38546C15.8216 7.37762 16.1103 7.32427 16.4085 7.23796C16.6172 7.17833 16.8494 7.11556 17.0252 6.98846C17.2402 6.83311 17.3359 6.61656 17.4614 6.38903C17.5854 6.1615 17.6372 5.90101 17.7109 5.65465C17.7768 5.42398 17.8255 5.18546 17.8223 4.9438C17.8114 4.31299 17.7862 3.62882 17.3453 3.13139C16.8447 2.56648 15.9408 2.13809 15.1939 2.06905C14.9083 2.04394 14.5913 2.10828 14.2947 2.17104Z" fill="#855C52"/>
<path d="M14.0125 5.45373V5.44432C14.0251 5.28426 14.0078 5.11793 14.0612 4.96414C14.113 4.81978 14.1804 4.68012 14.2056 4.52634C14.2322 4.37099 14.1145 4.22192 14.0016 4.1309C13.8493 4.00694 13.6469 3.96143 13.4994 3.83119C13.4209 3.76214 13.3205 3.69781 13.4178 3.60523C13.5339 3.49381 13.7772 3.5299 13.9262 3.54403C14.0612 3.55658 14.2103 3.58483 14.3405 3.61935C14.4158 3.63975 14.4896 3.69153 14.5712 3.67113C14.6842 3.63975 14.7673 3.5048 14.8427 3.42163C14.9321 3.32277 15.0263 3.22862 15.1361 3.15173C15.2365 3.08112 15.4939 2.89124 15.632 2.95087C15.8454 3.04345 15.5535 3.40437 15.5127 3.54246C15.4688 3.68996 15.2883 3.96928 15.439 4.09795C15.5096 4.15758 15.5865 4.21093 15.6696 4.25173C15.7355 4.28468 15.7936 4.30038 15.8485 4.34902C15.9772 4.462 16.1263 4.54831 16.2424 4.67541C16.313 4.75387 16.5876 4.95002 16.4903 5.07399C16.3915 5.19952 16.0337 5.02848 15.916 4.98454C15.6806 4.89981 15.4343 4.69581 15.1691 4.75858C15.0435 4.7884 14.9447 4.87941 14.8835 4.99239C14.8254 5.1038 14.7862 5.18069 14.7046 5.28112C14.6449 5.35487 14.5947 5.43647 14.5476 5.51807C14.488 5.61379 14.4582 5.72363 14.4048 5.81935C14.3562 5.90723 14.226 6.04218 14.1114 5.95587C14.0204 5.88683 14.0063 5.56358 14.0125 5.45373Z" fill="white"/>
<path d="M15.3635 7.72902C14.7829 7.72902 14.1427 7.57995 13.3534 7.25826C13.2467 7.21432 13.1447 7.15626 13.0395 7.07937C12.9297 6.99778 12.834 6.9099 12.7398 6.82203L12.6692 6.75769C12.3632 6.47994 12.1435 6.2022 12.0164 5.9323C11.8956 5.67809 11.8155 5.44898 11.781 5.24813C11.7245 4.92958 11.792 4.54356 11.8391 4.26268C11.8987 3.91745 12.0101 3.58949 12.1686 3.2835C12.2879 3.05283 12.4228 2.81117 12.6252 2.60718C12.892 2.33885 13.2325 2.18821 13.5323 2.05482C13.8838 1.89947 14.2745 1.79277 14.6621 1.74099C15.7998 1.59191 17.0677 2.23999 17.6828 3.27095C17.7974 3.46082 17.912 3.66638 17.9779 3.89862C18.0893 4.2972 18.1897 4.65027 18.1144 5.11004C18.0548 5.47409 17.9779 5.7487 17.8633 5.99977L17.8319 6.07352C17.7535 6.24613 17.6577 6.46111 17.54 6.62117C16.9892 7.35555 16.2564 7.72902 15.3635 7.72902ZM15.0073 2.35611C14.921 2.35611 14.8316 2.36082 14.7453 2.37337C14.422 2.41574 14.0831 2.50832 13.8179 2.62444C13.5166 2.75782 13.2592 2.8708 13.0772 3.0544C12.9391 3.1972 12.8355 3.38236 12.7335 3.57694C12.6033 3.8233 12.5154 4.0885 12.4668 4.36624C12.426 4.60476 12.371 4.92644 12.4071 5.13672C12.4322 5.27951 12.4934 5.45369 12.5907 5.65455C12.6817 5.84599 12.8575 6.06254 13.0976 6.28066L13.1729 6.3497C13.2529 6.42345 13.3314 6.4972 13.4177 6.55997C13.4805 6.60548 13.5385 6.64 13.5966 6.66354C14.2965 6.94913 14.8755 7.08722 15.3651 7.08722C16.0556 7.08722 16.5985 6.80947 17.0285 6.23515C17.1038 6.13315 17.1838 5.95426 17.2466 5.81147L17.2811 5.73615C17.3706 5.53843 17.4333 5.3109 17.4836 5.00333C17.5353 4.68479 17.4663 4.43686 17.3706 4.09477C17.3204 3.91118 17.2293 3.75426 17.1352 3.59577C16.6911 2.85511 15.8359 2.35611 15.0073 2.35611Z" fill="#FCC21B"/>
<path d="M6.29199 8.94856C6.30141 8.18436 6.63408 7.21617 7.33238 6.80975C7.51755 6.70148 7.68703 6.59163 7.89103 6.52259C8.21742 6.41118 8.56893 6.41274 8.9016 6.32958C9.20603 6.25269 9.38492 6.10204 9.62031 5.90433C9.78351 5.76781 9.97495 5.64855 10.1601 5.54498C10.4645 5.37708 10.8286 5.30176 11.1754 5.30176C11.6901 5.30176 12.255 5.41317 12.6803 5.71602C12.8749 5.85411 13.0365 6.05811 13.1699 6.24798C13.3017 6.44099 13.2844 6.68421 13.3001 6.90704C13.3268 7.24912 13.2954 7.57708 13.2091 7.90504C13.1181 8.25027 13.0553 8.60177 12.9518 8.94228C12.8906 9.14471 12.8309 9.35812 12.7164 9.53857C12.605 9.71432 12.4512 9.6798 12.2566 9.71746C12.0997 9.74728 11.9428 9.77552 11.7858 9.79906C11.4845 9.84456 11.1817 9.8273 10.8773 9.8273C10.5775 9.82887 10.2904 9.78807 9.99221 9.75669C9.72074 9.72845 9.43671 9.77709 9.1621 9.75826C8.79333 9.73472 8.3869 9.70648 8.03696 9.58722C7.82355 9.5166 7.61955 9.44756 7.403 9.40048C7.24608 9.36596 6.99029 9.34242 6.87103 9.22787C6.67802 9.13529 6.48814 9.03172 6.29199 8.94856Z" fill="#757F3F"/>
<path d="M11.4546 11.1484C11.3636 11.1484 11.2742 11.1468 11.1847 11.1437C11.0514 11.1405 10.9243 11.1311 10.7971 11.1233C10.3531 11.0919 9.8917 11.1154 9.38955 11.0605C8.40251 10.9522 7.37154 10.8016 6.58065 10.2476C6.33899 10.0797 6.09733 9.88674 6.00789 9.54936C5.9561 9.35949 5.93413 9.15392 5.94198 8.93581C5.95296 8.61255 6.02515 8.27047 6.16951 7.85777C6.31702 7.43409 6.61203 6.86134 7.17538 6.53337L7.26326 6.48159C7.42332 6.38744 7.58966 6.28858 7.79209 6.21954C8.00707 6.14578 8.21735 6.11754 8.42291 6.08929C8.56414 6.06889 8.6991 6.05006 8.82464 6.01868C9.05688 5.96062 9.19026 5.84921 9.40995 5.66561C9.57629 5.52595 9.76931 5.39728 10.0063 5.26547C10.3405 5.0803 10.7469 4.98145 11.1769 4.98145C11.8375 4.98145 12.437 5.14935 12.8669 5.45377C13.118 5.63109 13.311 5.88844 13.4334 6.06576C13.5935 6.29643 13.6045 6.55377 13.6155 6.76091C13.617 6.80171 13.6186 6.84094 13.6217 6.88174C13.65 7.2552 13.6186 7.61769 13.5213 7.98488C13.4821 8.1214 13.4507 8.25949 13.4193 8.396C13.3707 8.60471 13.322 8.82126 13.2577 9.03467C13.2137 9.17903 13.1902 9.33281 13.1651 9.49444C13.1259 9.74551 13.0851 10.0076 12.9642 10.2775L12.9187 10.3826C12.8246 10.6086 12.7163 10.8628 12.3428 11.0103C12.0337 11.1311 11.7057 11.1484 11.4546 11.1484ZM11.1753 5.62011C10.8568 5.62011 10.5523 5.69229 10.3138 5.8241C10.1114 5.93551 9.95133 6.04222 9.82423 6.14892C9.56688 6.3639 9.35189 6.54436 8.97999 6.63851C8.81993 6.67774 8.66144 6.70128 8.50765 6.72168C8.32562 6.74678 8.15144 6.77032 7.99452 6.82367C7.85486 6.87075 7.73089 6.94607 7.58652 7.03238L7.49394 7.08573C7.09849 7.3164 6.88194 7.74793 6.77053 8.06961C6.64813 8.41954 6.58693 8.702 6.57908 8.95934C6.5728 9.11312 6.5885 9.25749 6.62459 9.38616C6.65754 9.51484 6.79093 9.61683 6.94628 9.72511C7.61477 10.1927 8.55473 10.3277 9.4586 10.4265C9.94192 10.4783 10.4001 10.4564 10.8411 10.4862C11.0458 10.5011 11.251 10.5089 11.4562 10.5097C11.6634 10.5097 11.9034 10.4987 12.109 10.4187C12.2283 10.3716 12.2502 10.3292 12.3303 10.1378C12.3444 10.1001 12.3632 10.0593 12.3805 10.0185C12.4668 9.82711 12.4982 9.6184 12.5343 9.39872C12.5609 9.2214 12.5892 9.03937 12.6473 8.85107C12.7053 8.65806 12.7508 8.46191 12.7979 8.25635C12.8309 8.11198 12.8638 7.96918 12.9015 7.82482C12.9799 7.52667 13.0066 7.2348 12.9831 6.93195C12.9799 6.88644 12.9768 6.83937 12.9752 6.79229C12.9689 6.64165 12.9627 6.50984 12.9077 6.42981C12.812 6.29329 12.6661 6.09557 12.4982 5.97474C12.1734 5.74564 11.7042 5.62011 11.1753 5.62011Z" fill="#FCC21B"/>
<path d="M8.55622 9.94658C8.53111 9.81634 8.63154 9.67668 8.67548 9.55742C8.74766 9.36127 8.82298 9.16355 8.92342 8.97996C9.09603 8.66298 9.2451 8.35856 9.48206 8.08238C9.69076 7.84073 10.1145 7.29465 10.502 7.40135C10.5068 7.47511 10.5538 7.56769 10.5523 7.63516C10.5476 7.74344 10.4754 7.85956 10.4283 7.95528C10.3106 8.20478 10.1254 8.43702 9.99048 8.68024C9.83827 8.95642 9.71744 9.25143 9.59033 9.53859C9.48363 9.78025 9.35338 9.96384 9.35181 10.2322V10.2259" fill="#FCC21B"/>
<path d="M10.7264 9.9324C10.7515 9.87434 10.7767 9.81471 10.7971 9.75665C10.9053 9.44909 10.9697 9.13525 11.1125 8.8371C11.3808 8.26906 11.8045 7.76064 12.3851 7.49858C12.5781 7.41228 12.79 7.3448 12.9924 7.2789C13.187 7.21613 13.4381 7.16748 13.5856 7.01998C13.8492 6.75479 14.0563 6.53039 14.4329 6.4331C14.9257 6.30757 15.6161 6.306 16.0994 6.48175C16.3584 6.5759 16.5843 6.73909 16.7915 6.91955C16.9845 7.08902 17.1304 7.32283 17.2748 7.53938C17.4662 7.82654 17.5055 8.1749 17.4976 8.51071C17.4929 8.81984 17.5635 9.21685 17.336 9.47106C17.2607 9.55265 17.1398 9.59345 17.0473 9.65779C16.9107 9.75194 16.7915 9.85865 16.6487 9.94809C16.1936 10.2321 15.6036 10.3435 15.0967 10.5067C13.8994 10.8896 12.6189 10.9022 11.3761 10.9053C11.1595 10.9069 10.6574 10.9147 10.5883 10.6668C10.5146 10.3937 10.626 10.1646 10.7264 9.9324Z" fill="#757F3F"/>
<path d="M12.4622 10.6633C12.4779 10.3809 12.6818 10.0827 12.7838 9.82697C12.8874 9.56805 13.0098 9.27618 13.162 9.04394C13.3331 8.78503 13.5873 8.58731 13.8211 8.39116C13.9655 8.26876 14.1208 8.11028 14.3374 8.15107C14.5649 8.19501 14.5822 8.39901 14.4974 8.59045C14.4221 8.76149 14.2872 8.94038 14.1883 9.09887C14.0408 9.33581 13.9294 9.56962 13.8242 9.82226C13.7065 10.1031 13.468 10.3417 13.4994 10.6728V10.6633" fill="#FCC21B"/>
<path d="M11.3119 11.2225C11.042 11.2225 10.4096 11.2225 10.2793 10.7487C10.1805 10.3862 10.3123 10.0865 10.4158 9.8448L10.4347 9.80557C10.4566 9.75379 10.477 9.70357 10.4959 9.65022C10.5335 9.54508 10.5649 9.43838 10.5963 9.33324C10.6575 9.12611 10.7218 8.9127 10.8223 8.69929C11.0561 8.20657 11.4955 7.54907 12.2534 7.20699C12.4558 7.11598 12.6661 7.0485 12.8685 6.9826C12.9313 6.9622 12.9737 6.94964 13.0176 6.93709C13.1416 6.901 13.2985 6.85549 13.3581 6.79429L13.4052 6.74565C13.6657 6.48359 13.9136 6.23566 14.3514 6.12425C14.6057 6.05991 14.8975 6.02539 15.1973 6.02539C15.4593 6.02539 15.8485 6.05207 16.2063 6.18231C16.4668 6.27646 16.7194 6.43495 16.9987 6.67974C17.2027 6.85706 17.3534 7.08616 17.4883 7.28702L17.537 7.36077C17.7975 7.74836 17.821 8.205 17.8147 8.5157C17.8147 8.57376 17.8163 8.63338 17.8179 8.69458C17.8273 9.00214 17.8383 9.3866 17.5715 9.68317C17.4868 9.77732 17.3863 9.82911 17.3063 9.87148C17.2796 9.8856 17.2514 9.89972 17.2278 9.91698C17.176 9.95307 17.1258 9.99073 17.0772 10.0284C16.9924 10.0927 16.9077 10.1571 16.8151 10.2151C16.4401 10.4489 16.007 10.5713 15.588 10.6906C15.4515 10.7283 15.3197 10.7659 15.191 10.8067C13.9183 11.2147 12.5672 11.2178 11.3746 11.221H11.3119V11.2225ZM10.8882 10.54C10.9337 10.5588 11.0451 10.5855 11.3134 10.5855H11.3574C12.5233 10.5823 13.8226 10.5792 15.0011 10.2026C15.1361 10.1602 15.2757 10.121 15.417 10.0802C15.7951 9.97347 16.1827 9.86363 16.4809 9.67847C16.5562 9.63139 16.6237 9.57961 16.6927 9.52782C16.7492 9.48389 16.8073 9.43995 16.8685 9.39758C16.9124 9.3662 16.9611 9.33952 17.0113 9.31441C17.0427 9.29715 17.0897 9.27205 17.1023 9.25949C17.1996 9.15279 17.1917 8.93153 17.1855 8.71969C17.1839 8.64751 17.1823 8.57689 17.1823 8.50942C17.1886 8.1485 17.1368 7.90528 17.0128 7.72169L16.9626 7.6448C16.8449 7.46905 16.7241 7.28702 16.5845 7.16462C16.3663 6.97318 16.178 6.85235 15.9944 6.78645C15.6131 6.64836 14.9634 6.63267 14.5162 6.74722C14.2479 6.81469 14.0957 6.96847 13.8666 7.20071L13.8163 7.24936C13.639 7.42668 13.3974 7.49886 13.2028 7.55535L13.0961 7.5883C12.8842 7.65735 12.6912 7.71855 12.5233 7.79544C11.9411 8.05749 11.5928 8.58317 11.406 8.98018C11.3244 9.14965 11.2695 9.33168 11.213 9.52312C11.1785 9.63767 11.144 9.75222 11.1047 9.86677C11.0812 9.93424 11.053 10.0002 11.0263 10.0645L11.009 10.1053C10.9196 10.2873 10.8694 10.4144 10.8882 10.54Z" fill="#FCC21B"/>
</svg>
