<svg width="16" height="16" viewBox="0 0 16 16" fill="none" xmlns="http://www.w3.org/2000/svg">
<path d="M3.60399 1.59961H3.59359C3.5453 1.60063 3.4976 1.61039 3.45279 1.62841C3.38799 1.65406 3.33102 1.6962 3.28752 1.75064C3.24403 1.80509 3.2155 1.86995 3.20479 1.93881C3.19199 2.01401 2.79999 4.47561 2.79999 5.59961C2.79999 6.35961 3.15359 7.03721 3.70399 7.47561C3.90399 7.63641 3.99999 7.81081 3.99999 7.95641V8.35641C3.99999 8.37081 3.99919 8.38521 3.99759 8.39961C3.97599 8.60761 3.87679 9.54281 3.78319 10.5044C3.69119 11.4524 3.59999 12.4644 3.59999 12.7996C3.59999 13.224 3.76856 13.6309 4.06862 13.931C4.36868 14.231 4.77564 14.3996 5.19999 14.3996C5.62433 14.3996 6.0313 14.231 6.33136 13.931C6.63142 13.6309 6.79999 13.224 6.79999 12.7996C6.79999 12.4636 6.70879 11.4524 6.61679 10.5044C6.54839 9.80277 6.47692 9.10143 6.40239 8.40041L6.39999 8.35641V7.95641C6.39999 7.81001 6.49599 7.63641 6.69599 7.47561C6.9779 7.25089 7.20556 6.96554 7.36206 6.64076C7.51856 6.31599 7.59988 5.96013 7.59999 5.59961C7.59999 4.47321 7.20559 2.00041 7.19519 1.93801C7.18342 1.86282 7.15045 1.79255 7.10015 1.73544C7.04984 1.67834 6.98429 1.63676 6.91119 1.61561C6.87764 1.60579 6.84294 1.60041 6.80799 1.59961H6.79199H6.79279C6.6862 1.60045 6.58426 1.64339 6.50918 1.71906C6.43411 1.79474 6.39198 1.89701 6.39199 2.00361V5.20361C6.39309 5.25561 6.38394 5.30732 6.36506 5.35579C6.34618 5.40426 6.31793 5.44853 6.28194 5.48608C6.24595 5.52364 6.20291 5.55373 6.15529 5.57465C6.10767 5.59557 6.05639 5.60691 6.00439 5.60801C5.95238 5.60911 5.90067 5.59996 5.85221 5.58108C5.80374 5.5622 5.75947 5.53396 5.72191 5.49796C5.68436 5.46197 5.65427 5.41894 5.63335 5.37131C5.61243 5.32369 5.60109 5.27241 5.59999 5.22041V1.99961C5.59999 1.89352 5.55785 1.79178 5.48283 1.71677C5.40782 1.64175 5.30607 1.59961 5.19999 1.59961C5.0939 1.59961 4.99216 1.64175 4.91715 1.71677C4.84213 1.79178 4.79999 1.89352 4.79999 1.99961V5.19961L4.80079 5.22521C4.79792 5.33024 4.75346 5.42982 4.67717 5.50206C4.60088 5.5743 4.49901 5.61327 4.39399 5.61041C4.28896 5.60755 4.18938 5.56308 4.11714 5.48679C4.0449 5.4105 4.00592 5.30864 4.00879 5.20361V2.00441C4.00879 1.89719 3.96625 1.79435 3.89051 1.71845C3.81477 1.64256 3.71121 1.59982 3.60399 1.59961ZM8.79999 5.19961C8.79999 4.24483 9.17927 3.32916 9.8544 2.65402C10.5295 1.97889 11.4452 1.59961 12.4 1.59961C12.5061 1.59961 12.6078 1.64175 12.6828 1.71677C12.7578 1.79178 12.8 1.89352 12.8 1.99961V7.58201L12.816 7.76121C12.8783 8.48001 12.9391 9.19895 12.9984 9.91801C13.0976 11.1236 13.2 12.4468 13.2 12.7996C13.2 13.224 13.0314 13.6309 12.7314 13.931C12.4313 14.231 12.0243 14.3996 11.6 14.3996C11.1756 14.3996 10.7687 14.231 10.4686 13.931C10.1686 13.6309 9.99999 13.224 9.99999 12.7996C9.99999 12.4476 10.1024 11.1236 10.2016 9.91801C10.2512 9.30921 10.3016 8.72041 10.3392 8.28441L10.3632 7.99961H9.99999C9.68173 7.99961 9.3765 7.87318 9.15146 7.64814C8.92642 7.42309 8.79999 7.11787 8.79999 6.79961V5.19961Z" fill="#818080"/>
</svg>
