<svg width="36" height="33" viewBox="0 0 36 33" fill="none" xmlns="http://www.w3.org/2000/svg">
<path d="M31.7565 24.8265C32.6852 24.8265 33.4681 25.1505 34.1052 25.7984C34.7424 26.4463 35.0555 27.2023 35.0447 28.0662L22.0376 32.9256L10.6989 29.686V15.1076H13.8575L25.6336 19.4649C26.4759 19.7997 26.8971 20.4044 26.8971 21.2791C26.8971 21.7867 26.7135 22.2294 26.3463 22.6074C25.9792 22.9853 25.5148 23.1851 24.9533 23.2067H20.4178L17.5831 22.1214L17.0486 23.6441L20.4178 24.8265H31.7565ZM25.2772 2.52167C26.4219 1.19342 27.8798 0.529297 29.6508 0.529297C31.1194 0.529297 32.3612 1.06924 33.3763 2.14911C34.3914 3.22899 34.9314 4.47085 34.9961 5.87469C34.9961 6.98696 34.4562 8.31521 33.3763 9.85944C32.2964 11.4037 31.2328 12.6941 30.1853 13.7308C29.1378 14.7675 27.5018 16.3063 25.2772 18.3473C23.0311 16.3063 21.3789 14.7675 20.3206 13.7308C19.2623 12.6941 18.1987 11.4037 17.1296 9.85944C16.0605 8.31521 15.5368 6.98696 15.5584 5.87469C15.5584 4.40606 16.0821 3.1642 17.1296 2.14911C18.1771 1.13403 19.4405 0.594089 20.9199 0.529297C22.6477 0.529297 24.1002 1.19342 25.2772 2.52167ZM0.954102 15.1076H7.45928V32.9256H0.954102V15.1076Z" fill="#C29225"/>
</svg>
