<svg width="18" height="22" viewBox="0 0 18 22" fill="none" xmlns="http://www.w3.org/2000/svg">
<path d="M15.75 6.875H2.25C1.65345 6.8756 1.0815 7.11284 0.659667 7.53467C0.23784 7.9565 0.000595661 8.52845 0 9.125V13.625C0 14.0228 0.158035 14.4044 0.43934 14.6857C0.720644 14.967 1.10218 15.125 1.5 15.125V20.375C1.5 20.7728 1.65804 21.1544 1.93934 21.4357C2.22064 21.717 2.60218 21.875 3 21.875H6C6.39782 21.875 6.77936 21.717 7.06066 21.4357C7.34196 21.1544 7.5 20.7728 7.5 20.375V11.375H6V20.375H3V13.625H1.5V9.125C1.5 8.92609 1.57902 8.73532 1.71967 8.59467C1.86032 8.45402 2.05109 8.375 2.25 8.375H15.75C15.9489 8.375 16.1397 8.45402 16.2803 8.59467C16.421 8.73532 16.5 8.92609 16.5 9.125V13.625H15V20.375H12V11.375H10.5V20.375C10.5 20.7728 10.658 21.1544 10.9393 21.4357C11.2206 21.717 11.6022 21.875 12 21.875H15C15.3978 21.875 15.7794 21.717 16.0607 21.4357C16.342 21.1544 16.5 20.7728 16.5 20.375V15.125C16.8978 15.125 17.2794 14.967 17.5607 14.6857C17.842 14.4044 18 14.0228 18 13.625V9.125C17.9994 8.52845 17.7622 7.9565 17.3403 7.53467C16.9185 7.11284 16.3466 6.8756 15.75 6.875ZM4.5 6.125C3.90666 6.125 3.32664 5.94905 2.83329 5.61941C2.33994 5.28977 1.95542 4.82123 1.72836 4.27305C1.5013 3.72487 1.44189 3.12167 1.55764 2.53973C1.6734 1.95779 1.95912 1.42324 2.37868 1.00368C2.79824 0.584123 3.33279 0.298401 3.91473 0.182646C4.49667 0.0668898 5.09987 0.1263 5.64805 0.353363C6.19623 0.580426 6.66476 0.964943 6.99441 1.45829C7.32405 1.95164 7.5 2.53166 7.5 3.125C7.49921 3.92041 7.18288 4.68301 6.62044 5.24544C6.05801 5.80788 5.29541 6.12421 4.5 6.125ZM4.5 1.625C4.20333 1.625 3.91332 1.71297 3.66664 1.8778C3.41997 2.04262 3.22771 2.27689 3.11418 2.55098C3.00065 2.82507 2.97094 3.12667 3.02882 3.41764C3.0867 3.70861 3.22956 3.97588 3.43934 4.18566C3.64912 4.39544 3.91639 4.5383 4.20736 4.59618C4.49834 4.65406 4.79994 4.62435 5.07403 4.51082C5.34811 4.39729 5.58238 4.20503 5.7472 3.95836C5.91203 3.71168 6 3.42167 6 3.125C6 2.72718 5.84196 2.34565 5.56066 2.06434C5.27936 1.78304 4.89782 1.625 4.5 1.625ZM13.5 6.125C12.9067 6.125 12.3266 5.94905 11.8333 5.61941C11.3399 5.28977 10.9554 4.82123 10.7284 4.27305C10.5013 3.72487 10.4419 3.12167 10.5576 2.53973C10.6734 1.95779 10.9591 1.42324 11.3787 1.00368C11.7982 0.584123 12.3328 0.298401 12.9147 0.182646C13.4967 0.0668898 14.0999 0.1263 14.6481 0.353363C15.1962 0.580426 15.6648 0.964943 15.9944 1.45829C16.3241 1.95164 16.5 2.53166 16.5 3.125C16.4992 3.92041 16.1829 4.68301 15.6204 5.24544C15.058 5.80788 14.2954 6.12421 13.5 6.125ZM13.5 1.625C13.2033 1.625 12.9133 1.71297 12.6666 1.8778C12.42 2.04262 12.2277 2.27689 12.1142 2.55098C12.0006 2.82507 11.9709 3.12667 12.0288 3.41764C12.0867 3.70861 12.2296 3.97588 12.4393 4.18566C12.6491 4.39544 12.9164 4.5383 13.2074 4.59618C13.4983 4.65406 13.7999 4.62435 14.074 4.51082C14.3481 4.39729 14.5824 4.20503 14.7472 3.95836C14.912 3.71168 15 3.42167 15 3.125C15 2.72718 14.842 2.34565 14.5607 2.06434C14.2794 1.78304 13.8978 1.625 13.5 1.625Z" fill="#C29225"/>
</svg>
