<svg width="16" height="16" viewBox="0 0 16 16" fill="none" xmlns="http://www.w3.org/2000/svg">
<path d="M12.5 5H3.5C3.1023 5.0004 2.721 5.15856 2.43978 5.43978C2.15856 5.721 2.0004 6.1023 2 6.5V9.5C2 9.76522 2.10536 10.0196 2.29289 10.2071C2.48043 10.3946 2.73478 10.5 3 10.5V14C3 14.2652 3.10536 14.5196 3.29289 14.7071C3.48043 14.8946 3.73478 15 4 15H6C6.26522 15 6.51957 14.8946 6.70711 14.7071C6.89464 14.5196 7 14.2652 7 14V8H6V14H4V9.5H3V6.5C3 6.36739 3.05268 6.24022 3.14645 6.14645C3.24021 6.05268 3.36739 6 3.5 6H12.5C12.6326 6 12.7598 6.05268 12.8536 6.14645C12.9473 6.24022 13 6.36739 13 6.5V9.5H12V14H10V8H9V14C9 14.2652 9.10536 14.5196 9.29289 14.7071C9.48043 14.8946 9.73478 15 10 15H12C12.2652 15 12.5196 14.8946 12.7071 14.7071C12.8946 14.5196 13 14.2652 13 14V10.5C13.2652 10.5 13.5196 10.3946 13.7071 10.2071C13.8946 10.0196 14 9.76522 14 9.5V6.5C13.9996 6.1023 13.8414 5.721 13.5602 5.43978C13.279 5.15856 12.8977 5.0004 12.5 5ZM5 4.5C4.60444 4.5 4.21776 4.3827 3.88886 4.16294C3.55996 3.94318 3.30362 3.63082 3.15224 3.26537C3.00087 2.89992 2.96126 2.49778 3.03843 2.10982C3.1156 1.72186 3.30608 1.36549 3.58579 1.08579C3.86549 0.806082 4.22186 0.615601 4.60982 0.53843C4.99778 0.46126 5.39991 0.500867 5.76537 0.652242C6.13082 0.803617 6.44318 1.05996 6.66294 1.38886C6.8827 1.71776 7 2.10444 7 2.5C6.99947 3.03027 6.78859 3.53867 6.41363 3.91363C6.03867 4.28859 5.53027 4.49947 5 4.5ZM5 1.5C4.80222 1.5 4.60888 1.55865 4.44443 1.66853C4.27998 1.77841 4.15181 1.93459 4.07612 2.11732C4.00043 2.30004 3.98063 2.50111 4.01921 2.69509C4.0578 2.88907 4.15304 3.06726 4.29289 3.20711C4.43275 3.34696 4.61093 3.4422 4.80491 3.48079C4.99889 3.51937 5.19996 3.49957 5.38268 3.42388C5.56541 3.34819 5.72159 3.22002 5.83147 3.05557C5.94135 2.89112 6 2.69778 6 2.5C6 2.23478 5.89464 1.98043 5.70711 1.79289C5.51957 1.60536 5.26522 1.5 5 1.5ZM11 4.5C10.6044 4.5 10.2178 4.3827 9.88886 4.16294C9.55996 3.94318 9.30362 3.63082 9.15224 3.26537C9.00087 2.89992 8.96126 2.49778 9.03843 2.10982C9.1156 1.72186 9.30608 1.36549 9.58579 1.08579C9.86549 0.806082 10.2219 0.615601 10.6098 0.53843C10.9978 0.46126 11.3999 0.500867 11.7654 0.652242C12.1308 0.803617 12.4432 1.05996 12.6629 1.38886C12.8827 1.71776 13 2.10444 13 2.5C12.9995 3.03027 12.7886 3.53867 12.4136 3.91363C12.0387 4.28859 11.5303 4.49947 11 4.5ZM11 1.5C10.8022 1.5 10.6089 1.55865 10.4444 1.66853C10.28 1.77841 10.1518 1.93459 10.0761 2.11732C10.0004 2.30004 9.98063 2.50111 10.0192 2.69509C10.0578 2.88907 10.153 3.06726 10.2929 3.20711C10.4327 3.34696 10.6109 3.4422 10.8049 3.48079C10.9989 3.51937 11.2 3.49957 11.3827 3.42388C11.5654 3.34819 11.7216 3.22002 11.8315 3.05557C11.9414 2.89112 12 2.69778 12 2.5C12 2.23478 11.8946 1.98043 11.7071 1.79289C11.5196 1.60536 11.2652 1.5 11 1.5Z" fill="#818080"/>
</svg>
