<svg width="17" height="16" viewBox="0 0 17 16" fill="none" xmlns="http://www.w3.org/2000/svg">
<path fill-rule="evenodd" clip-rule="evenodd" d="M11.1171 0.880104C11.3263 -0.0764672 12.6886 -0.0821815 12.9068 0.873247L12.9171 0.918961L12.9377 1.00696C13.1891 2.07896 14.0566 2.89839 15.1434 3.08696C16.1411 3.26068 16.1411 4.69382 15.1434 4.86753C14.6095 4.96085 14.115 5.2096 13.7219 5.58264C13.3287 5.95568 13.0543 6.43643 12.9331 6.96468L12.9068 7.08125C12.6897 8.03668 11.3263 8.03096 11.116 7.07439L11.0943 6.97382C10.9785 6.44339 10.7072 5.95951 10.3152 5.58394C9.92312 5.20837 9.42804 4.95816 8.89313 4.86525C7.8977 4.69268 7.8977 3.26182 8.89313 3.08925C9.42612 2.99672 9.91963 2.74801 10.3111 2.37466C10.7026 2.0013 10.9743 1.52012 11.092 0.992104L11.108 0.918961L11.1171 0.880104ZM8.67827 6.0961C8.39674 6.0488 8.12655 5.94918 7.8817 5.80239H5.00513C4.16143 5.80227 3.34731 6.11324 2.71854 6.6758C2.08977 7.23837 1.6905 8.01302 1.59713 8.85153L1.13999 12.975C1.07566 13.5728 1.22315 14.1742 1.55673 14.6744C1.89032 15.1747 2.38886 15.542 2.96547 15.7124C3.54208 15.8828 4.1602 15.8455 4.71212 15.6069C5.26403 15.3684 5.71474 14.9437 5.9857 14.407L6.39027 13.599H9.73427L10.1377 14.407C10.4068 14.9468 10.8574 15.3745 11.4104 15.6153C11.9635 15.856 12.5836 15.8943 13.1621 15.7234C13.7405 15.5526 14.2403 15.1835 14.5738 14.6809C14.9072 14.1783 15.0531 13.5743 14.9857 12.975L14.5286 8.85153C14.476 8.37805 14.3254 7.92071 14.0863 7.50868C13.4668 9.61382 10.3811 9.54982 9.8977 7.34068L9.87484 7.2401C9.81155 6.95253 9.66423 6.69026 9.45159 6.48657C9.23895 6.28289 8.97058 6.14698 8.68056 6.0961H8.67827ZM5.85313 8.58639C5.85313 8.39695 5.77787 8.21527 5.64392 8.08131C5.50996 7.94736 5.32828 7.8721 5.13884 7.8721C4.9494 7.8721 4.76772 7.94736 4.63377 8.08131C4.49981 8.21527 4.42456 8.39695 4.42456 8.58639V9.17153H3.83941C3.64997 9.17153 3.46829 9.24679 3.33434 9.38074C3.20038 9.5147 3.12513 9.69638 3.12513 9.88582C3.12513 10.0753 3.20038 10.2569 3.33434 10.3909C3.46829 10.5248 3.64997 10.6001 3.83941 10.6001H4.42456V11.1852C4.42456 11.3747 4.49981 11.5564 4.63377 11.6903C4.76772 11.8243 4.9494 11.8995 5.13884 11.8995C5.32828 11.8995 5.50996 11.8243 5.64392 11.6903C5.77787 11.5564 5.85313 11.3747 5.85313 11.1852V10.6001H6.43827C6.62771 10.6001 6.80939 10.5248 6.94335 10.3909C7.0773 10.2569 7.15256 10.0753 7.15256 9.88582C7.15256 9.69638 7.0773 9.5147 6.94335 9.38074C6.80939 9.24679 6.62771 9.17153 6.43827 9.17153H5.85313V8.58639ZM11.2817 10.5818C11.2871 10.6766 11.2732 10.7714 11.2406 10.8606C11.2081 10.9498 11.1577 11.0314 11.0926 11.1004C11.0274 11.1694 10.9488 11.2243 10.8617 11.2619C10.7745 11.2995 10.6806 11.3189 10.5857 11.3189C10.4908 11.3189 10.3969 11.2995 10.3097 11.2619C10.2226 11.2243 10.144 11.1694 10.0788 11.1004C10.0137 11.0314 9.96329 10.9498 9.93076 10.8606C9.89824 10.7714 9.88427 10.6766 9.8897 10.5818C9.89989 10.4041 9.97765 10.2371 10.1071 10.1149C10.2365 9.99265 10.4077 9.92458 10.5857 9.92458C10.7637 9.92458 10.9349 9.99265 11.0643 10.1149C11.1937 10.2371 11.2715 10.4041 11.2817 10.5818Z" fill="#818080"/>
</svg>
