<svg width="17" height="16" viewBox="0 0 17 16" fill="none" xmlns="http://www.w3.org/2000/svg">
<path d="M12 4.5C12.275 4.5 12.5 4.725 12.5 5V11C12.5 11.275 12.275 11.5 12 11.5H10C9.725 11.5 9.5 11.275 9.5 11V9.5H7.5V11C7.5 11.275 7.275 11.5 7 11.5H5C4.725 11.5 4.5 11.275 4.5 11V5C4.5 4.725 4.725 4.5 5 4.5H7C7.275 4.5 7.5 4.725 7.5 5V6.5H9.5V5C9.5 4.725 9.725 4.5 10 4.5H12ZM2.5 6C2.5 5.86739 2.55268 5.74021 2.64645 5.64645C2.74021 5.55268 2.86739 5.5 3 5.5H3.5V10.5H3C2.86739 10.5 2.74021 10.4473 2.64645 10.3536C2.55268 10.2598 2.5 10.1326 2.5 10V9C2.23478 9 1.98043 8.89464 1.79289 8.70711C1.60536 8.51957 1.5 8.26522 1.5 8C1.5 7.73478 1.60536 7.48043 1.79289 7.29289C1.98043 7.10536 2.23478 7 2.5 7V6ZM14.5 7C14.7652 7 15.0196 7.10536 15.2071 7.29289C15.3946 7.48043 15.5 7.73478 15.5 8C15.5 8.26522 15.3946 8.51957 15.2071 8.70711C15.0196 8.89464 14.7652 9 14.5 9V10C14.5 10.1326 14.4473 10.2598 14.3536 10.3536C14.2598 10.4473 14.1326 10.5 14 10.5H13.5V5.5H14C14.1326 5.5 14.2598 5.55268 14.3536 5.64645C14.4473 5.74021 14.5 5.86739 14.5 6V7Z" fill="#818080"/>
</svg>
