<svg width="20" height="20" viewBox="0 0 20 20" fill="none" xmlns="http://www.w3.org/2000/svg">
<path d="M13.0035 16.0818H6.4985M6.4985 14.0693H13.0015M18.0285 16.3938H18.446C18.7525 16.3938 19 16.1483 19 15.8418V14.2658C19 13.9608 18.753 13.7138 18.448 13.7138H18.0305M16.084 18.0038H17.477C17.5495 18.004 17.6213 17.9899 17.6883 17.9623C17.7553 17.9346 17.8162 17.894 17.8674 17.8427C17.9187 17.7915 17.9593 17.7306 17.9869 17.6636C18.0146 17.5966 18.0287 17.5248 18.0285 17.4523V12.6573C18.0289 12.511 17.9712 12.3705 17.8681 12.2667C17.7649 12.163 17.6248 12.1044 17.4785 12.1038H16.086M1.4695 16.3958H1.054C0.98151 16.3961 0.909678 16.3821 0.842606 16.3546C0.775533 16.3271 0.714534 16.2866 0.66309 16.2356C0.611646 16.1845 0.570766 16.1238 0.542783 16.0569C0.5148 15.9901 0.500262 15.9183 0.5 15.8458V14.2658C0.5 13.9598 0.7455 13.7138 1.054 13.7138H1.4695M3.416 18.0038H2.021C1.87473 18.0038 1.73446 17.9457 1.63103 17.8423C1.5276 17.7389 1.4695 17.5986 1.4695 17.4523V12.6573C1.4695 12.3513 1.715 12.1038 2.0215 12.1038H3.4125M8.3165 12.3363H13.0015M6.4965 11.7973L7.262 11.0283M8.317 8.55834H14.942M4.6295 8.47884L5.3345 9.18584L7.262 7.24884M8.317 4.77884H14.942M4.6295 4.69884L5.3345 5.40584L7.262 3.47084M13.002 17.7208H6.498M2.437 12.1033V1.92484C2.437 1.31234 2.927 0.819336 3.5335 0.819336H15.9685C16.577 0.819336 17.0665 1.31084 17.0665 1.92484V12.1038M15.534 10.9263H13.555C13.25 10.9263 13.003 11.1733 13.003 11.4783V18.6293C13.0027 18.7019 13.0168 18.7738 13.0445 18.8409C13.0721 18.908 13.1128 18.9689 13.1641 19.0202C13.2154 19.0716 13.2764 19.1122 13.3434 19.1399C13.4105 19.1675 13.4824 19.1816 13.555 19.1813H15.5335C15.6061 19.1816 15.678 19.1675 15.7451 19.1399C15.8121 19.1122 15.8731 19.0716 15.9244 19.0202C15.9757 18.9689 16.0164 18.908 16.044 18.8409C16.0717 18.7738 16.0858 18.7019 16.0855 18.6293V11.4803C16.0858 11.4078 16.0717 11.336 16.0442 11.2689C16.0168 11.2019 15.9763 11.1409 15.9252 11.0894C15.8742 11.038 15.8135 10.9971 15.7466 10.9691C15.6797 10.9411 15.608 10.9266 15.5355 10.9263H15.534ZM3.966 10.9263H5.943C6.251 10.9263 6.4965 11.1718 6.4965 11.4803V18.6293C6.49677 18.702 6.48262 18.774 6.45488 18.8412C6.42714 18.9084 6.38635 18.9695 6.33488 19.0208C6.28341 19.0721 6.22228 19.1127 6.15501 19.1403C6.08775 19.1678 6.01569 19.1818 5.943 19.1813H3.968C3.663 19.1813 3.416 18.9343 3.416 18.6293V11.4803C3.416 11.1738 3.662 10.9263 3.968 10.9263H3.966Z" stroke="#C29225" stroke-linecap="round" stroke-linejoin="round"/>
</svg>
