<svg width="16" height="16" viewBox="0 0 16 16" fill="none" xmlns="http://www.w3.org/2000/svg">
<path d="M7.99996 5.33366C8.73634 5.33366 9.33329 4.73671 9.33329 4.00033C9.33329 3.26395 8.73634 2.66699 7.99996 2.66699C7.26358 2.66699 6.66663 3.26395 6.66663 4.00033C6.66663 4.73671 7.26358 5.33366 7.99996 5.33366Z" fill="#818080"/>
<path d="M14 10.6667V9.33333C12.5067 9.33333 11.2267 8.69333 10.2667 7.54667L9.37333 6.48C9.2493 6.32965 9.09351 6.20863 8.91715 6.12564C8.74079 6.04265 8.54824 5.99974 8.35333 6H7.65333C7.26 6 6.88667 6.17333 6.63333 6.48L5.74 7.54667C4.77333 8.69333 3.49333 9.33333 2 9.33333V10.6667C3.84667 10.6667 5.46 9.88667 6.66667 8.5V10L4.08 11.0333C3.63333 11.2133 3.33333 11.6533 3.33333 12.14C3.33333 12.8 3.86667 13.3333 4.52667 13.3333H6V13C6 12.558 6.17559 12.1341 6.48816 11.8215C6.80072 11.5089 7.22464 11.3333 7.66667 11.3333H9.66667C9.85333 11.3333 10 11.48 10 11.6667C10 11.8533 9.85333 12 9.66667 12H7.66667C7.11333 12 6.66667 12.4467 6.66667 13V13.3333H11.4733C12.1333 13.3333 12.6667 12.8 12.6667 12.14C12.6667 11.6533 12.3667 11.2133 11.92 11.0333L9.33333 10V8.5C10.54 9.88667 12.1533 10.6667 14 10.6667Z" fill="#818080"/>
</svg>
