<svg width="20" height="22" viewBox="0 0 20 22" fill="none" xmlns="http://www.w3.org/2000/svg">
<path fill-rule="evenodd" clip-rule="evenodd" d="M10.5939 21.3512L10.5819 21.3532L10.5109 21.3882L10.4909 21.3922L10.4769 21.3882L10.4059 21.3522C10.3953 21.3495 10.3873 21.3515 10.3819 21.3582L10.3779 21.3682L10.3609 21.7962L10.3659 21.8162L10.3759 21.8292L10.4799 21.9032L10.4949 21.9072L10.5069 21.9032L10.6109 21.8292L10.6229 21.8132L10.6269 21.7962L10.6099 21.3692C10.6073 21.3585 10.6019 21.3525 10.5939 21.3512ZM10.8579 21.2382L10.8439 21.2402L10.6599 21.3332L10.6499 21.3432L10.6469 21.3542L10.6649 21.7842L10.6699 21.7962L10.6779 21.8042L10.8789 21.8962C10.8916 21.8995 10.9013 21.8969 10.9079 21.8882L10.9119 21.8742L10.8779 21.2602C10.8746 21.2475 10.8679 21.2402 10.8579 21.2382ZM10.1429 21.2402C10.1385 21.2375 10.1333 21.2367 10.1282 21.2378C10.1232 21.2389 10.1188 21.2419 10.1159 21.2462L10.1099 21.2602L10.0759 21.8742C10.0766 21.8862 10.0823 21.8942 10.0929 21.8982L10.1079 21.8962L10.3089 21.8032L10.3189 21.7952L10.3219 21.7842L10.3399 21.3542L10.3369 21.3422L10.3269 21.3322L10.1429 21.2402Z" fill="#C29225"/>
<path fill-rule="evenodd" clip-rule="evenodd" d="M10 0.0927734C15.523 0.0927734 20 4.56977 20 10.0928C20 15.6158 15.523 20.0928 10 20.0928C4.477 20.0928 0 15.6158 0 10.0928C0 4.56977 4.477 0.0927734 10 0.0927734ZM7.793 10.8858C7.60553 11.0733 7.50021 11.3276 7.50021 11.5928C7.50021 11.8579 7.60553 12.1122 7.793 12.2998L8.586 13.0928L7.793 13.8858C7.69749 13.978 7.62131 14.0884 7.5689 14.2104C7.51649 14.3324 7.4889 14.4636 7.48775 14.5964C7.4866 14.7292 7.5119 14.8608 7.56218 14.9837C7.61246 15.1066 7.68671 15.2183 7.78061 15.3122C7.8745 15.4061 7.98615 15.4803 8.10905 15.5306C8.23194 15.5809 8.36362 15.6062 8.4964 15.605C8.62918 15.6039 8.7604 15.5763 8.8824 15.5239C9.00441 15.4715 9.11475 15.3953 9.207 15.2998L10 14.5068L10.793 15.2998C10.9816 15.4819 11.2342 15.5827 11.4964 15.5804C11.7586 15.5782 12.0094 15.473 12.1948 15.2876C12.3802 15.1022 12.4854 14.8514 12.4877 14.5892C12.49 14.327 12.3892 14.0744 12.207 13.8858L11.414 13.0928L12.207 12.2998C12.3892 12.1112 12.49 11.8586 12.4877 11.5964C12.4854 11.3342 12.3802 11.0834 12.1948 10.898C12.0094 10.7125 11.7586 10.6074 11.4964 10.6051C11.2342 10.6028 10.9816 10.7036 10.793 10.8858L10 11.6788L9.207 10.8858C9.01947 10.6983 8.76516 10.593 8.5 10.593C8.23484 10.593 7.98053 10.6983 7.793 10.8858ZM6.5 6.09277C6.10218 6.09277 5.72064 6.25081 5.43934 6.53211C5.15804 6.81342 5 7.19495 5 7.59277C5 7.9906 5.15804 8.37213 5.43934 8.65343C5.72064 8.93474 6.10218 9.09277 6.5 9.09277C6.89782 9.09277 7.27936 8.93474 7.56066 8.65343C7.84196 8.37213 8 7.9906 8 7.59277C8 7.19495 7.84196 6.81342 7.56066 6.53211C7.27936 6.25081 6.89782 6.09277 6.5 6.09277ZM13.5 6.09277C13.1022 6.09277 12.7206 6.25081 12.4393 6.53211C12.158 6.81342 12 7.19495 12 7.59277C12 7.9906 12.158 8.37213 12.4393 8.65343C12.7206 8.93474 13.1022 9.09277 13.5 9.09277C13.8978 9.09277 14.2794 8.93474 14.5607 8.65343C14.842 8.37213 15 7.9906 15 7.59277C15 7.19495 14.842 6.81342 14.5607 6.53211C14.2794 6.25081 13.8978 6.09277 13.5 6.09277Z" fill="#C29225"/>
</svg>
