<svg width="16" height="16" viewBox="0 0 16 16" fill="none" xmlns="http://www.w3.org/2000/svg">
<path fill-rule="evenodd" clip-rule="evenodd" d="M9.41662 13.3146C9.26862 13.424 9.10795 13.5146 8.93129 13.5613C8.43395 13.6946 7.89062 13.496 7.41595 13.3626C4.23395 12.4673 2.10262 11.0653 1.49129 8.97331C1.00329 7.30264 1.47262 5.62931 2.50462 4.58931C3.46062 3.62597 4.87795 3.23531 6.33195 3.86131C7.27862 2.59197 8.70195 2.22131 10.0113 2.57797C11.4246 2.96264 12.6673 4.17731 13.08 5.86797C13.1608 6.19953 13.2015 6.53708 13.202 6.88064C13.3726 6.96819 13.5326 7.07486 13.682 7.20064C14.4533 7.85331 14.8653 8.96197 14.6353 10.1146C14.342 11.5853 12.9786 12.618 11.0286 13.3553C10.6946 13.482 10.3293 13.6386 9.96462 13.5746C9.76195 13.5386 9.58062 13.4346 9.41662 13.3146ZM2.77129 8.59931C2.41462 7.37731 2.77329 6.21197 3.45129 5.52864C4.10195 4.87264 5.06662 4.62864 6.13329 5.25264C6.50595 5.47064 6.98662 5.34131 7.19995 4.96731C7.81195 3.89331 8.76929 3.62197 9.66062 3.86464C10.59 4.11797 11.4833 4.94731 11.7846 6.18397C11.8215 6.33242 11.846 6.48464 11.858 6.64064C11.6137 6.67188 11.3755 6.73952 11.1513 6.84131C10.4353 6.14331 9.48729 6.00597 8.65129 6.31397C7.70329 6.66264 6.93662 7.56397 6.75795 8.72597C6.57595 9.91597 7.13795 11.076 8.18395 12.1913C8.05195 12.158 7.91529 12.118 7.77729 12.0793C4.68995 11.2106 3.17729 9.98931 2.77129 8.59931ZM8.07662 8.92797C8.18329 8.22797 8.63595 7.74064 9.11195 7.56464C9.55195 7.40331 10.0406 7.48797 10.412 8.02464C10.4673 8.1046 10.538 8.1728 10.6199 8.22529C10.7017 8.27778 10.7932 8.31352 10.889 8.33044C10.9848 8.34736 11.083 8.34514 11.1779 8.32389C11.2728 8.30264 11.3625 8.26279 11.442 8.20664C11.9753 7.82864 12.4633 7.91664 12.8206 8.21864C13.2086 8.54664 13.466 9.15997 13.3273 9.85397C13.1773 10.6073 12.4153 11.406 10.5573 12.108C10.4393 12.1526 10.322 12.2006 10.2006 12.236C10.0986 12.1606 10.0046 12.076 9.90862 11.994C8.40329 10.6986 7.95995 9.68731 8.07662 8.92731V8.92797Z" fill="#818080"/>
</svg>
