<svg width="18" height="14" viewBox="0 0 18 14" fill="none" xmlns="http://www.w3.org/2000/svg">
<path d="M17.9212 12.478L14.0852 6.00406C13.9863 5.83541 13.8448 5.69571 13.6748 5.59897C13.5049 5.50223 13.3126 5.45184 13.1171 5.45284C12.9216 5.45182 12.7294 5.50221 12.5596 5.59896C12.3897 5.69571 12.2484 5.83541 12.1496 6.00406L11.05 7.85949C11.0244 7.90283 11.0109 7.95224 11.0109 8.00257C11.0109 8.0529 11.0244 8.10231 11.05 8.14565L12.9342 11.3426C13.0058 11.4613 13.0318 11.602 13.0073 11.7384C12.9829 11.8749 12.9097 11.9978 12.8014 12.0843C12.7382 12.1333 12.6654 12.1683 12.5877 12.187C12.5099 12.2056 12.4291 12.2075 12.3506 12.1925C12.2721 12.1774 12.1977 12.1458 12.1324 12.0998C12.0671 12.0537 12.0123 11.9943 11.9717 11.9254L7.15772 3.757C7.05838 3.58817 6.91667 3.4482 6.74661 3.35095C6.57656 3.2537 6.38406 3.20255 6.18817 3.20255C5.99227 3.20255 5.79977 3.2537 5.62972 3.35095C5.45967 3.4482 5.31796 3.58817 5.21862 3.757L0.0790792 12.4795C0.0170667 12.5837 -0.00959215 12.7052 0.00307828 12.8258C0.0157487 12.9464 0.0670696 13.0597 0.149387 13.1488C0.204818 13.2067 0.271691 13.2526 0.345764 13.2833C0.419837 13.314 0.499492 13.329 0.579674 13.3274H17.4213C17.5012 13.3284 17.5804 13.313 17.654 13.2821C17.7277 13.2513 17.7942 13.2057 17.8495 13.1481C17.9322 13.0591 17.9839 12.9458 17.9968 12.825C18.0097 12.7042 17.9832 12.5825 17.9212 12.478ZM4.531 7.14024L6.18817 4.32791L7.84533 7.14024H4.531ZM9.8442 2.35927C9.8442 2.02554 9.94316 1.6993 10.1286 1.42181C10.314 1.14431 10.5775 0.928037 10.8859 0.800321C11.1942 0.672606 11.5335 0.63919 11.8608 0.704299C12.1881 0.769407 12.4888 0.930117 12.7248 1.1661C12.9608 1.40209 13.1215 1.70276 13.1866 2.03008C13.2517 2.3574 13.2183 2.69668 13.0906 3.00501C12.9628 3.31335 12.7466 3.57688 12.4691 3.7623C12.1916 3.94771 11.8653 4.04667 11.5316 4.04667C11.0841 4.04667 10.6549 3.8689 10.3384 3.55245C10.022 3.236 9.8442 2.8068 9.8442 2.35927Z" fill="#C29225"/>
</svg>
