<svg width="16" height="16" viewBox="0 0 16 16" fill="none" xmlns="http://www.w3.org/2000/svg">
<path d="M10 4.5C9.73478 4.5 9.48043 4.60536 9.29289 4.79289C9.10536 4.98043 9 5.23478 9 5.5C9 5.76522 9.10536 6.01957 9.29289 6.20711C9.48043 6.39464 9.73478 6.5 10 6.5C10.2652 6.5 10.5196 6.39464 10.7071 6.20711C10.8946 6.01957 11 5.76522 11 5.5C11 5.23478 10.8946 4.98043 10.7071 4.79289C10.5196 4.60536 10.2652 4.5 10 4.5ZM4.5 12C4.36739 12 4.24021 12.0527 4.14645 12.1464C4.05268 12.2402 4 12.3674 4 12.5V13.5C4 13.6326 4.05268 13.7598 4.14645 13.8536C4.24021 13.9473 4.36739 14 4.5 14H9.5C9.63261 14 9.75979 13.9473 9.85355 13.8536C9.94732 13.7598 10 13.6326 10 13.5V12.5C10 12.3674 9.94732 12.2402 9.85355 12.1464C9.75979 12.0527 9.63261 12 9.5 12H4.5ZM5.5 13.5C5.36739 13.5 5.24021 13.4473 5.14645 13.3536C5.05268 13.2598 5 13.1326 5 13C5 12.8674 5.05268 12.7402 5.14645 12.6464C5.24021 12.5527 5.36739 12.5 5.5 12.5C5.63261 12.5 5.75979 12.5527 5.85355 12.6464C5.94732 12.7402 6 12.8674 6 13C6 13.1326 5.94732 13.2598 5.85355 13.3536C5.75979 13.4473 5.63261 13.5 5.5 13.5ZM7.5 13C7.5 12.8674 7.55268 12.7402 7.64645 12.6464C7.74021 12.5527 7.86739 12.5 8 12.5H8.5C8.63261 12.5 8.75979 12.5527 8.85355 12.6464C8.94732 12.7402 9 12.8674 9 13C9 13.1326 8.94732 13.2598 8.85355 13.3536C8.75979 13.4473 8.63261 13.5 8.5 13.5H8C7.86739 13.5 7.74021 13.4473 7.64645 13.3536C7.55268 13.2598 7.5 13.1326 7.5 13ZM3.5 5.5C3.5 5.23478 3.60536 4.98043 3.79289 4.79289C3.98043 4.60536 4.23478 4.5 4.5 4.5C4.76522 4.5 5.01957 4.60536 5.20711 4.79289C5.39464 4.98043 5.5 5.23478 5.5 5.5C5.5 5.76522 5.39464 6.01957 5.20711 6.20711C5.01957 6.39464 4.76522 6.5 4.5 6.5C4.23478 6.5 3.98043 6.39464 3.79289 6.20711C3.60536 6.01957 3.5 5.76522 3.5 5.5Z" fill="#818080"/>
<path d="M10 2.50026C9.4163 2.50008 8.84523 2.67019 8.35677 2.98974C7.86831 3.30928 7.48367 3.76438 7.25 4.29926C7.06036 3.86518 6.77063 3.48216 6.40453 3.18156C6.03843 2.88095 5.60635 2.6713 5.14366 2.56975C4.68098 2.46821 4.20082 2.47765 3.74248 2.59732C3.28414 2.71698 2.86065 2.94346 2.50665 3.25823C2.15266 3.573 1.87822 3.96711 1.70579 4.40832C1.53336 4.84952 1.46785 5.32528 1.5146 5.79667C1.56136 6.26806 1.71906 6.72168 1.97481 7.12041C2.23055 7.51915 2.57707 7.85167 2.986 8.09076C2.69692 8.1962 2.44727 8.38799 2.27089 8.64013C2.09451 8.89227 1.99994 9.19255 2 9.50026V10.0003H1.5V9.75026C1.5 9.68395 1.47366 9.62037 1.42678 9.57348C1.37989 9.5266 1.3163 9.50026 1.25 9.50026C1.1837 9.50026 1.12011 9.5266 1.07322 9.57348C1.02634 9.62037 1 9.68395 1 9.75026V12.2503C1 12.3166 1.02634 12.3802 1.07322 12.427C1.12011 12.4739 1.1837 12.5003 1.25 12.5003C1.3163 12.5003 1.37989 12.4739 1.42678 12.427C1.47366 12.3802 1.5 12.3166 1.5 12.2503V11.5003H2V14.0003C2 14.3981 2.15804 14.7796 2.43934 15.0609C2.72064 15.3422 3.10218 15.5003 3.5 15.5003H10.5C10.8978 15.5003 11.2794 15.3422 11.5607 15.0609C11.842 14.7796 12 14.3981 12 14.0003V13.9413C12 14.127 12.0517 14.3091 12.1494 14.4671C12.2471 14.6251 12.3868 14.7527 12.553 14.8358L14.053 15.5858C14.2055 15.6619 14.3749 15.6979 14.5451 15.6902C14.7154 15.6825 14.8808 15.6314 15.0258 15.5418C15.1708 15.4522 15.2904 15.327 15.3734 15.1782C15.4564 15.0293 15.5 14.8617 15.5 14.6913V8.80926C15.5 8.63882 15.4564 8.47122 15.3734 8.32236C15.2904 8.17349 15.1708 8.04831 15.0258 7.95869C14.8808 7.86908 14.7154 7.818 14.5451 7.81031C14.3749 7.80262 14.2055 7.83857 14.053 7.91476L12.553 8.66476C12.3867 8.74786 12.2468 8.87568 12.1492 9.03387C12.0515 9.19206 11.9998 9.37434 12 9.56026V9.50026C12 8.95576 11.71 8.47926 11.276 8.21626C11.8938 7.92644 12.3943 7.43465 12.695 6.82206C12.9957 6.20946 13.0785 5.51266 12.9298 4.84665C12.7812 4.18063 12.4099 3.58521 11.8772 3.15864C11.3446 2.73206 10.6824 2.49983 10 2.50026ZM8 5.50026C8 4.96983 8.21071 4.46112 8.58579 4.08604C8.96086 3.71097 9.46957 3.50026 10 3.50026C10.5304 3.50026 11.0391 3.71097 11.4142 4.08604C11.7893 4.46112 12 4.96983 12 5.50026C12 6.03069 11.7893 6.5394 11.4142 6.91447C11.0391 7.28954 10.5304 7.50026 10 7.50026C9.46957 7.50026 8.96086 7.28954 8.58579 6.91447C8.21071 6.5394 8 6.03069 8 5.50026ZM14.5 8.80926V14.6913L13 13.9413V9.55926L14.5 8.80926ZM3.5 9.00026H10.5C10.6326 9.00026 10.7598 9.05294 10.8536 9.1467C10.9473 9.24047 11 9.36765 11 9.50026V14.0003C11 14.1329 10.9473 14.26 10.8536 14.3538C10.7598 14.4476 10.6326 14.5003 10.5 14.5003H3.5C3.36739 14.5003 3.24021 14.4476 3.14645 14.3538C3.05268 14.26 3 14.1329 3 14.0003V9.50026C3 9.36765 3.05268 9.24047 3.14645 9.1467C3.24021 9.05294 3.36739 9.00026 3.5 9.00026ZM4.5 3.50026C5.03043 3.50026 5.53914 3.71097 5.91421 4.08604C6.28929 4.46112 6.5 4.96983 6.5 5.50026C6.5 6.03069 6.28929 6.5394 5.91421 6.91447C5.53914 7.28954 5.03043 7.50026 4.5 7.50026C3.96957 7.50026 3.46086 7.28954 3.08579 6.91447C2.71071 6.5394 2.5 6.03069 2.5 5.50026C2.5 4.96983 2.71071 4.46112 3.08579 4.08604C3.46086 3.71097 3.96957 3.50026 4.5 3.50026Z" fill="#818080"/>
</svg>
