<svg width="17" height="16" viewBox="0 0 17 16" fill="none" xmlns="http://www.w3.org/2000/svg">
<path d="M13.8333 1.94189V11.9999C13.8331 12.4244 13.6978 12.8378 13.447 13.1803C13.1962 13.5229 12.843 13.7767 12.4384 13.9051C12.0338 14.0336 11.5988 14.0299 11.1964 13.8947C10.794 13.7595 10.445 13.4998 10.2 13.1531C9.95502 12.8064 9.82668 12.3908 9.83358 11.9664C9.84047 11.5419 9.98224 11.1307 10.2384 10.7921C10.4945 10.4536 10.8517 10.2053 11.2583 10.0833C11.6649 9.96124 12.0998 9.97173 12.5 10.1132V5.39189L5.83331 5.94656V12.6666C5.83309 13.0911 5.6978 13.5045 5.44702 13.847C5.19625 14.1895 4.84299 14.4434 4.43837 14.5718C4.03376 14.7002 3.59878 14.6966 3.19637 14.5614C2.79397 14.4262 2.44502 14.1665 2.20002 13.8198C1.95502 13.4731 1.82668 13.0575 1.83358 12.633C1.84047 12.2086 1.98224 11.7973 2.23838 11.4588C2.49451 11.1203 2.85171 10.872 3.25829 10.75C3.66488 10.6279 4.09975 10.6384 4.49998 10.7799V2.71989L13.8333 1.94189Z" fill="#818080"/>
</svg>
