<svg width="16" height="16" viewBox="0 0 16 16" fill="none" xmlns="http://www.w3.org/2000/svg">
<path d="M11.8334 2.72699L10.1467 4.02033L10.7534 6.06033L9.00005 4.85366L7.24671 6.06033L7.85338 4.02033L6.16671 2.72699L8.29338 2.66699L9.00005 0.666992L9.70671 2.66699L11.8334 2.72699ZM14.1667 7.33366L13.0734 8.16699L13.4667 9.48699L12.3334 8.70699L11.2 9.48699L11.5934 8.16699L10.5 7.33366L11.8734 7.30032L12.3334 6.00033L12.7934 7.30032L14.1667 7.33366ZM12.6467 10.6337C13.2 10.5803 13.7934 11.367 13.44 11.867C13.2267 12.167 13 12.447 12.72 12.7137C10.1134 15.3337 5.89338 15.3337 3.29338 12.7137C0.686712 10.1137 0.686712 5.88699 3.29338 3.28699C3.56005 3.02033 3.84005 2.78033 4.14005 2.56699C4.64005 2.21366 5.42671 2.80699 5.37338 3.36033C5.19338 5.26699 5.83338 7.24699 7.30005 8.70699C7.99312 9.40381 8.83223 9.93808 9.75683 10.2713C10.6814 10.6044 11.6685 10.7282 12.6467 10.6337ZM11.5534 11.9803C9.59626 11.8678 7.74738 11.0453 6.35338 9.66699C4.90671 8.20699 4.13338 6.33366 4.02671 4.45366C2.15338 6.54699 2.22671 9.76032 4.23338 11.7737C6.24671 13.7803 9.46005 13.8537 11.5534 11.9803Z" fill="#818080"/>
</svg>
