<svg width="16" height="16" viewBox="0 0 16 16" fill="none" xmlns="http://www.w3.org/2000/svg">
<path d="M8 1.83398C4.595 1.83398 1.8335 4.59398 1.8335 8.00048C1.8335 11.407 4.595 14.167 8 14.167C11.406 14.167 14.1665 11.407 14.1665 8.00048C14.1665 4.59398 11.4065 1.83398 8 1.83398ZM8 3.33398C8.925 3.33398 9.786 3.60798 10.512 4.07398L4.0735 10.5125C3.59024 9.76381 3.33329 8.89158 3.3335 8.00048C3.3335 5.42748 5.427 3.33398 8 3.33398ZM8 12.667C7.10894 12.6669 6.23679 12.41 5.488 11.927L11.926 5.48848C12.4093 6.23716 12.6662 7.10939 12.666 8.00048C12.666 10.5735 10.573 12.667 8 12.667Z" fill="#818080"/>
</svg>
