<svg width="18" height="18" viewBox="0 0 18 18" fill="none" xmlns="http://www.w3.org/2000/svg">
<path fill-rule="evenodd" clip-rule="evenodd" d="M6.96524 11.7949C7.0274 11.7784 7.09275 11.7782 7.155 11.7943C7.21726 11.8104 7.27433 11.8422 7.32074 11.8868L8.53911 13.0553C8.58869 13.1029 8.62422 13.1632 8.64181 13.2297C8.6594 13.2962 8.65838 13.3662 8.63886 13.4321L8.37299 14.3299C8.30668 14.554 8.1722 14.7519 7.98824 14.8961L6.24711 16.2596C6.13098 16.3524 5.99762 16.4212 5.85473 16.4622C5.71183 16.5031 5.56225 16.5153 5.41461 16.4981C5.26697 16.4809 5.12421 16.4346 4.99457 16.3619C4.86493 16.2892 4.75098 16.1915 4.65932 16.0745C4.56765 15.9574 4.50008 15.8234 4.46052 15.6802C4.42095 15.5369 4.41016 15.3872 4.42879 15.2397C4.44741 15.0922 4.49507 14.9499 4.56902 14.821C4.64297 14.6921 4.74174 14.579 4.85961 14.4885L6.31799 13.3463L6.70161 12.0506C6.71993 11.989 6.7538 11.9331 6.79997 11.8883C6.84614 11.8435 6.90305 11.8113 6.96524 11.7949ZM7.24611 12.8539L7.00274 13.674C6.98061 13.7487 6.93579 13.8146 6.87449 13.8626L5.32199 15.0791C5.24635 15.1413 5.19804 15.2306 5.18738 15.328C5.17672 15.4253 5.20456 15.523 5.26495 15.6C5.32533 15.6771 5.41347 15.7275 5.51053 15.7405C5.60759 15.7534 5.70587 15.7279 5.78436 15.6694L7.52549 14.3055C7.58693 14.2575 7.63189 14.1916 7.65411 14.1169L7.85511 13.4381L7.24611 12.8539ZM10.5 4.5C10.7984 4.5 11.0845 4.38147 11.2955 4.1705C11.5065 3.95952 11.625 3.67337 11.625 3.375C11.625 3.07663 11.5065 2.79048 11.2955 2.5795C11.0845 2.36853 10.7984 2.25 10.5 2.25C10.2016 2.25 9.91547 2.36853 9.70449 2.5795C9.49352 2.79048 9.37499 3.07663 9.37499 3.375C9.37499 3.67337 9.49352 3.95952 9.70449 4.1705C9.91547 4.38147 10.2016 4.5 10.5 4.5ZM10.5 5.25C10.9973 5.25 11.4742 5.05246 11.8258 4.70083C12.1774 4.34919 12.375 3.87228 12.375 3.375C12.375 2.87772 12.1774 2.40081 11.8258 2.04917C11.4742 1.69754 10.9973 1.5 10.5 1.5C10.0027 1.5 9.52579 1.69754 9.17416 2.04917C8.82253 2.40081 8.62499 2.87772 8.62499 3.375C8.62499 3.87228 8.82253 4.34919 9.17416 4.70083C9.52579 5.05246 10.0027 5.25 10.5 5.25Z" fill="#818080"/>
<path fill-rule="evenodd" clip-rule="evenodd" d="M8.1514 5.38653C8.6869 5.18779 9.26215 5.19903 9.77852 5.46641C10.2698 5.72028 10.6024 6.15003 10.8116 6.59928C10.8899 6.76728 10.9628 6.92466 11.0303 7.07141C11.1953 7.42916 11.3303 7.72278 11.4596 7.97891C11.6419 8.34153 11.7754 8.55416 11.8931 8.69141C11.9944 8.80878 12.081 8.86841 12.1928 8.91191C12.324 8.96366 12.5389 9.01053 12.921 9.02216C13.1988 9.03046 13.4619 9.14878 13.6525 9.35107C13.843 9.55336 13.9454 9.82307 13.9371 10.1008C13.9288 10.3786 13.8105 10.6417 13.6082 10.8323C13.4059 11.0228 13.1362 11.1252 12.8584 11.1169C12.3495 11.1015 11.8706 11.0363 11.43 10.8642C10.9695 10.6842 10.6061 10.4093 10.3031 10.056C10.2671 10.0142 10.2321 9.97139 10.1981 9.92778L10.047 10.7168L11.6846 12.3327C11.7893 12.4354 11.8706 12.5592 11.9243 12.6957L12.8558 15.0694C12.906 15.1975 12.9306 15.3342 12.928 15.4718C12.9254 15.6094 12.8957 15.7451 12.8407 15.8712C12.7857 15.9973 12.7063 16.1113 12.6072 16.2068C12.5081 16.3022 12.3912 16.3772 12.2631 16.4275C12.135 16.4777 11.9983 16.5023 11.8607 16.4997C11.7231 16.4971 11.5874 16.4674 11.4613 16.4124C11.3352 16.3574 11.2212 16.278 11.1257 16.1789C11.0303 16.0798 10.9553 15.9629 10.905 15.8348L10.0545 13.6684L7.1074 10.7603C6.99458 10.6487 6.9085 10.5131 6.85563 10.3635C6.80277 10.2139 6.78448 10.0543 6.80215 9.89666L6.92402 8.82041C6.58952 9.25278 6.30827 9.77291 6.11177 10.3879C6.02729 10.6527 5.84108 10.873 5.59413 11.0005C5.34718 11.1279 5.05971 11.1521 4.79496 11.0676C4.53021 10.9831 4.30986 10.7969 4.1824 10.55C4.05493 10.303 4.03078 10.0155 4.11527 9.75078C4.77827 7.67404 6.2779 6.10991 8.13902 5.39141L8.14127 5.39028L8.1514 5.38653ZM8.4139 6.08929L8.4079 6.09153C6.76465 6.72641 5.42515 8.11316 4.83002 9.97879C4.81813 10.016 4.81369 10.0553 4.81696 10.0942C4.82023 10.1332 4.83114 10.1712 4.84908 10.2059C4.86701 10.2407 4.89161 10.2715 4.92148 10.2968C4.95135 10.322 4.98589 10.3411 5.02315 10.353C5.0604 10.3649 5.09963 10.3694 5.1386 10.3661C5.17757 10.3628 5.21552 10.3519 5.25027 10.334C5.28502 10.316 5.3159 10.2914 5.34115 10.2616C5.36639 10.2317 5.3855 10.1972 5.3974 10.1599C5.77015 8.99253 6.41927 8.10941 7.1824 7.48616C7.24012 7.43906 7.31057 7.41022 7.38475 7.40332C7.45893 7.39642 7.53348 7.41178 7.5989 7.44742C7.66432 7.48307 7.71764 7.53739 7.75206 7.60347C7.78648 7.66954 7.80043 7.74437 7.79215 7.81841L7.54765 9.98103C7.54276 10.0258 7.548 10.0711 7.563 10.1135C7.578 10.156 7.60236 10.1945 7.63427 10.2263L10.638 13.1903C10.6758 13.2275 10.7044 13.2708 10.7239 13.32L11.6033 15.561C11.617 15.5981 11.6381 15.6321 11.6651 15.661C11.6922 15.6898 11.7247 15.713 11.7608 15.7292C11.7969 15.7453 11.8359 15.7541 11.8755 15.7551C11.915 15.756 11.9543 15.749 11.9912 15.7346C12.028 15.7201 12.0616 15.6985 12.09 15.6709C12.1183 15.6433 12.1409 15.6104 12.1564 15.574C12.1719 15.5375 12.18 15.4984 12.1802 15.4589C12.1803 15.4193 12.1727 15.3801 12.1575 15.3435L11.226 12.9698C11.2108 12.9309 11.1877 12.8957 11.1581 12.8663L9.37765 11.1098C9.33375 11.0665 9.30121 11.013 9.28289 10.9542C9.26458 10.8953 9.26106 10.8328 9.27265 10.7723L9.64052 8.85041C9.6551 8.77397 9.69309 8.70395 9.74924 8.65007C9.80539 8.59619 9.8769 8.56111 9.95388 8.54969C10.0309 8.53828 10.1095 8.55109 10.1788 8.58636C10.2482 8.62163 10.3049 8.67761 10.341 8.74653C10.5098 9.06791 10.6785 9.34278 10.872 9.56778C11.103 9.83666 11.3674 10.0343 11.703 10.1655C12.033 10.2945 12.4174 10.353 12.8805 10.3669C12.92 10.3688 12.9596 10.3629 12.9967 10.3494C13.0339 10.3359 13.068 10.3151 13.0971 10.2882C13.1262 10.2614 13.1496 10.229 13.166 10.193C13.1824 10.157 13.1915 10.1181 13.1927 10.0785C13.1939 10.039 13.1872 9.99958 13.173 9.96265C13.1588 9.92572 13.1373 9.89199 13.11 9.86343C13.0826 9.83487 13.0498 9.81206 13.0135 9.79632C12.9772 9.78059 12.9381 9.77225 12.8985 9.77178C12.471 9.75904 12.162 9.70541 11.9198 9.61053C11.6835 9.51828 11.4975 9.38178 11.3243 9.17966C11.1458 8.97228 10.98 8.69441 10.7899 8.31641C10.6386 8.01009 10.4923 7.7013 10.3511 7.39016L10.3493 7.38566C10.282 7.23891 10.2095 7.08228 10.1318 6.91578C9.97052 6.57003 9.73802 6.28954 9.43427 6.13241C9.12377 5.97191 8.7709 5.95691 8.4139 6.08929Z" fill="#818080"/>
</svg>
