<svg width="30" height="30" viewBox="0 0 30 30" fill="none" xmlns="http://www.w3.org/2000/svg">
<path d="M25.9337 13.0693L25.9278 13.0459L22.6407 4.69336C22.4942 4.22168 22.0577 3.89648 21.5626 3.89648H8.23838C7.74033 3.89648 7.29795 4.22754 7.15732 4.70508L4.08408 12.9727L4.07529 12.9932L4.06943 13.0166C4.03135 13.1602 4.01963 13.3066 4.04014 13.4502C4.03721 13.4971 4.03428 13.5439 4.03428 13.5908V24.3105C4.03505 24.7827 4.22297 25.2353 4.55685 25.5692C4.89073 25.9031 5.34335 26.091 5.81553 26.0918H24.1905C25.172 26.0918 25.9718 25.292 25.9747 24.3105V13.5908C25.9747 13.5527 25.9747 13.5146 25.9718 13.4824C25.9835 13.3389 25.9718 13.2012 25.9337 13.0693ZM17.2677 11.8096L17.2589 12.2695C17.2354 13.585 16.3272 14.4697 15.0001 14.4697C14.3526 14.4697 13.796 14.2617 13.3946 13.8662C12.9933 13.4707 12.7735 12.9199 12.7618 12.2695L12.753 11.8096H6.72373L9.05283 6.14648H20.7481L23.1417 11.8096H17.2677ZM6.28135 14.0596H10.8897C11.6017 15.7324 13.1163 16.7197 15.003 16.7197C15.9903 16.7197 16.9073 16.4443 17.6485 15.9229C18.2989 15.4658 18.8058 14.8271 19.1339 14.0596H23.7188V23.8418H6.28135V14.0596Z" fill="#E5383B"/>
</svg>
