<svg width="31" height="30" viewBox="0 0 31 30" fill="none" xmlns="http://www.w3.org/2000/svg">
<path d="M26.4337 13.0693L26.4278 13.0459L23.1407 4.69336C22.9942 4.22168 22.5577 3.89648 22.0626 3.89648H8.73838C8.24033 3.89648 7.79795 4.22754 7.65732 4.70508L4.58408 12.9727L4.57529 12.9932L4.56943 13.0166C4.53135 13.1602 4.51963 13.3066 4.54014 13.4502C4.53721 13.4971 4.53428 13.5439 4.53428 13.5908V24.3105C4.53505 24.7827 4.72297 25.2353 5.05685 25.5692C5.39073 25.9031 5.84335 26.091 6.31553 26.0918H24.6905C25.672 26.0918 26.4718 25.292 26.4747 24.3105V13.5908C26.4747 13.5527 26.4747 13.5146 26.4718 13.4824C26.4835 13.3389 26.4718 13.2012 26.4337 13.0693ZM17.7677 11.8096L17.7589 12.2695C17.7354 13.585 16.8272 14.4697 15.5001 14.4697C14.8526 14.4697 14.296 14.2617 13.8946 13.8662C13.4933 13.4707 13.2735 12.9199 13.2618 12.2695L13.253 11.8096H7.22373L9.55283 6.14648H21.2481L23.6417 11.8096H17.7677ZM6.78135 14.0596H11.3897C12.1017 15.7324 13.6163 16.7197 15.503 16.7197C16.4903 16.7197 17.4073 16.4443 18.1485 15.9229C18.7989 15.4658 19.3058 14.8271 19.6339 14.0596H24.2188V23.8418H6.78135V14.0596Z" fill="#23978C"/>
</svg>
