<svg width="32" height="33" viewBox="0 0 32 33" fill="none" xmlns="http://www.w3.org/2000/svg">
<path d="M27.3705 14.4362L27.3644 14.4119L23.9458 5.72523C23.7935 5.23469 23.3395 4.89648 22.8246 4.89648H8.96738C8.44941 4.89648 7.98933 5.24078 7.84308 5.73742L4.64691 14.3357L4.63777 14.357L4.63167 14.3814C4.59206 14.5307 4.57988 14.683 4.6012 14.8323C4.59816 14.8811 4.59511 14.9298 4.59511 14.9786V26.1271C4.59592 26.6182 4.79135 27.0889 5.13859 27.4361C5.48582 27.7834 5.95655 27.9788 6.44761 27.9796H25.5576C26.5783 27.9796 27.4101 27.1478 27.4132 26.1271V14.9786C27.4132 14.939 27.4132 14.8994 27.4101 14.8659C27.4223 14.7166 27.4101 14.5734 27.3705 14.4362ZM18.3578 13.1261L18.3487 13.6045C18.3243 14.9725 17.3798 15.8927 15.9996 15.8927C15.3262 15.8927 14.7473 15.6763 14.3299 15.265C13.9125 14.8537 13.6839 14.2809 13.6718 13.6045L13.6626 13.1261H7.39214L9.81441 7.23648H21.9775L24.4668 13.1261H18.3578ZM6.93206 15.4661H11.7248C12.4652 17.2059 14.0404 18.2327 16.0026 18.2327C17.0294 18.2327 17.9831 17.9462 18.7539 17.4039C19.4303 16.9286 19.9575 16.2644 20.2987 15.4661H25.0671V25.6396H6.93206V15.4661Z" fill="#C29225"/>
</svg>
