<svg width="17" height="16" viewBox="0 0 17 16" fill="none" xmlns="http://www.w3.org/2000/svg">
<path fill-rule="evenodd" clip-rule="evenodd" d="M7.01865 14H9.98131C12.062 14 13.1026 14 13.85 13.51C14.1725 13.2988 14.4503 13.026 14.6673 12.7074C15.1666 11.974 15.1666 10.952 15.1666 8.90936C15.1666 6.8667 15.1666 5.8447 14.6673 5.11136C14.4503 4.79269 14.1725 4.51994 13.85 4.3087C13.37 3.99336 12.7686 3.8807 11.848 3.8407C11.4086 3.8407 11.0306 3.51403 10.9446 3.0907C10.8789 2.78061 10.7082 2.50272 10.4612 2.304C10.2143 2.10527 9.90628 1.9979 9.58931 2.00003H7.41065C6.75198 2.00003 6.18465 2.4567 6.05531 3.0907C5.96931 3.51403 5.59131 3.8407 5.15198 3.8407C4.23198 3.8807 3.63065 3.99403 3.14998 4.3087C2.82767 4.52001 2.55016 4.79276 2.33331 5.11136C1.83331 5.8447 1.83331 6.86603 1.83331 8.90936C1.83331 10.9527 1.83331 11.9734 2.33265 12.7074C2.54865 13.0247 2.82598 13.2974 3.14998 13.51C3.89731 14 4.93798 14 7.01865 14ZM8.49998 6.18203C6.96598 6.18203 5.72198 7.4027 5.72198 8.9087C5.72198 10.4147 6.96665 11.6374 8.49998 11.6374C10.0333 11.6374 11.278 10.416 11.278 8.91003C11.278 7.40403 10.0333 6.18203 8.49998 6.18203ZM8.49998 7.2727C7.57998 7.2727 6.83331 8.00536 6.83331 8.90936C6.83331 9.8127 7.57998 10.5454 8.49998 10.5454C9.41998 10.5454 10.1666 9.8127 10.1666 8.90936C10.1666 8.00603 9.41998 7.2727 8.49998 7.2727ZM11.648 6.72736C11.648 6.42603 11.8966 6.18203 12.204 6.18203H12.944C13.2506 6.18203 13.5 6.42603 13.5 6.72736C13.4986 6.8733 13.4393 7.0127 13.3352 7.11495C13.231 7.21721 13.0906 7.27394 12.9446 7.2727H12.204C12.1317 7.2734 12.0599 7.25985 11.9928 7.23283C11.9258 7.2058 11.8647 7.16583 11.813 7.11519C11.7614 7.06455 11.7203 7.00424 11.6919 6.93769C11.6636 6.87115 11.6487 6.79968 11.648 6.72736Z" fill="#818080"/>
</svg>
