<svg width="16" height="16" viewBox="0 0 16 16" fill="none" xmlns="http://www.w3.org/2000/svg">
<path fill-rule="evenodd" clip-rule="evenodd" d="M7.99999 3.84C8.5092 3.84 8.99756 3.63772 9.35763 3.27765C9.7177 2.91758 9.91999 2.42922 9.91999 1.92C9.91999 1.41078 9.7177 0.922425 9.35763 0.562355C8.99756 0.202285 8.5092 0 7.99999 0C7.49077 0 7.00241 0.202285 6.64234 0.562355C6.28227 0.922425 6.07999 1.41078 6.07999 1.92C6.07999 2.42922 6.28227 2.91758 6.64234 3.27765C7.00241 3.63772 7.49077 3.84 7.99999 3.84ZM4.9817 6.61486C5.20227 5.99059 5.61098 5.45007 6.15154 5.06775C6.6921 4.68544 7.3379 4.48014 7.99999 4.48014C8.66208 4.48014 9.30788 4.68544 9.84844 5.06775C10.389 5.45007 10.7977 5.99059 11.0183 6.61486H4.9817ZM2.16456 8.04C1.94494 8.05969 1.74136 8.16327 1.59614 8.32919C1.45091 8.4951 1.37521 8.71061 1.38478 8.9309C1.39434 9.15119 1.48844 9.35932 1.6475 9.51203C1.80656 9.66474 2.01835 9.75027 2.23885 9.75086H3.25713L3.66856 15.3509C3.67922 15.4946 3.74379 15.6289 3.84934 15.7271C3.95488 15.8252 4.0936 15.8798 4.2377 15.88H11.7623C11.9066 15.8798 12.0454 15.825 12.151 15.7267C12.2566 15.6283 12.321 15.4936 12.3314 15.3497L12.7428 9.75086H13.7611C13.9816 9.75027 14.1934 9.66474 14.3525 9.51203C14.5115 9.35932 14.6056 9.15119 14.6152 8.9309C14.6248 8.71061 14.5491 8.4951 14.4038 8.32919C14.2586 8.16327 14.055 8.05969 13.8354 8.04L13.7611 8.04343H2.23999L2.16456 8.04ZM7.99999 9.94286C8.10658 9.94297 8.21101 9.97288 8.30149 10.0292C8.39196 10.0856 8.46488 10.1661 8.51199 10.2617L8.81142 10.8674L9.48113 10.9657C9.58667 10.981 9.68582 11.0256 9.76736 11.0943C9.84889 11.1631 9.90956 11.2533 9.9425 11.3547C9.97544 11.4562 9.97934 11.5648 9.95375 11.6683C9.92816 11.7719 9.87411 11.8662 9.7977 11.9406L9.31313 12.4126L9.42742 13.0789C9.44535 13.1839 9.43357 13.2918 9.3934 13.3905C9.35324 13.4891 9.28629 13.5746 9.20012 13.6372C9.11396 13.6999 9.01199 13.7372 8.90575 13.7449C8.7995 13.7527 8.6932 13.7306 8.59885 13.6811L7.99999 13.3657L7.40113 13.68C7.30678 13.7295 7.20048 13.7516 7.09423 13.7438C6.98799 13.736 6.88602 13.6987 6.79985 13.6361C6.71368 13.5735 6.64674 13.488 6.60658 13.3893C6.56641 13.2907 6.55463 13.1827 6.57256 13.0777L6.68685 12.4114L6.20228 11.9394C6.12587 11.865 6.07182 11.7707 6.04623 11.6672C6.02064 11.5636 6.02454 11.455 6.05748 11.3536C6.09042 11.2521 6.15109 11.1619 6.23262 11.0932C6.31416 11.0245 6.4133 10.9799 6.51885 10.9646L7.18856 10.8674L7.48799 10.2606C7.5351 10.165 7.60802 10.0844 7.69849 10.0281C7.78897 9.97174 7.8934 9.94297 7.99999 9.94286Z" fill="#818080"/>
</svg>
