<svg width="30" height="30" viewBox="0 0 30 30" fill="#FF2A64" xmlns="http://www.w3.org/2000/svg">
<path d="M15 16.25C18.4518 16.25 21.25 13.4518 21.25 10C21.25 6.54822 18.4518 3.75 15 3.75C11.5482 3.75 8.75 6.54822 8.75 10C8.75 13.4518 11.5482 16.25 15 16.25Z" fill="#ADAFBB"/>
<path d="M3.75 26.75V27.5H26.25V26.75C26.25 23.9497 26.25 22.5496 25.7051 21.4801C25.2257 20.5392 24.4608 19.7743 23.5199 19.2949C22.4504 18.75 21.0503 18.75 18.25 18.75H11.75C8.94975 18.75 7.54963 18.75 6.48006 19.2949C5.53924 19.7743 4.77433 20.5392 4.29497 21.4801C3.75 22.5496 3.75 23.9497 3.75 26.75Z" fill="#ADAFBB"/>
</svg>
