<svg width="16" height="16" viewBox="0 0 16 16" fill="none" xmlns="http://www.w3.org/2000/svg">
<path d="M2.00018 6.33333H14.6669M5.00018 4.33333H5.00618M7.66685 4.33333H7.67285M2.00018 8.33333C2.00018 5.348 2.00018 3.85467 2.92752 2.92733C3.85485 2 5.34752 2 8.33352 2C11.3189 2 12.8122 2 13.7395 2.92733C14.6668 3.85467 14.6669 5.34733 14.6669 8.33333C14.6669 11.3187 14.6668 12.812 13.7395 13.7393C12.8122 14.6667 11.3195 14.6667 8.33352 14.6667C5.34818 14.6667 3.85485 14.6667 2.92752 13.7393C2.00018 12.812 2.00018 11.3193 2.00018 8.33333Z" stroke="#818080" stroke-linecap="round" stroke-linejoin="round"/>
<path d="M6.07871 9.00033C5.94369 8.84938 5.76602 8.74299 5.56921 8.69523C5.37241 8.64746 5.16574 8.66058 4.97655 8.73285C4.78736 8.80511 4.62457 8.93312 4.50972 9.09992C4.39487 9.26673 4.33338 9.46447 4.33337 9.66699V10.3337C4.33338 10.5362 4.39487 10.7339 4.50972 10.9007C4.62457 11.0675 4.78736 11.1955 4.97655 11.2678C5.16574 11.3401 5.37241 11.3532 5.56921 11.3054C5.76602 11.2577 5.94369 11.1513 6.07871 11.0003M10.3334 8.66699L11.6667 11.3337M8.32804 9.00033H8.33471M8.32804 11.0003H8.33471" stroke="#818080" stroke-linecap="round" stroke-linejoin="round"/>
</svg>
