<svg width="16" height="16" viewBox="0 0 16 16" fill="none" xmlns="http://www.w3.org/2000/svg">
<path d="M9.80403 2.87567H6.19603C5.75987 2.87549 5.32795 2.96126 4.92496 3.12807C4.52196 3.29488 4.15578 3.53946 3.84734 3.84784C3.5389 4.15622 3.29424 4.52235 3.12735 4.92531C2.96046 5.32828 2.87461 5.76018 2.8747 6.19633V9.80433C2.87452 10.2405 2.96031 10.6725 3.12716 11.0756C3.29401 11.4786 3.53865 11.8448 3.8471 12.1533C4.15555 12.4617 4.52176 12.7064 4.9248 12.8732C5.32784 13.0401 5.75982 13.1258 6.19603 13.1257H9.80403C10.2402 13.1258 10.6722 13.0401 11.0753 12.8732C11.4783 12.7064 11.8445 12.4617 12.153 12.1533C12.4614 11.8448 12.706 11.4786 12.8729 11.0756C13.0397 10.6725 13.1255 10.2405 13.1254 9.80433V6.19633C13.1255 5.76012 13.0397 5.32815 12.8729 4.92511C12.706 4.52207 12.4614 4.15585 12.153 3.84741C11.8445 3.53896 11.4783 3.29432 11.0753 3.12746C10.6722 2.96061 10.2402 2.87483 9.80403 2.875V2.87567Z" stroke="#818080"/>
<path d="M13.0707 10.3927H14.15C14.3313 10.3927 14.5051 10.3207 14.6332 10.1926C14.7614 10.0644 14.8334 9.89061 14.8334 9.70937V6.29271C14.8334 6.11148 14.7614 5.93767 14.6332 5.80952C14.5051 5.68137 14.3313 5.60938 14.15 5.60938H13.07M2.93002 10.3927H1.85002C1.76028 10.3927 1.67143 10.375 1.58852 10.3407C1.50561 10.3064 1.43028 10.256 1.36683 10.1926C1.30338 10.1291 1.25304 10.0538 1.2187 9.97088C1.18436 9.88797 1.16669 9.79911 1.16669 9.70937V6.29271C1.16669 6.11148 1.23868 5.93767 1.36683 5.80952C1.49498 5.68137 1.66879 5.60938 1.85002 5.60938H2.93002" stroke="#818080"/>
<path d="M1.84338 5.60931V2.87598M14.1501 5.60931L14.1434 2.87598M5.94338 5.84264V7.64131M10.0434 5.84264V7.64131M6.62672 10.3926H9.36005" stroke="#818080" stroke-linecap="round" stroke-linejoin="round"/>
</svg>
