<svg width="17" height="16" viewBox="0 0 17 16" fill="none" xmlns="http://www.w3.org/2000/svg">
<path d="M10.6667 4.3335C11.0645 4.3335 11.446 4.17546 11.7273 3.89416C12.0086 3.61285 12.1667 3.23132 12.1667 2.8335C12.1667 2.43567 12.0086 2.05414 11.7273 1.77284C11.446 1.49153 11.0645 1.3335 10.6667 1.3335C10.2688 1.3335 9.88732 1.49153 9.60601 1.77284C9.32471 2.05414 9.16667 2.43567 9.16667 2.8335C9.16667 3.23132 9.32471 3.61285 9.60601 3.89416C9.88732 4.17546 10.2688 4.3335 10.6667 4.3335ZM7.65334 5.76083C7.23767 5.86416 6.95401 6.0195 6.72501 6.21216C6.38167 6.5015 6.10434 6.91883 5.72967 7.57483C5.64193 7.72835 5.4968 7.84072 5.3262 7.88723C5.15561 7.93374 4.97352 7.91057 4.82001 7.82283C4.66649 7.73509 4.55412 7.58995 4.50761 7.41936C4.4611 7.24876 4.48426 7.06668 4.57201 6.91316C4.94501 6.26083 5.32201 5.6505 5.86634 5.1925C6.43434 4.71383 7.12967 4.44316 8.06734 4.33883C8.45934 4.2955 8.89067 4.30416 9.29501 4.4845C9.71934 4.67416 10.0293 5.01383 10.2407 5.46783C10.5253 6.07883 10.737 6.4425 10.9063 6.6535C10.988 6.7545 11.045 6.8015 11.0773 6.8225C11.103 6.83916 11.114 6.8405 11.118 6.84116C11.147 6.8445 11.2413 6.84116 11.5173 6.71883C11.6377 6.6655 11.769 6.6015 11.9297 6.52316L11.968 6.5045C12.1645 6.40755 12.3628 6.3142 12.5627 6.2245C12.7241 6.15364 12.907 6.14959 13.0714 6.21323C13.2357 6.27687 13.3682 6.40302 13.4398 6.56409C13.5114 6.72516 13.5163 6.90804 13.4535 7.07271C13.3906 7.23739 13.2651 7.37047 13.1043 7.44283C12.9191 7.52595 12.7354 7.61252 12.5533 7.7025L12.5097 7.72383C12.356 7.79883 12.2013 7.8745 12.0563 7.9385C11.7563 8.07116 11.373 8.21516 10.9573 8.16483C10.5187 8.1115 10.1807 7.86383 9.90234 7.5315L8.99134 9.28916L10.2513 10.9285C10.3265 11.0263 10.373 11.1431 10.3857 11.2658L10.663 13.9312C10.6736 14.019 10.6666 14.108 10.6424 14.1931C10.6182 14.2782 10.5773 14.3576 10.5221 14.4267C10.467 14.4958 10.3986 14.5533 10.321 14.5957C10.2434 14.6382 10.1581 14.6647 10.0701 14.6739C9.98215 14.683 9.89323 14.6746 9.80856 14.6491C9.72388 14.6235 9.64513 14.5814 9.5769 14.5251C9.50867 14.4688 9.45232 14.3995 9.41113 14.3212C9.36995 14.243 9.34475 14.1573 9.33701 14.0692L9.07901 11.5915L8.31367 10.5955L8.30701 10.6078L8.27901 10.5505L6.86501 8.7105C6.7955 8.62006 6.75035 8.5133 6.7339 8.40043C6.71744 8.28756 6.73022 8.17235 6.77101 8.06583L7.65334 5.76083Z" fill="#818080"/>
<path d="M6.64401 9.66895L6.15334 10.9889L4.22001 10.8356C4.13211 10.8274 4.04347 10.8368 3.95922 10.8632C3.87497 10.8896 3.7968 10.9324 3.72924 10.9892C3.66168 11.0461 3.60608 11.1157 3.56567 11.1942C3.52525 11.2727 3.50083 11.3584 3.49381 11.4464C3.48679 11.5344 3.49732 11.6229 3.52478 11.7068C3.55225 11.7907 3.5961 11.8683 3.6538 11.9351C3.71149 12.002 3.78189 12.0566 3.86089 12.096C3.93989 12.1354 4.02593 12.1587 4.11401 12.1646L6.55001 12.3579C6.69458 12.3694 6.83896 12.3335 6.96126 12.2555C7.08355 12.1776 7.17708 12.0619 7.22768 11.9259L7.60268 10.9166L6.64401 9.66895Z" fill="#818080"/>
</svg>
