<svg width="18" height="24" viewBox="0 0 18 24" fill="none" xmlns="http://www.w3.org/2000/svg">
<path d="M11.7692 5.07767C12.9163 5.07767 13.8462 4.14782 13.8462 3.00075C13.8462 1.85368 12.9163 0.923828 11.7692 0.923828C10.6222 0.923828 9.69231 1.85368 9.69231 3.00075C9.69231 4.14782 10.6222 5.07767 11.7692 5.07767ZM4.91928 14.6605L4.27889 16.1542H1.38462C0.620048 16.1542 0 16.7742 0 17.5388C0 18.3033 0.620048 18.9234 1.38462 18.9234H4.73582C5.56875 18.9234 6.31861 18.4284 6.64442 17.6647L7.02476 16.7768L6.56308 16.5042C5.81365 16.0616 5.2624 15.4065 4.91928 14.6605ZM16.6154 10.6157H14.7102L13.5826 8.31162C13.0418 7.20609 12.0487 6.39782 10.9095 6.10748L7.83389 5.19277C6.60938 4.89854 5.33423 5.16897 4.33601 5.9344L2.61952 7.25022C2.01245 7.71537 1.89736 8.58421 2.36337 9.19128C2.82938 9.79835 3.69779 9.91214 4.30442 9.44743L6.02178 8.13162C6.35365 7.87676 6.77639 7.78546 7.11519 7.86594L7.75125 8.05503L6.13038 11.8363C5.58433 13.1119 6.0737 14.606 7.26837 15.3113L10.9454 17.4821L9.75678 21.2781C9.52832 22.0076 9.93462 22.7843 10.6641 23.0128C10.8022 23.056 10.9415 23.0768 11.0787 23.0768C11.6675 23.0768 12.2136 22.6973 12.3992 22.1054L13.7683 17.7326C14.024 16.8339 13.6432 15.8686 12.8319 15.3792L10.1821 13.8155L11.5369 10.4283L12.4139 12.221C12.7601 12.928 13.4922 13.3845 14.2793 13.3845H16.6154C17.38 13.3845 18 12.7645 18 11.9999C18 11.2353 17.38 10.6157 16.6154 10.6157Z" fill="#C29225"/>
</svg>
