<svg width="24" height="24" viewBox="0 0 24 24" fill="none" xmlns="http://www.w3.org/2000/svg">
<path fill-rule="evenodd" clip-rule="evenodd" d="M12.5932 23.2594L12.5822 23.2614L12.5112 23.2964L12.4912 23.3004L12.4772 23.2964L12.4062 23.2614C12.3955 23.2581 12.3875 23.2597 12.3822 23.2664L12.3782 23.2764L12.3612 23.7044L12.3662 23.7244L12.3762 23.7374L12.4802 23.8114L12.4952 23.8154L12.5072 23.8114L12.6112 23.7374L12.6232 23.7214L12.6272 23.7044L12.6102 23.2774C12.6075 23.2667 12.6018 23.2607 12.5932 23.2594ZM12.8582 23.1464L12.8452 23.1484L12.6602 23.2414L12.6502 23.2514L12.6472 23.2624L12.6652 23.6924L12.6702 23.7044L12.6782 23.7114L12.8792 23.8044C12.8918 23.8077 12.9015 23.8051 12.9082 23.7964L12.9122 23.7824L12.8782 23.1684C12.8748 23.1564 12.8682 23.1491 12.8582 23.1464ZM12.1432 23.1484C12.1388 23.1457 12.1335 23.1449 12.1285 23.146C12.1234 23.1471 12.119 23.1501 12.1162 23.1544L12.1102 23.1684L12.0762 23.7824C12.0768 23.7944 12.0825 23.8024 12.0932 23.8064L12.1082 23.8044L12.3092 23.7114L12.3192 23.7034L12.3232 23.6924L12.3402 23.2624L12.3372 23.2504L12.3272 23.2404L12.1432 23.1484Z" fill="#ACABAB"/>
<path fill-rule="evenodd" clip-rule="evenodd" d="M10.5003 2.00195C9.14485 2.00207 7.80912 2.32632 6.60451 2.94765C5.3999 3.56898 4.36135 4.46937 3.57549 5.57371C2.78963 6.67804 2.27926 7.9543 2.08696 9.296C1.89466 10.6377 2.026 12.0059 2.47003 13.2865C2.91406 14.5671 3.6579 15.723 4.63949 16.6577C5.62108 17.5924 6.81196 18.2787 8.11277 18.6596C9.41358 19.0404 10.7866 19.1046 12.1173 18.8469C13.448 18.5891 14.6977 18.0169 15.7623 17.178L19.4143 20.83C19.6029 21.0121 19.8555 21.1129 20.1177 21.1106C20.3799 21.1083 20.6307 21.0032 20.8161 20.8178C21.0015 20.6324 21.1066 20.3816 21.1089 20.1194C21.1112 19.8572 21.0104 19.6046 20.8283 19.416L17.1763 15.764C18.1642 14.5106 18.7794 13.0044 18.9514 11.4177C19.1233 9.831 18.8451 8.22797 18.1485 6.79205C17.4519 5.35612 16.3651 4.14531 15.0126 3.29818C13.66 2.45106 12.0962 2.00185 10.5003 2.00195ZM4.00025 10.502C4.00025 8.77805 4.68507 7.12475 5.90406 5.90576C7.12305 4.68677 8.77635 4.00195 10.5003 4.00195C12.2242 4.00195 13.8775 4.68677 15.0964 5.90576C16.3154 7.12475 17.0003 8.77805 17.0003 10.502C17.0003 12.2259 16.3154 13.8792 15.0964 15.0981C13.8775 16.3171 12.2242 17.002 10.5003 17.002C8.77635 17.002 7.12305 16.3171 5.90406 15.0981C4.68507 13.8792 4.00025 12.2259 4.00025 10.502Z" fill="#ACABAB"/>
</svg>
