<svg width="16" height="18" viewBox="0 0 16 18" fill="none" xmlns="http://www.w3.org/2000/svg">
<path d="M3.92518 0.942732C3.90745 0.942288 3.88971 0.942356 3.87199 0.942936C3.84124 0.943891 3.82133 0.945459 3.80244 0.946346C3.78334 0.945425 3.76357 0.943891 3.73278 0.942936C3.68301 0.94121 3.63318 0.943524 3.58379 0.949858C2.42865 1.09994 1.57304 2.20977 1.57304 3.6155C1.57304 4.22512 1.72749 4.8344 2.00318 5.32495C1.62814 5.47511 1.31344 5.71302 1.06557 6.0105C0.724756 6.41954 0.500275 6.93157 0.345382 7.49349C0.0356292 8.61736 0 9.95559 0 11.1622V11.4809H1.43352L1.79196 17.0562H3.66087L12.3853 17.0567L14.2079 17.0562L14.5664 11.4809H16V11.1623C16 9.95566 15.9643 8.61743 15.6545 7.49353C15.4996 6.93164 15.2752 6.41954 14.9344 6.01053C14.6865 5.71306 14.3719 5.47514 13.9968 5.32502C14.2724 4.83453 14.4269 4.22522 14.4269 3.6156C14.4269 2.20987 13.5722 1.10015 12.417 0.950062C12.4063 0.948698 12.3954 0.94771 12.3853 0.946755L12.383 0.946516C12.3445 0.943009 12.3058 0.941848 12.2671 0.943039C12.2366 0.943993 12.2172 0.945425 12.1982 0.94638C12.1794 0.945494 12.1598 0.943993 12.1292 0.943039C12.0906 0.941848 12.0518 0.943009 12.0133 0.946516H3.98791C3.96705 0.944601 3.94613 0.94327 3.92518 0.942732ZM3.80244 1.58416C3.81048 1.58423 3.81437 1.5845 3.82306 1.5845C3.86176 1.5845 3.90066 1.58706 3.93953 1.59122H12.0604C12.0993 1.58706 12.1382 1.5845 12.1769 1.5845C12.186 1.5845 12.19 1.58423 12.1982 1.58416C12.2066 1.58423 12.2106 1.5845 12.2196 1.5845C12.4016 1.5845 12.5873 1.63176 12.7609 1.71348L12.7633 1.70827C13.3545 1.98818 13.7899 2.67639 13.7899 3.61554C13.7899 4.25188 13.5556 4.93071 13.246 5.30375L12.9002 5.72028L13.4322 5.82032C13.869 5.90238 14.1847 6.10614 14.4449 6.41834C14.705 6.73055 14.9013 7.15854 15.0403 7.66281C15.2939 8.58283 15.3504 9.74158 15.3588 10.8436H13.9688L13.6105 16.419H10.7859L5.21533 16.4185L2.38954 16.419L2.0311 10.8437H0.641155C0.649577 9.74161 0.706106 8.58283 0.959704 7.66284C1.09868 7.15858 1.29496 6.73058 1.5551 6.41838C1.81525 6.10617 2.13097 5.90242 2.56772 5.82035L3.09981 5.72028L2.75402 5.30375C2.44433 4.93075 2.2102 4.25192 2.2102 3.61554C2.2102 2.67578 2.64604 1.9874 3.23782 1.70782L3.24045 1.71348C3.41399 1.63176 3.59971 1.5845 3.78171 1.5845C3.7905 1.5845 3.79432 1.58423 3.80244 1.58416ZM4.98338 2.22845C5.11755 2.41291 5.22484 2.63214 5.29603 2.88123H10.7052C10.7765 2.6321 10.8837 2.41294 11.0178 2.22849L4.98338 2.22845ZM5.39297 3.5185C5.39399 3.55055 5.39467 3.58287 5.39467 3.61554C5.39467 3.80006 5.37442 3.98806 5.33889 4.17128H10.6623C10.6269 3.98806 10.6066 3.80006 10.6066 3.61554C10.6066 3.58287 10.6073 3.55055 10.6083 3.5185H5.39297ZM5.14353 4.80852C5.05993 5.00139 4.96023 5.1719 4.85079 5.30375L4.72007 5.46126H11.2812L11.1505 5.30375C11.041 5.1719 10.9413 5.00139 10.8577 4.80852H5.14353ZM5.70868 6.09853C5.83381 6.18752 5.94626 6.29424 6.0497 6.41834C6.13265 6.5179 6.20906 6.62939 6.27923 6.75125H9.722C9.79223 6.62939 9.86861 6.5179 9.95156 6.41834C10.055 6.29424 10.1674 6.18752 10.2925 6.09853H5.70868ZM6.56119 7.38851C6.5912 7.47718 6.61916 7.56862 6.64507 7.66281C6.67875 7.78487 6.70872 7.91136 6.73576 8.04116H9.26547C9.29171 7.91412 9.32196 7.78794 9.35616 7.66281C9.38153 7.57061 9.4095 7.47914 9.44003 7.38851H6.56119ZM6.84163 8.67846C6.86924 8.89121 6.89096 9.10949 6.90784 9.33114H9.09332C9.11023 9.10952 9.13199 8.89121 9.15964 8.67843L6.84163 8.67846ZM6.94411 9.96844C6.95274 10.1861 6.95751 10.4041 6.96058 10.6212H9.04061C9.04368 10.4041 9.04845 10.1861 9.05704 9.96841L6.94411 9.96844ZM5.54707 11.2585L5.50504 11.9112H10.4962L10.4543 11.2585L5.54707 11.2585ZM5.46409 12.5485L5.42215 13.2013H10.5791L10.5372 12.5486L5.46409 12.5485ZM5.38124 13.8386L5.33923 14.4912H10.662L10.6201 13.8386H5.38124ZM5.29828 15.1285L5.25635 15.7812H10.7449L10.703 15.1285L5.29828 15.1285Z" fill="#C29225"/>
</svg>
