<svg width="30" height="30" viewBox="0 0 30 30" fill="none" xmlns="http://www.w3.org/2000/svg">
<path d="M15 17.5C16.3807 17.5 17.5 16.3807 17.5 15C17.5 13.6193 16.3807 12.5 15 12.5C13.6193 12.5 12.5 13.6193 12.5 15C12.5 16.3807 13.6193 17.5 15 17.5Z" stroke="#FF2A64"/>
<path d="M6.74855 7.35008L7.2173 6.53758C7.03326 6.43141 6.81862 6.3909 6.60855 6.4227C6.39847 6.45449 6.20543 6.5567 6.06105 6.71258L6.74855 7.35008ZM4.2498 11.6801L3.35355 11.4026C3.29086 11.6056 3.29901 11.824 3.37669 12.0218C3.45436 12.2196 3.59694 12.3852 3.78105 12.4913L4.2498 11.6801ZM4.2473 18.3188L3.77855 17.5063C3.5944 17.6127 3.4519 17.7786 3.37444 17.9766C3.29699 18.1747 3.28918 18.3932 3.3523 18.5963L4.2473 18.3188ZM6.7473 22.6488L6.0598 23.2863C6.20418 23.4422 6.39722 23.5444 6.6073 23.5762C6.81737 23.608 7.03201 23.5675 7.21605 23.4613L6.7473 22.6488ZM12.4973 25.9676H11.5598C11.5598 26.4051 11.8636 26.7838 12.2898 26.8813L12.4973 25.9676ZM17.4986 25.9701L17.7073 26.8851C17.9145 26.8377 18.0995 26.7214 18.2319 26.5552C18.3643 26.3889 18.4363 26.1826 18.4361 25.9701H17.4986ZM23.2498 22.6501L22.7811 23.4626C22.9651 23.5687 23.1797 23.6092 23.3898 23.5775C23.5999 23.5457 23.7929 23.4434 23.9373 23.2876L23.2498 22.6501ZM25.7473 18.3176L26.6436 18.5951C26.7063 18.392 26.6981 18.1737 26.6204 17.9759C26.5427 17.778 26.4002 17.6125 26.2161 17.5063L25.7473 18.3176ZM25.7498 11.6788L26.2186 12.4913C26.4027 12.3849 26.5452 12.2191 26.6227 12.021C26.7001 11.8229 26.7079 11.6044 26.6448 11.4013L25.7498 11.6788ZM23.2498 7.34758L23.9373 6.71133C23.7929 6.55545 23.5999 6.45324 23.3898 6.42145C23.1797 6.38965 22.9651 6.43016 22.7811 6.53633L23.2498 7.34758ZM17.4998 4.03133H18.4373C18.4373 3.819 18.3651 3.61299 18.2327 3.44699C18.1004 3.28099 17.9155 3.16485 17.7086 3.11758L17.4998 4.03133ZM12.4998 4.02883L12.2911 3.11383C12.0839 3.16115 11.8989 3.27748 11.7665 3.44373C11.6341 3.60998 11.5621 3.81629 11.5623 4.02883H12.4998ZM5.14605 11.9576C5.60101 10.4787 6.38329 9.12137 7.4348 7.98633L6.0598 6.71133C4.81723 8.05254 3.89269 9.65639 3.3548 11.4038L5.14605 11.9576ZM6.06855 20.1563C5.68267 19.4887 5.37242 18.7802 5.14355 18.0438L3.35355 18.5976C3.62336 19.4676 3.98937 20.3049 4.4448 21.0938L6.06855 20.1563ZM7.43605 22.0138C6.91259 21.4474 6.45393 20.8244 6.06855 20.1563L4.4448 21.0938C4.8999 21.8828 5.44158 22.6174 6.0598 23.2863L7.43605 22.0138ZM17.2911 25.0576C15.7827 25.4009 14.2165 25.4 12.7086 25.0551L12.2911 26.8826C14.0737 27.2907 15.9254 27.292 17.7086 26.8863L17.2911 25.0576ZM24.8536 18.0426C24.3986 19.5214 23.6163 20.8788 22.5648 22.0138L23.9398 23.2888C25.1824 21.9476 26.1069 20.3438 26.6448 18.5963L24.8536 18.0426ZM23.9311 9.84383C24.3236 10.5297 24.6319 11.2338 24.8561 11.9563L26.6461 11.4026C26.3762 10.5325 26.0102 9.69525 25.5548 8.90633L23.9311 9.84383ZM22.5623 7.98633C23.0748 8.54008 23.5348 9.16133 23.9298 9.84383L25.5548 8.90633C25.0993 8.11725 24.556 7.3802 23.9373 6.71133L22.5623 7.98633ZM12.7073 4.94258C14.2156 4.59929 15.7819 4.60015 17.2898 4.94508L17.7086 3.11758C15.9259 2.70947 14.073 2.70819 12.2898 3.11383L12.7073 4.94258ZM13.4361 6.34008V4.02758H11.5611V6.34008H13.4361ZM9.21855 7.69258L7.2173 6.53758L6.2798 8.16133L8.2798 9.31633L9.21855 7.69258ZM5.78105 16.3538L3.7798 17.5088L4.7173 19.1326L6.71855 17.9776L5.78105 16.3538ZM6.71855 12.0226L4.71855 10.8688L3.78105 12.4938L5.78105 13.6476L6.71855 12.0226ZM13.4373 25.9688V23.6601H11.5623V25.9688H13.4373ZM8.28105 20.6838L6.2798 21.8388L7.2173 23.4638L9.2173 22.3076L8.28105 20.6838ZM23.7198 21.8388L21.7186 20.6838L20.7811 22.3076L22.7811 23.4626L23.7198 21.8388ZM18.4373 25.9713V23.6601H16.5623V25.9726L18.4373 25.9713ZM25.2823 10.8676L23.2811 12.0226L24.2186 13.6476L26.2186 12.4913L25.2823 10.8676ZM26.2173 17.5076L24.2186 16.3526L23.2811 17.9776L25.2811 19.1313L26.2173 17.5076ZM18.4373 6.34008V4.03133H16.5623V6.34008H18.4373ZM22.7823 6.53758L20.7811 7.69258L21.7186 9.31758L23.7198 8.16133L22.7823 6.53758ZM16.5623 6.34008C16.5623 8.98633 19.4273 10.6413 21.7186 9.31758L20.7811 7.69258C20.5436 7.82969 20.2742 7.90188 20 7.90191C19.7257 7.90194 19.4564 7.8298 19.2188 7.69274C18.9813 7.55568 18.7841 7.35853 18.6469 7.12109C18.5097 6.88366 18.4374 6.6143 18.4373 6.34008H16.5623ZM23.2811 12.0226C20.9898 13.3463 20.9898 16.6538 23.2811 17.9776L24.2186 16.3526C23.981 16.2154 23.7838 16.0182 23.6467 15.7807C23.5096 15.5431 23.4374 15.2737 23.4374 14.9995C23.4374 14.7252 23.5096 14.4558 23.6467 14.2182C23.7838 13.9807 23.981 13.7835 24.2186 13.6463L23.2811 12.0226ZM21.7186 20.6838C19.4273 19.3601 16.5623 21.0138 16.5623 23.6601H18.4373C18.4374 23.3859 18.5097 23.1165 18.6469 22.8791C18.7841 22.6416 18.9813 22.4445 19.2188 22.3074C19.4564 22.1704 19.7257 22.0982 20 22.0982C20.2742 22.0983 20.5436 22.1705 20.7811 22.3076L21.7186 20.6838ZM13.4373 23.6601C13.4373 21.0138 10.5723 19.3601 8.28105 20.6838L9.2173 22.3076C9.45478 22.1705 9.72542 22.0983 9.99964 22.0982C10.2739 22.0982 10.5433 22.1704 10.7808 22.3074C11.0183 22.4445 11.2155 22.6416 11.3527 22.8791C11.4899 23.1165 11.5622 23.3859 11.5623 23.6601H13.4373ZM6.71855 17.9776C9.0098 16.6538 9.0098 13.3463 6.71855 12.0226L5.78105 13.6476C6.01856 13.7847 6.21579 13.982 6.35292 14.2195C6.49004 14.457 6.56223 14.7264 6.56223 15.0007C6.56223 15.275 6.49004 15.5444 6.35292 15.7819C6.21579 16.0194 6.01856 16.2167 5.78105 16.3538L6.71855 17.9776ZM11.5623 6.34008C11.5622 6.6143 11.4899 6.88366 11.3527 7.12109C11.2155 7.35853 11.0183 7.55568 10.7808 7.69274C10.5433 7.8298 10.2739 7.90194 9.99964 7.90191C9.72542 7.90188 9.45603 7.82969 9.21855 7.69258L8.28105 9.31758C10.5723 10.6401 13.4373 8.98633 13.4373 6.34008H11.5623Z" fill="#FF2A64"/>
</svg>
