<svg width="17" height="16" viewBox="0 0 17 16" fill="none" xmlns="http://www.w3.org/2000/svg">
<path d="M3.03998 4.18652C2.27998 5.26652 1.83331 6.57986 1.83331 7.99986C1.83331 9.41986 2.27998 10.7332 3.03998 11.8132C4.65331 11.2999 5.83331 9.78652 5.83331 7.99986C5.83331 6.21319 4.65331 4.69986 3.03998 4.18652ZM13.96 4.18652C12.3466 4.69986 11.1666 6.21319 11.1666 7.99986C11.1666 9.78652 12.3466 11.2999 13.96 11.8132C14.72 10.7332 15.1666 9.41986 15.1666 7.99986C15.1666 6.57986 14.72 5.26652 13.96 4.18652Z" fill="#818080"/>
<path d="M9.83333 8.00016C9.83333 5.8135 11.1467 3.94016 13.0267 3.1135C11.84 2.0135 10.2533 1.3335 8.49999 1.3335C6.74666 1.3335 5.15999 2.0135 3.97333 3.1135C5.85333 3.94016 7.16666 5.8135 7.16666 8.00016C7.16666 10.1868 5.85333 12.0602 3.97333 12.8868C5.15999 13.9868 6.74666 14.6668 8.49999 14.6668C10.2533 14.6668 11.84 13.9868 13.0267 12.8868C12.077 12.4708 11.2692 11.7871 10.7021 10.9192C10.1349 10.0513 9.83304 9.03692 9.83333 8.00016Z" fill="#818080"/>
</svg>
