<svg width="18" height="18" viewBox="0 0 18 18" fill="none" xmlns="http://www.w3.org/2000/svg">
<path d="M0 7.08755C0.168478 6.91806 0.368806 6.78355 0.589458 6.69177C0.810111 6.59999 1.04673 6.55273 1.28571 6.55273C1.5247 6.55273 1.76132 6.59999 1.98197 6.69177C2.20262 6.78355 2.40295 6.91806 2.57143 7.08755C2.73991 7.25704 2.94023 7.39155 3.16089 7.48333C3.38154 7.57511 3.61816 7.62237 3.85714 7.62237C4.09612 7.62237 4.33275 7.57511 4.5534 7.48333C4.77405 7.39155 4.97438 7.25704 5.14286 7.08755C5.31134 6.91806 5.51166 6.78355 5.73232 6.69177C5.95297 6.59999 6.18959 6.55273 6.42857 6.55273C6.66755 6.55273 6.90417 6.59999 7.12483 6.69177C7.34548 6.78355 7.54581 6.91806 7.71429 7.08755C7.88276 7.25704 8.08309 7.39155 8.30374 7.48333C8.5244 7.57511 8.76102 7.62237 9 7.62237C9.23898 7.62237 9.4756 7.57511 9.69626 7.48333C9.91691 7.39155 10.1172 7.25704 10.2857 7.08755C10.4542 6.91806 10.6545 6.78355 10.8752 6.69177C11.0958 6.59999 11.3324 6.55273 11.5714 6.55273C11.8104 6.55273 12.047 6.59999 12.2677 6.69177C12.4883 6.78355 12.6887 6.91806 12.8571 7.08755C13.0256 7.25704 13.2259 7.39155 13.4466 7.48333C13.6673 7.57511 13.9039 7.62237 14.1429 7.62237C14.3818 7.62237 14.6185 7.57511 14.8391 7.48333C15.0598 7.39155 15.2601 7.25704 15.4286 7.08755C15.597 6.91806 15.7974 6.78355 16.018 6.69177C16.2387 6.59999 16.4753 6.55273 16.7143 6.55273C16.9533 6.55273 17.1899 6.59999 17.4105 6.69177C17.6312 6.78355 17.8315 6.91806 18 7.08755V12.8411H0V7.08755Z" fill="#26C9FC"/>
<path d="M7.41208 13.5736H17.9356C17.9356 11.9022 17.1514 10.4108 15.9364 9.4529L13.2428 3.52575C12.8563 2.67326 12.2324 1.95013 11.4458 1.44281C10.6592 0.935502 9.7431 0.665482 8.80708 0.665039H4.35851C3.84422 0.697182 3.42636 0.88361 3.05993 1.25004L2.00565 2.29147C1.81922 2.4779 1.80636 2.78004 1.97351 2.97932L1.88351 3.0629C1.68422 3.26218 1.67136 3.58361 1.86422 3.78932C2.05708 3.99504 2.38493 3.99504 2.58422 3.79575H2.59065C2.61636 3.84075 2.64208 3.88575 2.68065 3.92432C2.77594 4.01942 2.90472 4.07336 3.03934 4.07456C3.17395 4.07576 3.30367 4.02413 3.40065 3.93075L3.75422 3.58361C3.97922 3.35861 4.28779 3.23004 4.60922 3.23647H8.49851C9.59136 3.23647 10.5814 3.8729 11.0314 4.86932L12.5999 8.31504C11.2172 8.33263 9.89722 8.89454 8.92608 9.87892C7.95493 10.8633 7.41095 12.1908 7.41208 13.5736Z" fill="#FCB100"/>
<path d="M0 11.5807C0.168478 11.4112 0.368806 11.2767 0.589458 11.1849C0.810111 11.0932 1.04673 11.0459 1.28571 11.0459C1.5247 11.0459 1.76132 11.0932 1.98197 11.1849C2.20262 11.2767 2.40295 11.4112 2.57143 11.5807C2.73991 11.7502 2.94023 11.8847 3.16089 11.9765C3.38154 12.0683 3.61816 12.1155 3.85714 12.1155C4.09612 12.1155 4.33275 12.0683 4.5534 11.9765C4.77405 11.8847 4.97438 11.7502 5.14286 11.5807C5.31134 11.4112 5.51166 11.2767 5.73232 11.1849C5.95297 11.0932 6.18959 11.0459 6.42857 11.0459C6.66755 11.0459 6.90417 11.0932 7.12483 11.1849C7.34548 11.2767 7.54581 11.4112 7.71429 11.5807C7.88276 11.7502 8.08309 11.8847 8.30374 11.9765C8.5244 12.0683 8.76102 12.1155 9 12.1155C9.23898 12.1155 9.4756 12.0683 9.69626 11.9765C9.91691 11.8847 10.1172 11.7502 10.2857 11.5807C10.4542 11.4112 10.6545 11.2767 10.8752 11.1849C11.0958 11.0932 11.3324 11.0459 11.5714 11.0459C11.8104 11.0459 12.047 11.0932 12.2677 11.1849C12.4883 11.2767 12.6887 11.4112 12.8571 11.5807C13.0256 11.7502 13.2259 11.8847 13.4466 11.9765C13.6673 12.0683 13.9039 12.1155 14.1429 12.1155C14.3818 12.1155 14.6185 12.0683 14.8391 11.9765C15.0598 11.8847 15.2601 11.7502 15.4286 11.5807C15.597 11.4112 15.7974 11.2767 16.018 11.1849C16.2387 11.0932 16.4753 11.0459 16.7143 11.0459C16.9533 11.0459 17.1899 11.0932 17.4105 11.1849C17.6312 11.2767 17.8315 11.4112 18 11.5807V17.3343H0V11.5807Z" fill="#0084CE"/>
<path d="M10.935 6.37941C10.935 6.60617 10.8449 6.82365 10.6846 6.98399C10.5242 7.14433 10.3068 7.23441 10.08 7.23441C9.85324 7.23441 9.63577 7.14433 9.47543 6.98399C9.31508 6.82365 9.225 6.60617 9.225 6.37941C9.225 6.15265 9.31508 5.93518 9.47543 5.77484C9.63577 5.61449 9.85324 5.52441 10.08 5.52441C10.3068 5.52441 10.5242 5.61449 10.6846 5.77484C10.8449 5.93518 10.935 6.15265 10.935 6.37941ZM7.39286 9.92799C7.39286 10.1547 7.30278 10.3722 7.14244 10.5326C6.98209 10.6929 6.76462 10.783 6.53786 10.783C6.3111 10.783 6.09363 10.6929 5.93329 10.5326C5.77294 10.3722 5.68286 10.1547 5.68286 9.92799C5.68286 9.70122 5.77294 9.48375 5.93329 9.32341C6.09363 9.16306 6.3111 9.07299 6.53786 9.07299C6.76462 9.07299 6.98209 9.16306 7.14244 9.32341C7.30278 9.48375 7.39286 9.70122 7.39286 9.92799Z" fill="#FDBB11"/>
<path d="M5.44491 5.61479C4.41634 6.64336 4.47419 8.32765 5.57348 9.27908L7.77848 11.1948C8.48562 11.7798 9.45634 11.7284 10.0799 11.1112L11.2692 9.92194C11.8863 9.30479 11.9378 8.33408 11.3528 7.62051L9.43705 5.41551C9.2117 5.15556 8.93519 4.94484 8.62478 4.79649C8.31437 4.64815 7.97673 4.56536 7.63291 4.5533C7.28908 4.54123 6.94647 4.60015 6.62642 4.72638C6.30638 4.8526 6.01579 5.04342 5.77277 5.28694L5.44491 5.61479Z" fill="#FFC83D"/>
<path d="M8.06778 8.19285L8.49207 9.00284C8.58207 9.16999 8.80064 9.20213 8.93564 9.06713L9.2185 8.78427C9.3535 8.64927 9.31493 8.4307 9.15421 8.3407L8.34421 7.91642C8.30558 7.89538 8.26118 7.88741 8.21764 7.89369C8.1741 7.89998 8.13376 7.92018 8.10266 7.95129C8.07155 7.9824 8.05135 8.02273 8.04506 8.06627C8.03877 8.10981 8.04675 8.15421 8.06778 8.19285Z" fill="#ED9200"/>
<path d="M9.27004 4.9331L10.0093 5.61453C10.0993 5.74953 10.0865 5.9231 9.98361 6.04525C9.98361 6.04525 9.68147 5.6981 9.48861 5.47953C9.43914 5.42335 9.37757 5.37911 9.30853 5.35016C9.23949 5.32121 9.16479 5.3083 9.09004 5.31239L8.95504 5.31882C8.86874 5.32187 8.7827 5.30751 8.70207 5.27658C8.62145 5.24566 8.54787 5.1988 8.48575 5.13882C8.55689 5.1131 8.62204 5.09103 8.68118 5.0726C8.82261 5.0276 8.94025 4.98967 9.09004 4.89453C9.10675 4.91767 9.14789 4.91703 9.18647 4.91639C9.22311 4.9151 9.25718 4.91446 9.27004 4.9331ZM5.47075 8.8031L5.46432 8.93167C5.45789 9.07953 5.51575 9.22739 5.63147 9.33025C5.85004 9.5231 6.19718 9.82525 6.19718 9.82525C6.08147 9.93453 5.90147 9.94739 5.76647 9.85739L5.08504 9.1181C5.06768 9.10396 5.06447 9.0731 5.06125 9.03903C5.05739 8.99789 5.05289 8.95289 5.02075 8.93167V8.92975C5.05289 8.66682 5.07861 8.45532 5.16861 8.20525L5.29075 8.32739C5.41289 8.45596 5.48361 8.62953 5.47075 8.8031Z" fill="#F1A11E"/>
<path d="M10.0094 5.61529L9.63007 5.26172L9.15435 5.96886C8.92935 5.94315 8.69792 6.01386 8.53078 6.181L8.11935 6.59243C7.88792 6.82386 7.84292 7.171 7.9715 7.44743L7.61792 7.801C7.33507 7.67243 6.99435 7.71743 6.76292 7.94886L6.3515 8.36029C6.17792 8.53386 6.11364 8.76529 6.13935 8.99029L5.42578 9.47886L5.75364 9.83243L6.37078 9.45315C6.6665 9.72958 7.13578 9.72315 7.41864 9.43386L7.83007 9.02243C8.0615 8.791 8.1065 8.44386 7.97792 8.16743L8.3315 7.81386C8.61435 7.94243 8.95507 7.89743 9.1865 7.666L9.59792 7.25458C9.88721 6.96529 9.89364 6.496 9.61078 6.20029L10.0094 5.61529Z" fill="#433B6B"/>
<path d="M9.05782 7.44041L9.3471 7.15112C9.54639 6.95826 9.54639 6.63684 9.3471 6.43755C9.15424 6.23826 8.83282 6.23826 8.63353 6.43755L8.34424 6.72684C8.14496 6.91969 8.14496 7.24112 8.34424 7.44041C8.5371 7.63969 8.85853 7.63969 9.05782 7.44041ZM7.31567 9.18255L7.60496 8.89326C7.80424 8.70041 7.80424 8.37255 7.60496 8.17969C7.4121 7.98041 7.09067 7.98041 6.89139 8.17969L6.6021 8.46898C6.40282 8.66184 6.40282 8.98326 6.6021 9.18255C6.79496 9.38184 7.11639 9.38184 7.31567 9.18255Z" fill="#00A6ED"/>
<path d="M5.08502 9.11877C3.92788 8.19305 3.84431 6.59877 4.84717 5.59591L5.74074 4.70234C5.97721 4.46581 6.26156 4.28262 6.5747 4.16509C6.88784 4.04757 7.2225 3.99842 7.5562 4.02095C7.88991 4.04348 8.21492 4.13717 8.50942 4.29572C8.80391 4.45428 9.06107 4.67402 9.26359 4.9402C9.26359 4.9402 9.10288 4.83734 7.03288 6.90734C4.94359 9.00305 5.08502 9.11877 5.08502 9.11877Z" fill="#0092E7"/>
<path d="M9.59786 9.96037C9.73596 9.96037 9.86841 9.90551 9.96606 9.80786C10.0637 9.71021 10.1186 9.57776 10.1186 9.43966C10.1186 9.30156 10.0637 9.16911 9.96606 9.07146C9.86841 8.97381 9.73596 8.91895 9.59786 8.91895C9.45976 8.91895 9.32731 8.97381 9.22966 9.07146C9.13201 9.16911 9.07715 9.30156 9.07715 9.43966C9.07715 9.57776 9.13201 9.71021 9.22966 9.80786C9.32731 9.90551 9.45976 9.96037 9.59786 9.96037Z" fill="#990839"/>
</svg>
