<svg width="19" height="16" viewBox="0 0 19 16" fill="none" xmlns="http://www.w3.org/2000/svg">
<path d="M10.1719 5.575L14.4969 9.28438C14.4469 9.3125 14.3969 9.34688 14.3469 9.37813C13.7844 9.76562 13.0938 10.0125 12.4969 10.0125C11.8844 10.0125 11.2219 9.77188 10.6469 9.37813C9.95627 8.89375 9.0344 8.89375 8.34377 9.37813C7.8094 9.74688 7.15627 10.0125 6.49377 10.0125C6.17815 10.0125 5.8344 9.94375 5.4969 9.81875C5.5969 6.0375 8.69377 3 12.5 3H14.5C15.0531 3 15.5 3.44687 15.5 4C15.5 4.55313 15.0531 5 14.5 5H12.5C11.6594 5 10.8656 5.20625 10.1719 5.575ZM5.50002 5C5.50002 5.53043 5.28931 6.03914 4.91424 6.41421C4.53916 6.78929 4.03046 7 3.50002 7C2.96959 7 2.46088 6.78929 2.08581 6.41421C1.71074 6.03914 1.50002 5.53043 1.50002 5C1.50002 4.46957 1.71074 3.96086 2.08581 3.58579C2.46088 3.21071 2.96959 3 3.50002 3C4.03046 3 4.53916 3.21071 4.91424 3.58579C5.28931 3.96086 5.50002 4.46957 5.50002 5ZM10.0781 10.1844C10.7813 10.6687 11.6406 11 12.5 11C13.3406 11 14.2313 10.6625 14.9188 10.1844C15.2906 9.91875 15.7969 9.94063 16.1438 10.2375C16.5938 10.6094 17.1594 10.8937 17.725 11.025C18.2625 11.15 18.5969 11.6875 18.4719 12.225C18.3469 12.7625 17.8094 13.0969 17.2719 12.9719C16.5063 12.7937 15.8688 12.4563 15.4531 12.1906C14.5469 12.6781 13.5313 13 12.5 13C11.5031 13 10.6063 12.6906 9.98752 12.4094C9.80627 12.325 9.64065 12.2437 9.50002 12.1687C9.3594 12.2437 9.1969 12.3281 9.01252 12.4094C8.39377 12.6906 7.4969 13 6.50002 13C5.46877 13 4.45315 12.6781 3.5469 12.1938C3.12815 12.4563 2.49377 12.7969 1.72815 12.975C1.19065 13.1 0.653148 12.7656 0.528148 12.2281C0.403148 11.6906 0.737523 11.1531 1.27502 11.0281C1.84065 10.8969 2.40627 10.6125 2.85627 10.2406C3.20315 9.94688 3.7094 9.925 4.08127 10.1875C4.7719 10.6625 5.6594 11 6.50002 11C7.3594 11 8.21877 10.6687 8.9219 10.1844C9.26877 9.9375 9.73127 9.9375 10.0781 10.1844Z" fill="#818080"/>
</svg>
