<svg width="16" height="16" viewBox="0 0 16 16" fill="none" xmlns="http://www.w3.org/2000/svg">
<path d="M12.1667 7H13.0934C14.328 7 14.6947 7.17667 14.6647 8.056C14.616 9.51133 13.9594 11.2027 11.3334 11.6667" stroke="#818080" stroke-width="1.5" stroke-linecap="round" stroke-linejoin="round"/>
<path d="M3.96405 13.7437C1.71471 12.0137 1.38338 9.56033 1.33405 7.00033C1.31338 5.89433 1.63405 5.66699 3.10605 5.66699H10.2274C11.6994 5.66699 12.0207 5.89433 11.9994 7.00033C11.95 9.56033 11.6194 12.0137 9.36938 13.7437C8.72938 14.2357 8.18938 14.3337 7.27938 14.3337H6.05405C5.14471 14.3337 4.60471 14.2363 3.96405 13.7437Z" stroke="#818080" stroke-width="1.5" stroke-linecap="round" stroke-linejoin="round"/>
<path d="M6.66675 5.66699V9.00033M7.53941 1.66699C7.17475 1.89299 6.66675 2.66699 6.66675 3.66699M5.02675 2.66699C5.02675 2.66699 4.66675 3.00033 4.66675 3.66699M9.33408 2.66699C9.15208 2.78033 9.00008 3.33366 9.00008 3.66699M5.66941 10.865L5.86408 9.63032C5.92141 9.26899 6.26275 9.00033 6.66608 9.00033C7.06875 9.00033 7.41075 9.26899 7.46741 9.63032L7.66208 10.865C7.76741 11.5297 5.57741 11.449 5.66941 10.865Z" stroke="#818080" stroke-width="1.5" stroke-linecap="round" stroke-linejoin="round"/>
</svg>
