<svg width="17" height="16" viewBox="0 0 17 16" fill="none" xmlns="http://www.w3.org/2000/svg">
<path d="M8.20932 6.9199L3.93998 5.1079C3.75865 5.03723 3.65243 4.90834 3.62132 4.72123C3.59021 4.53412 3.64154 4.3739 3.77532 4.24057L3.93932 4.06323C4.00287 4.00012 4.07509 3.95701 4.15598 3.9339C4.23687 3.91079 4.32243 3.90612 4.41265 3.9199L10.2207 4.92256L12.3127 2.8259C12.4998 2.63923 12.726 2.5459 12.9913 2.5459C13.2566 2.5459 13.4831 2.63923 13.6707 2.8259C13.8578 3.01301 13.9513 3.23945 13.9513 3.50523C13.9513 3.77101 13.8578 3.99723 13.6707 4.1839L11.578 6.2799L12.5773 12.0839C12.5906 12.1746 12.5864 12.261 12.5647 12.3432C12.5429 12.425 12.5004 12.4977 12.4373 12.5612L12.2607 12.7212C12.1264 12.8555 11.9653 12.9077 11.7773 12.8779C11.5889 12.8477 11.4593 12.7421 11.3887 12.5612L9.57932 8.27857L7.53332 10.3212L7.88665 12.4006C7.90087 12.469 7.89976 12.5346 7.88332 12.5972C7.86732 12.6603 7.83309 12.7179 7.78065 12.7699L7.59998 12.9379C7.49554 13.0423 7.37643 13.0821 7.24265 13.0572C7.10932 13.0323 7.00821 12.9583 6.93932 12.8352L5.79998 10.6999L3.66532 9.5599C3.54221 9.4919 3.46821 9.39101 3.44332 9.25723C3.41843 9.12345 3.45843 9.00434 3.56332 8.8999L3.73065 8.71923C3.78265 8.66679 3.84021 8.63034 3.90332 8.6099C3.96598 8.58945 4.03154 8.58612 4.09998 8.5999L6.17532 8.96257L8.20932 6.9199Z" fill="#818080"/>
</svg>
