<svg width="22" height="22" viewBox="0 0 22 22" fill="none" xmlns="http://www.w3.org/2000/svg">
<path d="M15.0002 7C19.0002 7 21.0002 5 21.0002 1C17.0002 1 15.0002 3 15.0002 7Z" stroke="#89EB1A" stroke-width="2" stroke-linecap="round" stroke-linejoin="round"/>
<path d="M16.4101 2.58989C14.335 1.25496 11.8395 0.734376 9.4037 1.12826C6.96787 1.52215 4.76367 2.80268 3.21499 4.72361C1.6663 6.64454 0.882489 9.07022 1.01429 11.5342C1.14608 13.9981 2.18418 16.3263 3.92894 18.0711C5.6737 19.8159 8.00193 20.854 10.4659 20.9858C12.9298 21.1176 15.3555 20.3337 17.2764 18.7851C19.1974 17.2364 20.4779 15.0322 20.8718 12.5963C21.2657 10.1605 20.7451 7.66506 19.4101 5.58989" stroke="#89EB1A" stroke-width="2" stroke-linecap="round" stroke-linejoin="round"/>
<path d="M1.00024 1C4.01885 3.40804 6.47698 6.44442 8.20386 9.89819C9.93075 13.352 10.885 17.1403 11.0002 21C11.9002 14.18 12.5002 11.5 15.0002 7" stroke="#89EB1A" stroke-width="2" stroke-linecap="round" stroke-linejoin="round"/>
</svg>
