<svg width="30" height="31" viewBox="0 0 30 31" fill="none" xmlns="http://www.w3.org/2000/svg">
<path d="M0 19.3144C0 23.4012 3.52467 27.5945 9.56987 28.2836C8.91925 27.4804 8.37105 26.5995 7.93787 25.661C4.26587 24.6025 2.26667 21.8712 2.26667 19.3144V18.181C2.26667 17.8805 2.38607 17.5922 2.59861 17.3797C2.81115 17.1671 3.09942 17.0477 3.4 17.0477H7.2692C7.49436 16.2559 7.79129 15.5003 8.16 14.781H3.4C2.49826 14.781 1.63346 15.1393 0.995837 15.7769C0.358213 16.4145 0 17.2793 0 18.181V19.3144ZM17.5667 6.28105C17.5652 6.92931 17.4715 7.54887 17.2856 8.13972C16.2024 8.31304 15.1469 8.62856 14.1463 9.07811C14.82 8.39852 15.2253 7.49826 15.2876 6.54332C15.3498 5.58839 15.0647 4.64315 14.4848 3.88187C13.905 3.1206 13.0694 2.59462 12.1323 2.40089C11.1951 2.20717 10.2195 2.35877 9.38537 2.82774C8.5512 3.29671 7.91469 4.05144 7.59318 4.95278C7.27168 5.85412 7.28686 6.8413 7.63592 7.73233C7.98499 8.62335 8.6444 9.35815 9.4926 9.80126C10.3408 10.2444 11.3206 10.3659 12.2513 10.1434C11.3444 10.7604 10.5228 11.4943 9.80787 12.3262C8.67535 12.041 7.64572 11.4434 6.83624 10.6015C6.02676 9.75964 5.46998 8.70737 5.2293 7.56454C4.98863 6.42171 5.07375 5.23426 5.47495 4.13744C5.87616 3.04062 6.57733 2.07852 7.4986 1.36072C8.41987 0.642914 9.52421 0.198268 10.6858 0.0774206C11.8475 -0.0434267 13.0197 0.164383 14.069 0.677181C15.1183 1.18998 16.0025 1.98715 16.6208 2.9779C17.2392 3.96865 17.5669 5.11315 17.5667 6.28105ZM29.4667 20.4477C29.4667 21.7872 29.2028 23.1136 28.6902 24.3511C28.1776 25.5886 27.4263 26.713 26.4792 27.6602C25.532 28.6074 24.4076 29.3587 23.17 29.8713C21.9325 30.3839 20.6061 30.6477 19.2667 30.6477C17.9272 30.6477 16.6008 30.3839 15.3633 29.8713C14.1258 29.3587 13.0013 28.6074 12.0542 27.6602C11.107 26.713 10.3557 25.5886 9.8431 24.3511C9.3305 23.1136 9.06667 21.7872 9.06667 20.4477C9.06667 17.7425 10.1413 15.1481 12.0542 13.2352C13.967 11.3224 16.5615 10.2477 19.2667 10.2477C21.9719 10.2477 24.5663 11.3224 26.4792 13.2352C28.392 15.1481 29.4667 17.7425 29.4667 20.4477ZM20.3456 14.4637C20.2801 14.2279 20.1392 14.02 19.9443 13.8718C19.7495 13.7237 19.5114 13.6435 19.2667 13.6435C19.0219 13.6435 18.7839 13.7237 18.589 13.8718C18.3942 14.02 18.2532 14.2279 18.1877 14.4637L17.1065 17.9362H13.6C12.5029 17.9362 12.0451 19.4028 12.9336 20.076L15.7669 22.2225L14.6857 25.695C14.3457 26.783 15.5425 27.6897 16.4311 27.0165L19.2644 24.87L22.0977 27.0165C22.9863 27.6897 24.1831 26.783 23.8431 25.695L22.7619 22.2225L25.5952 20.076C26.4837 19.4028 26.0259 17.9362 24.9288 17.9362H21.4245L20.3456 14.4637Z" fill="#C29225"/>
</svg>
