<svg width="31" height="30" viewBox="0 0 31 30" fill="none" xmlns="http://www.w3.org/2000/svg">
<path d="M0.5 18.8903C0.5 22.8964 4.08846 27.007 10.2431 27.6825C9.58069 26.8952 9.02256 26.0317 8.58154 25.1117C4.84308 24.0741 2.80769 21.3966 2.80769 18.8903V17.7793C2.80769 17.4846 2.92926 17.2021 3.14565 16.9937C3.36203 16.7854 3.65552 16.6683 3.96154 16.6683H7.90077C8.13 15.8921 8.43231 15.1515 8.80769 14.4464H3.96154C3.04348 14.4464 2.16303 14.7975 1.51386 15.4226C0.864697 16.0476 0.5 16.8953 0.5 17.7793V18.8903ZM18.3846 6.11405C18.3831 6.74953 18.2877 7.35686 18.0985 7.93605C16.9957 8.10595 15.921 8.41525 14.9023 8.85594C15.5882 8.18975 16.0009 7.30725 16.0643 6.37115C16.1276 5.43506 15.8373 4.50847 15.247 3.76221C14.6566 3.01596 13.806 2.50035 12.8519 2.31045C11.8978 2.12055 10.9045 2.26916 10.0552 2.72888C9.20597 3.1886 8.55794 3.92843 8.23061 4.81199C7.90329 5.69555 7.91875 6.66325 8.27413 7.5367C8.62951 8.41015 9.30086 9.13045 10.1644 9.56481C11.028 9.99918 12.0255 10.1183 12.9731 9.90025C12.0497 10.505 11.2132 11.2245 10.4854 12.04C9.33237 11.7603 8.2841 11.1745 7.45997 10.3493C6.63584 9.52401 6.06898 8.4925 5.82395 7.37222C5.57892 6.25194 5.66558 5.08792 6.07405 4.01273C6.48252 2.93755 7.19638 1.99443 8.13432 1.29079C9.07227 0.587152 10.1966 0.151278 11.3793 0.0328148C12.5619 -0.0856483 13.7553 0.118062 14.8236 0.620742C15.8919 1.12342 16.7921 1.90487 17.4217 2.87607C18.0513 3.84728 18.3849 4.9692 18.3846 6.11405ZM30.5 20.0012C30.5 21.3143 30.2314 22.6145 29.7095 23.8276C29.1876 25.0407 28.4227 26.143 27.4584 27.0714C26.4941 27.9999 25.3493 28.7364 24.0894 29.2389C22.8295 29.7414 21.4791 30 20.1154 30C18.7517 30 17.4013 29.7414 16.1414 29.2389C14.8814 28.7364 13.7367 27.9999 12.7724 27.0714C11.8081 26.143 11.0431 25.0407 10.5213 23.8276C9.99938 22.6145 9.73077 21.3143 9.73077 20.0012C9.73077 17.3494 10.8249 14.8062 12.7724 12.931C14.7198 11.0559 17.3612 10.0025 20.1154 10.0025C22.8696 10.0025 25.5109 11.0559 27.4584 12.931C29.4059 14.8062 30.5 17.3494 30.5 20.0012ZM21.2138 14.1353C21.1472 13.9041 21.0037 13.7003 20.8053 13.5551C20.6069 13.4099 20.3646 13.3312 20.1154 13.3312C19.8662 13.3312 19.6238 13.4099 19.4255 13.5551C19.2271 13.7003 19.0836 13.9041 19.0169 14.1353L17.9162 17.5393H14.3462C13.2292 17.5393 12.7631 18.9769 13.6677 19.6368L16.5523 21.741L15.4515 25.145C15.1054 26.2116 16.3238 27.1004 17.2285 26.4404L20.1131 24.3363L22.9977 26.4404C23.9023 27.1004 25.1208 26.2116 24.7746 25.145L23.6738 21.741L26.5585 19.6368C27.4631 18.9769 26.9969 17.5393 25.88 17.5393H22.3123L21.2138 14.1353Z" fill="#756EF3"/>
</svg>
