<svg width="16" height="16" viewBox="0 0 16 16" fill="none" xmlns="http://www.w3.org/2000/svg">
<path d="M10.598 5.88919C10.6549 5.92205 10.7047 5.9658 10.7447 6.01793C10.7846 6.07006 10.8139 6.12955 10.8309 6.19301C10.8479 6.25647 10.8522 6.32265 10.8435 6.38777C10.8349 6.45289 10.8135 6.51567 10.7807 6.57252L8.50265 10.5145C8.47006 10.5718 8.42645 10.6222 8.37434 10.6626C8.32222 10.703 8.26263 10.7327 8.199 10.7499C8.13536 10.7672 8.06894 10.7717 8.00355 10.7632C7.93816 10.7547 7.87509 10.7334 7.81799 10.7004C7.76088 10.6674 7.71086 10.6235 7.67081 10.5711C7.63075 10.5187 7.60146 10.4589 7.5846 10.3952C7.56775 10.3314 7.56367 10.265 7.5726 10.1997C7.58154 10.1343 7.6033 10.0714 7.63665 10.0145L9.91532 6.07186C9.98168 5.95717 10.0909 5.87351 10.2189 5.83926C10.3469 5.80501 10.4832 5.82297 10.598 5.88919Z" fill="#818080"/>
<path d="M9.99269 2.52349C10.3564 2.24535 10.8153 2.12241 11.2694 2.18149C11.466 2.20816 11.644 2.27683 11.8214 2.36283C11.9907 2.44616 12.188 2.56016 12.424 2.69616L12.4527 2.71283C12.688 2.84816 12.886 2.96283 13.0427 3.06816C13.206 3.17749 13.3554 3.29683 13.476 3.45483C13.7554 3.81816 13.8787 4.27683 13.8187 4.73083C13.7883 4.92347 13.7269 5.1099 13.6367 5.28283C13.554 5.45216 13.4394 5.64949 13.3034 5.88483L9.88602 11.7982C9.67008 12.1905 9.344 12.511 8.94802 12.7202L7.70735 13.4082C7.48735 13.5302 7.29402 13.6375 7.13002 13.7095C7.0193 13.7607 6.90262 13.7979 6.78269 13.8202C6.74448 13.828 6.70567 13.8325 6.66669 13.8335H2.66669C2.53408 13.8335 2.4069 13.7808 2.31313 13.687C2.21937 13.5933 2.16669 13.4661 2.16669 13.3335C2.16669 13.2009 2.21937 13.0737 2.31313 12.9799C2.4069 12.8862 2.53408 12.8335 2.66669 12.8335H5.55735L5.55335 12.8002C5.53566 12.5839 5.52676 12.3671 5.52669 12.1502L5.50269 10.7322C5.48553 10.2848 5.60004 9.84234 5.83202 9.45949L9.25002 3.54616C9.38535 3.31083 9.50002 3.11283 9.60535 2.95616C9.71535 2.79283 9.83469 2.64416 9.99202 2.52283M11.138 3.17216C10.9467 3.14754 10.7534 3.19928 10.6 3.31616C10.5647 3.34349 10.5154 3.39283 10.434 3.51416C10.3391 3.66094 10.2486 3.81057 10.1627 3.96283L10.1774 3.96816C10.4334 4.06816 10.816 4.24549 11.364 4.56149C11.9047 4.87349 12.2434 5.14283 12.4547 5.35283C12.5867 5.12483 12.676 4.96883 12.738 4.84216C12.802 4.71083 12.8207 4.64416 12.8267 4.59949C12.8508 4.40886 12.7991 4.21639 12.6827 4.06349C12.6554 4.02749 12.606 3.97883 12.4847 3.89683C12.3058 3.78252 12.1235 3.67358 11.938 3.57016C11.6847 3.42349 11.516 3.32683 11.3807 3.26083C11.2494 3.19683 11.1827 3.17816 11.138 3.17216ZM11.8707 6.19083L11.8727 6.19616L11.8774 6.20549L11.8827 6.21616L11.8814 6.21416L11.8694 6.18749L11.8707 6.19083ZM11.8694 6.18749L11.8687 6.18483V6.18616M11.8774 6.20816C11.8438 6.16147 11.8064 6.11775 11.7654 6.07749C11.632 5.94216 11.3654 5.71749 10.864 5.42749C10.3494 5.13083 10.012 4.97749 9.81335 4.89949C9.76086 4.87892 9.70772 4.86003 9.65402 4.84283L6.69735 9.95949C6.55634 10.1851 6.48793 10.4485 6.50135 10.7142L6.52335 12.0128C6.85002 12.0595 7.13935 12.2255 7.34469 12.4648L8.46269 11.8448C8.69984 11.7239 8.89415 11.5331 9.01935 11.2982L11.9194 6.28016C11.9054 6.2589 11.8928 6.23687 11.8814 6.21416L11.8774 6.20816Z" fill="#818080"/>
</svg>
