<?xml version="1.0" encoding="UTF-8"?>
<svg version="1.1" xmlns="http://www.w3.org/2000/svg" width="512" height="512">
<path d="M0 0 C8.73471103 5.86441295 16.53903602 12.9791879 24.4375 19.90234375 C28.28877222 23.26913412 32.2399557 26.50317679 36.21484375 29.72265625 C41.53780841 34.07509439 46.76258954 38.54528681 52 43 C56.56577915 40.0919924 60.62082848 36.87767615 64.6875 33.3125 C69.77182224 28.90251945 74.91731715 24.59128744 80.1484375 20.35546875 C82.90297094 18.08014866 85.60082255 15.75165634 88.29370117 13.40429688 C100.81958915 2.51657662 111.83270185 -5.12174077 129.1171875 -4.390625 C140.14002789 -3.28168733 147.97454122 2.07880459 156.1875 9.1875 C157.33789065 10.17263573 158.48894214 11.15700025 159.640625 12.140625 C160.20845703 12.62595703 160.77628906 13.11128906 161.36132812 13.61132812 C163.69285501 15.58715126 166.06351121 17.51302388 168.4375 19.4375 C172.73098826 22.9287014 176.93692921 26.50907309 181.125 30.125 C186.29294238 34.58512073 191.5402091 38.89793488 197 43 C203.07899182 38.65786299 208.67419523 33.86737209 214.29272461 28.95678711 C218.87224388 24.95985764 223.5228294 21.07110496 228.25390625 17.25390625 C230.26963633 15.59945922 232.24945974 13.92704383 234.21484375 12.21484375 C247.33029488 0.81268956 258.2700372 -5.13718049 275.98046875 -4.17773438 C290.89028355 -2.86555532 302.74980207 10.53365912 313.44140625 19.90625 C317.2818509 23.26370334 321.22738977 26.48131861 325.19140625 29.69140625 C328.5029848 32.41344091 331.75313059 35.20139731 335 38 C339.124643 41.55457492 343.27207904 45.06792298 347.5 48.5 C351.83977235 52.0284796 356.12134094 55.61861081 360.375 59.25 C361.24995117 59.9934668 361.24995117 59.9934668 362.14257812 60.75195312 C370.60948317 68.0079052 378.54697852 75.74663456 381 87 C381.83309676 100.78023986 381.16006618 112.00223023 371.91015625 123 C363.92473115 131.36101769 353.5821038 135.97704273 342 136.3125 C323.61851101 136.04073067 311.82884316 124.02797313 298.86230469 112.62841797 C296.01617043 110.13972952 293.13752023 107.6904511 290.25 105.25 C289.72446533 104.8055957 289.19893066 104.36119141 288.6574707 103.90332031 C284.19538903 100.14241298 279.67996388 96.44951688 275.14453125 92.77734375 C273 91 273 91 271 89 C267.14954232 89.26160222 265.14595992 91.4298634 262.4375 94 C258.05635418 98.06088662 253.54481649 101.87195426 248.90234375 105.62890625 C246.36182948 107.70440041 243.85483411 109.81022927 241.35986328 111.93969727 C239.16954916 113.8074765 236.96864381 115.66246178 234.76513672 117.51464844 C233.54830825 118.53860202 232.33393175 119.56547411 231.12158203 120.59472656 C218.50442246 131.26170033 208.02733328 137.15078348 191 136 C179.93598034 134.07723959 171.58963773 127.84501577 163.55078125 120.34375 C161.02192006 118.02014094 158.42064839 115.84591568 155.75 113.6875 C151.41187687 110.17773136 147.16092279 106.58323885 142.9375 102.9375 C137.39349884 98.1557042 131.76422412 93.51575161 126 89 C122.60256975 90.51866698 119.98381716 92.50279002 117.125 94.875 C116.15820312 95.67679687 115.19140625 96.47859375 114.1953125 97.3046875 C110.16833037 100.68855832 106.18362413 104.12165178 102.19604492 107.55175781 C96.87042461 112.1267678 91.48046019 116.61101996 86 121 C85.47519043 121.42587402 84.95038086 121.85174805 84.40966797 122.29052734 C72.55767047 131.88135713 62.65180885 137.27205514 47 136 C33.83673378 133.54264828 25.11890487 126.12086118 15.51953125 117.27734375 C12.09601601 114.18291059 8.51886024 111.29834283 4.93359375 108.39453125 C-2.82157337 102.06441481 -10.41222867 95.52901254 -18 89 C-23.05246892 90.52726722 -26.28809352 93.60580543 -30.125 97.0625 C-31.46899361 98.25119783 -32.81405149 99.43869341 -34.16015625 100.625 C-34.8164502 101.20507812 -35.47274414 101.78515625 -36.14892578 102.3828125 C-39.42083008 105.24130552 -42.80873302 107.95342936 -46.1875 110.68359375 C-48.9119355 112.9274691 -51.57895074 115.22491379 -54.24023438 117.54272461 C-66.18850727 127.91742405 -77.53241005 137.07156428 -94.31640625 136.31640625 C-105.91476543 134.94891412 -116.00745135 130.38623002 -123.46484375 121.21875 C-130.92087386 110.4426047 -132.12123328 99.81991921 -131 87 C-127.09859643 70.46451751 -111.49251321 59.5417439 -98.94921875 49.4140625 C-95.5863153 46.66138127 -92.29070431 43.83818231 -89 41 C-84.01078981 36.70004869 -78.95778077 32.49513968 -73.84375 28.34375 C-70.52311634 25.60696402 -67.26006881 22.80836988 -64 20 C-24.53672399 -13.89211579 -24.53672399 -13.89211579 0 0 Z M-40.15234375 28.359375 C-43.68078979 31.63129479 -47.38408317 34.63660273 -51.125 37.66015625 C-54.24024597 40.19552627 -57.31248991 42.77643734 -60.375 45.375 C-60.91737305 45.83495361 -61.45974609 46.29490723 -62.01855469 46.76879883 C-63.67965272 48.17847549 -65.33996706 49.5890693 -67 51 C-73.10888035 56.19219022 -79.21510641 61.38123581 -85.4375 66.4375 C-89.80489209 70.00206266 -94.13657609 73.60568865 -98.4375 77.25 C-99.02909912 77.74556396 -99.62069824 78.24112793 -100.23022461 78.75170898 C-107.29976012 84.74109238 -107.29976012 84.74109238 -110.203125 93.26953125 C-110.31799332 99.5011374 -109.95023757 103.90076053 -105.453125 108.625 C-100.70471768 112.99521558 -96.38244686 115.25336486 -89.8125 115.125 C-79.36414537 113.56035455 -70.29933475 102.90480115 -62.62890625 96.1640625 C-58.77083323 92.78133945 -54.80476154 89.54394265 -50.81640625 86.31640625 C-47.45733724 83.55367681 -44.16647402 80.71757682 -40.875 77.875 C-25.00588837 64.19287388 -25.00588837 64.19287388 -19.75 63.6875 C-12.75229354 64.27064221 -7.88515384 69.69255231 -2.8125 74.1875 C2.44577771 78.79805145 7.76600296 83.29965402 13.203125 87.69921875 C15.84949289 89.87618898 18.44834651 92.09743273 21.03881836 94.34008789 C26.45290638 99.02534203 31.9147552 103.64455352 37.5 108.125 C38.06307861 108.58632324 38.62615723 109.04764648 39.20629883 109.52294922 C43.81754902 113.17647293 48.32796959 115.5409745 54.3125 115 C64.36689465 113.46599617 71.96155664 104.69828766 79.30078125 98.234375 C82.33487495 95.56666535 85.42185525 92.97970579 88.5625 90.4375 C92.77207699 87.02855578 96.89573473 83.5339208 101 80 C102.1913708 78.98303139 103.38277662 77.9661038 104.57421875 76.94921875 C106.75224364 75.0864263 108.89745084 73.19568394 111.01953125 71.26953125 C115.81080232 67.05455292 119.43147308 64.05411971 125.9296875 63.609375 C131.22986809 64.60940907 135.16964675 68.69314063 139.125 72.125 C140.28450007 73.11925533 141.44466614 74.11273446 142.60546875 75.10546875 C143.17958496 75.59708496 143.75370117 76.08870117 144.34521484 76.59521484 C146.68086376 78.57800089 149.05724845 80.50861467 151.4375 82.4375 C155.68394463 85.89275844 159.85252161 89.42746959 164 93 C179.86311634 108.78072448 179.86311634 108.78072448 200 115 C206.81479087 113.14142067 211.68517055 108.49716338 217 104 C218.02459686 103.13915301 219.04934151 102.27848191 220.07421875 101.41796875 C223.39288266 98.62378309 226.69672231 95.81234063 230 93 C237.93538213 86.25225764 245.90413339 79.55550261 254 73 C255.40378906 71.86111328 255.40378906 71.86111328 256.8359375 70.69921875 C265.87741481 63.40645123 265.87741481 63.40645123 273 64 C277.86869829 66.85429998 281.98278929 70.46164854 286.1875 74.1875 C291.44224069 78.79495013 296.75966082 83.29274167 302.19140625 87.69140625 C305.50299503 90.41344932 308.75285506 93.20170447 312 96 C326.08313357 109.70165564 326.08313357 109.70165564 344 115 C350.27422858 114.01421547 353.68844794 110.70501022 357.65234375 105.9375 C359.83758758 102.79581612 360.20237805 99.98255453 360.3125 96.25 C360.34988281 95.43015625 360.38726562 94.6103125 360.42578125 93.765625 C359.40900835 87.16126525 355.26696777 82.90785691 350.4375 78.625 C349.6475061 77.92020508 349.6475061 77.92020508 348.84155273 77.20117188 C344.60481006 73.45096636 340.24421544 69.85598863 335.83984375 66.3046875 C332.73373761 63.7839136 329.67476032 61.21336417 326.625 58.625 C326.08254639 58.16496582 325.54009277 57.70493164 324.98120117 57.23095703 C322.76447154 55.3497979 320.54926815 53.46684573 318.33398438 51.58398438 C311.90484095 46.12185665 305.44670077 40.70847548 298.890625 35.3984375 C296.72217795 33.59921252 294.59594007 31.77794669 292.484375 29.9140625 C291.8752124 29.37966553 291.2660498 28.84526855 290.63842773 28.29467773 C289.45967046 27.25713807 288.28682656 26.21282303 287.12133789 25.16040039 C281.25386646 20.00904107 275.21820499 16.17743459 267.21484375 16.62890625 C259.7965667 17.87182745 254.95964492 22.59678923 249.62109375 27.5859375 C247.06956583 29.93592894 244.44815094 32.13337662 241.75 34.3125 C237.43548092 37.80433536 233.2031041 41.37598517 229 45 C223.07802544 50.09874043 217.08512198 55.09627305 211 60 C210.17371094 60.68449219 209.34742188 61.36898437 208.49609375 62.07421875 C207.71363281 62.70972656 206.93117188 63.34523438 206.125 64 C205.44695312 64.556875 204.76890625 65.11375 204.0703125 65.6875 C200.57143708 67.90565498 198.12227501 68.23823996 194.07421875 67.37890625 C190.45207806 65.75423578 187.73569999 63.56056395 184.8125 60.9375 C183.66218182 59.93406583 182.51112929 58.93147295 181.359375 57.9296875 C180.79154297 57.43178711 180.22371094 56.93388672 179.63867188 56.42089844 C177.32360485 54.41349527 174.94610041 52.48771571 172.5625 50.5625 C168.3160668 47.10725086 164.14723388 43.572803 160 40 C143.47556868 23.63581225 143.47556868 23.63581225 122.70703125 16.5703125 C114.17121495 17.92520398 107.81861941 24.75247741 101.7734375 30.43359375 C98.29344392 33.65381316 94.63671451 36.60858715 90.94921875 39.5859375 C87.58631306 42.33862057 84.29075831 45.1618772 81 48 C75.0792822 53.10100072 69.08364968 58.09351181 63 63 C62.13246094 63.72316406 61.26492187 64.44632813 60.37109375 65.19140625 C57.42614023 67.4377217 55.70016027 67.92599679 52 68 C46.16211491 65.995425 42.27524751 63.00132762 37.75 58.875 C36.42424701 57.69541099 35.09741817 56.51703004 33.76953125 55.33984375 C33.12580566 54.7660498 32.48208008 54.19225586 31.81884766 53.60107422 C29.41024628 51.48085841 26.9339562 49.45315723 24.4375 47.4375 C20.22799917 44.02861745 16.10270069 40.53566526 12 37 C-2.84226598 22.52128906 -2.84226598 22.52128906 -21.61328125 16.73828125 C-29.4994881 17.60305352 -34.60893397 23.14384227 -40.15234375 28.359375 Z " fill="#000000" transform="translate(131,339)"/>
<path d="M0 0 C2.81462991 2.40552673 5.52456452 4.89431378 8.22265625 7.4296875 C11.72510165 10.67105047 15.40173686 13.65166985 19.11328125 16.6484375 C22.3001124 19.24447587 25.43350244 21.89737988 28.5625 24.5625 C33.95641611 29.15081562 39.43696004 33.61737935 45 38 C49.14413986 36.29957897 52.24383235 33.35850595 55.5625 30.4375 C56.82335107 29.34144897 58.08507833 28.24640511 59.34765625 27.15234375 C59.96914551 26.61335449 60.59063477 26.07436523 61.23095703 25.51904297 C64.48536647 22.72454455 67.83011006 20.04219831 71.1640625 17.34375 C73.25053883 15.61938939 75.30092741 13.87685068 77.3359375 12.09375 C102.52087459 -9.97241792 102.52087459 -9.97241792 120.90234375 -9.33203125 C132.9773375 -8.0377381 141.07237448 -2.67124143 150 5 C151.15725963 5.97821067 152.31481608 6.9560703 153.47265625 7.93359375 C156.42139772 10.43708016 159.34678337 12.96653071 162.26806641 15.50195312 C166.62605669 19.27142428 171.0332111 22.98282993 175.44628906 26.6875 C177.01241017 28.01048351 178.56519491 29.34798841 180.1171875 30.6875 C181.08914063 31.5125 182.06109375 32.3375 183.0625 33.1875 C184.34833984 34.29158203 184.34833984 34.29158203 185.66015625 35.41796875 C188.08153023 37.37340934 188.08153023 37.37340934 192 37 C194.4219224 35.4397543 194.4219224 35.4397543 196.875 33.25 C197.84179688 32.43015625 198.80859375 31.6103125 199.8046875 30.765625 C200.87026442 29.84429649 201.93534976 28.92239919 203 28 C204.14787883 27.01497359 205.29633054 26.03061445 206.4453125 25.046875 C208.23232722 23.5159234 210.01850718 21.98406577 211.80175781 20.44873047 C216.23794338 16.63293101 220.73390811 12.9000741 225.2890625 9.2265625 C227.20772377 7.65071679 229.09575884 6.03723564 230.9609375 4.3984375 C242.78620579 -5.96889492 253.30694882 -9.97278563 269 -9 C280.42781857 -7.18685266 289.24531348 0.0093882 297.484375 7.69140625 C300.00195618 10.00179519 302.59308568 12.16443915 305.25 14.3125 C309.56450885 17.80432708 313.79709511 21.37576419 318 25 C322.12455611 28.55467214 326.27208312 32.0679263 330.5 35.5 C335.34217469 39.43070651 340.07762905 43.47382212 344.79541016 47.55200195 C348.42610826 50.68179356 352.11956265 53.70707673 355.875 56.6875 C364.81886166 63.99802021 371.43260486 71.5333599 374 83 C374.96326407 96.76091531 374.00464758 107.39005768 364.8125 118.375 C357.66318721 125.77412239 349.60003585 130.4105887 339.23828125 131.3359375 C325.09096045 131.47670686 315.72972913 128.54818158 305 119 C303.4165036 117.64955031 301.82474196 116.30926746 300.23242188 114.96923828 C298.55670974 113.5576223 296.88751392 112.13856878 295.21875 110.71875 C292.36253169 108.29673115 289.47007096 105.92276348 286.5625 103.5625 C283.46178778 101.04459419 280.39832398 98.49330908 277.37890625 95.87890625 C276.7562085 95.33999756 276.13351074 94.80108887 275.49194336 94.24584961 C274.27752264 93.19150946 273.06593359 92.1338958 271.85766602 91.07250977 C268.72333185 88.35024317 265.65737379 86.01361029 262 84 C261.11699219 84.76183594 260.23398437 85.52367187 259.32421875 86.30859375 C252.89559681 91.84355076 246.43042568 97.31410429 239.83984375 102.65625 C237.1440052 104.88115114 234.49749438 107.15226808 231.8581543 109.44335938 C216.78989491 122.50593203 204.63271382 132.1311806 183.97851562 131.17041016 C171.24653419 130.0738007 161.46833718 120.52151929 152.51953125 112.27734375 C149.09601601 109.18291059 145.51886024 106.29834283 141.93359375 103.39453125 C134.17842663 97.06441481 126.58777133 90.52901254 119 84 C114.91190847 85.68921142 111.8437182 88.55482866 108.5625 91.4375 C107.30761097 92.52640975 106.05239524 93.6149431 104.796875 94.703125 C104.16330078 95.25419922 103.52972656 95.80527344 102.87695312 96.37304688 C95.23394685 102.99804607 87.48117098 109.50155166 79.62109375 115.8671875 C77.86967704 117.29233433 76.13259062 118.7352701 74.41015625 120.1953125 C63.59874444 129.22425734 53.8774135 131.81925238 39.98730469 131.17919922 C25.76142337 129.89642319 15.03024099 118.5954047 4.89453125 109.66064453 C-10.46429604 96.05918817 -10.46429604 96.05918817 -27 84 C-27.88300781 84.76183594 -28.76601562 85.52367187 -29.67578125 86.30859375 C-36.10440319 91.84355076 -42.56957432 97.31410429 -49.16015625 102.65625 C-51.8559948 104.88115114 -54.50250562 107.15226808 -57.1418457 109.44335938 C-72.05325124 122.36995648 -84.40158042 132.33622291 -104.92236328 131.21337891 C-115.18704295 130.15916856 -123.34976078 124.60027339 -130 117 C-137.99488668 105.96339968 -139.33145775 95.30041306 -138 82 C-133.92287572 63.96961057 -115.40937892 52.35584877 -101.84375 41.34375 C-98.52313514 38.60697951 -95.25953218 35.8089705 -92 33 C-87.01197588 28.70146517 -81.96097998 24.49705445 -76.84765625 20.34765625 C-73.503279 17.59049476 -70.22020949 14.76748272 -66.9375 11.9375 C-65.1655056 10.41857944 -63.39214088 8.90128717 -61.61767578 7.38525391 C-60.17680698 6.15140398 -58.74224925 4.91019275 -57.30859375 3.66796875 C-39.7726421 -11.0532234 -18.99575705 -13.78350664 0 0 Z M-44.8125 21.6875 C-46.03685564 22.76535154 -47.26212516 23.84216583 -48.48828125 24.91796875 C-49.08463379 25.44438965 -49.68098633 25.97081055 -50.29541016 26.51318359 C-52.65037237 28.56728269 -55.06949292 30.53620772 -57.5 32.5 C-61.72792288 35.93207857 -65.87531796 39.44546839 -70 43 C-74.98940767 47.29972713 -80.04221156 51.50485409 -85.15625 55.65625 C-89.0845638 58.89387126 -92.93900084 62.21472073 -96.78662109 65.54760742 C-99.54686111 67.93089668 -102.31876637 70.27733263 -105.1953125 72.51953125 C-113.6897882 78.95082491 -113.6897882 78.95082491 -117.3984375 88.59765625 C-117.73561629 94.43406047 -116.93736849 98.57830733 -113.5 103.34375 C-110.09529219 107.10311488 -106.05136504 109.69776956 -100.94921875 110.203125 C-100.20285156 110.21859375 -99.45648438 110.2340625 -98.6875 110.25 C-97.94886719 110.27578125 -97.21023437 110.3015625 -96.44921875 110.328125 C-90.19870533 109.49073564 -85.83842304 105.40875428 -81.3125 101.375 C-80.06989638 100.28804883 -78.826398 99.20211976 -77.58203125 98.1171875 C-76.97311035 97.58448242 -76.36418945 97.05177734 -75.73681641 96.50292969 C-73.36532499 94.45079289 -70.93816699 92.47220619 -68.5 90.5 C-64.27206371 87.06791054 -60.1249556 83.55422806 -56 80 C-50.07654875 74.90236415 -44.11406081 69.86934159 -38 65 C-37.33226563 64.46246094 -36.66453125 63.92492187 -35.9765625 63.37109375 C-32.37088181 60.60778824 -29.59703099 58.90618304 -25 59 C-18.33220351 61.3732835 -13.95144638 65.55727573 -8.84375 70.36328125 C-6.19889962 72.81558071 -3.49301834 75.10995651 -0.6875 77.375 C3.60856906 80.84372338 7.81887474 84.39479981 12 88 C27.87675434 103.54476024 27.87675434 103.54476024 47.83544922 110.27832031 C54.75830966 109.38817133 60.21199302 104.46239502 65.1875 99.9375 C66.49809474 98.77405976 67.80930373 97.61131114 69.12109375 96.44921875 C69.77062012 95.86962402 70.42014648 95.2900293 71.08935547 94.69287109 C73.93923873 92.16781481 76.83917442 89.70431139 79.75 87.25 C80.28399414 86.79866699 80.81798828 86.34733398 81.36816406 85.88232422 C85.57306533 82.3377501 89.82973748 78.85999256 94.109375 75.40625 C96.29201354 73.58935089 98.41024325 71.74655989 100.515625 69.84375 C101.1247876 69.30032959 101.7339502 68.75690918 102.36157227 68.19702148 C103.54459608 67.13801033 104.7177222 66.06779434 105.87866211 64.98461914 C109.84011226 61.46016628 113.5865953 59.20237651 119 59 C124.84418993 60.64407981 128.73626298 64.00323949 133.125 68 C134.44470445 69.17255971 135.76502804 70.34442292 137.0859375 71.515625 C137.74174805 72.10150391 138.39755859 72.68738281 139.07324219 73.29101562 C141.92750473 75.82267272 144.8330234 78.29112281 147.75 80.75 C148.28391357 81.20125244 148.81782715 81.65250488 149.36791992 82.11743164 C153.57268367 85.66199128 157.83147361 89.13715946 162.10546875 92.59765625 C164.2879644 94.40903928 166.4265895 96.24346504 168.55078125 98.12109375 C169.16445557 98.66000244 169.77812988 99.19891113 170.41040039 99.75415039 C171.60243103 100.80443458 172.7882609 101.86181568 173.96655273 102.92749023 C179.26113316 107.57964818 184.63370257 110.72090902 191.984375 110.328125 C200.66670668 108.91472217 207.02748385 101.95297988 213.39355469 96.38867188 C215.7000381 94.39486068 218.06651622 92.47887037 220.4375 90.5625 C224.68393508 87.10724933 228.85272673 83.57275922 233 80 C238.92350947 74.90242649 244.88593473 69.86934514 251 65 C252.00160156 64.19369141 252.00160156 64.19369141 253.0234375 63.37109375 C256.61400929 60.61936733 259.42481578 59 264 59 C268.71770623 60.9898705 272.38030514 63.76920058 276.1875 67.125 C277.33785443 68.11928525 278.48890644 69.11276395 279.640625 70.10546875 C280.20845703 70.59708496 280.77628906 71.08870117 281.36132812 71.59521484 C283.6845669 73.58685905 286.05875979 75.51269099 288.4375 77.4375 C292.6839332 80.89274914 296.85276612 84.427197 301 88 C316.7776092 103.5961291 316.7776092 103.5961291 336.5859375 110.28125 C341.87163564 109.66544051 345.75622464 107.30923722 349.375 103.5 C353.20589372 97.60631736 353.87312468 93.01442859 353 86 C350.57134152 77.98995246 342.06304836 72.60611118 335.86083984 67.53027344 C333.529089 65.61274335 331.23219485 63.6563662 328.93579102 61.69677734 C324.52079902 57.9318496 320.06506763 54.22248187 315.5625 50.5625 C311.3160743 47.10725696 307.14707641 43.57297796 303 40 C297.96980397 35.66691058 292.89053656 31.40820654 287.7265625 27.234375 C285.75846152 25.62154726 283.82148961 23.99278559 281.8984375 22.328125 C281.11073975 21.65257568 281.11073975 21.65257568 280.30712891 20.96337891 C278.84040392 19.70270372 277.38089265 18.43364968 275.921875 17.1640625 C270.66151621 13.26802137 265.66394267 11.18162108 259 12 C251.3265893 14.77830387 245.66095251 20.31934447 239.60644531 25.61132812 C237.2999619 27.60513932 234.93348378 29.52112963 232.5625 31.4375 C227.70474628 35.39017006 222.95317233 39.45548069 218.20922852 43.54296875 C213.64118915 47.47084055 209.0177349 51.31684121 204.3203125 55.08984375 C202.05867746 56.90199533 202.05867746 56.90199533 200.3046875 58.62890625 C196.87179223 61.92110909 193.90551403 62.74437948 189.34375 63.34765625 C183.45980094 62.47487047 178.66938448 57.13210052 174.3125 53.3125 C170.08765926 49.64800656 165.84569536 46.02162276 161.5 42.5 C157.27206179 39.06790899 153.12499471 35.55418463 149 32 C143.07570272 26.90264934 137.11580529 21.86789224 131 17 C129.989375 16.175 128.97875 15.35 127.9375 14.5 C122.5838953 11.76624441 117.36030948 11.39919395 111.5625 12.875 C106.14312024 15.67943428 101.59920812 20.05442611 97 24 C95.93046404 24.90716633 94.86013598 25.81339951 93.7890625 26.71875 C92.13642539 28.11569516 90.48437751 29.5132719 88.83520508 30.91430664 C85.44202932 33.79486959 82.01794241 36.63153869 78.5625 39.4375 C74.24545387 42.94667785 70.02133059 46.55039079 65.8125 50.1875 C51.04515042 62.92795846 51.04515042 62.92795846 47.07324219 63.06787109 C40.85856955 62.60530323 37.68585361 60.89199435 33.25 56.625 C32.04098569 55.52665966 30.83133549 54.42901895 29.62109375 53.33203125 C29.01894043 52.77467285 28.41678711 52.21731445 27.79638672 51.64306641 C25.03621674 49.11847495 22.17803426 46.71594811 19.3125 44.3125 C18.77455811 43.8575415 18.23661621 43.40258301 17.68237305 42.93383789 C13.4617188 39.36706068 9.18165526 35.87628826 4.890625 32.39453125 C2.72885201 30.60376524 0.59933718 28.79380874 -1.515625 26.94921875 C-12.46693187 16.65305575 -12.46693187 16.65305575 -26.1875 11.6875 C-33.80856787 12.31217769 -39.29221825 16.70267283 -44.8125 21.6875 Z " fill="#000000" transform="translate(138,169)"/>
<path d="M0 0 C2.50390625 0.12109375 2.50390625 0.12109375 5 1 C6.15234375 2.72265625 6.15234375 2.72265625 6.9375 5.0625 C7.27910156 5.96097656 7.62070313 6.85945313 7.97265625 7.78515625 C9 11 9 11 9.80859375 14.87109375 C11.15756479 20.4921415 12.43613139 25.23583663 17.39355469 28.64697266 C23.00100782 31.6275721 28.85131439 33.92485854 34.84863281 35.99536133 C37 37 37 37 39 40 C39.06640625 42.46484375 39.06640625 42.46484375 38 45 C35.60688829 46.45155956 33.49917003 47.51666929 30.9375 48.5625 C28.96441144 49.41375242 26.99402897 50.26875447 25.03125 51.14355469 C23 52 23 52 20.890625 52.66113281 C17.24153354 54.00130102 15.46093011 55.15914038 13.55932617 58.62817383 C12.26582377 61.9280705 11.16569533 65.23704292 10.125 68.625 C9.38190925 70.91025853 8.6347161 73.19418844 7.8828125 75.4765625 C7.56715332 76.48799316 7.25149414 77.49942383 6.92626953 78.54150391 C6 81 6 81 4 83 C1.625 83.1875 1.625 83.1875 -1 82 C-3.65565704 78.08368086 -4.9175286 73.56918322 -5.80859375 68.97265625 C-7.12836791 63.11988727 -8.30462932 57.93107749 -13.39355469 54.28515625 C-18.98081041 51.2407313 -24.83834062 48.94246073 -30.84863281 46.87524414 C-33 46 -33 46 -35 44 C-35.5 41.625 -35.5 41.625 -35 39 C-30.58992396 35.61711559 -25.84175529 33.42285528 -20.75 31.25 C-20.03070313 30.93417969 -19.31140625 30.61835937 -18.5703125 30.29296875 C-13.26968344 28 -13.26968344 28 -11 28 C-10.77957031 27.195625 -10.77957031 27.195625 -10.5546875 26.375 C-8.91888601 20.65909595 -6.99880079 15.0736571 -4.9375 9.5 C-4.6801709 8.79359375 -4.4228418 8.0871875 -4.15771484 7.359375 C-2.23870351 2.23870351 -2.23870351 2.23870351 0 0 Z " fill="#000000" transform="translate(177,37)"/>
<path d="M0 0 C1.65 0 3.3 0 5 0 C5.40992188 1.10859375 5.81984375 2.2171875 6.2421875 3.359375 C6.78634101 4.82296029 7.33061835 6.28649955 7.875 7.75 C8.14441406 8.47960937 8.41382813 9.20921875 8.69140625 9.9609375 C9.21760113 11.37267986 9.75481995 12.7803713 10.30395508 14.18334961 C11 16 11 16 11.69140625 18.30078125 C14.36901921 21.77768166 19.31427341 22.79532515 23.32226562 24.26757812 C25.47265625 25.12109375 25.47265625 25.12109375 29 27 C29.99609375 29.72265625 29.99609375 29.72265625 30 32 C28.87925254 32.73568618 27.75300508 33.46299081 26.625 34.1875 C25.53251953 34.90099609 25.53251953 34.90099609 24.41796875 35.62890625 C22 37 22 37 19.48828125 37.77734375 C15.55843191 39.08328143 12.91391026 40.3113476 10.87451172 44.07958984 C8.49677219 49.57464066 6.66990347 55.25475693 5 61 C3.35 61 1.7 61 0 61 C-0.30808594 59.73285156 -0.61617188 58.46570313 -0.93359375 57.16015625 C-3.76201575 46.51324798 -3.76201575 46.51324798 -11.21484375 38.91015625 C-14.2139064 37.32420803 -17.28433889 36.05185966 -20.4296875 34.7890625 C-24 33 -24 33 -25.0078125 30.2734375 C-25.00523437 29.52320312 -25.00265625 28.77296875 -25 28 C-11 21 -11 21 -8.90429688 20.1640625 C-6.41570441 18.64283059 -6.02479904 17.37922801 -5.078125 14.6484375 C-4.62373047 13.37226562 -4.62373047 13.37226562 -4.16015625 12.0703125 C-3.85980469 11.18085937 -3.55945313 10.29140625 -3.25 9.375 C-2.93417969 8.4778125 -2.61835938 7.580625 -2.29296875 6.65625 C-1.51552032 4.44169993 -0.75188804 2.22333165 0 0 Z " fill="#000000" transform="translate(481,89)"/>
<path d="M0 0 C2.82275936 1.25455972 4.46288541 2.28384722 6.3125 4.75 C7.66240917 9.16788455 7.61195977 12.65951669 5.6875 16.875 C2.80846878 20.68695772 -1.06323234 23.48321322 -4.78515625 26.42578125 C-8.99355906 29.75595442 -13.01835966 33.3003786 -17.05224609 36.83837891 C-27.4148666 45.8265192 -27.4148666 45.8265192 -34.03515625 45.4453125 C-37.82943181 44.58537728 -39.43266127 42.94304684 -42 40 C-43.36032808 35.23885173 -43.21750691 32.36881958 -41 28 C-38.78515625 25.640625 -38.78515625 25.640625 -36.0625 23.25 C-35.07507813 22.38117188 -34.08765625 21.51234375 -33.0703125 20.6171875 C-28.45067356 16.65708008 -23.747175 12.80592479 -19 9 C-17.59234375 7.85917969 -17.59234375 7.85917969 -16.15625 6.6953125 C-7.25537324 -0.49188971 -7.25537324 -0.49188971 0 0 Z " fill="#000000" transform="translate(108,194)"/>
<path d="M0 0 C3.20613573 1.89993229 5.39902918 3.33474007 6.69921875 6.9375 C7.30514495 10.37759713 7.36827729 12.24171102 5.80859375 15.453125 C-1.79410902 26.15930687 -17.27148263 39.13574131 -29 45 C-33.97067782 45.3751455 -37.05151502 45.15878799 -41 42 C-43.56632517 38.57823311 -43.36435051 35.15359579 -43 31 C-41.02503132 26.99942241 -38.68575885 24.6595335 -35.1875 21.9375 C-29.96973694 17.79663877 -24.89927933 13.51790137 -19.86010742 9.16186523 C-8.2619837 -0.84020173 -8.2619837 -0.84020173 0 0 Z " fill="#000000" transform="translate(252,194)"/>
<path d="M0 0 C4.26598713 3.17857864 7.46504836 6.20764509 9.1875 11.375 C9.88516205 18.557488 9.58286204 23.55411514 5.1875 29.375 C-0.05751476 34.22663866 -4.14783959 35.84766948 -11.2109375 35.69140625 C-16.60227102 35.03570352 -20.43698717 32.78671053 -24.1875 28.9375 C-27.65136743 23.47524751 -28.67925034 18.79537289 -27.8125 12.375 C-25.74357683 6.0228467 -22.41415151 2.43308658 -16.625 -0.875 C-11.06189669 -2.35849422 -5.21533037 -2.73890435 0 0 Z " fill="#000000" transform="translate(348.8125,68.625)"/>
<path d="M0 0 C2.625 1 2.625 1 4.625 3 C5.0625 6.3125 5.0625 6.3125 4.625 10 C2.5 12.625 2.5 12.625 -0.375 15 C-0.84421875 15.46792969 -1.3134375 15.93585938 -1.796875 16.41796875 C-4.56382223 19.07334553 -6.23564726 19.98110471 -10.0625 20.5 C-13.375 20 -13.375 20 -15.3125 18.875 C-16.93324231 16.01486651 -16.89242613 14.23391331 -16.375 11 C-14.375 8.5 -14.375 8.5 -11.375 6 C-10.74722656 5.44570313 -10.11945313 4.89140625 -9.47265625 4.3203125 C-4.28629032 0 -4.28629032 0 0 0 Z " fill="#000000" transform="translate(345.375,410)"/>
<path d="M0 0 C3.5625 0.875 3.5625 0.875 5.6875 3 C6.5625 5.875 6.5625 5.875 6.3125 8.6875 C3.66750862 13.50516287 0.17373745 16.89384967 -4.4375 19.875 C-7.65168632 20.79492229 -9.04629107 20.57662943 -12.4375 19.875 C-14.5 18.25 -14.5 18.25 -15.4375 15.875 C-15.15297481 10.6966416 -13.6781632 8.44897548 -9.875 5 C-6.67174177 2.28319646 -4.27279765 0.2541441 0 0 Z " fill="#000000" transform="translate(393.4375,378.125)"/>
<path d="M0 0 C2.562964 2.23225897 2.93752331 3.58051369 3.4375 6.9375 C2.87499856 10.87501007 2.03727005 12.41832046 -1 15 C-3.80141726 15.66017005 -6.19243175 15.60984064 -9 15 C-11.5 13.4375 -11.5 13.4375 -13 11 C-13.46918683 7.24650538 -13.53136381 4.96151547 -11.6875 1.625 C-8.08559885 -1.8434974 -4.55940718 -1.05843381 0 0 Z " fill="#000000" transform="translate(47,112)"/>
</svg>
