<?xml version="1.0" encoding="UTF-8"?>
<svg version="1.1" xmlns="http://www.w3.org/2000/svg" width="512" height="512">
<path d="M0 0 C0.90363281 0.80953125 1.80726563 1.6190625 2.73828125 2.453125 C24.2755896 22.80237815 37.4571235 52.94465072 38.3359375 82.50390625 C38.36605837 85.19161435 38.38285847 87.8750608 38.375 90.5625 C38.37418427 91.61606689 38.37418427 91.61606689 38.37335205 92.69091797 C38.26501908 123.20441449 27.74177622 149.90460536 6.734375 172.3125 C-7.05793393 185.86836935 -24.47042576 194.81942983 -43 200 C-43.6703125 200.19851562 -44.340625 200.39703125 -45.03125 200.6015625 C-55.01413977 202.62190924 -64.59297801 200.85978582 -73.25 195.64453125 C-82.09858888 189.39353948 -87.8735737 181.17136144 -90.62109375 170.61328125 C-92.44384953 158.04190373 -91.18042454 146.44920682 -83.63671875 136.01953125 C-78.63324804 129.8457977 -72.57336518 126.61213527 -65.56982422 123.04858398 C-60.93777931 120.64453067 -57.14861564 117.93946977 -53.41796875 114.25 C-52 113 -52 113 -50 113 C-49.73316406 112.44441406 -49.46632813 111.88882813 -49.19140625 111.31640625 C-47.42366451 107.87945263 -45.36373652 104.63052515 -43.33984375 101.33984375 C-39.51724537 94.66422735 -40.08577303 85.52171716 -41.578125 78.140625 C-44.67107631 69.3116549 -51.70399265 61.53600114 -59.83203125 56.9609375 C-70.2595355 52.3390167 -78.94566675 52.15476207 -89.71875 55.67578125 C-94.78133466 57.71889578 -98.82771677 60.51228828 -103 64 C-103.67417969 64.56203125 -104.34835937 65.1240625 -105.04296875 65.703125 C-161.25403759 117.31408641 -161.42430769 247.75184105 -170.44561005 330.4346981 C-170.81195922 333.82312326 -171.17993783 337.21136771 -171.54840088 340.5995636 C-171.79435818 342.86300152 -172.04026879 345.12644452 -172.28613281 347.38989258 C-172.40795048 348.51117963 -172.52976814 349.63246668 -172.65527725 350.78773212 C-173.38369431 357.50871204 -174.09731239 364.23107496 -174.8003006 370.9547596 C-175.24544028 375.18599326 -175.70226515 379.41591214 -176.16177368 383.64560699 C-176.37420503 385.62552804 -176.58155195 387.60600225 -176.78341675 389.5870285 C-178.2517029 403.9688998 -179.71594626 415.84435163 -191 426 C-200.99005033 433.47621414 -211.59626916 436.30334362 -224 435 C-231.85101722 433.31150662 -238.02297015 430.33313436 -244 425 C-244.86625 424.2575 -245.7325 423.515 -246.625 422.75 C-252.08612574 416.42659125 -255.2066079 410.64979071 -256.53100586 402.33081055 C-256.65471274 401.59070834 -256.77841963 400.85060614 -256.90587521 400.08807659 C-258.3191419 391.4103387 -259.36802942 382.68912241 -260.37890625 373.95703125 C-260.53583041 372.62160247 -260.53583041 372.62160247 -260.69592476 371.25919533 C-263.61763249 346.38228443 -266.07294482 321.45489351 -268.54956055 296.53051758 C-270.77354904 274.18097836 -273.15035355 251.87204805 -276.1328125 229.609375 C-276.31647275 228.23586915 -276.31647275 228.23586915 -276.50384331 226.83461571 C-286.6810459 141.2133111 -286.6810459 141.2133111 -329 69 C-329.70640625 68.28328125 -330.4128125 67.5665625 -331.140625 66.828125 C-338.86521304 59.43697242 -349.42526815 53.097917 -360.39453125 52.97265625 C-370.43701674 53.5742798 -378.16899494 57.69067511 -385 65 C-392.48186894 74.34747781 -394.17511615 85.2884492 -393 97 C-391.15775681 105.14958428 -387.53697968 112.61688885 -380.7421875 117.68359375 C-376.63996096 120.26195244 -372.55087237 122.22924427 -368 123.875 C-357.79308594 127.80073618 -350.68537841 135.22578004 -346 145 C-341.76781851 156.95591272 -341.83480571 168.12687397 -347.2890625 179.74609375 C-353.44824989 190.56584273 -360.87021357 195.71681702 -372.25 200.3125 C-390.55710503 203.66880259 -406.91422184 196.69785116 -422.109375 187.01953125 C-428.5018449 182.49604619 -434.30853793 177.3673252 -440 172 C-440.67675781 171.38769531 -441.35351562 170.77539062 -442.05078125 170.14453125 C-461.14659272 152.19676456 -473.3260448 124.03905303 -474.3853302 97.97312927 C-474.46711707 94.54343301 -474.46843105 91.11786302 -474.4375 87.6875 C-474.43445862 86.9676593 -474.43141724 86.2478186 -474.42828369 85.50616455 C-474.23149419 53.93850472 -462.13092704 27.64278341 -439.78515625 5.41845703 C-415.36899152 -18.02869117 -382.30141821 -27.56409276 -349.1328125 -27.21484375 C-319.26298102 -26.47339403 -292.84854698 -12.87999275 -272 8 C-268.8338887 11.54687922 -265.89833527 15.2326845 -263 19 C-262.27167969 19.91265625 -261.54335938 20.8253125 -260.79296875 21.765625 C-240.61488618 47.63314942 -228.389123 79.50957765 -219.05859375 110.66015625 C-218.34168635 113.81178339 -218.34168635 113.81178339 -217 115 C-216.54113403 113.5605603 -216.54113403 113.5605603 -216.07299805 112.09204102 C-200.18187961 62.44843192 -179.43853981 10.76055116 -130.9296875 -15.23046875 C-89.36928277 -36.45571664 -34.95778797 -31.60142723 0 0 Z M-139 16 C-139.80179687 16.64839844 -140.60359375 17.29679687 -141.4296875 17.96484375 C-176.16836106 47.3544828 -192.36001345 99.51417256 -202.13671875 142.08984375 C-202.31433243 142.86144333 -202.49194611 143.63304291 -202.67494202 144.42802429 C-203.54482764 148.22826299 -204.39323629 152.03175089 -205.21118164 155.84350586 C-205.52084359 157.23685031 -205.83065103 158.63016243 -206.140625 160.0234375 C-206.40391602 161.24981934 -206.66720703 162.47620117 -206.93847656 163.73974609 C-208.08444622 167.25935944 -209.46488978 169.3282486 -212 172 C-215.68705657 173.52466753 -219.07790928 173.30736357 -222.8125 172.0625 C-228.76242739 166.45256846 -229.50730859 155.76090469 -231.1875 148.125 C-234.40725313 133.84294449 -238.41843599 119.90939635 -243 106 C-243.29374512 105.09572266 -243.58749023 104.19144531 -243.89013672 103.25976562 C-254.04851835 72.17616091 -268.21759686 43.62981728 -291 20 C-291.60199219 19.32324219 -292.20398438 18.64648438 -292.82421875 17.94921875 C-305.81147448 3.71885038 -328.26877508 -5.02917584 -347.17529297 -6.1262207 C-375.69437353 -7.07125651 -402.69932634 0.86370235 -424.1015625 20.25390625 C-435.45095037 31.00676295 -443.86127836 43.15074033 -449 58 C-449.58974609 59.66289062 -449.58974609 59.66289062 -450.19140625 61.359375 C-457.53811165 85.62654128 -453.77566603 112.81203911 -442 135 C-430.1564273 155.82662148 -410.78323265 172.37430421 -388 180 C-382.51068367 180.96410461 -377.699498 180.14558886 -372.859375 177.38671875 C-368.0669457 173.81253303 -364.90371109 169.45144917 -363.9375 163.5 C-363.70455832 157.85116419 -364.90880869 153.45932278 -368.59765625 149.12109375 C-372.98523701 144.94973874 -377.67934897 142.59171522 -383.203125 140.2265625 C-396.83344651 134.24901927 -405.47342612 124.81643471 -411 111 C-416.36829933 96.44052152 -415.49891931 79.17021398 -409.74609375 64.88671875 C-403.2298884 50.91327567 -393.45988977 40.6166514 -379 35 C-361.41510282 29.94686863 -346.27769798 31.96493456 -330.3581543 40.72900391 C-294.45779726 61.5236427 -280.28665387 105.39249717 -270.17480469 143.13549805 C-263.76403527 168.14875212 -259.56795433 193.71393953 -256.09765625 219.28125 C-255.97057785 220.21264297 -255.84349945 221.14403595 -255.71257019 222.10365295 C-252.76458538 243.82800871 -250.50207047 265.61373049 -248.31021118 287.42506409 C-247.46185282 295.83432762 -246.59297321 304.24151688 -245.72712708 312.64899445 C-245.51406827 314.71840239 -245.30124692 316.7878348 -245.08866882 318.85729218 C-243.32742765 336.00039062 -241.48341379 353.13103343 -239.5 370.25 C-239.38221191 371.27633545 -239.26442383 372.3026709 -239.14306641 373.36010742 C-238.46572665 379.2450401 -237.76122303 385.1253084 -237 391 C-236.75963013 392.86483032 -236.75963013 392.86483032 -236.5144043 394.76733398 C-236.35883057 395.83798096 -236.20325684 396.90862793 -236.04296875 398.01171875 C-235.91688232 398.88530029 -235.7907959 399.75888184 -235.66088867 400.65893555 C-234.22309171 405.75204047 -230.5776646 409.3213884 -226.23046875 412.15234375 C-222.12350827 414.16410543 -218.47895443 414.60731585 -214 414 C-207.37796844 411.60130745 -203.55732678 409.21593831 -200 403 C-199.40843341 400.35203579 -199.01069638 397.97896741 -198.75488281 395.30395508 C-198.66944057 394.55098428 -198.58399832 393.79801348 -198.49596691 393.02222538 C-198.21618695 390.52276235 -197.95974543 388.0214694 -197.703125 385.51953125 C-197.50810051 383.73812617 -197.3115374 381.95688894 -197.11354065 380.17581177 C-196.69377507 376.37350564 -196.28395958 372.57031088 -195.88198853 368.76608276 C-195.24818478 362.77187894 -194.59071252 356.78042656 -193.9284668 350.78930664 C-193.25690091 344.70586993 -192.58616785 338.62235723 -191.92289734 332.53800964 C-189.97391368 314.66067347 -187.9411662 296.7943278 -185.8125 278.9375 C-185.73141747 278.25649609 -185.65033493 277.57549217 -185.56679535 276.87385178 C-182.54228412 251.50487616 -179.10276022 226.21778424 -175 201 C-174.8760083 200.23049011 -174.7520166 199.46098022 -174.62426758 198.66815186 C-167.05844184 151.78967734 -157.64706975 93.98834734 -126 57 C-125.53335937 56.38898438 -125.06671875 55.77796875 -124.5859375 55.1484375 C-113.99594361 41.58581374 -97.63540349 34.43742176 -81 32 C-65.86085569 30.19234098 -50.96782858 36.17834561 -39.1875 45.25 C-27.71807827 55.08329385 -20.88010407 68.87428497 -19.1875 83.8125 C-18.25321524 99.33752973 -23.18341859 112.9605422 -33.078125 124.828125 C-40.56667545 133.26173257 -49.82856202 139.48870189 -60.02612305 144.1887207 C-64.50216332 146.33933959 -66.61307014 148.67725861 -69 153 C-71.25179341 159.75538023 -70.32278559 165.73510096 -67.20703125 172.0546875 C-64.7518901 176.01151692 -61.19663384 178.2047733 -57 180 C-42.70035651 181.33019939 -25.80370937 171.35695426 -15.21875 162.734375 C-12.74922962 160.54751057 -10.36759273 158.29622912 -8 156 C-7.37609375 155.44957031 -6.7521875 154.89914063 -6.109375 154.33203125 C9.11409403 140.44575882 16.45493039 117.61084197 17.3828125 97.48046875 C18.11927722 69.1085658 11.06382627 43.7155615 -8 22 C-8.99773437 20.85917969 -8.99773437 20.85917969 -10.015625 19.6953125 C-26.12909331 2.44793346 -49.54113816 -6.11403803 -72.76953125 -7.03125 C-97.79911352 -7.12630657 -119.48667534 0.01686371 -139 16 Z " fill="#000000" transform="translate(474,52)"/>
<path d="M0 0 C2.56640625 1.08984375 2.56640625 1.08984375 4.2265625 4.3359375 C4.71473554 5.725967 5.18141918 7.12368772 5.62890625 8.52734375 C6.34324408 10.62233453 7.06247044 12.71486665 7.7980957 14.80249023 C8.33614161 16.40431803 8.81443765 18.02688093 9.24682617 19.66040039 C10.47560521 23.66018251 11.47636341 26.30024629 14.93139648 28.80297852 C17.82596352 30.26501094 20.72727445 31.48914491 23.75390625 32.65234375 C25.76848675 33.48635723 27.78282348 34.32095989 29.796875 35.15625 C30.68785889 35.50631104 31.57884277 35.85637207 32.49682617 36.21704102 C34.56640625 37.08984375 34.56640625 37.08984375 35.56640625 38.08984375 C36.12890625 40.83984375 36.12890625 40.83984375 35.56640625 44.08984375 C32.3966354 47.26919095 28.17808331 48.85212071 24.05859375 50.453125 C23.44258301 50.69417969 22.82657227 50.93523437 22.19189453 51.18359375 C20.38511234 51.87601327 18.56182166 52.52487649 16.73828125 53.171875 C9.46381743 57.57059635 7.73035373 67.94812508 5.2109375 75.63867188 C4.92605469 76.45658203 4.64117187 77.27449219 4.34765625 78.1171875 C4.10080078 78.85702881 3.85394531 79.59687012 3.59960938 80.35913086 C2.56640625 82.08984375 2.56640625 82.08984375 0.64257812 82.96313477 C-1.43359375 83.08984375 -1.43359375 83.08984375 -4.43359375 81.08984375 C-5.29882813 78.71069336 -5.29882813 78.71069336 -6.02734375 75.7421875 C-9.26506422 62.34632506 -9.26506422 62.34632506 -18.109375 52.50390625 C-22.05848216 50.50856391 -26.12903581 48.97448139 -30.37817383 47.74633789 C-32.58094383 47.04278064 -34.46964953 46.31835125 -36.43359375 45.08984375 C-37.18359375 41.96484375 -37.18359375 41.96484375 -37.43359375 39.08984375 C-32.88995994 35.86072035 -28.30298196 33.5244911 -23.18359375 31.33984375 C-22.46429688 31.02402344 -21.745 30.70820313 -21.00390625 30.3828125 C-15.70327719 28.08984375 -15.70327719 28.08984375 -13.43359375 28.08984375 C-13.21316406 27.28546875 -13.21316406 27.28546875 -12.98828125 26.46484375 C-11.35247976 20.7489397 -9.43239454 15.16350085 -7.37109375 9.58984375 C-7.11376465 8.8834375 -6.85643555 8.17703125 -6.59130859 7.44921875 C-3.85296325 0.14224423 -3.85296325 0.14224423 0 0 Z " fill="#000000" transform="translate(50.43359375,373.91015625)"/>
<path d="M0 0 C2.50610352 0.03540039 2.50610352 0.03540039 5 1 C6.13647461 3.34155273 6.13647461 3.34155273 6.90234375 6.43359375 C10.57589537 20.75558678 10.57589537 20.75558678 20.5078125 30.9140625 C25.20146534 33.1634303 30.02981044 34.92695758 35.02563477 36.38110352 C37 37 37 37 38 38 C38.4375 40.8125 38.4375 40.8125 38 44 C33.62710358 47.42078834 28.83357896 49.58063389 23.75 51.75 C23.03070313 52.06582031 22.31140625 52.38164062 21.5703125 52.70703125 C16.26968344 55 16.26968344 55 14 55 C13.84144531 55.63164062 13.68289063 56.26328125 13.51953125 56.9140625 C12.05092143 62.54508577 10.36796599 68.07275964 8.4375 73.5625 C8.02371094 74.73941406 7.60992187 75.91632813 7.18359375 77.12890625 C6 80 6 80 4 82 C1.375 82.125 1.375 82.125 -1 82 C-1.53625 80.865625 -2.0725 79.73125 -2.625 78.5625 C-3.01300781 77.74652344 -3.40101563 76.93054688 -3.80078125 76.08984375 C-4.76457117 73.60659351 -5.31461145 71.58485306 -5.79296875 69.00390625 C-7.09184285 62.99652876 -8.3406768 57.93960762 -13.5078125 54.17089844 C-19.38613269 50.83817007 -25.55477905 48.23796451 -31.87036133 45.85351562 C-34 45 -34 45 -35 44 C-35.5625 41.75 -35.5625 41.75 -35 39 C-29.25730097 34.52069476 -18.46294252 28 -11 28 C-10.77957031 27.195625 -10.77957031 27.195625 -10.5546875 26.375 C-8.91888601 20.65909595 -6.99880079 15.0736571 -4.9375 9.5 C-4.6801709 8.79359375 -4.4228418 8.0871875 -4.15771484 7.359375 C-2.23870351 2.23870351 -2.23870351 2.23870351 0 0 Z " fill="#000000" transform="translate(446,298)"/>
<path d="M0 0 C2.75892872 2.15331022 3.68806828 3.65767089 4.4765625 7.05078125 C4.8047748 10.56994642 4.65073859 13.01623636 2.671875 16.0078125 C1.47789955 17.33624464 0.2529461 18.63726621 -0.99609375 19.9140625 C-8.92307993 28.16554519 -14.04943678 38.26578006 -16.5 49.375 C-17.6539603 54.45901939 -18.81917981 56.89118499 -23 60 C-26.14911479 61.57455739 -28.52008816 61.34799118 -32 61 C-36.5178477 58.40642076 -37.63157281 57.18284519 -39.1875 52.1875 C-39.89584964 36.39392647 -29.08250704 18.13235552 -19 7 C-12.99045268 0.45067298 -9.08145792 -2.32773831 0 0 Z " fill="#000000" transform="translate(67,77)"/>
<path d="M0 0 C1.32 0 2.64 0 4 0 C4.15331787 0.56396484 4.30663574 1.12792969 4.46459961 1.70898438 C7.79352589 14.13544905 7.79352589 14.13544905 16.31640625 23.109375 C20.41613193 25.15041799 24.62327046 26.66708691 29 28 C29 29.65 29 31.3 29 33 C26.3773768 34.33819498 23.75213401 35.6707151 21.125 37 C20.37863281 37.3815625 19.63226563 37.763125 18.86328125 38.15625 C17.79013672 38.69765625 17.79013672 38.69765625 16.6953125 39.25 C16.03547363 39.58515625 15.37563477 39.9203125 14.69580078 40.265625 C13 41 13 41 11 41 C10.82984375 41.68964844 10.6596875 42.37929688 10.484375 43.08984375 C8.86290628 49.37734748 6.84015761 55.16109729 4 61 C2.35 61 0.7 61 -1 61 C-1.14920898 60.45585449 -1.29841797 59.91170898 -1.45214844 59.35107422 C-4.32469834 48.31449037 -4.32469834 48.31449037 -10.9609375 39.47265625 C-13.95414947 38.02039414 -16.8111697 36.93405792 -20 36 C-21.67179992 35.34631257 -23.34034093 34.68392544 -25 34 C-25 32.02 -25 30.04 -25 28 C-23.28103516 27.46439453 -23.28103516 27.46439453 -21.52734375 26.91796875 C-14.59327859 24.42222413 -8.63677894 22.26128721 -5.34765625 15.2734375 C-3.76470263 11.17603932 -2.52350044 6.99789632 -1.48632812 2.73071289 C-1 1 -1 1 0 0 Z " fill="#000000" transform="translate(110,298)"/>
<path d="M0 0 C5.00279735 2.93397138 8.26687073 6.5448848 10.390625 12.03125 C11.21237362 18.81067611 10.48515529 23.46299179 6.640625 29.09375 C2.56688156 33.51348261 -1.70481465 35.84331978 -7.671875 36.40625 C-14.01975428 35.86829413 -18.50263852 34.4530176 -22.796875 29.59375 C-27.09036361 24.25906115 -26.86131514 18.68526585 -26.359375 12.09375 C-24.61167748 6.64504596 -20.96659338 3.30833192 -16.359375 0.09375 C-11.10193829 -1.6587289 -5.23639507 -2.01133056 0 0 Z " fill="#000000" transform="translate(444.359375,431.90625)"/>
<path d="M0 0 C2.8100346 1.79363911 4.50940468 3.01880935 6 6 C6.52578787 10.38731188 6.52186747 13.93357517 4.5625 17.9375 C0.95163024 20.8438098 -2.38373034 21.81316952 -7 22 C-11.12966949 21.30247425 -13.51033406 19.67329066 -16 16.25 C-17.22859326 12.25707191 -17.16697548 10.01147822 -16 6 C-11.48713998 0.53706419 -7.03396529 -1.0283575 0 0 Z " fill="#000000" transform="translate(99,58)"/>
<path d="M0 0 C2.48614181 3.72921271 2.33170055 6.68371682 2.3125 11 C2.32861328 11.72445313 2.34472656 12.44890625 2.36132812 13.1953125 C2.36619208 18.46784367 2.36619208 18.46784367 0.6640625 20.94140625 C-1.92979606 22.59148998 -3.93987654 22.9375485 -7 23 C-9.42509281 21.35988298 -10.78507291 20.05378739 -11.38256836 17.12426758 C-11.53922799 14.8818997 -11.54551215 12.68466236 -11.5 10.4375 C-11.51546875 9.66986328 -11.5309375 8.90222656 -11.546875 8.11132812 C-11.5082478 2.57315391 -11.5082478 2.57315391 -9.1953125 -0.03515625 C-5.85294036 -1.50413475 -3.46599188 -0.89859049 0 0 Z " fill="#000000" transform="translate(244,267)"/>
<path d="M0 0 C1.97265625 0.55859375 1.97265625 0.55859375 3.70703125 2.7109375 C5.12789608 5.90788337 5.34291471 8.07531411 5.28515625 11.55859375 C5.28128906 12.56921875 5.27742188 13.57984375 5.2734375 14.62109375 C4.96383847 17.64471023 4.34062764 19.85165391 2.97265625 22.55859375 C0.20165231 23.94409572 -1.96081435 23.74634045 -5.02734375 23.55859375 C-6.01734375 22.89859375 -7.00734375 22.23859375 -8.02734375 21.55859375 C-8.3996582 19.61914062 -8.3996582 19.61914062 -8.390625 17.27734375 C-8.38998047 16.43558594 -8.38933594 15.59382813 -8.38867188 14.7265625 C-8.37255859 13.84613281 -8.35644531 12.96570313 -8.33984375 12.05859375 C-8.34306641 11.17816406 -8.34628906 10.29773438 -8.34960938 9.390625 C-8.28976418 2.28536827 -7.76583356 0.44998288 0 0 Z " fill="#000000" transform="translate(267.02734375,311.44140625)"/>
<path d="M0 0 C2.375 1.625 2.375 1.625 4 4 C4.56921855 7.98452984 4.67149179 10.05493748 2.3125 13.375 C-0.29641704 15.20829306 -1.81896986 15.8448278 -5 16 C-8.81263347 14.93600927 -9.75011007 14.3748349 -12 11 C-12.67092652 4.84984026 -12.67092652 4.84984026 -10.125 1.625 C-6.37110057 -1.24562897 -4.59141551 -1.19376803 0 0 Z " fill="#000000" transform="translate(147,472)"/>
<path d="M0 0 C2.66589042 0.54323805 3.75768995 0.96351964 5.875 2.75 C7.2001184 5.8143363 7.34822484 7.7499261 6.875 11.0625 C5.375 13.9375 5.375 13.9375 2.875 16.0625 C0.07358274 16.72267005 -2.31743175 16.67234064 -5.125 16.0625 C-7.625 14.5 -7.625 14.5 -9.125 12.0625 C-9.84369236 7.67049111 -9.60611179 5.78416769 -7.125 2.0625 C-4.05807963 0.01788642 -3.45606293 -0.26143649 0 0 Z " fill="#000000" transform="translate(364.125,384.9375)"/>
</svg>
