<?xml version="1.0" encoding="UTF-8"?>
<svg version="1.1" xmlns="http://www.w3.org/2000/svg" width="512" height="512">
<path d="M0 0 C0.83756836 0.40798828 1.67513672 0.81597656 2.53808594 1.23632812 C12.88289465 6.30617452 22.75844235 11.90132795 32.375 18.25 C33.23665771 18.81614014 34.09831543 19.38228027 34.98608398 19.96557617 C42.36212315 24.95788205 48.53210304 29.98153494 52.375 38.1875 C53.09816406 39.69376953 53.09816406 39.69376953 53.8359375 41.23046875 C57.68159362 50.38003314 57.53711493 62.37200004 53.875 71.5625 C48.77909188 81.95304245 41.85638081 89.37312772 31 93.9375 C20.27780346 96.99008264 6.75997385 96.40509312 -3 91 C-5.90944825 89.11259783 -8.77301452 87.17687408 -11.62329102 85.20214844 C-60.96315338 51.51732571 -126.38292156 42.23277021 -184.35839844 52.60058594 C-197.86387091 55.08573294 -197.86387091 55.08573294 -211 59 C-209.83984375 60.051875 -209.83984375 60.051875 -208.65625 61.125 C-205.92653697 63.60587786 -203.21463574 66.10547664 -200.50830078 68.61181641 C-199.28624362 69.73655209 -198.04956936 70.84539196 -196.80859375 71.94921875 C-176.87385749 90.46896329 -165.23040206 120.2832255 -163.89501953 147.10888672 C-162.75638651 179.42201883 -172.49592639 210.05701776 -194.375 234.1875 C-196.22345967 236.15378341 -198.10578834 238.07664662 -200 240 C-200.82886719 240.85335938 -201.65773437 241.70671875 -202.51171875 242.5859375 C-226.42940178 265.80770019 -258.21535515 273.60389049 -290.58984375 273.27734375 C-322.83493106 272.45474411 -350.75478908 256.35694507 -372.68359375 233.59765625 C-376.65553512 229.36084521 -380.01515188 224.98484787 -383 220 C-383.65226562 218.94554687 -384.30453125 217.89109375 -384.9765625 216.8046875 C-400.68804697 190.83151298 -406.64891754 158.88366989 -400.03125 129.03515625 C-395.11811176 109.15351847 -386.41078182 92.21863533 -374 76 C-373.3090625 75.09636719 -372.618125 74.19273437 -371.90625 73.26171875 C-359.77603288 57.78606476 -345.73325132 42.84621276 -330 31 C-329.39591309 30.5359375 -328.79182617 30.071875 -328.16943359 29.59375 C-282.45070651 -5.38403193 -226.19034548 -25.26720134 -169 -30 C-167.77796875 -30.11085937 -166.5559375 -30.22171875 -165.296875 -30.3359375 C-109.23975359 -34.67508706 -50.54355574 -25.07490875 0 0 Z M-324 54 C-325.20462891 55.03833984 -325.20462891 55.03833984 -326.43359375 56.09765625 C-352.33962338 78.93641197 -376.47544696 107.57921333 -381 143 C-382.48526613 170.16081957 -376.61755325 196.43179567 -358.39453125 217.38671875 C-357.60433594 218.24910156 -356.81414062 219.11148438 -356 220 C-354.76830078 221.37091797 -354.76830078 221.37091797 -353.51171875 222.76953125 C-338.06524088 239.13135596 -315.8850447 250.74211173 -293.2019043 252.17700195 C-263.50417494 252.80940461 -238.52780527 246.23197798 -216 226 C-215.29359375 225.37609375 -214.5871875 224.7521875 -213.859375 224.109375 C-196.03116415 207.40420106 -186.20862454 182.61634558 -184.796875 158.53515625 C-184.44058059 132.1396785 -193.14041369 107.57685422 -211 88 C-211.69609375 87.22269531 -212.3921875 86.44539063 -213.109375 85.64453125 C-220.78496463 77.50672546 -229.85140442 71.6386009 -239.6875 66.4375 C-243.37303861 64.33912861 -245.65372171 63.03668079 -246.875 58.875 C-247.06153846 53.09230769 -247.06153846 53.09230769 -245 50 C-239.50852568 45.57528167 -233.13684114 43.72821094 -226.5 41.5625 C-225.29964111 41.16853027 -224.09928223 40.77456055 -222.86254883 40.36865234 C-167.59612818 22.60405359 -106.96418548 23.64667908 -52 42 C-51.31566895 42.22768066 -50.63133789 42.45536133 -49.92626953 42.68994141 C-30.2524792 49.36402674 -12.22918854 59.15622059 5.16577148 70.39990234 C5.86903564 70.84930176 6.5722998 71.29870117 7.296875 71.76171875 C7.92561523 72.16737061 8.55435547 72.57302246 9.20214844 72.9909668 C13.64085638 75.48216451 17.73213092 75.29682144 22.5 74.0625 C27.72176645 72.1401031 30.92510577 68.53912957 34 64 C35.8831754 58.35047379 35.73189648 52.92954527 33.625 47.375 C28.1190744 39.1287096 17.95592695 33.86901577 9.5625 29.0625 C8.51118896 28.45768799 7.45987793 27.85287598 6.37670898 27.22973633 C-85.14956066 -24.81624567 -206.6082858 -22.93322285 -324 54 Z " fill="#000000" transform="translate(402,63)"/>
<path d="M0 0 C21.95880602 21.2229211 35.08328946 51.48876745 35.62841797 81.95703125 C35.82467507 113.07096241 26.52720571 143.18556368 4.72265625 166.13085938 C3.01043837 167.8354674 1.28578041 169.52770322 -0.453125 171.20507812 C-2.2112398 172.93523704 -3.76928285 174.63548526 -5.2890625 176.56835938 C-7.82365333 179.56984852 -10.53682802 182.01021006 -13.5234375 184.54882812 C-14.90952213 185.73509399 -16.27588797 186.94496246 -17.6171875 188.18164062 C-68.38788469 234.97982143 -140.64491452 257.47288888 -208.6640625 259.38085938 C-209.33791992 259.40277344 -210.01177734 259.4246875 -210.70605469 259.44726562 C-271.38670665 261.18679698 -346.65782063 246.39493377 -394.6640625 206.81835938 C-402.8396105 198.71686525 -406.46535911 187.9996189 -406.7265625 176.66992188 C-406.22876344 165.81167985 -401.89680457 156.4558385 -394.40234375 148.64648438 C-386.69406938 142.26873953 -377.46820637 138.26685458 -367.4140625 138.19335938 C-366.54265625 138.17917969 -365.67125 138.165 -364.7734375 138.15039062 C-356.47651948 138.76536319 -350.24190725 141.33695806 -343.1015625 145.50585938 C-341.33719468 146.50417826 -339.57155279 147.50024855 -337.8046875 148.49414062 C-336.93650391 148.98479004 -336.06832031 149.47543945 -335.17382812 149.98095703 C-307.32515005 165.5144512 -276.41259394 175.20969363 -244.6640625 178.38085938 C-243.62636719 178.49171875 -242.58867187 178.60257813 -241.51953125 178.71679688 C-219.63025789 180.67545011 -185.0325907 183.56512348 -164.6640625 173.38085938 C-165.57285156 172.54167969 -165.57285156 172.54167969 -166.5 171.68554688 C-189.33597436 149.83327603 -202.08245581 119.75435853 -203.015625 88.25341797 C-203.34075599 55.34067899 -191.11184332 26.18793488 -168.6640625 2.38085938 C-168.00148438 1.64222656 -167.33890625 0.90359375 -166.65625 0.14257812 C-122.52761406 -47.09016338 -45.18313255 -41.89599989 0 0 Z M-148.6640625 12.38085938 C-149.55480469 13.17878906 -150.44554687 13.97671875 -151.36328125 14.79882812 C-169.70661286 32.11882184 -180.39056793 55.97721377 -181.88671875 81.12304688 C-182.5231433 109.0703857 -172.79162438 133.42517325 -154.1484375 154.18164062 C-148.29133809 160.25055338 -141.91506701 165.2009682 -134.703125 169.56835938 C-132.15269762 171.29259197 -130.79852683 172.7379518 -130.1640625 175.77148438 C-129.98283667 179.64518656 -129.87304174 182.21998297 -132.109375 185.50195312 C-135.83048395 188.23873203 -139.73584482 189.20277956 -144.1640625 190.38085938 C-145.0924292 190.63577148 -146.0207959 190.89068359 -146.97729492 191.15332031 C-161.6750846 195.09726658 -176.52520609 197.85896376 -191.6640625 199.38085938 C-193.25927734 199.54908203 -193.25927734 199.54908203 -194.88671875 199.72070312 C-230.21737501 202.85452804 -265.81812738 198.73351153 -299.6640625 188.38085938 C-300.48938477 188.12997559 -301.31470703 187.8790918 -302.16503906 187.62060547 C-320.74362985 181.84958896 -338.85083702 173.54142934 -355.2512207 163.05908203 C-360.50002635 159.70965579 -364.41480858 158.86008821 -370.6640625 159.38085938 C-376.41982489 161.29579933 -380.35485498 164.22238883 -383.6640625 169.38085938 C-385.99000417 175.03567169 -385.87234459 179.42087131 -383.87890625 185.14257812 C-380.07604764 192.14913113 -374.99195216 195.37702235 -368.1640625 199.13085938 C-367.23625977 199.64817627 -366.30845703 200.16549316 -365.35253906 200.69848633 C-294.33866828 239.80887801 -209.63928579 248.80529967 -131.7734375 226.25585938 C-96.57428171 215.64059346 -63.78219872 199.24167216 -35.6640625 175.38085938 C-34.59671875 174.47980469 -34.59671875 174.47980469 -33.5078125 173.56054688 C-30.83508423 171.22648623 -28.23930903 168.82107987 -25.6640625 166.38085938 C-24.60807861 165.3838501 -24.60807861 165.3838501 -23.53076172 164.36669922 C-2.43876535 144.29997806 13.59017863 121.9577734 14.5390625 91.66601562 C14.94262579 64.94655018 8.12717084 40.09563501 -10.6796875 20.38085938 C-11.33453125 19.72085938 -11.989375 19.06085938 -12.6640625 18.38085938 C-13.9015625 17.08148438 -13.9015625 17.08148438 -15.1640625 15.75585938 C-15.9890625 14.97210938 -16.8140625 14.18835938 -17.6640625 13.38085938 C-18.23769531 12.80078125 -18.81132812 12.22070312 -19.40234375 11.62304688 C-34.90594141 -3.26741415 -57.44635335 -11.45989493 -78.6640625 -12.61914062 C-79.73914063 -12.69841797 -79.73914063 -12.69841797 -80.8359375 -12.77929688 C-105.48342397 -13.7566972 -130.51462778 -4.0830557 -148.6640625 12.38085938 Z " fill="#000000" transform="translate(476.6640625,220.619140625)"/>
<path d="M0 0 C10.62003445 9.49620321 19.26958141 23.72251384 20.14282227 38.24462891 C20.73177276 56.03056676 18.77300949 71.77335519 6.45556641 85.60742188 C4.9861907 87.13771697 3.50839277 88.66002274 2.01806641 90.16992188 C1.23431641 91.05679688 0.45056641 91.94367188 -0.35693359 92.85742188 C-13.3683314 104.31984375 -29.36013925 109.0288182 -46.51318359 107.94726562 C-64.02352607 105.95217129 -78.77066206 97.8041422 -89.98193359 84.16992188 C-99.93871694 69.85483123 -104.34363841 53.49525249 -101.66845703 36.13574219 C-98.41535438 19.18799259 -89.26789434 5.18401863 -75.25537109 -4.78710938 C-51.50610167 -19.60914745 -21.62784241 -18.0065293 0 0 Z M-73.98193359 23.16992188 C-80.33077511 33.14887959 -82.64966855 43.79130136 -80.32958984 55.44726562 C-78.27893624 62.98979843 -75.37322325 68.52401279 -69.98193359 74.16992188 C-69.08667969 75.12511719 -69.08667969 75.12511719 -68.17333984 76.09960938 C-60.94808034 83.09954893 -51.63775646 86.7741081 -41.62646484 87.23242188 C-30.81156664 86.97682605 -20.52000662 82.87995637 -12.60693359 75.41992188 C-3.73497524 65.75318391 -0.46361886 56.00249336 -0.66943359 42.95898438 C-1.52499782 32.58526807 -6.59903568 22.97810747 -14.23193359 15.91992188 C-22.38759404 9.45287835 -32.34010196 5.58650874 -42.82177734 5.91992188 C-55.66419572 7.40620538 -65.83609418 13.20510861 -73.98193359 23.16992188 Z " fill="#000000" transform="translate(433.98193359375,259.830078125)"/>
<path d="M0 0 C13.13858631 10.11218091 21.4262793 24.5576691 23.95703125 40.9296875 C25.35521461 57.31571442 22.28118944 73.45885401 11.8515625 86.578125 C9.63246533 89.12187494 7.34161644 91.54101211 4.95703125 93.9296875 C4.31894531 94.579375 3.68085938 95.2290625 3.0234375 95.8984375 C-7.92999614 106.28256585 -23.16447418 110.91169658 -38.04296875 110.9296875 C-52.59128378 110.07022743 -64.60233475 105.96070124 -76.04296875 96.9296875 C-76.67847656 96.45789063 -77.31398438 95.98609375 -77.96875 95.5 C-88.44805351 87.27455999 -96.10669839 73.03674837 -98.04296875 59.9296875 C-99.54548026 41.10456974 -96.7353068 25.48648977 -84.94140625 10.20703125 C-63.04418193 -15.44289759 -27.46200166 -18.68403194 0 0 Z M-68.91796875 24.3046875 C-76.35258142 34.56234885 -77.91743195 44.48732535 -77.04296875 56.9296875 C-74.90256101 67.09017726 -68.97219381 76.7371832 -60.3359375 82.6171875 C-49.81273826 88.64068826 -39.87209342 91.33299065 -27.90625 88.77734375 C-16.80768362 85.49168358 -8.17856845 79.53271274 -2.23046875 69.5546875 C3.17281399 58.8941567 4.55291794 48.96609034 1.39453125 37.3671875 C-2.52985847 25.77302559 -9.37596936 18.44483201 -19.98046875 12.6796875 C-37.22020135 4.59856284 -56.88313575 9.69460422 -68.91796875 24.3046875 Z " fill="#000000" transform="translate(156.04296875,168.0703125)"/>
<path d="M0 0 C2.39477539 0.66796875 2.39477539 0.66796875 5 2 C6.04467773 4.36328125 6.04467773 4.36328125 6.68359375 7.3125 C9.39762755 19.41171531 9.39762755 19.41171531 16.53125 29.07617188 C22.0204911 32.18251551 27.82317748 34.24947775 33.89624023 35.91113281 C36 37 36 37 37.35571289 39.42480469 C38 42 38 42 37 45 C35.20581055 46.13500977 35.20581055 46.13500977 32.88671875 47.19140625 C32.05076172 47.57876953 31.21480469 47.96613281 30.35351562 48.36523438 C29.47373047 48.76033203 28.59394531 49.15542969 27.6875 49.5625 C25.9621853 50.35535063 24.23692304 51.1483154 22.51171875 51.94140625 C21.74303467 52.28888916 20.97435059 52.63637207 20.18237305 52.99438477 C19.46218994 53.32623779 18.74200684 53.65809082 18 54 C17.29488281 54.26159912 16.58976562 54.52319824 15.86328125 54.79272461 C13.18535058 56.52783561 12.73597148 58.39738212 11.67578125 61.375 C11.28712891 62.44234375 10.89847656 63.5096875 10.49804688 64.609375 C10.10681641 65.72828125 9.71558594 66.8471875 9.3125 68 C8.5173892 70.20849976 7.72183849 72.41684121 6.92578125 74.625 C6.57942627 75.60726562 6.23307129 76.58953125 5.8762207 77.6015625 C5 80 5 80 4 82 C2.02 82 0.04 82 -2 82 C-2.68835937 80.20755859 -2.68835937 80.20755859 -3.390625 78.37890625 C-4.01029738 76.77339145 -4.63009582 75.16792531 -5.25 73.5625 C-5.55035156 72.77939453 -5.85070312 71.99628906 -6.16015625 71.18945312 C-6.77874394 69.59033814 -7.41157219 67.99666806 -8.05761719 66.40844727 C-9 64 -9 64 -9.73144531 61.58959961 C-11.47135034 56.50000562 -13.36406142 54.37194319 -18.203125 51.93359375 C-20.20570586 51.0706395 -22.22209615 50.23913965 -24.25 49.4375 C-25.28125 49.00115234 -26.3125 48.56480469 -27.375 48.11523438 C-29.90652611 47.0487118 -32.44629576 46.01198339 -35 45 C-35 42.69 -35 40.38 -35 38 C-33.515 37.31164062 -33.515 37.31164062 -32 36.609375 C-30.66663863 35.98964366 -29.33330689 35.36984855 -28 34.75 C-27.35160156 34.44964844 -26.70320313 34.14929688 -26.03515625 33.83984375 C-24.7001731 33.21861397 -23.37105218 32.5846549 -22.04760742 31.93920898 C-20 31 -20 31 -17.8840332 30.29711914 C-14.32135268 28.96732453 -12.48231315 27.85235663 -10.57568359 24.48291016 C-9.30243044 21.33365937 -8.21591519 18.17482175 -7.1875 14.9375 C-6.45887995 12.75674403 -5.72348862 10.57823558 -4.98046875 8.40234375 C-4.67004639 7.43804443 -4.35962402 6.47374512 -4.03979492 5.48022461 C-3.00247142 3.00589509 -2.02941979 1.71404428 0 0 Z " fill="#000000" transform="translate(41,430)"/>
<path d="M0 0 C2.16983864 1.99772679 3.79164362 3.72634501 4.94140625 6.45703125 C4.94140625 10.25556126 4.53808634 12.5816172 2.94140625 16.08203125 C-0.66301823 19.3618867 -5.04507857 21.51431497 -9.2734375 23.8828125 C-10.41941406 24.52605469 -11.56539062 25.16929688 -12.74609375 25.83203125 C-13.3397876 26.16525391 -13.93348145 26.49847656 -14.54516602 26.84179688 C-24.6376554 32.59582479 -33.81421031 39.66499693 -42.65625 47.171875 C-47.16999356 50.76085159 -50.35839283 52.65243072 -56.125 52.4453125 C-59.19932058 51.86771288 -60.92461544 50.28067557 -63.05859375 48.08203125 C-64.71743952 44.76433972 -64.77949551 41.64227413 -64.05859375 38.08203125 C-55.65369625 23.02070033 -33.0632995 11.81509275 -18.62109375 3.45703125 C-17.88793945 3.01866943 -17.15478516 2.58030762 -16.39941406 2.12866211 C-11.05929419 -0.87924957 -5.97500229 -2.66437483 0 0 Z " fill="#000000" transform="translate(143.05859375,95.91796875)"/>
<path d="M0 0 C1.65 0 3.3 0 5 0 C10.06279367 11.59418398 10.06279367 11.59418398 10.75 16.5625 C11.58078693 20.03025257 11.58078693 20.03025257 13.80078125 20.9765625 C15.34205377 21.46103849 16.9001744 21.89419888 18.46875 22.28125 C22.67089696 23.47445222 26.27109122 25.76970704 30 28 C29.859375 30.3046875 29.859375 30.3046875 29 33 C26.453125 34.6953125 26.453125 34.6953125 23.25 36.125 C21.1632456 37.07586099 19.07979198 38.03400525 17 39 C16.10925781 39.37769531 15.21851563 39.75539062 14.30078125 40.14453125 C10.83122266 42.94256237 10.1558683 46.37978262 8.9375 50.5625 C6.56707559 58.60335142 6.56707559 58.60335142 3.81640625 60.52734375 C3.21699219 60.68332031 2.61757813 60.83929688 2 61 C-1.24007864 58.65788601 -1.62933081 55.83133821 -2.53466797 52.09545898 C-4.10638507 46.01724284 -5.56114277 41.42235021 -11.171875 38.1015625 C-15.32791902 36.04187983 -19.59669549 34.44651986 -24 33 C-24 31.02 -24 29.04 -24 27 C-22.89140625 26.59910156 -21.7828125 26.19820312 -20.640625 25.78515625 C-12.68869207 22.98034582 -12.68869207 22.98034582 -6.1875 17.91796875 C-5.19587205 15.62482911 -4.57971058 13.42944499 -4 11 C-3.26589262 8.97333927 -2.51563386 6.95246207 -1.75 4.9375 C-1.16342034 3.29282087 -0.57889885 1.64739833 0 0 Z " fill="#000000" transform="translate(24,10)"/>
<path d="M0 0 C4.05523038 2.85709413 7.51585617 6.46921234 9.75 10.9375 C10.25178565 17.38351568 10.71229274 23.52236659 6.75 28.9375 C1.99448508 33.4862534 -1.53419145 35.67037129 -8.0625 36.3125 C-14.26316898 36.12530999 -18.63355129 33.41338795 -23.125 29.3125 C-26.28344202 24.29615091 -27.78399445 19.41672158 -26.87109375 13.46875 C-25.05030848 7.22605766 -21.95179177 3.75963864 -16.5625 0.125 C-10.94159291 -1.89004217 -5.6676102 -1.85287257 0 0 Z " fill="#000000" transform="translate(502.25,1.0625)"/>
<path d="M0 0 C5.57894737 3.15789474 5.57894737 3.15789474 7 6 C8.09839061 11.79151415 7.05141233 15.57708741 3.75 20.4375 C1.45259116 23.57434669 -0.3276476 25.62105345 -4 27 C-7.31733709 27.43002518 -9.80489486 27.71759662 -12.75 25.94921875 C-16.22155505 23.12023518 -17.80598308 21.35811845 -18.4375 16.9375 C-17.73291231 10.59621079 -13.79777464 5.18073801 -9 1 C-5.64870516 -0.11709828 -3.51689744 -0.34479387 0 0 Z " fill="#000000" transform="translate(63,152)"/>
<path d="M0 0 C2.6948444 1.06375437 3.69880558 1.57558968 5.375 3.9375 C5.67399615 6.678298 5.79406272 9.14066327 5.75 11.875 C5.76160156 12.59107422 5.77320313 13.30714844 5.78515625 14.04492188 C5.76746336 17.22669325 5.56573792 19.57601167 4.0703125 22.41015625 C2.375 23.9375 2.375 23.9375 -1.125 24.4375 C-4.625 23.9375 -4.625 23.9375 -6.3125 22.40625 C-8.14095064 18.96702142 -8.1387769 15.73992318 -8.125 11.9375 C-8.15335937 11.2259375 -8.18171875 10.514375 -8.2109375 9.78125 C-8.22534984 5.91874338 -7.946779 4.2778636 -5.2578125 1.43359375 C-2.625 -0.0625 -2.625 -0.0625 0 0 Z " fill="#000000" transform="translate(364.625,374.0625)"/>
<path d="M0 0 C3.5 0.5 3.5 0.5 5.1953125 2.625 C6.71364093 5.97077762 6.90067544 8.33696995 6.875 12 C6.88273437 13.1034375 6.89046875 14.206875 6.8984375 15.34375 C6.45698398 18.84075434 5.69241123 20.7519085 3.5 23.5 C0 24 0 24 -3.5 23.5 C-5.19384766 22.21289062 -5.19384766 22.21289062 -6.5 20.5 C-6.7981028 17.57742357 -6.91882117 14.91654217 -6.875 12 C-6.88660156 11.22785156 -6.89820313 10.45570313 -6.91015625 9.66015625 C-6.88072363 3.99928168 -6.88072363 3.99928168 -5.19384766 1.78710938 C-3.5 0.5 -3.5 0.5 0 0 Z " fill="#000000" transform="translate(399.5,386.5)"/>
<path d="M0 0 C1.90625 0.44921875 1.90625 0.44921875 4.40625 2.57421875 C6.16209708 5.93959231 6.54281938 7.70937366 5.90625 11.44921875 C3.83729835 14.3934961 2.39715073 15.2925483 -1.03125 16.38671875 C-4.69247681 16.46143766 -6.2242174 15.66285819 -9.09375 13.44921875 C-10.63961876 10.35748123 -10.38734521 7.85492323 -10.09375 4.44921875 C-7.53483537 0.29098247 -4.61835112 -0.24987347 0 0 Z " fill="#000000" transform="translate(99.09375,-0.44921875)"/>
</svg>
