<?xml version="1.0" encoding="UTF-8"?>
<svg version="1.1" xmlns="http://www.w3.org/2000/svg" width="512" height="512">
<path d="M0 0 C18.9308302 16.69829578 32.03496248 36.61913749 39.1640625 60.8359375 C39.40286133 61.63725098 39.64166016 62.43856445 39.88769531 63.26416016 C44.59322144 80.35318738 44.12598994 97.95550849 44.203125 115.5234375 C44.2208154 118.23585422 44.24134936 120.94824749 44.2618103 123.66064453 C44.30823714 130.02787022 44.34515348 136.39511249 44.37848318 142.76241875 C44.41696285 150.02268038 44.46630344 157.28285622 44.51646733 164.54304504 C44.61924895 179.45311213 44.70868069 194.36323153 44.7890625 209.2734375 C45.9553418 208.71914063 47.12162109 208.16484375 48.32324219 207.59375 C49.86909172 206.86187587 51.41499289 206.13011077 52.9609375 205.3984375 C53.72776855 205.03363281 54.49459961 204.66882813 55.28466797 204.29296875 C73.43657695 195.71419329 93.13515819 196.29264977 112.140625 202.33984375 C124.23008354 206.71109189 135.21749504 212.66198097 144.7890625 221.2734375 C145.26730469 221.70253418 145.74554688 222.13163086 146.23828125 222.57373047 C164.56765978 239.25982602 175.87547596 262.25594694 177.16796875 287.1171875 C177.99365973 314.62850827 170.01208592 338.65749352 151.06518555 358.97436523 C133.2680424 377.44862334 110.24263021 387.73173868 84.66796875 388.62524414 C53.43735827 388.98670954 27.69394995 370.71463431 5.7890625 350.2734375 C2.13441264 351.80736538 -0.1548775 353.9997153 -2.9140625 356.81640625 C-3.81253906 357.72583984 -4.71101563 358.63527344 -5.63671875 359.57226562 C-6.57850681 360.53478281 -7.51991105 361.49767569 -8.4609375 362.4609375 C-18.84535362 373.04252608 -18.84535362 373.04252608 -23.1953125 376.76171875 C-28.49462114 381.29274863 -33.31976388 386.31243747 -38.2109375 391.2734375 C-62.49170615 415.90083847 -87.35006628 433.30598089 -123.0859375 433.64453125 C-124.9421875 433.64646484 -124.9421875 433.64646484 -126.8359375 433.6484375 C-128.08117187 433.67292969 -129.32640625 433.69742187 -130.609375 433.72265625 C-142.25880458 433.75952153 -151.18925746 430.86499754 -159.8359375 422.8359375 C-169.41880563 412.49652715 -171.70261963 403.64081109 -171.49609375 389.78125 C-171.27225448 384.34836713 -169.91545813 379.9875672 -167.2109375 375.2734375 C-166.6334375 374.2421875 -166.0559375 373.2109375 -165.4609375 372.1484375 C-158.97117056 363.85595752 -151.75921802 357.53918924 -141.2109375 355.2734375 C-139.5001915 355.10952241 -137.7858551 354.9810514 -136.0703125 354.87890625 C-134.58724609 354.77545898 -134.58724609 354.77545898 -133.07421875 354.66992188 C-131.01500854 354.53169384 -128.95506751 354.40391684 -126.89453125 354.28710938 C-116.47575031 353.52360597 -110.45773429 350.09897819 -103.0859375 342.8984375 C-102.42142578 342.26357422 -101.75691406 341.62871094 -101.07226562 340.97460938 C-93.90940503 334.08499142 -86.90728839 327.02421959 -79.92529297 319.95166016 C-79.03986816 319.05753418 -78.15444336 318.1634082 -77.2421875 317.2421875 C-76.46423828 316.45263672 -75.68628906 315.66308594 -74.88476562 314.84960938 C-70.45511969 310.58174744 -65.86403426 306.52259989 -60.98198509 302.77725983 C-49.03231878 293.5349184 -36.1539673 283.32094038 -33.71878052 267.62133789 C-32.51010156 257.48367168 -32.88259651 247.24676724 -33.27311254 237.06884575 C-33.43979569 231.94123631 -33.44481114 226.8131294 -33.46958923 221.68322754 C-33.53253443 213.09382266 -33.69547937 204.51155638 -33.93383789 195.92529297 C-34.26913663 183.84510171 -34.42648975 171.76741357 -34.54619801 159.68341541 C-34.7153324 143.45983961 -34.93883534 127.23475642 -35.3593998 111.01558495 C-35.40300359 109.27592331 -35.44220777 107.53614447 -35.47649002 105.79627419 C-35.79626958 90.0242485 -37.56728857 75.99202063 -48.50390625 63.6953125 C-54.10711937 58.3148026 -59.92450726 54.9009684 -67.2109375 52.2734375 C-68.20867187 51.90605469 -68.20867187 51.90605469 -69.2265625 51.53125 C-79.89583244 48.25874283 -91.11746884 50.02424409 -101.2109375 54.2734375 C-112.59921208 60.42243191 -120.77369934 70.1677416 -125.2109375 82.2734375 C-126.39565935 86.43192649 -126.35774416 90.47882047 -126.35569763 94.77346802 C-126.3609879 96.07270606 -126.3609879 96.07270606 -126.36638504 97.39819133 C-126.37707533 100.30599362 -126.38075365 103.21376315 -126.38452148 106.12158203 C-126.39082665 108.20444375 -126.39759241 110.28730412 -126.40478516 112.37016296 C-126.41945973 116.85925135 -126.43118276 121.34833451 -126.44073296 125.83743668 C-126.45618327 132.93957205 -126.48013354 140.04166283 -126.50563049 147.14376831 C-126.57683506 167.34093405 -126.63656744 187.53812549 -126.68774414 207.73535156 C-126.71607686 218.88733606 -126.75147562 230.03927634 -126.79439789 241.19121444 C-126.82112743 248.24671773 -126.83905928 255.30217099 -126.85043514 262.35771489 C-126.85958386 266.75585089 -126.87695679 271.15392635 -126.89661407 275.55202675 C-126.90406549 277.58609245 -126.90816918 279.6201737 -126.90860939 281.65425301 C-126.90969879 284.44012279 -126.92300789 287.22568782 -126.93919373 290.01150513 C-126.93657687 290.80842022 -126.93396002 291.60533531 -126.93126386 292.42639935 C-127.03950662 304.42855686 -130.11983405 316.29924966 -138.5859375 325.2109375 C-147.83242558 333.52670686 -157.60737518 336.90457524 -170.04296875 336.5546875 C-180.38747958 335.63630923 -189.90549729 331.14980201 -197.0234375 323.5234375 C-203.88648496 315.08659428 -206.36234699 307.04159253 -206.34896851 296.34907532 C-206.35178979 295.43729198 -206.35461107 294.52550865 -206.35751784 293.58609551 C-206.36586579 290.52394118 -206.36720227 287.46182299 -206.36865234 284.3996582 C-206.37332045 282.20680133 -206.37846401 280.01394543 -206.38404846 277.8210907 C-206.39533217 273.09463403 -206.40376508 268.36818367 -206.41016769 263.64171791 C-206.42084472 256.16600316 -206.44108911 248.69033371 -206.46328735 241.21464539 C-206.49382893 230.73074822 -206.52305588 220.24684947 -206.54882812 209.76293945 C-206.55046631 209.09766454 -206.55210449 208.43238964 -206.55379231 207.74695488 C-206.58005957 196.97359695 -206.59871327 186.2002356 -206.61542003 175.42685924 C-206.63286149 164.35817705 -206.66191791 153.28956369 -206.7003094 142.22093457 C-206.72137366 136.00948166 -206.73683587 129.79812419 -206.73911667 123.58663368 C-206.74126536 117.74172152 -206.75715766 111.89700807 -206.78350639 106.05215645 C-206.79069241 103.9096308 -206.79280375 101.76708105 -206.78940392 99.62454605 C-206.78549685 96.69370271 -206.80000402 93.76349015 -206.81893921 90.8327179 C-206.81340951 89.99008953 -206.80787982 89.14746116 -206.80218256 88.2792986 C-206.88435523 80.88238739 -208.36256822 74.0453057 -213.2109375 68.2734375 C-213.2109375 67.6134375 -213.2109375 66.9534375 -213.2109375 66.2734375 C-223.70233751 60.91210888 -223.70233751 60.91210888 -235.2109375 60.2734375 C-242.70736209 62.74700521 -248.37982198 66.17162071 -252.3034668 73.21118164 C-253.91124539 76.86490932 -254.25038069 80.65080513 -254.7109375 84.5859375 C-256.65102974 98.30966172 -260.55115466 106.9672264 -271.41015625 116.12890625 C-279.85360622 122.26821907 -289.89002223 124.50245041 -300.2109375 123.2734375 C-311.36516793 121.0075237 -320.36729389 116.58866192 -327.1484375 107.2734375 C-336.49373064 92.78273591 -335.47001846 76.91402811 -332.05151367 60.59765625 C-328.481846 44.97903389 -321.57704117 30.51653114 -311.2109375 18.2734375 C-310.54320312 17.47164062 -309.87546875 16.66984375 -309.1875 15.84375 C-291.98642527 -4.08962541 -267.9272916 -17.01227887 -241.5234375 -19.59765625 C-215.12535997 -21.06917071 -192.37674309 -15.13154447 -170.2109375 -0.7265625 C-168.54861198 0.28063741 -166.88365395 1.28359031 -165.2109375 2.2734375 C-164.54964844 1.59861328 -164.54964844 1.59861328 -163.875 0.91015625 C-119.56756696 -41.44503357 -45.19186265 -38.84236454 0 0 Z M-156.67578125 23.86328125 C-159.4935933 26.45165314 -161.79178575 27.22686508 -165.5859375 27.6484375 C-170.57213762 27.13262369 -173.23738056 25.10768454 -176.87109375 21.73046875 C-191.89369365 7.79230281 -212.71088867 0.54694219 -233.140625 1.0234375 C-256.72357308 2.94367755 -278.08100615 12.47386713 -293.97265625 30.2734375 C-303.3099299 41.38438923 -309.62196802 55.01178666 -312.2109375 69.2734375 C-312.55125 71.036875 -312.55125 71.036875 -312.8984375 72.8359375 C-314.00692713 84.69752177 -314.00692713 84.69752177 -309.2109375 95.2734375 C-305.10101404 99.6873827 -300.8688928 101.9725369 -294.8984375 102.6484375 C-288.99544171 102.04813284 -284.32306316 99.85463677 -280.3359375 95.3984375 C-276.7935646 90.18906559 -275.97086927 85.21726168 -275.3359375 79.0234375 C-273.76447416 66.0417838 -268.4343367 55.89798719 -258.15234375 47.6171875 C-247.71666921 40.39410492 -236.77321556 38.11961173 -224.2109375 39.2734375 C-212.12021158 41.73921706 -201.30667129 46.91609502 -194.2109375 57.2734375 C-188.31755341 67.24999764 -185.89519022 76.2598608 -185.9593811 87.76783752 C-185.95641096 88.680515 -185.95344083 89.59319247 -185.95038068 90.53352684 C-185.94278804 93.56872187 -185.94921513 96.60372066 -185.95556641 99.63891602 C-185.95281435 101.82428111 -185.94913315 104.00964521 -185.94459534 106.19500732 C-185.93650182 110.88974422 -185.93431019 115.58443353 -185.93654251 120.27917671 C-185.93938104 127.70462545 -185.92500433 135.12997947 -185.90756226 142.55540466 C-185.86206761 162.99970921 -185.83698794 183.44400955 -185.83069627 203.88836019 C-185.82688407 216.22309991 -185.81020778 228.55772126 -185.77498376 240.89241356 C-185.75477092 248.27220374 -185.75239864 255.65171629 -185.76326394 263.03152287 C-185.76587136 267.6229813 -185.75186597 272.21427806 -185.73318291 276.80569458 C-185.72786182 278.93252409 -185.72935626 281.05938339 -185.73821831 283.1862011 C-185.74935328 286.09319397 -185.73589175 288.99909471 -185.71646118 291.90602112 C-185.72558584 292.74426078 -185.7347105 293.58250044 -185.74411166 294.4461413 C-185.66034521 300.90175548 -184.0026235 306.38991973 -179.4296875 311.11328125 C-178.8625 311.47550781 -178.2953125 311.83773438 -177.7109375 312.2109375 C-177.14375 312.59121094 -176.5765625 312.97148437 -175.9921875 313.36328125 C-171.85003299 315.47977687 -167.80912349 315.65661967 -163.2109375 315.2734375 C-157.91889476 313.45337046 -154.30266133 311.02993571 -151.2109375 306.2734375 C-150.8528878 305.73244038 -150.4948381 305.19144325 -150.12593842 304.63405228 C-148.77276385 301.14299143 -148.93044589 297.69460587 -148.94592285 294.00360107 C-148.94154158 293.16209354 -148.93716031 292.320586 -148.93264627 291.45357823 C-148.92030793 288.62882908 -148.9221357 285.8042652 -148.92382812 282.97949219 C-148.9178046 280.95562464 -148.91088053 278.93175959 -148.90312195 276.90789795 C-148.88821792 272.54486098 -148.87947974 268.1818699 -148.87541199 263.81880951 C-148.86869705 256.90823298 -148.8469369 249.99775414 -148.82287598 243.08721924 C-148.77386854 228.39931492 -148.74162497 213.71138976 -148.7109375 199.0234375 C-148.67782481 183.20726845 -148.64169567 167.39113753 -148.58680677 151.57502675 C-148.56357482 144.7185487 -148.54974583 137.86213777 -148.54331207 131.00562429 C-148.53733084 126.71755148 -148.52319673 122.42953222 -148.50696754 118.14148712 C-148.50114075 116.16799117 -148.49860896 114.19448198 -148.49980736 112.22097778 C-148.51065742 87.20470901 -145.77733817 65.7822421 -127.83984375 46.69140625 C-112.9119506 32.96129353 -94.5783475 28.33898189 -74.69580078 29.09863281 C-58.4128809 30.24410055 -44.57083853 37.77279433 -33.2109375 49.2734375 C-32.57542969 49.88703125 -31.93992187 50.500625 -31.28515625 51.1328125 C-16.60638988 66.36488048 -14.59825648 87.16986721 -14.69335938 107.17041016 C-14.6879256 109.11375449 -14.68079596 111.05709469 -14.67211914 113.00042725 C-14.65404423 118.22709349 -14.66088394 123.45344032 -14.67363548 128.68011141 C-14.68383141 134.1678831 -14.67435297 139.65562922 -14.66809082 145.1434021 C-14.66083964 154.3441861 -14.67034187 163.5448411 -14.68945312 172.74560547 C-14.71128177 183.37730924 -14.70411691 194.00870685 -14.6821475 204.64040339 C-14.66399843 213.7906645 -14.66143084 222.94083349 -14.67190218 232.09110677 C-14.67813148 237.54722518 -14.67898684 243.00319952 -14.66575623 248.45930862 C-14.65420331 253.57968524 -14.66221331 258.69966586 -14.68533325 263.81999969 C-14.69062052 265.69772814 -14.68910627 267.57548995 -14.68028259 269.45320511 C-14.66934577 272.01682994 -14.68306674 274.57918663 -14.70300293 277.14273071 C-14.69408004 277.88474751 -14.68515716 278.62676431 -14.67596388 279.39126647 C-14.78146209 286.38799091 -18.13873187 290.49832745 -22.9609375 295.2109375 C-23.57453125 295.81808594 -24.188125 296.42523438 -24.8203125 297.05078125 C-26.78248098 298.87508495 -28.77696935 300.62181056 -30.80957031 302.36547852 C-35.41598565 306.39093122 -39.72270118 310.67603776 -44.0234375 315.0234375 C-44.83659424 315.84038086 -45.64975098 316.65732422 -46.48754883 317.49902344 C-49.06447047 320.08806421 -51.63811375 322.68032487 -54.2109375 325.2734375 C-57.60380903 328.69306469 -61.00008407 332.10925899 -64.3984375 335.5234375 C-65.16325439 336.29655273 -65.92807129 337.06966797 -66.71606445 337.86621094 C-70.84137918 342.01008166 -75.04917178 345.97891106 -79.49723816 349.77552795 C-81.98454551 351.94963244 -84.24247241 354.32355102 -86.5234375 356.7109375 C-99.78740324 370.22455044 -111.85598607 374.77557048 -130.5234375 375.6484375 C-137.91695234 376.12885311 -142.10764221 377.69854396 -147.0859375 383.3359375 C-150.77938707 388.44158838 -150.716683 393.17586444 -150.2109375 399.2734375 C-148.43078011 404.7186248 -144.8226765 408.05570143 -140.2109375 411.2734375 C-124.28698492 416.58142169 -102.66635939 411.38362469 -88.2109375 404.2734375 C-87.25960937 403.81582031 -86.30828125 403.35820312 -85.328125 402.88671875 C-76.67770746 398.3077644 -70.0926247 391.88585292 -63.1519928 385.11558533 C-61.31080561 383.36821678 -59.42178659 381.71028686 -57.49316406 380.06054688 C-53.15606459 376.2809623 -49.09707484 372.27005155 -45.0546875 368.1796875 C-43.93483459 367.05415466 -43.93483459 367.05415466 -42.7923584 365.90588379 C-40.42941725 363.5308383 -38.0697638 361.15256933 -35.7109375 358.7734375 C-32.59933104 355.63504533 -29.48429995 352.50011005 -26.3671875 349.3671875 C-25.31839417 348.30594666 -25.31839417 348.30594666 -24.24841309 347.2232666 C-20.27437728 343.22976303 -16.19939193 339.43166013 -11.91184998 335.77572632 C-9.68272787 333.80690943 -7.7459537 331.62088266 -5.7734375 329.3984375 C-2.12912769 325.72271123 0.50008926 323.97635964 5.73828125 323.94921875 C12.03908534 324.94534587 16.07456952 330.52090466 20.3203125 334.8515625 C36.6353084 350.85678 58.64873969 366.80038427 82.2265625 367.5234375 C99.78298811 367.30642359 115.25898669 361.2862899 128.7890625 350.2734375 C129.56894531 349.66886719 130.34882813 349.06429688 131.15234375 348.44140625 C145.47341643 336.69268514 154.11048577 318.32769869 156.02099609 300.05517578 C157.38565221 280.24828997 151.46281319 260.51080881 138.5546875 245.21875 C137.97203125 244.57679688 137.389375 243.93484375 136.7890625 243.2734375 C136.18578125 242.59023438 135.5825 241.90703125 134.9609375 241.203125 C129.8924178 235.78434174 124.19735157 231.96114122 117.7890625 228.2734375 C117.00917969 227.809375 116.22929687 227.3453125 115.42578125 226.8671875 C102.87222836 219.94690961 86.91757133 216.81819208 72.796875 219.93359375 C70.00336463 220.86881244 67.43590717 221.98070322 64.7890625 223.2734375 C63.77585937 223.75941406 62.76265625 224.24539063 61.71875 224.74609375 C56.23381067 227.5414303 51.23224459 230.61404339 46.34667969 234.3371582 C37.02234771 241.42360013 37.02234771 241.42360013 30.75390625 241.11328125 C27.56170086 239.7488197 25.49507555 238.27822231 23.7890625 235.2734375 C23.01954086 230.77245288 23.12023868 226.29744008 23.16137695 221.7409668 C23.15619573 220.34747868 23.14879385 218.95399732 23.13934326 217.56053162 C23.12378598 214.56204543 23.12394741 211.56411833 23.13634682 208.56561852 C23.15593671 203.80975256 23.14065664 199.05438001 23.12089539 194.29853821 C23.09373618 186.75994425 23.09025316 179.22155158 23.09666842 171.68291837 C23.10757915 158.22731944 23.0827274 144.77178459 23.04292077 131.31624728 C23.02996443 126.60480131 23.02852323 121.89354084 23.0370537 117.18208635 C23.04072443 114.22587423 23.03632566 111.26970778 23.0302124 108.31350136 C23.02863991 106.32467669 23.03698124 104.33585154 23.04582214 102.3470459 C22.95978429 75.55021387 16.44319262 49.95484629 -1.2109375 29.2734375 C-1.98050781 28.34273437 -2.75007813 27.41203125 -3.54296875 26.453125 C-20.5828156 6.68800377 -45.62788587 -6.37045374 -71.73828125 -8.59765625 C-103.94430751 -10.2766434 -134.42479876 -0.20875352 -156.67578125 23.86328125 Z " fill="#000000" transform="translate(334.2109375,78.7265625)"/>
<path d="M0 0 C9.71587296 4.43450303 16.12363311 10.85579614 20.875 20.4375 C22.61976224 25.42752002 23.23180482 30.05668199 23.1875 35.3125 C23.18186035 36.01503906 23.1762207 36.71757812 23.17041016 37.44140625 C22.92366416 48.01483872 19.28496148 54.84492379 12.0234375 62.3515625 C4.41442614 69.47553728 -4.5188307 73.04678667 -14.94140625 72.89453125 C-30.98695243 70.5910602 -46.06607382 55.41450821 -57.125 44.4375 C-59.86846678 40.32229983 -60.043066 37.25359927 -59.125 32.4375 C-55.25135272 26.56506522 -49.54898391 21.95313396 -44.125 17.5625 C-43.39385986 16.9653418 -42.66271973 16.36818359 -41.90942383 15.75292969 C-15.38343706 -5.60053255 -15.38343706 -5.60053255 0 0 Z M-10.125 19.4375 C-12.46435166 20.85674676 -14.57453348 22.29708846 -16.75 23.9375 C-17.37084473 24.39366699 -17.99168945 24.84983398 -18.63134766 25.31982422 C-23.53028072 28.93657993 -28.36749366 32.63652933 -33.125 36.4375 C-27.70780908 42.41508998 -20.61743916 48.32893482 -13.125 51.4375 C-8.01497113 51.4375 -5.20072169 49.39231296 -1.60546875 46.03515625 C2.04913477 42.09127013 2.32049106 37.82904104 2.19140625 32.6484375 C1.51760737 27.94016387 -1.28451503 25.19598643 -4.6875 22.125 C-7.08958333 20.29375 -7.08958333 20.29375 -10.125 19.4375 Z " fill="#000000" transform="translate(430.125,336.5625)"/>
<path d="M0 0 C1.2065625 0.0309375 1.2065625 0.0309375 2.4375 0.0625 C5.31542185 5.58060233 7.66517634 11.05625263 9.6875 16.9375 C9.955625 17.69546875 10.22375 18.4534375 10.5 19.234375 C12.4375 24.78985969 12.4375 24.78985969 12.4375 27.0625 C13.25734375 27.3203125 14.0771875 27.578125 14.921875 27.84375 C18.93578033 29.23523718 22.79789598 30.85990776 26.6875 32.5625 C27.40679687 32.87058594 28.12609375 33.17867187 28.8671875 33.49609375 C34.19637666 35.82137666 34.19637666 35.82137666 36.4375 38.0625 C36.5625 41.1875 36.5625 41.1875 36.4375 44.0625 C33.91793257 45.33589482 31.39691351 46.60626642 28.875 47.875 C28.17052734 48.23142578 27.46605469 48.58785156 26.74023438 48.95507812 C26.04091797 49.30634766 25.34160156 49.65761719 24.62109375 50.01953125 C23.92137451 50.37563477 23.22165527 50.73173828 22.50073242 51.09863281 C20.4375 52.0625 20.4375 52.0625 16.640625 53.28515625 C12.06832674 55.82222419 11.31504825 58.87413743 9.75 63.6875 C9.17334307 65.31302155 8.5952326 66.93802823 8.015625 68.5625 C7.74685547 69.33980469 7.47808594 70.11710937 7.20117188 70.91796875 C5.84039682 74.73927568 4.14023601 78.38459021 2.4375 82.0625 C0.7875 82.0625 -0.8625 82.0625 -2.5625 82.0625 C-4.61009949 77.73103954 -6.46954674 73.6233075 -7.6015625 68.9609375 C-9.87147087 59.84084243 -9.87147087 59.84084243 -16.2265625 53.328125 C-19.5460687 51.56205735 -22.97237846 50.16347163 -26.49902344 48.86865234 C-29.9773529 47.50974985 -33.24541941 45.77298563 -36.5625 44.0625 C-36.5625 42.0825 -36.5625 40.1025 -36.5625 38.0625 C-24.6484375 32.10546875 -24.6484375 32.10546875 -22.54980469 31.06005859 C-20.74703586 30.15513065 -18.95488471 29.22912702 -17.1640625 28.30078125 C-14.5625 27.0625 -14.5625 27.0625 -12.5625 27.0625 C-12.34207031 26.258125 -12.34207031 26.258125 -12.1171875 25.4375 C-10.47317401 19.69290112 -8.52838373 14.09402008 -6.4375 8.5 C-6.17179199 7.78521484 -5.90608398 7.07042969 -5.63232422 6.33398438 C-3.269646 0.07974746 -3.269646 0.07974746 0 0 Z " fill="#000000" transform="translate(406.5625,-0.0625)"/>
<path d="M0 0 C1.8984375 0.08984375 1.8984375 0.08984375 4 1 C5.4140625 3.44140625 5.4140625 3.44140625 6.625 6.5625 C7.05554688 7.6453125 7.48609375 8.728125 7.9296875 9.84375 C8.82433316 12.48197517 9.35162064 14.82491875 9.75 17.5625 C10.58547764 21.03411629 10.58547764 21.03411629 12.8359375 22.01171875 C14.38869291 22.51252212 15.95838563 22.96306623 17.5390625 23.3671875 C21.29609278 24.333281 24.85086507 25.70241686 28 28 C29 30.75 29 30.75 29 33 C25.5296676 35.15552523 22.0313732 36.99802555 18.3125 38.6875 C17.35988281 39.12449219 16.40726562 39.56148437 15.42578125 40.01171875 C13 41 13 41 11 41 C10.82984375 41.60585937 10.6596875 42.21171875 10.484375 42.8359375 C9.14711356 47.4594478 7.71331448 52.04070382 6.0625 56.5625 C5.76472656 57.38878906 5.46695312 58.21507812 5.16015625 59.06640625 C4 61 4 61 1.87109375 61.77734375 C1.25363281 61.85082031 0.63617188 61.92429688 0 62 C-8 46.85714286 -8 46.85714286 -8 41 C-8.81791016 40.76216797 -8.81791016 40.76216797 -9.65234375 40.51953125 C-15.56121247 38.69131717 -20.69864172 36.17078876 -26 33 C-25.96484375 30.73828125 -25.96484375 30.73828125 -25 28 C-22.48128109 26.46260014 -20.25320096 25.31297325 -17.5625 24.1875 C-16.86833984 23.87619141 -16.17417969 23.56488281 -15.45898438 23.24414062 C-10.36404533 21 -10.36404533 21 -8 21 C-7.82984375 20.39414063 -7.6596875 19.78828125 -7.484375 19.1640625 C-2.73160173 2.73160173 -2.73160173 2.73160173 0 0 Z " fill="#000000" transform="translate(483,181)"/>
<path d="M0 0 C4.56891828 2.62433159 8.06303066 5.96646246 9.57421875 11.12890625 C10.57368798 18.03952205 10.30551057 23.80195259 6.046875 29.5078125 C1.66324758 34.33329096 -2.54608249 35.8465365 -8.90234375 36.21875 C-13.79656584 36.04449751 -17.5198717 34.8484602 -21.18359375 31.54296875 C-25.69353213 26.55371325 -27.94683416 22.15440879 -27.73828125 15.24609375 C-26.95375188 9.93090729 -24.3904697 5.68632291 -20.36328125 2.19140625 C-14.54149533 -1.89623068 -6.70357063 -2.40724034 0 0 Z " fill="#000000" transform="translate(177.42578125,0.87109375)"/>
<path d="M0 0 C3.07204549 2.00623379 4.45581618 3.42251475 5.65625 6.90234375 C6.40329289 10.64474128 6.18008721 12.60850608 4.5625 16.125 C1.94031552 19.06696308 -0.72999546 21.10034527 -3.9140625 23.37890625 C-9.70495931 27.87932231 -13.59316716 33.52161777 -16.859375 40.01953125 C-18.05822086 42.10108895 -19.1314811 43.49151279 -21 45 C-27.75553097 46.52544248 -27.75553097 46.52544248 -31.8125 44.8125 C-35.4793069 41.77428857 -36.79954903 40.26952282 -37.5625 35.4375 C-37.15490243 25.88553955 -29.27166522 16.66846654 -23 10 C-10.01617099 -1.51760166 -10.01617099 -1.51760166 0 0 Z " fill="#000000" transform="translate(74,97)"/>
<path d="M0 0 C3.68623011 1.61272567 4.75355 2.630325 7 6 C7.73965025 10.59271203 7.60961194 14.02462089 5.125 18 C1.22124264 21.67412457 -2.12302436 21.27292645 -7.296875 21.21875 C-10.62429183 20.94947927 -12.51570742 20.24387717 -15 18 C-17.57189679 14.57080428 -17.502142 11.16060514 -17 7 C-12.67266795 -0.20685784 -7.84517441 -0.70421251 0 0 Z " fill="#000000" transform="translate(102,88)"/>
<path d="M0 0 C2.49842191 2.43390867 2.9787579 3.80630861 3.36328125 7.3125 C3.34652344 8.529375 3.32976562 9.74625 3.3125 11 C3.30863281 12.216875 3.30476563 13.43375 3.30078125 14.6875 C3.02260151 17.75108988 2.71063732 19.48542359 1 22 C-1.79870027 23.39935013 -3.90498792 23.25265405 -7 23 C-9.02637743 21.46854973 -9.88323168 20.56218123 -10.40405273 18.0546875 C-10.43593882 15.70196835 -10.45784777 13.35294234 -10.4375 11 C-10.45748047 10.18015625 -10.47746094 9.3603125 -10.49804688 8.515625 C-10.49317715 2.55508663 -10.49317715 2.55508663 -8.1640625 -0.06640625 C-5.04135818 -1.4135657 -3.20540409 -1.0230013 0 0 Z " fill="#000000" transform="translate(357,368)"/>
<path d="M0 0 C2.6482281 2.43466131 2.99144913 3.92421586 3.3984375 7.53125 C3.39070313 8.8409375 3.38296875 10.150625 3.375 11.5 C3.38273437 12.8096875 3.39046875 14.119375 3.3984375 15.46875 C2.99074621 19.08201402 2.56884801 20.49891537 0 23 C-2.89267734 24.03839699 -4.34842765 24.23529002 -7.25 23.1875 C-9 22 -9 22 -10 20 C-10.15071519 17.17409019 -10.23132601 14.38927538 -10.25 11.5625 C-10.270625 10.78583984 -10.29125 10.00917969 -10.3125 9.20898438 C-10.35208006 3.46492793 -10.35208006 3.46492793 -8.69824219 1.28100586 C-5.85525597 -0.8634951 -3.41502698 -0.42687837 0 0 Z " fill="#000000" transform="translate(343,328)"/>
<path d="M0 0 C0.79148437 -0.02578125 1.58296875 -0.0515625 2.3984375 -0.078125 C5.14840652 0.32713359 5.96164071 1.06299056 7.625 3.25 C8.71945546 6.84606794 8.94466474 8.54673757 7.375 12 C5.625 14.25 5.625 14.25 2.625 16.25 C-0.7425602 16.06959499 -3.36613606 15.88894716 -6.25 14.0625 C-7.89761692 11.40800608 -8.25033099 9.36672513 -8.375 6.25 C-6.07299424 1.54135185 -5.15490958 0.10009533 0 0 Z " fill="#000000" transform="translate(436.375,132.75)"/>
</svg>
