<?xml version="1.0" encoding="UTF-8"?>
<svg version="1.1" xmlns="http://www.w3.org/2000/svg" width="512" height="512">
<path d="M0 0 C1.22521866 0.00373123 1.22521866 0.00373123 2.47518921 0.00753784 C14.81306625 0.06560944 26.83049854 0.38841545 38.875 3.3125 C39.80489746 3.53824707 40.73479492 3.76399414 41.69287109 3.99658203 C83.36698433 14.49464109 119.86757443 38.52278064 142.5 75.5625 C165.41945746 114.36663067 173.2935393 161.68364879 162.62109375 205.64453125 C156.76920339 228.20643195 146.38530586 248.12592537 131.875 266.3125 C131.14796875 267.24449219 130.4209375 268.17648437 129.671875 269.13671875 C123.33215361 276.95911692 116.29821267 284.07299502 109.1875 291.1875 C108.441586 291.93490952 108.441586 291.93490952 107.68060303 292.69741821 C102.43789987 297.93893373 97.13869086 303.06753473 91.50854492 307.89501953 C89.5316436 309.6104416 87.69259109 311.42999494 85.875 313.3125 C83.34297564 315.88885942 80.76358011 318.29981915 78 320.625 C57.64594789 338.27577957 42.92114539 362.64070848 40.671875 389.76171875 C40.4276804 401.42201087 43.59106423 412.30467947 51.46875 421.08984375 C59.8619127 428.86935541 71.26732642 432.95001099 82.6875 432.55859375 C94.64796846 431.21304105 104.75850021 426.85286209 112.41015625 417.3828125 C118.15417039 409.26460585 119.87971456 400.60647421 120.75 390.875 C121.42443501 384.4047706 122.49981579 378.97932219 125.875 373.3125 C126.473125 372.28125 127.07125 371.25 127.6875 370.1875 C134.17908134 361.65570738 142.00722515 355.83316247 152.6875 353.59375 C165.5537485 351.93951805 176.43487733 354.56149983 186.875 362.3125 C193.69804279 368.48509708 199.34927631 377.31566151 200.05200195 386.66821289 C200.84004503 420.32173398 191.56008841 450.19174158 168.359375 475.140625 C146.56591814 497.95578318 117.87013582 511.91914225 86.14379883 512.71484375 C73.27752063 512.84339048 61.27854219 511.74041668 48.875 508.3125 C48.10897461 508.10351074 47.34294922 507.89452148 46.55371094 507.67919922 C29.9626786 503.00048604 15.15904849 495.30553143 1.875 484.3125 C1.02679688 483.62800781 0.17859375 482.94351562 -0.6953125 482.23828125 C-22.69546574 463.58297889 -35.64137775 435.66002863 -39.125 407.3125 C-39.88137632 391.05957726 -40.37353005 374.11184041 -36.125 358.3125 C-35.92632324 357.54115723 -35.72764648 356.76981445 -35.52294922 355.97509766 C-27.67159212 326.02231736 -12.48978933 300.39067019 7.875 277.3125 C8.53387207 276.55888184 8.53387207 276.55888184 9.20605469 275.79003906 C18.9749184 264.65976217 29.73835633 254.69795212 41.28125 245.4296875 C45.62596381 241.88324942 49.76050518 238.12142785 53.875 234.3125 C54.76251953 233.52359375 54.76251953 233.52359375 55.66796875 232.71875 C73.27425567 216.32524769 85.817747 191.48163411 87.078125 167.4375 C87.54251757 143.09509963 79.86643791 122.55999767 63.29199219 104.61401367 C45.96337017 86.74497961 21.36324366 78.81433531 -3.02050781 78.30566406 C-25.36770383 78.37825356 -45.48176372 89.11494075 -61.3125 104.1875 C-78.38794538 121.91311264 -86.68134455 146.40566371 -86.33984375 170.671875 C-85.85614235 185.32111726 -80.46795141 198.41595859 -73.25 210.9375 C-65.64934772 224.18007723 -60.59241086 238.23168483 -58.125 253.3125 C-57.99480469 254.07046875 -57.86460937 254.8284375 -57.73046875 255.609375 C-53.48039188 285.75658695 -61.98150006 319.71333527 -79.97802734 344.23583984 C-99.06066724 368.85929919 -127.22397009 385.45862002 -158.1796875 389.84375 C-174.57592989 391.66939656 -192.12494755 391.67881468 -208.125 387.3125 C-208.93453125 387.09207031 -209.7440625 386.87164062 -210.578125 386.64453125 C-228.30116614 381.63007799 -244.54000808 373.95065915 -258.125 361.3125 C-258.85493164 360.64395996 -258.85493164 360.64395996 -259.59960938 359.96191406 C-282.69620239 338.63635258 -295.57984686 308.60185106 -297.125 277.3125 C-298.35438274 246.27058593 -288.70179691 215.90877902 -267.5 192.875 C-265.72507349 191.00365999 -263.92691437 189.15816343 -262.125 187.3125 C-261.47144531 186.59707031 -260.81789063 185.88164062 -260.14453125 185.14453125 C-245.96849189 170.00125679 -226.77601219 160.90181904 -207.125 155.3125 C-205.96097656 154.97089844 -204.79695313 154.62929687 -203.59765625 154.27734375 C-191.03120999 151.18251449 -177.97149078 152.03952782 -165.125 152.3125 C-165.18880859 150.45044922 -165.18880859 150.45044922 -165.25390625 148.55078125 C-165.2012668 110.02622332 -143.49442772 71.88478222 -117.25 45.125 C-86.32223187 14.39783358 -42.96869152 -0.20928351 0 0 Z M-38.125 25.3125 C-38.98947754 25.54324219 -39.85395508 25.77398438 -40.74462891 26.01171875 C-76.21616343 35.89433533 -106.4686225 58.1040786 -125.22265625 89.859375 C-137.37066544 111.91038141 -143.65495121 135.12192125 -145.30371094 160.22045898 C-145.66354812 164.9363849 -145.97107575 168.55261346 -149.125 172.3125 C-152.45288152 174.48007153 -154.72609777 174.4166368 -158.61328125 173.95703125 C-188.09920928 170.94005362 -215.29787326 175.62746335 -238.76660156 194.64257812 C-242.37914127 197.71159978 -245.77383432 200.96133432 -249.125 204.3125 C-250.23488281 205.42238281 -250.23488281 205.42238281 -251.3671875 206.5546875 C-267.28521408 223.46371963 -275.66448941 246.68471958 -276.375 269.6875 C-275.48418856 297.6694595 -265.79439413 323.91236405 -245.70947266 343.83691406 C-225.36840938 362.7801169 -198.44725786 370.08850186 -171.27734375 369.62109375 C-152.22018006 368.90892497 -133.56367283 362.53841194 -118.125 351.3125 C-117.28710938 350.70792969 -116.44921875 350.10335938 -115.5859375 349.48046875 C-94.54483551 333.48792839 -83.53621722 310.84491064 -79.125 285.3125 C-75.90160419 260.21232401 -82.41862614 239.35778386 -94.08837891 217.50878906 C-106.99657919 193.2356867 -111.55565152 165.14876995 -104.125 138.3125 C-95.12274067 108.86310898 -77.44872481 84.25403621 -50.24560547 69.27783203 C-24.05480984 55.40810358 6.3502305 54.17367881 34.38671875 62.7734375 C62.26343108 71.96675692 84.5098507 91.28563031 97.875 117.3125 C110.07432838 142.48983729 111.54696637 171.90346796 102.5546875 198.36328125 C92.73808513 225.13552191 73.72692022 248.1201681 51.26953125 265.42578125 C47.82752429 268.13783567 44.61240822 271.07606197 41.37890625 274.03125 C39.71423263 275.54789492 38.03445899 277.04813528 36.33984375 278.53125 C8.51284209 302.96051885 -15.18261402 340.68830634 -18.125 378.3125 C-19.67832987 407.56450419 -14.9683933 434.62877786 4.875 457.3125 C22.50466355 476.78449174 47.75494799 489.9239045 74.25830078 491.44970703 C101.422804 492.64512524 126.38576354 484.6751765 146.875 466.3125 C165.29592928 449.41970211 177.62511104 426.17093008 179.18359375 401.0078125 C179.69443523 389.68176025 179.69443523 389.68176025 174.52734375 379.87890625 C170.20460317 375.78098906 166.41235959 374.55647688 160.625 374 C154.67796217 374.49558649 150.00671956 376.70940167 146 381.1875 C142.29636897 386.63401623 141.57293862 391.99703003 141 398.4375 C139.55910262 412.09661903 135.28160715 425.82412289 124.875 435.3125 C124.875 435.9725 124.875 436.6325 124.875 437.3125 C124.30652344 437.57417969 123.73804688 437.83585937 123.15234375 438.10546875 C120.69854385 439.40602479 118.64714092 440.94448052 116.4375 442.625 C102.01776548 452.80363613 84.7348917 455.09824917 67.625 452.3125 C51.45292717 448.76293735 37.58056633 439.99918109 28.40625 426.04296875 C18.20198836 407.84710424 17.73360082 387.13321458 22.875 367.3125 C31.56267026 337.31182282 52.55330678 313.08535775 75.91015625 293.05859375 C77.98320324 291.21634325 79.92935802 289.28848338 81.875 287.3125 C84.37439764 284.77435201 86.91281792 282.37121697 89.625 280.0625 C98.98135639 271.97449054 107.29399721 263.07528501 114.875 253.3125 C115.98294922 251.92998047 115.98294922 251.92998047 117.11328125 250.51953125 C140.14190527 221.04766528 149.44285962 184.3734524 145.10327148 147.35058594 C142.72310544 129.82914243 137.61767432 113.18764003 129.875 97.3125 C129.16923828 95.8584375 129.16923828 95.8584375 128.44921875 94.375 C111.80964286 62.12703321 81.58530535 38.79384292 47.33154297 27.70214844 C43.20838021 26.45057393 39.0569226 25.34891204 34.875 24.3125 C34.18245117 24.13460938 33.48990234 23.95671875 32.77636719 23.7734375 C10.54666694 18.31084904 -16.16993325 19.44764527 -38.125 25.3125 Z " fill="#000000" transform="translate(306.125,-0.3125)"/>
<path d="M0 0 C14.08065798 11.27518009 23.19287297 24.70917146 26.6875 42.5 C28.37301761 61.37779725 23.03558809 78.36713664 11 93 C3.64503933 101.72015058 -6.22775692 107.47421649 -17 111 C-17.680625 111.22558594 -18.36125 111.45117188 -19.0625 111.68359375 C-35.79022192 116.27738102 -53.5563581 112.17723987 -68.421875 104.109375 C-81.51652575 96.61700474 -89.24804669 83.80668242 -94.109375 69.8046875 C-98.57107013 53.01019358 -96.58603191 35.50145532 -88.75 20.0625 C-79.95601056 4.95774956 -66.68525086 -4.31162337 -49.875 -8.8125 C-32.72934426 -12.34726789 -14.59056074 -10.22821602 0 0 Z M-66.2109375 24.76171875 C-74.07495306 34.60032337 -75.94722637 45.71565797 -75 58 C-73.14436757 68.17698409 -68.18641694 77.56781527 -60 84 C-49.58526804 90.84847526 -38.85085791 93.78153813 -26.4296875 91.53515625 C-15.03963608 88.51804232 -6.34473711 82.26464126 -0.30859375 72.171875 C5.427521 61.39074365 7.58433716 51.35417691 4.28125 39.3984375 C0.38244436 28.54228042 -7.25794997 20.14842746 -17.3984375 14.71484375 C-34.31834265 6.87322658 -53.51710492 11.33457712 -66.2109375 24.76171875 Z " fill="#000000" transform="translate(164,220)"/>
<path d="M0 0 C2.46875 0.05078125 2.46875 0.05078125 5 1 C6.40625 3.23046875 6.40625 3.23046875 7.5 6.1875 C7.93441406 7.27160156 8.36882813 8.35570312 8.81640625 9.47265625 C10 13 10 13 10.65234375 16.55859375 C11.82640541 21.89152059 12.71281548 25.49253747 17.34179688 28.54345703 C22.98330166 31.48723596 28.84462154 33.8245698 34.83276367 35.96362305 C37 37 37 37 39 40 C39.06640625 42.46484375 39.06640625 42.46484375 38 45 C35.60688829 46.45155956 33.49917003 47.51666929 30.9375 48.5625 C28.9646093 49.41366706 26.99444555 50.26857419 25.03198242 51.14355469 C23 52 23 52 20.8840332 52.66113281 C17.23431892 53.99823717 15.46105425 55.1297126 13.60766602 58.62817383 C12.37250118 61.93155725 11.31160651 65.24282539 10.3125 68.625 C9.61782028 70.91425647 8.90630746 73.19849171 8.17578125 75.4765625 C7.87583252 76.48799316 7.57588379 77.49942383 7.2668457 78.54150391 C6 81 6 81 3.55151367 82.47021484 C2.70951416 82.64504395 1.86751465 82.81987305 1 83 C-2.60733052 80.59511298 -2.59308096 79.72980181 -3.59375 75.65234375 C-6.83147047 62.25648131 -6.83147047 62.25648131 -15.67578125 52.4140625 C-19.62488841 50.41872016 -23.69544206 48.88463764 -27.94458008 47.65649414 C-30.1287808 46.95886785 -32.0274115 46.17176846 -34 45 C-35 42.625 -35 42.625 -35 40 C-32.66705427 36.71296442 -30.28174464 35.64347158 -26.55078125 34.51953125 C-16.4663046 31.42705079 -16.4663046 31.42705079 -9.21923828 24.16992188 C-6.34292002 17.79429073 -4.39339515 11.16508134 -2.73583984 4.37915039 C-2 2 -2 2 0 0 Z " fill="#000000" transform="translate(35,54)"/>
<path d="M0 0 C3.2561101 1.89446406 5.3487671 3.30400843 6.73046875 6.90234375 C7.4823873 10.78105229 7.35334452 12.37118072 5.3515625 15.93359375 C2.89702373 19.13427969 0.32394526 21.52090647 -2.75 24.125 C-12.50537005 32.76372885 -17.82318475 42.74160735 -22 55 C-24.97631168 63.59224819 -24.97631168 63.59224819 -28 66 C-32.22170926 67.24911997 -35.875019 67.47871532 -39.9375 65.75 C-42.24060448 63.79585075 -43.76750159 62.09766074 -44.40625 59.08203125 C-45.07615829 42.86466818 -34.37778948 25.6394728 -24 14 C-9.26309851 -1.88156689 -9.26309851 -1.88156689 0 0 Z " fill="#000000" transform="translate(85,196)"/>
<path d="M0 0 C1.65 0 3.3 0 5 0 C5.2002478 0.80836304 5.2002478 0.80836304 5.40454102 1.63305664 C8.10494661 13.23448322 8.10494661 13.23448322 15.69921875 21.71484375 C18.2938116 22.97671213 20.9345784 23.93992236 23.671875 24.84375 C28.46044304 26.50738397 28.46044304 26.50738397 30 29 C30.046875 30.98828125 30.046875 30.98828125 29 33 C26.453125 34.66796875 26.453125 34.66796875 23.25 36.1875 C22.20328125 36.69667969 21.1565625 37.20585937 20.078125 37.73046875 C17.34243966 38.85876537 14.91329056 39.55221645 12 40 C11.82984375 40.60585938 11.6596875 41.21171875 11.484375 41.8359375 C10.14711356 46.4594478 8.71331448 51.04070382 7.0625 55.5625 C6.76472656 56.38878906 6.46695312 57.21507812 6.16015625 58.06640625 C5 60 5 60 2.87109375 60.77734375 C2.25363281 60.85082031 1.63617188 60.92429687 1 61 C-1.59360153 57.14582118 -2.55753794 53.73932642 -3.625 49.25 C-5.64460858 43.18482328 -7.74520766 41.00628995 -13.37646484 38.05175781 C-14.94448648 37.31564891 -16.52583449 36.60721481 -18.11962891 35.92871094 C-22.15358616 34.19271102 -22.15358616 34.19271102 -24 33 C-25.015625 30.25390625 -25.015625 30.25390625 -25 28 C-22.3773768 26.66180502 -19.75213401 25.3292849 -17.125 24 C-16.37863281 23.6184375 -15.63226563 23.236875 -14.86328125 22.84375 C-14.14785156 22.4828125 -13.43242187 22.121875 -12.6953125 21.75 C-12.03547363 21.41484375 -11.37563477 21.0796875 -10.69580078 20.734375 C-9 20 -9 20 -7 20 C-6.82984375 19.39414062 -6.6596875 18.78828125 -6.484375 18.1640625 C-4.68433058 11.94050468 -2.50381567 5.97357039 0 0 Z " fill="#000000" transform="translate(482,256)"/>
<path d="M0 0 C4.41854291 3.11306432 8.02390999 6.75922996 9.75 11.9375 C10.44766205 19.119988 10.14536204 24.11661514 5.75 29.9375 C1.41674724 34.04853467 -2.17815147 35.77041544 -8.125 36.25 C-13.65115029 36.083487 -17.73306692 34.17862706 -22 30.6875 C-25.40691505 26.52349271 -27.05105936 22.79427931 -27.625 17.4375 C-26.97061201 11.32987878 -24.59495207 6.28245207 -20.25 1.9375 C-13.79041352 -1.80906016 -7.11643601 -2.32652716 0 0 Z " fill="#000000" transform="translate(131.25,4.0625)"/>
<path d="M0 0 C3.40907006 2.82015528 4.79091813 4.85201963 5.29296875 9.203125 C4.79869579 14.14585458 3.37968574 15.49140801 -0.08203125 18.953125 C-4.73308414 21.27865144 -11.25911415 21.44984038 -16.32421875 20.55859375 C-19.52508613 19.38402653 -21.08852057 17.94420218 -23.08203125 15.203125 C-24.31062451 11.21019691 -24.24900673 8.96460322 -23.08203125 4.953125 C-17.8405576 -1.5633017 -7.79407774 -3.91897342 0 0 Z " fill="#000000" transform="translate(136.08203125,181.046875)"/>
<path d="M0 0 C3.375 0.9375 3.375 0.9375 5.375 3.9375 C5.62264692 6.8171153 5.74519346 9.55838425 5.75 12.4375 C5.77449219 13.20964844 5.79898437 13.98179687 5.82421875 14.77734375 C5.85342455 20.39459214 5.85342455 20.39459214 3.578125 22.9765625 C0.23053456 24.43668173 -2.15656391 23.83672417 -5.625 22.9375 C-8.09711853 19.22932221 -7.99230992 16.2949099 -8 12 C-8.02449219 11.28392578 -8.04898437 10.56785156 -8.07421875 9.83007812 C-8.09367614 6.33098999 -7.88823582 4.30488565 -5.828125 1.4296875 C-3.625 -0.0625 -3.625 -0.0625 0 0 Z " fill="#000000" transform="translate(417.625,215.0625)"/>
<path d="M0 0 C2.56212287 3.84318431 2.33108539 7.04693955 2.3125 11.5 C2.32861328 12.27214844 2.34472656 13.04429687 2.36132812 13.83984375 C2.36624836 19.51779471 2.36624836 19.51779471 0.69604492 21.71679688 C-2.14422385 23.86570326 -4.58518948 23.42685131 -8 23 C-10.77039004 20.510479 -11.00427475 18.95938987 -11.3984375 15.21484375 C-11.40636584 13.78906314 -11.39809728 12.36311556 -11.375 10.9375 C-11.38660156 10.21755859 -11.39820313 9.49761719 -11.41015625 8.75585938 C-11.3810252 3.52683652 -11.3810252 3.52683652 -9.6015625 1.06640625 C-6.06323748 -1.28960041 -4.12674727 -1.03168682 0 0 Z " fill="#000000" transform="translate(437,165)"/>
<path d="M0 0 C2.875 1.5 2.875 1.5 5 4 C5.66017005 6.80141726 5.60984064 9.19243175 5 12 C3.4375 14.5 3.4375 14.5 1 16 C-2.63019782 16.45377473 -5.02317947 16.43699866 -8.375 14.9375 C-10.81081016 12.03326481 -10.93550991 9.74042509 -11 6 C-8.44420079 0.40158268 -6.0596034 -0.59407876 0 0 Z " fill="#000000" transform="translate(487,39)"/>
</svg>
