<?xml version="1.0" encoding="UTF-8"?>
<svg version="1.1" xmlns="http://www.w3.org/2000/svg" width="512" height="512">
<path d="M0 0 C34.04484289 30.33263621 55.66830057 72.47582775 58.81494141 118.22314453 C60.44745629 146.7674199 55.08540709 172.96954728 44.94384766 199.47705078 C45.71091034 199.48291702 46.47797302 199.48878326 47.26828003 199.49482727 C54.5351531 199.5529894 61.80169246 199.62519821 69.06826591 199.71276569 C72.80313794 199.75728945 76.5379054 199.79658374 80.27294922 199.82348633 C83.88472251 199.8497008 87.49608942 199.89022725 91.1076088 199.94023705 C92.47808867 199.95678426 93.84863863 199.96837352 95.21920395 199.97466469 C108.68651837 200.04267307 119.848655 202.33173187 130.17431641 211.44580078 C138.64144919 220.21476381 142.36732295 231.32775396 142.22119141 243.37548828 C141.20016446 254.79373333 136.42330108 264.54120476 128.06884766 272.28955078 C117.36731236 281.07864441 106.29456737 281.77711645 92.87402344 281.75170898 C91.3521398 281.75606172 89.83025836 281.76124673 88.30838013 281.76719666 C84.19258631 281.78053786 80.07688461 281.78117076 75.9610734 281.77863336 C72.51694217 281.77756028 69.07282932 281.78245564 65.62870204 281.78723878 C57.49887319 281.7983172 49.36909055 281.79878082 41.23925781 281.79272461 C32.87089973 281.78668626 24.50270985 281.7989961 16.13438046 281.82029468 C8.9324131 281.83794621 1.73049911 281.84390643 -5.47148907 281.84065694 C-9.76530925 281.83884952 -14.05900945 281.84142593 -18.35280991 281.85537148 C-22.39289398 281.8680031 -26.43271705 281.86595567 -30.47279739 281.85296059 C-31.9489323 281.85060678 -33.42508588 281.85328625 -34.90119934 281.86158371 C-48.25593621 281.93119473 -58.42501721 279.90695395 -69.05615234 271.47705078 C-77.52882319 262.7376477 -81.94935684 252.64959829 -82.09130859 240.45751953 C-81.59208881 230.97234367 -78.73604885 223.10941171 -73.05615234 215.47705078 C-72.51345703 214.71521484 -71.97076172 213.95337891 -71.41162109 213.16845703 C-68.42362482 209.75431204 -65.04548379 207.35305421 -61.36865234 204.72705078 C-40.38332452 189.26256543 -27.72266838 168.38002361 -23.73925781 142.41113281 C-20.61973756 118.6994306 -27.01754187 94.77948221 -41.05615234 75.47705078 C-55.85733612 56.54093313 -77.7580486 43.25898879 -101.67333984 39.79345703 C-128.72238998 37.26346504 -151.8989113 44.35215962 -173.67333984 60.40673828 C-190.51214948 74.36916763 -202.44437552 96.77318538 -205.05615234 118.47705078 C-206.56286265 144.96761298 -201.43009289 167.33094955 -185.05615234 188.47705078 C-184.43095703 189.28658203 -183.80576172 190.09611328 -183.16162109 190.93017578 C-177.66461052 197.54973377 -170.8975946 202.35667222 -164.05615234 207.47705078 C-154.52281741 214.76268886 -149.08325858 223.56570751 -147.05615234 235.47705078 C-145.7541673 246.51981285 -148.80600643 257.50511731 -155.36083984 266.48095703 C-162.26675538 274.61211564 -170.47936415 279.71797044 -181.05615234 281.47705078 C-186.03128574 281.7796203 -191.00405466 281.77154054 -195.98657227 281.76757812 C-197.49373708 281.77357036 -199.00089885 281.7803775 -200.50805664 281.78793335 C-204.58478861 281.80553247 -208.66143651 281.81028622 -212.73820281 281.81156492 C-215.29120417 281.81299084 -217.84418445 281.81726882 -220.39718056 281.82255936 C-229.32103445 281.84104138 -238.24482877 281.8492325 -247.16870117 281.84765625 C-255.45865375 281.84645621 -263.74834542 281.86753618 -272.03823203 281.89914358 C-279.17825253 281.92538685 -286.31818825 281.93602014 -293.45825654 281.93474543 C-297.71253639 281.93423804 -301.96658429 281.93979632 -306.22081566 281.96110153 C-310.22731339 281.98061962 -314.23336119 281.98051695 -318.23987579 281.96606827 C-319.70024341 281.96399557 -321.16064021 281.96858789 -322.62095833 281.98078918 C-335.33820182 282.08005925 -347.51700336 280.54939035 -357.05615234 271.47705078 C-357.74451172 270.82865234 -358.43287109 270.18025391 -359.14208984 269.51220703 C-367.97928083 260.42862596 -370.8041192 250.91101612 -370.65039062 238.49194336 C-370.3316886 231.41180073 -368.66525866 225.62306206 -365.05615234 219.47705078 C-364.62173828 218.73197266 -364.18732422 217.98689453 -363.73974609 217.21923828 C-357.51905006 207.89705563 -347.72397335 202.98007453 -337.05615234 200.47705078 C-331.99274027 199.98324269 -326.9649149 200.00640904 -321.88427734 200.08642578 C-320.46654061 200.09390791 -319.04879336 200.09959148 -317.63104248 200.10357666 C-313.94179541 200.11867849 -310.25320195 200.15782109 -306.56420898 200.20239258 C-302.78296749 200.24368411 -299.00161794 200.26165915 -295.22021484 200.28173828 C-287.83189954 200.32433525 -280.44411833 200.39239201 -273.05615234 200.47705078 C-273.65907104 199.00510254 -273.65907104 199.00510254 -274.27416992 197.50341797 C-278.29442642 187.62089425 -281.59814779 177.86872395 -284.05615234 167.47705078 C-284.22276367 166.79352539 -284.389375 166.11 -284.56103516 165.40576172 C-289.72899572 143.16106191 -289.51685463 115.63147611 -284.05615234 93.47705078 C-283.86279297 92.66381348 -283.66943359 91.85057617 -283.47021484 91.01269531 C-276.55208181 62.65155272 -263.41439347 36.2700624 -243.36474609 14.93798828 C-241.31396924 12.75188097 -239.3649496 10.51603528 -237.43115234 8.22705078 C-225.65217778 -5.20368803 -209.84094577 -15.43352676 -194.05615234 -23.52294922 C-193.3797168 -23.87341309 -192.70328125 -24.22387695 -192.00634766 -24.58496094 C-176.85600358 -32.34620239 -160.84067913 -37.61645433 -144.05615234 -40.52294922 C-142.33912109 -40.83039062 -142.33912109 -40.83039062 -140.58740234 -41.14404297 C-89.99086496 -48.85044835 -38.40146901 -33.54079581 0 0 Z M-219.05615234 20.47705078 C-219.80034424 21.16444336 -219.80034424 21.16444336 -220.55957031 21.86572266 C-248.21709408 47.50575393 -264.96690424 84.55557347 -266.43505859 122.20751953 C-267.16556143 149.90115959 -262.96956054 177.11876836 -248.81323242 201.35498047 C-246.29132605 205.90822613 -245.69455122 209.22855222 -246.20849609 214.40771484 C-247.4906906 217.5378648 -249.22577412 218.65022828 -252.05615234 220.47705078 C-254.84778162 220.85232001 -257.23972762 221.0022654 -260.02416992 220.95947266 C-261.20567879 220.96534142 -261.20567879 220.96534142 -262.41105652 220.97132874 C-264.11614496 220.97729232 -265.82128444 220.97415428 -267.52634621 220.96290588 C-270.23029385 220.94561139 -272.93317528 220.95316994 -275.63713074 220.96716309 C-282.35354275 220.99678309 -289.06975009 220.98364706 -295.78619385 220.97198486 C-301.46194083 220.96376208 -307.13722152 220.97180273 -312.81290245 221.00111389 C-315.46751248 221.00817923 -318.12128889 220.99156481 -320.77583313 220.97399902 C-322.41721028 220.9797108 -324.05858407 220.98653 -325.69995117 220.99462891 C-326.4300943 220.98331436 -327.16023743 220.97199982 -327.9125061 220.96034241 C-334.21380886 221.03420849 -339.37345517 223.10996504 -344.11474609 227.29345703 C-344.56978516 227.86966797 -345.02482422 228.44587891 -345.49365234 229.03955078 C-346.20328125 229.90773438 -346.20328125 229.90773438 -346.92724609 230.79345703 C-350.04003005 235.43570577 -349.58798518 241.12876001 -349.05615234 246.47705078 C-347.29702848 251.88510016 -343.55315774 255.26490407 -339.05615234 258.47705078 C-335.19057497 260.35943017 -332.08858283 260.72970225 -327.80740356 260.73774719 C-326.54852325 260.744832 -325.28964294 260.75191681 -323.99261475 260.75921631 C-322.60510218 260.75692268 -321.21758995 260.754413 -319.83007812 260.75170898 C-318.36288188 260.75605816 -316.89568792 260.761242 -315.42849731 260.76719666 C-311.44908582 260.78057672 -307.46976936 260.78116637 -303.49033976 260.77863336 C-300.16537173 260.77756284 -296.84042286 260.78244914 -293.51545894 260.78723878 C-285.66914552 260.79833081 -277.82287997 260.79877326 -269.9765625 260.79272461 C-261.88938348 260.78668599 -253.80237849 260.79899364 -245.71522915 260.82029468 C-238.76559598 260.83792469 -231.81601812 260.84390978 -224.86636341 260.84065694 C-220.71846909 260.83884596 -216.57069888 260.84146156 -212.42282486 260.85537148 C-208.5206769 260.86796781 -204.61879965 260.86598879 -200.71665573 260.85296059 C-199.28763995 260.85059907 -197.85860501 260.85331427 -196.42961121 260.86158371 C-184.41155035 260.96872784 -184.41155035 260.96872784 -174.30615234 255.10205078 C-169.51301499 249.5100572 -167.74662076 244.88369945 -168.05615234 237.47705078 C-169.75753508 229.16222869 -175.49861169 225.21880184 -182.05615234 220.47705078 C-202.72032637 204.5106756 -215.96967493 184.65551977 -223.05615234 159.47705078 C-223.53568359 157.84896484 -223.53568359 157.84896484 -224.02490234 156.18798828 C-231.48761343 126.12984641 -224.39847137 95.34535591 -209.08398438 69.13720703 C-206.46946151 64.91422473 -203.33054082 61.1951064 -200.05615234 57.47705078 C-199.38068359 56.65849609 -198.70521484 55.83994141 -198.00927734 54.99658203 C-180.29409981 34.14568876 -152.1973532 20.78475357 -125.05615234 18.47705078 C-92.712337 16.73659175 -63.51437551 25.39828701 -38.93115234 46.85205078 C-15.78913027 68.31234614 -3.70338197 95.85653969 -1.83740234 127.14501953 C-1.05563893 157.53607234 -12.40726291 185.98699554 -32.67724609 208.37158203 C-38.3840113 214.29369687 -44.46913679 219.28448056 -51.11083984 224.09033203 C-56.27255839 228.27310396 -59.80863577 232.37386605 -60.95458984 239.04736328 C-61.18617969 244.58770501 -59.87374925 249.35390957 -56.24365234 253.59423828 C-50.81164158 258.55300568 -46.25679261 260.72160817 -38.82086182 260.74447632 C-37.56487183 260.75300629 -36.30888184 260.76153625 -35.01483154 260.77032471 C-33.63049304 260.76962574 -32.24615463 260.76870271 -30.86181641 260.76757812 C-29.39786436 260.7735653 -27.93391546 260.78037128 -26.4699707 260.78793335 C-22.49869784 260.80558399 -18.52751119 260.8102884 -14.55620289 260.81156492 C-12.07243011 260.81298791 -9.58867915 260.81726036 -7.1049118 260.82255936 C1.56793099 260.84105836 10.24071235 260.84923036 18.91357422 260.84765625 C26.98485234 260.84645572 35.05586266 260.86754091 43.12707305 260.89914358 C50.06654797 260.92534198 57.00593564 260.93602202 63.9454596 260.93474543 C68.08564054 260.93423673 72.22558356 260.9398684 76.36571503 260.96110153 C80.26300181 260.98054355 84.15982526 260.98056811 88.05712891 260.96606827 C89.48208548 260.96398624 90.9070715 260.96864479 92.33197784 260.98078918 C100.24389267 261.04381763 107.13868503 260.89082218 113.94384766 256.47705078 C116.14633288 254.3507496 116.14633288 254.3507496 117.44384766 251.91455078 C118.13994141 250.76792969 118.13994141 250.76792969 118.85009766 249.59814453 C121.31818962 244.81180904 121.75897295 240.46238227 120.33056641 235.23095703 C117.99952907 229.14150708 114.56845683 225.71091232 108.94384766 222.47705078 C105.30047886 221.26259452 101.94890538 221.32462147 98.15527344 221.31933594 C96.96697433 221.31171486 96.96697433 221.31171486 95.75466919 221.30393982 C94.03426341 221.29324031 92.31384374 221.28461848 90.59341812 221.27782059 C87.86973046 221.26602917 85.14620118 221.24657593 82.4225769 221.22470093 C74.67858144 221.16309113 66.93460252 221.10903171 59.19042969 221.07568359 C54.45358251 221.05473617 49.71702469 221.01943312 44.98034286 220.97492599 C43.17588583 220.9607672 41.37137762 220.95204383 39.56686783 220.94887161 C37.04134091 220.94396172 34.51658178 220.92080252 31.99121094 220.89355469 C30.87510437 220.89806389 30.87510437 220.89806389 29.7364502 220.90266418 C25.31356146 220.83181486 22.46109883 220.20774521 18.94384766 217.47705078 C17.18386849 213.95709245 17.45853165 210.32270068 17.94384766 206.47705078 C19.16523579 203.01056771 20.84579342 199.84292436 22.56884766 196.60205078 C30.1725877 181.45631334 34.58163555 166.22407688 36.94384766 149.47705078 C37.07533203 148.60306641 37.20681641 147.72908203 37.34228516 146.82861328 C42.14494211 108.79676231 30.11971233 69.0693044 7.06884766 38.78955078 C-18.36217838 6.28994778 -53.31708795 -14.24018165 -94.05615234 -20.77294922 C-140.34345122 -26.25885131 -185.30593279 -11.51272513 -219.05615234 20.47705078 Z " fill="#000000" transform="translate(370.05615234375,90.52294921875)"/>
<path d="M0 0 C0.7367014 -0.00175304 1.4734028 -0.00350607 2.23242849 -0.00531223 C4.69045704 -0.0099483 7.14842581 -0.00751294 9.60645676 -0.00507832 C11.39084793 -0.00694749 13.1752387 -0.00924862 14.95962882 -0.01194364 C19.8552728 -0.01805482 24.75089968 -0.01792884 29.6465466 -0.01674926 C34.9295778 -0.01654508 40.21260353 -0.02206565 45.49563217 -0.02680683 C55.84318085 -0.03511019 66.19072384 -0.03786153 76.53827557 -0.03841921 C84.94997796 -0.03889452 93.36167848 -0.04094999 101.77338028 -0.04411983 C125.62647789 -0.05292552 149.479571 -0.05753934 173.33267024 -0.05678936 C175.26121001 -0.05672943 175.26121001 -0.05672943 177.22871017 -0.05666828 C179.15960686 -0.05660696 179.15960686 -0.05660696 181.12951156 -0.0565444 C201.99161808 -0.05613795 222.85370654 -0.06570756 243.71580783 -0.07980665 C265.14115544 -0.09417205 286.56649425 -0.10107674 307.9918468 -0.10021287 C320.01881977 -0.09988096 332.04577383 -0.10262549 344.07274246 -0.11339092 C354.31264481 -0.12249806 364.55251965 -0.1246694 374.79242429 -0.1178815 C380.01512298 -0.1146174 385.23776891 -0.11455569 390.46046257 -0.12323475 C395.24599723 -0.13110543 400.03143735 -0.12966247 404.81696972 -0.12095062 C406.54371641 -0.11941689 408.27047017 -0.12122697 409.99720851 -0.12681069 C426.46348615 -0.1765103 441.56940605 0.54084651 454.22431564 12.37863445 C462.53223903 21.33373304 465.84288282 31.86462605 465.59931564 43.9059782 C464.70123651 53.16741929 461.72154342 61.3628133 455.28681564 68.12863445 C454.63841721 68.81699383 453.99001877 69.5053532 453.32197189 70.21457195 C442.23941706 80.99651499 430.44615773 81.86178559 415.8340416 81.75682354 C413.97535744 81.76187504 412.11667816 81.76910852 410.25800997 81.77832168 C405.17548537 81.79718474 400.09344442 81.78504373 395.01093233 81.76759875 C389.5200586 81.75419612 384.02925429 81.76967219 378.5383873 81.78142071 C367.79193982 81.79977964 357.04567442 81.79129673 346.29923265 81.77333248 C337.56437851 81.75929569 328.82957373 81.75541601 320.0947094 81.75877476 C318.22854331 81.75949092 318.22854331 81.75949092 316.32467689 81.76022155 C313.79714833 81.7612479 311.26961978 81.76230326 308.74209125 81.76338731 C285.72844913 81.77220936 262.71488712 81.75357408 239.70127162 81.72285708 C218.70688399 81.69499467 197.71261219 81.69003535 176.71821213 81.70505047 C171.34102732 81.70887313 165.96384251 81.71266799 160.58665752 81.71622086 C159.92459492 81.71665867 159.26253232 81.71709648 158.58040722 81.71754757 C141.01979253 81.72879474 123.4591868 81.72136025 105.89857489 81.70834011 C103.38075197 81.70649575 100.86292905 81.70466102 98.34510612 81.70283604 C96.48696322 81.7014679 96.48696322 81.7014679 94.59128208 81.70007213 C85.86792055 81.69446952 77.14458835 81.69777132 68.42122841 81.70438099 C57.78902457 81.7121173 47.15694516 81.70535059 36.52476638 81.68020595 C31.10161955 81.66771839 25.67866637 81.66155555 20.25551224 81.67274761 C15.28811933 81.68280544 10.3211122 81.67429724 5.35376615 81.65116643 C3.55986942 81.64601719 1.76593799 81.64755079 -0.0279435 81.65656108 C-14.01362792 81.72094743 -25.21125523 80.15410554 -35.71318436 70.12863445 C-44.52169389 60.90150269 -47.33892737 51.27819122 -47.18388748 38.76388836 C-46.71567964 26.93665938 -42.16481486 18.28756338 -33.64677811 10.1559782 C-23.78042715 1.8428274 -12.56545095 0.0067785 0 0 Z M-22.71318436 29.12863445 C-26.11509704 33.77791512 -26.34292868 38.48060352 -26.18974686 44.0856657 C-25.29806032 49.77930352 -22.42293799 53.94628253 -17.96709061 57.53488445 C-12.10035525 61.19342766 -5.97612945 61.25364157 0.74666691 61.26006222 C1.48027104 61.26211485 2.21387517 61.26416749 2.96970972 61.26628232 C5.42921386 61.27193914 7.88866175 61.27049671 10.34817123 61.26907635 C12.12884974 61.27166073 13.90952767 61.27467409 15.6902048 61.27807975 C20.58475597 61.28614422 25.47929248 61.28793901 30.37384951 61.28867722 C35.65208811 61.29052869 40.93031911 61.29807642 46.20855331 61.30481243 C57.74975551 61.31839155 69.29095424 61.32441959 80.8321631 61.32882309 C88.03752926 61.33158577 95.24289409 61.33582313 102.44825935 61.34032726 C122.39574251 61.35251853 142.3432246 61.36281868 162.2907114 61.36620235 C164.20551132 61.3665317 164.20551132 61.3665317 166.15899406 61.36686771 C167.43858386 61.36708598 168.71817365 61.36730426 170.0365389 61.36752915 C172.62948597 61.36797262 175.22243303 61.36841918 177.8153801 61.36886883 C179.10157187 61.36909026 180.38776365 61.36931169 181.71293094 61.36953983 C202.56103336 61.37348916 223.40910086 61.39094795 244.25718979 61.41422835 C265.65872944 61.43793404 287.06025157 61.45040382 308.46180457 61.45157027 C320.47922174 61.45248738 332.49659339 61.45824891 344.51399803 61.47638988 C354.74525951 61.49178018 364.97646139 61.49691759 375.20773224 61.48865178 C380.42804573 61.48474173 385.64823914 61.48569234 390.8685379 61.49970913 C395.64848213 61.51242627 400.4282158 61.51126972 405.20815965 61.49911842 C406.93626021 61.49715766 408.66437557 61.50025733 410.39245532 61.50896278 C426.35403414 61.64426027 426.35403414 61.64426027 439.84540939 53.79269695 C443.53519498 49.53294448 444.89045841 44.77012645 444.63056564 39.1716032 C443.56988053 32.86775874 440.13869024 28.50232531 435.45869064 24.35519695 C429.93361341 21.23491952 423.77989702 20.87827892 417.56525135 20.87415886 C416.82765116 20.87095238 416.09005097 20.8677459 415.33009925 20.86444226 C412.86898147 20.85616894 410.40810874 20.86205711 407.94698715 20.86793804 C406.16045676 20.86491615 404.37392767 20.86102647 402.58740085 20.85634547 C397.68594738 20.84606178 392.78456702 20.84824825 387.88310754 20.85252607 C382.59399334 20.85499258 377.30489678 20.84598009 372.01578903 20.83848858 C361.65720975 20.82573783 351.29865639 20.82394833 340.94007058 20.82628884 C332.52118926 20.82807162 324.10231581 20.82632323 315.68343544 20.8220644 C314.48538645 20.82146921 313.28733746 20.82087402 312.05298395 20.8202608 C309.6191868 20.81904905 307.18538966 20.81783492 304.75159251 20.81661842 C281.92670375 20.80574158 259.10182976 20.80790615 236.27694016 20.81400327 C215.39339651 20.81917344 194.5098995 20.80791458 173.62636507 20.78890505 C152.18407863 20.76953647 130.74181425 20.76126887 109.299519 20.7650283 C97.26089661 20.76694172 85.22231392 20.764439 73.18369865 20.75031376 C62.9360123 20.73841155 52.68839008 20.73698212 42.44070286 20.74910393 C37.21227762 20.75500052 31.98396977 20.75607038 26.75555229 20.74410152 C21.96828115 20.73326985 17.18122581 20.73631376 12.39396488 20.75036321 C10.66323445 20.7530176 8.93248725 20.75062035 7.20177323 20.74262735 C-9.19249516 20.62142596 -9.19249516 20.62142596 -22.71318436 29.12863445 Z " fill="#000000" transform="translate(46.71318435668945,424.8713655471802)"/>
<path d="M0 0 C2.625 0.375 2.625 0.375 4.07421875 2.265625 C6.62165483 7.37333059 8.21213864 12.8132403 9.93164062 18.24609375 C10.22103516 19.11621094 10.51042969 19.98632812 10.80859375 20.8828125 C11.06181396 21.67316895 11.31503418 22.46352539 11.57592773 23.27783203 C13.52964546 27.18344881 17.00337098 28.69600853 20.8828125 30.34765625 C21.67300781 30.68990234 22.46320313 31.03214844 23.27734375 31.38476562 C24.09332031 31.73216797 24.90929687 32.07957031 25.75 32.4375 C27.37946132 33.13237983 29.00715838 33.83141563 30.6328125 34.53515625 C31.71006592 34.99353882 31.71006592 34.99353882 32.80908203 35.46118164 C34.625 36.375 34.625 36.375 36.625 38.375 C37.25 40.6875 37.25 40.6875 36.625 43.375 C32.86576303 46.29032663 29.51067357 48.07245849 25 49.61328125 C18.95695273 51.75675851 14.18282731 53.55053406 11.20703125 59.546875 C9.63712621 63.33639571 8.4105191 67.20475383 7.27661133 71.14404297 C6.24793456 74.6659794 5.07017282 77.99789902 3.625 81.375 C0.9375 82.375 0.9375 82.375 -1.375 82.375 C-3.75323155 79.46493478 -5.1481564 76.77204165 -6.41796875 73.2421875 C-6.76923828 72.27152344 -7.12050781 71.30085938 -7.48242188 70.30078125 C-7.83884766 69.29402344 -8.19527344 68.28726563 -8.5625 67.25 C-8.93052734 66.23550781 -9.29855469 65.22101563 -9.67773438 64.17578125 C-12.375 56.65946776 -12.375 56.65946776 -12.375 54.375 C-13.57125 54.024375 -14.7675 53.67375 -16 53.3125 C-20.4308953 51.81901931 -24.65442251 50.00015856 -28.875 48 C-29.49842285 47.72019287 -30.1218457 47.44038574 -30.76416016 47.15209961 C-33.67962818 45.72820082 -35.16381552 44.89496179 -36.40625 41.8359375 C-36.375 39.375 -36.375 39.375 -34.375 36.375 C-32.27124023 35.51318359 -32.27124023 35.51318359 -29.68359375 34.7734375 C-18.62689598 31.26397493 -18.62689598 31.26397493 -10.47460938 23.47705078 C-7.52202906 17.10095549 -5.58281673 10.45179324 -3.96557617 3.62475586 C-3.17386272 0.60878254 -3.10183988 0.48976419 0 0 Z " fill="#000000" transform="translate(83.375,5.625)"/>
<path d="M0 0 C3.60275993 1.30018957 5.03756771 3.49308302 6.9375 6.69921875 C8.13071554 13.87686913 4.51579512 18.41028628 0.8125 24.19921875 C-5.83375189 34.99904231 -10.38915598 45.25981882 -14.125 57.38671875 C-15.23243563 60.73153451 -16.03306371 62.66221313 -18.25 65.44921875 C-22.25485913 67.22915614 -25.75391276 67.49537074 -30.0625 66.69921875 C-32.93279869 64.90528207 -34.55381638 63.71658599 -36.0625 60.69921875 C-36.49953893 54.30576209 -35.36284601 49.37381702 -33.1875 43.38671875 C-32.87868896 42.5244165 -32.56987793 41.66211426 -32.25170898 40.77368164 C-16.04226897 -2.82562692 -16.04226897 -2.82562692 0 0 Z " fill="#000000" transform="translate(155.0625,131.30078125)"/>
<path d="M0 0 C2.30859375 -0.04296875 2.30859375 -0.04296875 5 1 C6.43733625 3.74721212 7.18154412 6.72331194 8.0625 9.6875 C9.70154128 14.55112539 10.91187559 18.10406755 14.94140625 21.421875 C17.92510895 22.84233714 20.87421072 23.93961644 24 25 C26.8671875 26.31640625 26.8671875 26.31640625 29 28 C29.3125 30.6875 29.3125 30.6875 29 33 C27.10545176 33.96087136 25.20930419 34.91858969 23.3125 35.875 C22.25675781 36.40867188 21.20101562 36.94234375 20.11328125 37.4921875 C17 39 17 39 14.328125 39.59765625 C10.36372312 41.98560973 9.75610063 46.30264431 8.4375 50.5625 C7.88865567 52.31854717 7.32549733 54.07020372 6.74609375 55.81640625 C6.38535767 56.98345093 6.38535767 56.98345093 6.01733398 58.17407227 C5 60 5 60 2.89086914 60.76147461 C2.26688232 60.84018799 1.64289551 60.91890137 1 61 C-1.67889666 58.02174239 -2.56114977 55.19099228 -3.58520508 51.36450195 C-5.19374413 45.71733667 -6.63782029 41.39771398 -11.9140625 38.34765625 C-14.0879777 37.267165 -16.25698253 36.3335877 -18.52612305 35.47167969 C-20.61328125 34.67578125 -20.61328125 34.67578125 -24 33 C-24.98046875 30.29296875 -24.98046875 30.29296875 -25 28 C-22.3773768 26.66180502 -19.75213401 25.3292849 -17.125 24 C-16.37863281 23.6184375 -15.63226563 23.236875 -14.86328125 22.84375 C-14.14785156 22.4828125 -13.43242187 22.121875 -12.6953125 21.75 C-12.03547363 21.41484375 -11.37563477 21.0796875 -10.69580078 20.734375 C-9 20 -9 20 -7 20 C-6.82984375 19.39414063 -6.6596875 18.78828125 -6.484375 18.1640625 C-4.68433058 11.94050468 -2.50381567 5.97357039 0 0 Z " fill="#000000" transform="translate(483,71)"/>
<path d="M0 0 C5.04003777 3.5509357 8.61725348 7.31499849 10.25 13.375 C11.13851071 18.82638341 10.48283405 23.19247082 7.51953125 27.88671875 C4.20451324 32.12603132 1.00190226 34.39814934 -4.25 35.9375 C-10.56571158 36.63924573 -15.01304897 35.60784175 -20.25 31.9375 C-24.87158801 27.45318689 -26.42399524 24.0732983 -26.5625 17.6875 C-26.50820556 12.20979429 -26.14918033 9.04190035 -22.25 4.9375 C-15.68101068 -1.32276397 -8.698035 -2.84358837 0 0 Z " fill="#000000" transform="translate(423.25,23.0625)"/>
<path d="M0 0 C2.6531134 2.1617961 3.5538562 4.153065 4.6875 7.375 C4.93659777 10.26793097 4.68191783 12.64177156 3.6875 15.375 C1.62908792 17.65008704 0.22948971 18.80802004 -2.3125 20.375 C-3.14652344 20.91511719 -3.98054688 21.45523438 -4.83984375 22.01171875 C-10.58904545 25.47091585 -15.54691123 27.91016372 -22.3125 26.375 C-25.3125 24.9375 -25.3125 24.9375 -27.3125 22.375 C-28.55235665 18.22148021 -28.96744223 14.88911377 -27.22265625 10.85546875 C-24.84822263 7.77210403 -22.07388375 6.02645165 -18.75 4.125 C-18.16025391 3.774375 -17.57050781 3.42375 -16.96289062 3.0625 C-11.23220056 -0.32766932 -6.60191457 -1.78430124 0 0 Z " fill="#000000" transform="translate(205.3125,91.625)"/>
<path d="M0 0 C1.6328125 1.05078125 1.6328125 1.05078125 3 3 C3.3258438 5.74472033 3.46448502 8.19729377 3.4375 10.9375 C3.45748047 11.65357422 3.47746094 12.36964844 3.49804688 13.10742188 C3.49479546 16.615701 3.27632945 18.6272492 1.1640625 21.4765625 C-1.75261952 23.52982241 -3.50829539 23.52004111 -7 23 C-8.65869141 21.71679688 -8.65869141 21.71679688 -10 20 C-10.2981028 17.07742357 -10.41882117 14.41654217 -10.375 11.5 C-10.38660156 10.72785156 -10.39820313 9.95570313 -10.41015625 9.16015625 C-10.38050422 3.45708285 -10.38050422 3.45708285 -8.60009766 1.31835938 C-5.47125424 -1.25957081 -3.83638249 -1.12284366 0 0 Z " fill="#000000" transform="translate(361,299)"/>
<path d="M0 0 C1.69384766 1.27929688 1.69384766 1.27929688 3 3 C3.2981028 5.92257643 3.41882117 8.58345783 3.375 11.5 C3.38660156 12.27214844 3.39820313 13.04429687 3.41015625 13.83984375 C3.38073555 19.49842539 3.38073555 19.49842539 1.69384766 21.72070312 C-1.11451496 23.84174956 -3.61899107 23.36225096 -7 23 C-8.69384766 21.72070312 -8.69384766 21.72070312 -10 20 C-10.2981028 17.07742357 -10.41882117 14.41654217 -10.375 11.5 C-10.38660156 10.72785156 -10.39820313 9.95570313 -10.41015625 9.16015625 C-10.38073555 3.50157461 -10.38073555 3.50157461 -8.69384766 1.27929688 C-5.88548504 -0.84174956 -3.38100893 -0.36225096 0 0 Z " fill="#000000" transform="translate(383,320)"/>
<path d="M0 0 C2.48038907 3.7205836 2.46337203 5.59796571 2 10 C-0.05497771 13.00342896 -1.47633714 13.83287356 -4.9375 14.9375 C-8.59872681 15.01221891 -10.1304674 14.21363944 -13 12 C-14.54586876 8.90826248 -14.29359521 6.40570448 -14 3 C-9.77615444 -2.53469418 -6.25400943 -2.27418525 0 0 Z " fill="#000000" transform="translate(16,142)"/>
</svg>
