<?xml version="1.0" encoding="UTF-8"?>
<svg version="1.1" xmlns="http://www.w3.org/2000/svg" width="512" height="512">
<path d="M0 0 C28.40557832 20.41908238 48.51342701 48.33086411 63.25488281 79.7734375 C63.8259375 80.96324219 64.39699219 82.15304688 64.98535156 83.37890625 C78.93531496 113.22385651 90.25488281 150.63859372 90.25488281 183.7734375 C113.68488281 183.7734375 137.11488281 183.7734375 161.25488281 183.7734375 C161.91488281 177.5034375 162.57488281 171.2334375 163.25488281 164.7734375 C163.89763217 160.61300561 164.56661423 156.52103348 165.37988281 152.3984375 C165.69638794 150.78449097 165.69638794 150.78449097 166.01928711 149.13793945 C175.21893868 103.98279382 192.54508994 59.25696781 224.19238281 25.02734375 C226.01712441 23.0332606 227.72758611 20.98620249 229.44238281 18.8984375 C246.34252591 -0.37161072 277.26439145 -21.54096157 303.50488281 -23.46484375 C315.66204751 -23.7054543 326.13144639 -21.77978414 335.25488281 -13.2265625 C343.457653 -5.23489302 348.25317162 3.04148258 348.546875 14.61206055 C348.64637068 25.40141992 346.96956676 33.96041482 340.25488281 42.7734375 C339.69800781 43.5984375 339.14113281 44.4234375 338.56738281 45.2734375 C332.78020179 51.52984942 325.64028443 54.55549334 317.87988281 57.7109375 C294.00318011 67.47679857 279.12685182 84.44519454 267.25488281 106.7734375 C266.65933594 107.86011719 266.06378906 108.94679687 265.45019531 110.06640625 C253.36949426 132.96604624 248.07862021 158.56753733 243.25488281 183.7734375 C243.84655243 183.76677567 244.43822205 183.76011383 245.04782104 183.75325012 C251.24536669 183.68651441 257.44280907 183.64147927 263.640625 183.60864258 C265.94893546 183.59362209 268.2572177 183.57319971 270.56542969 183.54711914 C273.89688106 183.51043865 277.22795276 183.49364319 280.55957031 183.48046875 C281.57977264 183.46498489 282.59997498 183.44950104 283.65109253 183.43354797 C295.40327792 183.43083139 305.65826837 186.84688196 314.48535156 194.77734375 C323.67858615 204.41902881 326.66477568 215.0251796 326.52832031 228.0703125 C325.64048783 240.09410097 319.95433878 248.52389922 311.37988281 256.5859375 C304.94926711 261.97814639 297.49518481 264.90769567 289.11914062 264.88696289 C288.0983844 264.88688736 287.07762817 264.88681183 286.02593994 264.88673401 C284.93102234 264.88157272 283.83610474 264.87641144 282.70800781 264.87109375 C281.58166931 264.8696788 280.45533081 264.86826385 279.29486084 264.86680603 C275.69817446 264.86120949 272.10155037 264.8486576 268.50488281 264.8359375 C266.06608163 264.83092205 263.62727947 264.82635922 261.18847656 264.82226562 C255.21059073 264.8112412 249.23274122 264.79450648 243.25488281 264.7734375 C246.42227339 281.71371509 249.70518894 298.42212619 255.25488281 314.7734375 C255.4757959 315.44906738 255.69670898 316.12469727 255.92431641 316.82080078 C264.76166152 343.64916168 280.69289389 371.90347939 306.25488281 385.7734375 C307.08632813 386.23105469 307.91777344 386.68867188 308.77441406 387.16015625 C313.05091457 389.40279353 317.303626 391.1729118 321.87988281 392.7109375 C331.49355595 396.11831532 339.63253743 403.25947924 344.61035156 412.2109375 C349.2767051 422.45333081 350.3110446 435.00489368 346.62988281 445.7734375 C341.5269431 457.50842081 334.14992095 465.08152717 322.29785156 470.046875 C309.69367436 474.52943133 296.18149749 471.92051115 284.25488281 466.7734375 C283.45002441 466.42990234 282.64516602 466.08636719 281.81591797 465.73242188 C233.44509368 444.72607853 202.14076 403.42899841 182.25488281 355.7734375 C181.94454102 355.03109863 181.63419922 354.28875977 181.31445312 353.52392578 C173.217305 333.7755378 168.10670674 312.73979807 164.31738281 291.7734375 C164.11806152 290.67201416 163.91874023 289.57059082 163.71337891 288.43579102 C162.36143397 280.48483791 161.83552424 272.90241753 161.25488281 264.7734375 C137.82488281 264.7734375 114.39488281 264.7734375 90.25488281 264.7734375 C89.26488281 274.1784375 89.26488281 274.1784375 88.25488281 283.7734375 C87.43320795 288.70603055 86.57409244 293.56986719 85.56738281 298.4609375 C85.30683105 299.73839844 85.0462793 301.01585937 84.77783203 302.33203125 C82.27622628 314.35712672 79.06948172 326.10202485 75.25488281 337.7734375 C74.95888184 338.68464355 74.66288086 339.59584961 74.35791016 340.53466797 C65.38817676 367.67647064 52.48169777 393.65634095 34.25488281 415.7734375 C33.56507324 416.62349365 33.56507324 416.62349365 32.86132812 417.49072266 C13.57743654 441.16799915 -17.93216559 468.49308407 -49.7043457 471.98901367 C-62.93639574 472.7634884 -74.36765801 470.6011438 -84.74511719 461.7734375 C-93.2010654 452.898878 -97.02986377 442.96135572 -97.74511719 430.7734375 C-97.32443657 419.72355986 -93.03501796 409.8962916 -85.49511719 401.8359375 C-80.4845551 397.20760735 -75.20906046 394.61196038 -68.95019531 392.03417969 C-40.03565963 380.11020953 -21.68394397 358.23406455 -9.62988281 329.69750977 C-1.77480238 310.35418428 3.25445737 290.68408131 6.79345703 270.13574219 C7.25488281 267.7734375 7.25488281 267.7734375 8.25488281 264.7734375 C7.47973328 264.78231995 6.70458374 264.79120239 5.90594482 264.800354 C-1.44835419 264.88096049 -8.80243488 264.94163334 -16.15706253 264.98068619 C-19.93693346 265.00143961 -23.71643521 265.02952838 -27.49609375 265.07519531 C-31.15307928 265.11909663 -34.80971284 265.14266631 -38.46694183 265.15294647 C-39.8526233 265.16025942 -41.23828851 265.17453655 -42.62381744 265.19635773 C-54.71007363 265.37889927 -65.27614935 263.78573801 -74.71386719 255.75 C-83.47386669 247.22584664 -88.70010236 237.11710745 -89.05761719 224.7734375 C-88.90987938 213.79651849 -85.0418206 203.94804803 -77.74511719 195.7734375 C-69.30885991 187.75359512 -60.02494015 183.63660419 -48.39428711 183.65991211 C-46.50289253 183.66002541 -46.50289253 183.66002541 -44.57328796 183.66014099 C-43.20738688 183.66524681 -41.84148621 183.6704628 -40.47558594 183.67578125 C-39.07025706 183.6776478 -37.66492754 183.67907058 -36.25959778 183.68006897 C-32.57217594 183.6838755 -28.88479388 183.69368976 -25.1973877 183.70477295 C-21.43009987 183.71502725 -17.66280559 183.71957518 -13.89550781 183.72460938 C-6.51202619 183.7353138 0.87142272 183.7523677 8.25488281 183.7734375 C4.658836 164.73798421 4.658836 164.73798421 -0.05761719 145.9609375 C-0.49473022 144.42977295 -0.49473022 144.42977295 -0.94067383 142.86767578 C-9.36095911 114.20524772 -24.39359619 80.27277665 -51.54736328 64.74267578 C-58.24457651 61.12287626 -65.09295059 57.9816118 -72.18261719 55.2109375 C-83.57491204 50.55818207 -90.1753036 42.96063774 -95.05761719 31.8359375 C-98.76910151 21.75747171 -98.49210228 11.48381458 -94.41308594 1.51953125 C-88.78741547 -10.08786477 -81.06185402 -17.87947891 -68.74511719 -22.2265625 C-44.43138422 -28.05689642 -19.24599728 -13.52712512 0 0 Z M-73.61621094 7.08984375 C-76.7289949 11.73209249 -76.27695002 17.42514673 -75.74511719 22.7734375 C-74.02977755 28.04688165 -70.25937326 31.724119 -65.74511719 34.7734375 C-62.4440238 36.4015302 -59.04282265 37.73649904 -55.62011719 39.0859375 C-42.77208259 44.38756342 -32.82300106 51.12476503 -22.74511719 60.7734375 C-22.08125 61.37414062 -21.41738281 61.97484375 -20.73339844 62.59375 C12.13456361 93.39496393 28.1305415 149.23821007 29.62988281 192.9609375 C29.73364271 196.71044305 29.76794501 198.1516399 27.35644531 201.07421875 C23.58519613 204.12346298 21.09092887 203.90241756 16.27001953 203.9152832 C15.55106003 203.91875763 14.83210052 203.92223206 14.09135437 203.92581177 C12.52699433 203.93317231 10.96262382 203.9385161 9.39825058 203.94210243 C6.91744283 203.94926822 4.43683285 203.96493776 1.95608521 203.98344421 C-5.09858402 204.03589249 -12.15314804 204.08384121 -19.20800781 204.09936523 C-23.52234331 204.10948152 -27.83618564 204.138903 -32.15032578 204.18068504 C-33.7904168 204.19295374 -35.43057765 204.19812388 -37.07071304 204.19588661 C-50.34568364 204.12766061 -50.34568364 204.12766061 -61.76855469 210.484375 C-65.82270679 215.47590331 -68.04401209 219.55298058 -67.68261719 226.1484375 C-66.73826915 232.66004662 -63.76138024 237.20075232 -58.62011719 241.2109375 C-54.06462552 243.68674819 -50.75204029 243.90965328 -45.61499023 243.94702148 C-44.53151306 243.957052 -44.53151306 243.957052 -43.42614746 243.96728516 C-41.8579902 243.98132842 -40.28981258 243.99322478 -38.72162437 244.00323296 C-36.23709622 244.01966178 -33.75271821 244.04290148 -31.26826477 244.06813049 C-24.20439152 244.1388466 -17.14045648 244.19895024 -10.07641602 244.25024414 C-5.75457851 244.28210404 -1.43291321 244.32339876 2.88878441 244.37043953 C4.533326 244.38641927 6.17790724 244.39875937 7.82250404 244.40734673 C10.12737042 244.41955338 12.43183496 244.44372574 14.73657227 244.47045898 C16.04656693 244.48076645 17.35656158 244.49107391 18.70625305 244.50169373 C22.23728947 244.77209025 24.99989975 245.39503416 28.25488281 246.7734375 C29.11987305 248.58569336 29.11987305 248.58569336 29.25488281 250.7734375 C29.30523682 251.5579126 29.35559082 252.3423877 29.4074707 253.15063477 C29.54201049 299.84461947 10.71140868 352.89804711 -21.74511719 386.7734375 C-22.72931641 387.83498047 -22.72931641 387.83498047 -23.73339844 388.91796875 C-34.08889944 399.77152992 -47.71009054 407.42755208 -61.80761719 412.3359375 C-68.33783722 414.71056297 -71.37990308 417.82320144 -74.87011719 423.65234375 C-76.97089056 428.7448435 -76.33107072 434.86908851 -74.74511719 440.0234375 C-70.99290017 445.1827359 -66.33117091 450.0355592 -59.82714844 451.08203125 C-39.18274132 452.25460515 -16.36801 435.32259441 -1.74511719 422.4609375 C-0.06929615 420.90825986 1.59693819 419.34518928 3.25488281 417.7734375 C4.67414063 416.45085937 4.67414063 416.45085937 6.12207031 415.1015625 C19.61100594 402.27681297 29.55363398 387.14125945 38.25488281 370.7734375 C38.7125 369.91427734 39.17011719 369.05511719 39.64160156 368.16992188 C58.37801513 332.40279065 65.92939776 293.25538252 70.86035156 253.53125 C71.05564453 252.16613281 71.05564453 252.16613281 71.25488281 250.7734375 C71.34189453 249.65582031 71.34189453 249.65582031 71.43066406 248.515625 C72.25488281 246.7734375 72.25488281 246.7734375 74.72373962 245.68171692 C79.09396236 244.55760975 83.08508282 244.48582155 87.57739258 244.4987793 C88.49682648 244.49366837 89.41626038 244.48855743 90.36355591 244.48329163 C93.39120052 244.46943426 96.41861659 244.47034909 99.44628906 244.47265625 C101.55565983 244.46876805 103.66502982 244.46443312 105.7743988 244.45967102 C110.19003847 244.45221773 114.60559816 244.45249427 119.02124023 244.45776367 C124.67952474 244.4635661 130.33748273 244.44660419 135.99571323 244.423419 C140.34944065 244.40869069 144.70308917 244.40780858 149.05683708 244.41092873 C151.14323513 244.41041536 153.22963757 244.40517472 155.31601143 244.39511681 C158.23148006 244.38278335 161.14630922 244.38952495 164.06176758 244.40112305 C164.92268509 244.39347931 165.7836026 244.38583557 166.67060852 244.37796021 C171.34862643 244.41910271 174.47681937 244.70697489 178.25488281 247.7734375 C180.52313335 251.1758133 180.69427048 253.01943546 181.11425781 257.046875 C181.25702148 258.33190918 181.39978516 259.61694336 181.546875 260.94091797 C181.62079468 261.62587341 181.69471436 262.31082886 181.77087402 263.01654053 C187.39781657 314.27983633 202.66790025 367.24545743 237.25488281 406.7734375 C237.71121094 407.29679687 238.16753906 407.82015625 238.63769531 408.359375 C255.47483808 427.53751088 280.08842066 446.87445369 306.04003906 451.2421875 C312.35453906 451.32883587 316.42257802 449.86747351 321.25488281 445.7734375 C326.33676616 440.29035284 327.77589268 435.99121556 327.63769531 428.59765625 C326.88667923 423.05699675 324.05660513 419.42108583 320.01660156 415.7265625 C316.86901026 413.50054319 313.87117344 412.29023077 310.25488281 410.9609375 C298.68339697 406.52228671 288.64910152 400.90456797 279.25488281 392.7734375 C278.51882813 392.18175781 277.78277344 391.59007812 277.02441406 390.98046875 C241.71029754 361.66662689 226.97645174 307.38113545 222.25488281 263.7734375 C222.09955684 261.35951904 221.99298771 258.9418187 221.94238281 256.5234375 C221.905 255.34265625 221.86761719 254.161875 221.82910156 252.9453125 C222.33700858 249.1616382 223.29095477 248.08299182 226.25488281 245.7734375 C228.94490656 244.42842562 231.03434678 244.64136041 234.04638672 244.6315918 C235.26170074 244.62455734 236.47701477 244.61752289 237.72915649 244.61027527 C238.38084431 244.60845938 239.03253212 244.60664349 239.70396805 244.60477257 C241.7479295 244.59759839 243.79165207 244.5819221 245.83554077 244.56343079 C251.64765003 244.51102695 257.45963259 244.46305598 263.27197266 244.44750977 C266.82774489 244.43737598 270.38292153 244.40791082 273.93845749 244.36618996 C275.94120374 244.34802132 277.9441034 244.3505185 279.94692993 244.35343933 C288.07961338 244.24477572 294.27743843 243.70559789 300.31347656 237.73828125 C300.76851563 237.06925781 301.22355469 236.40023437 301.69238281 235.7109375 C302.40201172 234.70353516 302.40201172 234.70353516 303.12597656 233.67578125 C305.56987516 229.55751613 305.73556043 225.43429365 305.25488281 220.7734375 C302.93823009 213.93931198 299.79482087 209.04340653 293.25488281 205.7734375 C289.90556012 204.70587153 286.78434264 204.63720023 283.28051758 204.61572266 C282.07569229 204.60546051 280.870867 204.59519836 279.62953186 204.58462524 C278.33156174 204.57732391 277.03359161 204.57002258 275.69628906 204.5625 C274.34634082 204.5495293 272.99640046 204.53571244 271.64646912 204.52108765 C265.92250569 204.45963034 260.19856707 204.40542926 254.47436523 204.37207031 C250.96824553 204.35109153 247.46251452 204.31576829 243.95661736 204.27131271 C241.97755561 204.25033148 239.99834702 204.2451106 238.0191803 204.24014282 C236.81120285 204.22357635 235.6032254 204.20700989 234.35864258 204.18994141 C232.76790672 204.17781113 232.76790672 204.17781113 231.14503479 204.16543579 C227.83463141 203.71643779 225.93471598 202.73810478 223.25488281 200.7734375 C219.29866086 192.86099359 222.87436899 179.90426175 224.31738281 171.5859375 C224.42780914 170.9416983 224.53823547 170.29745911 224.65200806 169.63369751 C232.39303704 124.85400941 249.803521 76.50185198 288.03222656 48.7578125 C295.58358244 43.8207613 303.49345799 40.36135968 311.92016602 37.18164062 C319.40222811 34.21091441 323.94563791 30.17731399 327.25488281 22.7734375 C328.23567634 16.12468981 327.65977054 10.90686031 323.68066406 5.42578125 C320.43990076 1.67004734 317.04733214 -0.88913478 312.25488281 -2.2265625 C306.2917647 -2.55714048 301.76277355 -1.80310257 296.19238281 0.2734375 C295.45850342 0.54188477 294.72462402 0.81033203 293.96850586 1.08691406 C275.58873807 8.04238318 260.29906011 19.21008796 246.25488281 32.7734375 C245.4646875 33.51207031 244.67449219 34.25070313 243.86035156 35.01171875 C201.84750122 75.25870498 186.58723274 139.13655145 180.74707031 194.796875 C180.28139876 197.61307914 179.88238686 199.44387288 178.25488281 201.7734375 C175.45347744 203.45637664 173.36868535 204.02393527 170.11828613 204.02740479 C168.89444969 204.03586426 168.89444969 204.03586426 167.64588928 204.04449463 C166.31635475 204.03842194 166.31635475 204.03842194 164.95996094 204.03222656 C163.54957802 204.03748352 163.54957802 204.03748352 162.11070251 204.04284668 C159.00243753 204.05164968 155.89440012 204.04581983 152.78613281 204.0390625 C150.62666785 204.04040956 148.46720318 204.04235043 146.30773926 204.04486084 C141.78179029 204.04781016 137.25592026 204.04352056 132.72998047 204.03417969 C126.92587246 204.02278532 121.12194942 204.02934581 115.31784821 204.04132462 C110.85864872 204.04854834 106.39949316 204.04625291 101.94029236 204.04106903 C99.80004352 204.03973396 97.65979071 204.04137528 95.51954651 204.04602814 C92.52952496 204.05110171 89.53980383 204.04337127 86.54980469 204.03222656 C85.66344833 204.03627502 84.77709198 204.04032349 83.86387634 204.04449463 C83.04798538 204.03885498 82.23209442 204.03321533 81.39147949 204.02740479 C80.68505058 204.02665073 79.97862167 204.02589668 79.25078583 204.02511978 C76.88807905 203.72718375 75.29065078 202.99296899 73.25488281 201.7734375 C70.80639075 198.3488847 70.64032559 194.31310684 70.17675781 190.23828125 C69.98740523 188.70451703 69.79743829 187.17082857 69.60693359 185.63720703 C69.50930725 184.83365784 69.41168091 184.03010864 69.31109619 183.20220947 C62.93293117 131.31112678 47.63957965 77.93559211 11.25488281 38.7734375 C10.68898438 38.16371094 10.12308594 37.55398437 9.54003906 36.92578125 C-6.84967385 19.4786675 -31.60326268 -0.46474129 -56.49511719 -2.5390625 C-64.03724075 -2.39887433 -68.99222771 1.43270896 -73.61621094 7.08984375 Z " fill="#000000" transform="translate(135.7451171875,36.2265625)"/>
<path d="M0 0 C2.625 0.375 2.625 0.375 4.05859375 2.26171875 C6.22284303 6.56323166 7.75649896 11.0114406 9.3125 15.5625 C9.63283203 16.47708984 9.95316406 17.39167969 10.28320312 18.33398438 C12.625 25.09973014 12.625 25.09973014 12.625 27.375 C13.44484375 27.6328125 14.2646875 27.890625 15.109375 28.15625 C19.12328033 29.54773718 22.98539598 31.17240776 26.875 32.875 C27.59429687 33.18308594 28.31359375 33.49117187 29.0546875 33.80859375 C34.38387666 36.13387666 34.38387666 36.13387666 36.625 38.375 C36.75 41.5 36.75 41.5 36.625 44.375 C34.10543257 45.64839482 31.58441351 46.91876642 29.0625 48.1875 C28.35802734 48.54392578 27.65355469 48.90035156 26.92773438 49.26757812 C26.22841797 49.61884766 25.52910156 49.97011719 24.80859375 50.33203125 C24.10742432 50.69321045 23.40625488 51.05438965 22.68383789 51.42651367 C20.625 52.375 20.625 52.375 16.8984375 53.3515625 C11.51952833 56.67647294 10.63373296 62.10371101 8.8125 67.9375 C8.06041732 70.23192484 7.30411419 72.52497191 6.54296875 74.81640625 C6.22094482 75.83420166 5.8989209 76.85199707 5.56713867 77.90063477 C4.625 80.375 4.625 80.375 2.625 82.375 C0 82.5 0 82.5 -2.375 82.375 C-3.10932084 80.66887582 -3.8370194 78.95990196 -4.5625 77.25 C-5.03429687 76.15945312 -5.50609375 75.06890625 -5.9921875 73.9453125 C-7.375 70.375 -7.375 70.375 -8.2578125 66.7421875 C-9.69920676 61.13407371 -10.94702594 56.94745692 -16.00390625 53.81640625 C-20.64153463 51.34690025 -25.49342527 49.46088116 -30.40283203 47.61083984 C-32.09268222 46.94241789 -33.73889934 46.16592111 -35.375 45.375 C-36.5 42.375 -36.5 42.375 -36.375 39.375 C-34.26522013 36.67124112 -32.063678 35.68201876 -28.8828125 34.53515625 C-19.01698695 31.05862842 -19.01698695 31.05862842 -11.12109375 24.609375 C-9.88008911 21.54577279 -9.10030753 18.59858903 -8.375 15.375 C-7.52046425 12.78931 -6.56756288 10.24214334 -5.625 7.6875 C-5.21765625 6.50800781 -4.8103125 5.32851562 -4.390625 4.11328125 C-3.04323511 0.48051081 -3.04323511 0.48051081 0 0 Z " fill="#000000" transform="translate(475.375,116.625)"/>
<path d="M0 0 C4.92261315 3.09853805 7.41988814 7.36136208 10.3125 12.25 C11.03034668 13.44774048 11.03034668 13.44774048 11.76269531 14.66967773 C17.95691825 25.1366715 23.24116561 35.93737329 28 47.125 C28.45487793 48.17312866 28.45487793 48.17312866 28.91894531 49.24243164 C30.59848044 53.31545235 31.45654692 56.599395 31 61 C29.52655493 64.19246431 28.38250085 66.34194114 25.12890625 67.890625 C21.89090125 68.84549982 19.57624331 69.11786795 16.25 68.4375 C11.78689533 65.58607202 9.53065239 61.43540746 7.5546875 56.640625 C7.1222876 55.61501465 6.6898877 54.5894043 6.24438477 53.53271484 C5.79248779 52.44941895 5.34059082 51.36612305 4.875 50.25 C0.6061831 40.26364325 -4.18050084 30.96408155 -9.91015625 21.75244141 C-10.26980469 21.17413574 -10.62945312 20.59583008 -11 20 C-11.57814453 19.07646729 -11.57814453 19.07646729 -12.16796875 18.13427734 C-14.68232664 13.96987208 -15.65558276 11.57519347 -14.73046875 6.8671875 C-12.04094232 -0.00764476 -6.41967089 -0.91709584 0 0 Z " fill="#000000" transform="translate(149,94)"/>
<path d="M0 0 C1.65 0 3.3 0 5 0 C5.58333333 1.45833333 6.16666667 2.91666667 6.75 4.375 C7.1315625 5.28636719 7.513125 6.19773437 7.90625 7.13671875 C9 10 9 10 9.59375 12.64453125 C10.53977683 16.31038523 11.40906335 18.98558099 14.72607422 21.10058594 C19.33486873 23.45489991 24.15206528 25.2087292 29 27 C30 28 30 28 30.0625 30.5625 C30.041875 31.366875 30.02125 32.17125 30 33 C28.865625 33.34546875 27.73125 33.6909375 26.5625 34.046875 C19.38624586 36.59772523 13.63432477 38.88754509 10.08984375 45.984375 C8.03739617 50.87423521 6.39075357 55.88424856 5 61 C2.671875 61.03125 2.671875 61.03125 0 60 C-1.09065878 57.14750781 -1.93789408 54.42903013 -2.75 51.5 C-4.91483673 44.74830774 -7.17776654 41.08190879 -13.51269531 37.71289062 C-15.79812373 36.66040313 -18.10440766 35.68711596 -20.4296875 34.7265625 C-21.60789063 34.15679687 -22.78609375 33.58703125 -24 33 C-24.72314453 30.89208984 -24.72314453 30.89208984 -25 29 C-23.87925254 28.26431382 -22.75300508 27.53700919 -21.625 26.8125 C-20.89667969 26.33683594 -20.16835937 25.86117188 -19.41796875 25.37109375 C-17 24 -17 24 -14.48828125 23.22265625 C-10.55843191 21.91671857 -7.91391026 20.6886524 -5.87451172 16.92041016 C-3.49677219 11.42535934 -1.66990347 5.74524307 0 0 Z " fill="#000000" transform="translate(215,4)"/>
<path d="M0 0 C4.61216973 2.65943658 6.93855983 5.61274338 8.9375 10.5625 C10.01965492 16.46516319 9.70294722 21.72138556 6.9375 27.125 C3.82345928 31.4173264 0.63288575 33.64320475 -4.375 35.3125 C-10.33976294 35.84635142 -15.33245595 35.86520149 -20.375 32.3125 C-25.28360692 27.32304543 -27.53311662 24.18038643 -27.6875 17.0625 C-27.63320556 11.58479429 -27.27418033 8.41690035 -23.375 4.3125 C-16.66749146 -2.07977315 -8.66679217 -4.03257872 0 0 Z " fill="#000000" transform="translate(27.375,105.6875)"/>
<path d="M0 0 C5.00127406 3.01289691 9.73706499 6.10559748 13 11 C13.54531842 14.06526351 13.54325893 16.93408329 13 20 C10.81840855 22.75569447 9.12822506 24.43588747 6 26 C-2.47230965 26.13448111 -7.83213006 22.68287504 -14 17 C-16.33074764 13.29199239 -16.52669546 10.36404809 -16 6 C-12.21924452 -0.51453251 -7.11483113 -2.3059469 0 0 Z " fill="#000000" transform="translate(109,55)"/>
<path d="M0 0 C3.125 0.25 3.125 0.25 4.9375 1.5625 C7.30721915 4.92999563 7.31531472 8.13603368 7.375 12.125 C7.41367187 13.66800781 7.41367187 13.66800781 7.453125 15.2421875 C7.07793132 18.68146287 6.21767034 20.51531604 4.125 23.25 C1.1875 24.25 1.1875 24.25 -1.875 24.25 C-5.04248634 22.53784522 -5.72078536 21.71264391 -6.875 18.25 C-7.0197963 16.29524991 -7.09567502 14.3348862 -7.125 12.375 C-7.16367187 10.83199219 -7.16367187 10.83199219 -7.203125 9.2578125 C-6.68396248 4.49882278 -4.980791 0.43311226 0 0 Z " fill="#000000" transform="translate(340.875,274.75)"/>
<path d="M0 0 C2.8125 0.9375 2.8125 0.9375 4.8125 2.9375 C5.25610072 5.89602109 5.13662652 8.88698451 5.125 11.875 C5.14111328 12.69935547 5.15722656 13.52371094 5.17382812 14.37304688 C5.17447266 15.16646484 5.17511719 15.95988281 5.17578125 16.77734375 C5.18025269 17.86583618 5.18025269 17.86583618 5.18481445 18.97631836 C4.70362718 21.51099206 3.85107899 22.39518749 1.8125 23.9375 C-2.26544425 24.36228586 -3.71826119 24.25032587 -7.1875 21.9375 C-9.06667724 16.29996827 -9.71090898 8.41113514 -7.28125 2.87109375 C-5.0000584 0.3047532 -3.37264084 -0.06613021 0 0 Z " fill="#000000" transform="translate(334.1875,231.0625)"/>
<path d="M0 0 C4.10703441 0.85563217 5.55401113 2.24378009 8 5.625 C8.62491523 9.58279649 8.61006839 11.63363886 6.5 15.0625 C2.97873756 17.26328902 0.04560357 17.42914661 -4 16.625 C-6.5 15.0625 -6.5 15.0625 -8 12.625 C-8.5625 9.1875 -8.5625 9.1875 -8 5.625 C-5.55401113 2.24378009 -4.10703441 0.85563217 0 0 Z " fill="#000000" transform="translate(278,80.375)"/>
</svg>
