<?xml version="1.0" encoding="UTF-8"?>
<svg version="1.1" xmlns="http://www.w3.org/2000/svg" width="512" height="512">
<path d="M0 0 C2.25798714 -0.00435194 4.51597281 -0.00953669 6.7739563 -0.01548767 C12.88343667 -0.02883594 18.99285503 -0.02946106 25.10234714 -0.02692437 C30.21160789 -0.02585199 35.32085624 -0.03074479 40.43011433 -0.03552979 C53.17546326 -0.04724281 65.92076747 -0.04640812 78.66611595 -0.03997298 C89.71187203 -0.03480402 100.75753992 -0.04606263 111.80327856 -0.0650712 C123.17162039 -0.08448356 134.53990842 -0.09240886 145.90827137 -0.08894795 C152.28013603 -0.08713836 158.65191987 -0.08973916 165.02377129 -0.10366249 C171.0164984 -0.11626851 177.00904932 -0.11427037 183.00177383 -0.1012516 C185.19465889 -0.09889246 187.38755647 -0.10159663 189.58042717 -0.10987473 C206.56641887 -0.16934904 221.06185398 0.51590611 234.42407227 12.2746582 C243.0167322 21.3775711 245.89115323 32.6797587 245.87028503 44.77484131 C245.87255059 45.7364817 245.87481615 46.69812209 245.87715036 47.68890309 C245.88348448 50.91378938 245.88266136 54.13863357 245.88183594 57.36352539 C245.88482782 59.67475438 245.88823042 61.98598287 245.89201355 64.29721069 C245.90085542 70.578313 245.90319176 76.85940168 245.90382934 83.14050961 C245.90477862 88.38395623 245.9084572 93.62739968 245.91200143 98.87084508 C245.91968159 110.5362736 245.92266999 122.20169547 245.92199608 133.86712632 C245.92193615 134.91673546 245.92193615 134.91673546 245.921875 135.98754883 C245.92183412 136.68814561 245.92179324 137.3887424 245.92175112 138.11056939 C245.92134485 149.45940615 245.93090983 160.80820971 245.94501337 172.15703687 C245.95938989 183.81783947 245.96609984 195.47862437 245.96541959 207.13943601 C245.96516467 213.68286452 245.96801258 220.22625547 245.97859764 226.76967621 C245.98828373 232.92561286 245.98835422 239.08147606 245.98108101 245.23741531 C245.98003577 247.49444562 245.98239447 249.75148051 245.98844147 252.00850296 C245.99617289 255.09460156 245.99150881 258.18044727 245.98381042 261.26654053 C245.98895399 262.15517815 245.99409755 263.04381578 245.99939698 263.95938182 C245.93260273 276.11501217 242.51633325 287.49489722 233.73657227 296.2746582 C222.3285876 305.69504481 211.33511432 308.50548907 196.80737305 307.49780273 C186.42487682 306.37900981 178.41756636 300.43987193 171.48657227 292.9621582 C144.63779125 259.10286215 161.73657227 149.22109268 161.73657227 144.2746582 C92.76657227 213.2446582 23.79657227 282.2146582 -47.26342773 353.2746582 C-42.58666562 358.78378697 -42.58666562 358.78378697 -37.65905762 363.97236633 C-37.01159073 364.61542725 -36.36412384 365.25848816 -35.69703674 365.92103577 C-35.0080278 366.60016525 -34.31901886 367.27929474 -33.60913086 367.97900391 C-32.49573586 369.08298019 -32.49573586 369.08298019 -31.35984802 370.20925903 C-29.75838047 371.79694714 -28.15584766 373.38356134 -26.55235291 374.96920204 C-24.00956012 377.48518683 -21.47131183 380.0056713 -18.93444824 382.52763367 C-11.72491222 389.69458805 -4.51283043 396.85890803 2.71557617 404.00683594 C7.14674355 408.38932144 11.56794926 412.78164713 15.98292542 417.1804409 C17.66009561 418.8477539 19.34090486 420.51141506 21.02549744 422.17122841 C23.38717363 424.49892706 25.73591812 426.83900286 28.08227539 429.18212891 C28.77128433 429.8551857 29.46029327 430.52824249 30.17018127 431.22169495 C39.47538123 440.58515055 44.76720142 451.01638071 45.11157227 464.2746582 C44.78233078 476.95045538 40.25237654 487.22512645 31.11157227 496.0871582 C22.60988371 503.34313106 12.40090402 506.67237806 1.28735352 506.4855957 C-12.6321267 505.33452077 -22.45879498 498.71912214 -32.01782227 488.97436523 C-32.82882889 488.16394272 -33.63983551 487.3535202 -34.47541809 486.51853943 C-37.12529806 483.8658965 -39.76076547 481.19941935 -42.39624023 478.5324707 C-44.24195095 476.67929131 -46.08855301 474.82699928 -47.93600464 472.97555542 C-52.28222486 468.61696595 -56.61815841 464.24829383 -60.95037353 459.87578857 C-65.8880932 454.8931614 -70.83734947 449.92206043 -75.7875464 444.95183396 C-85.95894139 434.73877198 -96.11597361 424.511507 -106.26342773 414.2746582 C-109.31919274 415.63847227 -111.40541966 417.17460853 -113.75222778 419.54986572 C-114.42482132 420.22549057 -115.09741486 420.90111542 -115.79039001 421.59721375 C-116.51770828 422.33800674 -117.24502655 423.07879974 -117.99438477 423.84204102 C-118.76894516 424.62273453 -119.54350555 425.40342804 -120.34153748 426.20777893 C-122.02370098 427.90425137 -123.7036209 429.60295071 -125.38156509 431.3035965 C-128.04240747 433.99922718 -130.71028668 436.68770155 -133.38034058 439.37420654 C-140.97132899 447.01408117 -148.55127894 454.66482327 -156.12182617 462.32495117 C-160.75339948 467.01115567 -165.39571562 471.68656053 -170.04366684 476.35652924 C-171.80880829 478.13404327 -173.57015151 479.91533784 -175.32751846 481.70053864 C-177.79451701 484.20624013 -180.27384336 486.69912635 -182.75610352 489.18969727 C-183.4712764 489.92239334 -184.18644928 490.65508942 -184.92329407 491.4099884 C-194.33349543 500.78459218 -204.92316227 506.13988582 -218.32592773 506.6496582 C-229.2348161 506.24756777 -240.39274797 501.93821481 -248.26342773 494.2746582 C-257.66452391 482.83915625 -260.49677867 471.89300761 -259.4909668 457.34985352 C-258.11965179 444.8432252 -249.59583289 436.29759885 -241.05493164 427.83911133 C-240.2542627 427.03815033 -239.45359375 426.23718933 -238.62866211 425.41195679 C-236.00382179 422.78850017 -233.37198792 420.17218239 -230.73999023 417.5559082 C-228.90966825 415.72931976 -227.07978986 413.90228672 -225.25033569 412.0748291 C-220.94055688 407.77188378 -216.62635795 403.47341776 -212.3099407 399.17713308 C-207.39176432 394.281394 -202.47933792 389.37990234 -197.56736112 384.47794437 C-187.47238813 374.40381669 -177.37029592 364.33685129 -167.26342773 354.2746582 C-171.63119263 349.03885765 -176.23726871 344.19301041 -181.10131836 339.41845703 C-182.67892385 337.86050865 -184.25651943 336.30255022 -185.83410645 334.74458313 C-186.66266647 333.9282522 -187.4912265 333.11192127 -188.34489441 332.27085304 C-192.76584008 327.91106705 -197.17138092 323.53574115 -201.57983398 319.16333008 C-207.17443954 313.616579 -212.77338764 308.07441859 -218.38793945 302.54785156 C-222.9402706 298.06605809 -227.47756186 293.56950841 -232.00541687 289.062994 C-233.72547565 287.35645916 -235.45091615 285.65532985 -237.18196106 283.95993996 C-259.16111723 262.42122645 -259.16111723 262.42122645 -259.55615234 246.08129883 C-259.66481093 233.06373176 -256.95837018 223.35087461 -248.26342773 213.2746582 C-239.25164157 204.87690156 -227.99115071 200.64200149 -215.66967773 201.0324707 C-201.35771906 202.47296005 -191.34216851 209.54692949 -181.48730469 219.59667969 C-180.68590561 220.39749466 -179.88450653 221.19830963 -179.05882263 222.02339172 C-176.44684041 224.63813142 -173.8492663 227.2666886 -171.25170898 229.89575195 C-169.42984876 231.72508282 -167.60709572 233.5535249 -165.78349304 235.38111877 C-161.4981446 239.68011082 -157.2218107 243.98787844 -152.94984549 248.30016428 C-148.07983635 253.21512115 -143.19825521 258.11851674 -138.31574309 263.02104843 C-128.28551928 273.09291037 -118.26966675 283.17897013 -108.26342773 293.2746582 C-105.11270971 291.87844723 -102.98370387 290.24398577 -100.55405807 287.8113842 C-99.46574255 286.72904182 -99.46574255 286.72904182 -98.35544086 285.62483394 C-97.56555687 284.82912428 -96.77567289 284.03341461 -95.96185303 283.21359253 C-95.11722354 282.37067189 -94.27259406 281.52775126 -93.40236974 280.65928757 C-91.05902908 278.31867364 -88.72026437 275.97365052 -86.38330936 273.62667108 C-83.86209142 271.09682257 -81.33510283 268.57274993 -78.80880737 266.04797363 C-74.432644 261.67285936 -70.0601597 257.29409583 -65.6901474 252.91283798 C-59.37182634 246.5782683 -53.04799504 240.24922327 -46.72280183 233.92151643 C-36.46094352 223.65528002 -26.20356022 213.38458448 -15.94897461 203.11108398 C-5.98712427 193.13087784 3.97682282 183.15277277 13.94360352 173.17749023 C14.55787371 172.56269459 15.17214391 171.94789895 15.80502835 171.31447314 C18.88663008 168.23026135 21.96827315 165.14609086 25.04993677 162.06194091 C50.6185607 136.47258089 76.17992931 110.87598361 101.73657227 85.2746582 C100.77910913 85.27107567 100.77910913 85.27107567 99.80230331 85.26742077 C84.22583236 85.20812313 68.64953773 85.13247961 53.07323837 85.03894329 C45.54045771 84.99409729 38.00772315 84.95465726 30.47485352 84.92822266 C23.90440977 84.90515141 17.33411329 84.87165276 10.76378655 84.82595664 C7.28917571 84.80214654 3.81470961 84.78333826 0.34001923 84.7770443 C-3.55172067 84.76979856 -7.44310004 84.73925838 -11.3347168 84.70703125 C-12.46976654 84.70846634 -13.60481628 84.70990143 -14.77426147 84.71138 C-28.284135 84.55405482 -39.68901491 81.30514149 -49.95092773 72.2746582 C-58.84755028 62.87086478 -61.76939423 50.89976785 -61.54077148 38.3918457 C-61.04163413 27.55982004 -55.31894555 17.82659423 -47.51342773 10.5246582 C-33.43433 -0.98974621 -17.24147938 -0.02196464 0 0 Z M-37.06420898 31.2277832 C-39.72032128 35.76134295 -40.67119265 40.46612007 -39.91577148 45.66918945 C-38.03705179 52.27283292 -34.52393884 57.36444308 -28.58499146 60.84385681 C-22.48713763 63.36734446 -15.71017484 62.69723753 -9.2277832 62.67529297 C-7.69793157 62.68104053 -6.16808446 62.68812537 -4.63824463 62.69644165 C-1.35398023 62.71151545 1.93012202 62.71733244 5.21442032 62.71591377 C10.40840903 62.71387558 15.60218042 62.733476 20.79611206 62.75608826 C30.88075216 62.79701082 40.96537494 62.81565921 51.05007935 62.83226013 C63.89399087 62.85463628 76.73785204 62.88814958 89.58168113 62.93945926 C94.74440481 62.95937367 99.90701427 62.96896036 105.06977487 62.97041142 C108.28003387 62.97316214 111.49022977 62.98399268 114.70046234 62.99692154 C116.18836507 63.00119997 117.67628217 63.00206206 119.16418839 62.9992466 C121.19614419 62.99584278 123.22810926 63.00577668 125.26004028 63.01637268 C126.39673723 63.01800698 127.53343418 63.01964128 128.70457649 63.02132511 C131.8252346 63.28206623 133.97258368 63.81641418 136.73657227 65.2746582 C138.75930784 68.30876157 139.05183496 69.1283682 139.11157227 72.5871582 C139.13993164 73.32579102 139.16829102 74.06442383 139.19750977 74.82543945 C137.80205595 82.24026608 130.49986042 87.79639641 125.41911316 92.85954285 C124.45502689 93.82736857 123.49137299 94.79562517 122.52811319 95.76427346 C119.88719017 98.4174048 117.24007654 101.06428221 114.59186351 103.71013439 C111.7340874 106.5675018 108.882048 109.43058578 106.02922058 112.29289246 C100.44243745 117.89627334 94.85012157 123.49410041 89.25559183 129.08974596 C84.70864934 133.63763926 80.16329087 138.18710963 75.61904335 142.73769569 C62.73373251 155.64061355 49.84424267 168.53933578 36.94937512 181.43270298 C36.25451883 182.12747936 35.55966254 182.82225573 34.84375 183.53808594 C34.14804432 184.23370985 33.45233865 184.92933377 32.73555098 185.6460372 C21.45473701 196.92603783 10.18393859 208.2159873 -1.08236567 219.51047834 C-12.65194915 231.10877873 -24.22896275 242.69961645 -35.8137781 254.28270322 C-42.31716866 260.78542959 -48.81743953 267.29120567 -55.30973244 273.80501366 C-60.83580348 279.34928047 -66.36873341 284.88658669 -71.91070203 290.4149644 C-74.73788186 293.2356073 -77.56173729 296.05937936 -80.37697601 298.89194489 C-82.95490428 301.48557585 -85.5419122 304.06977664 -88.13641938 306.64681999 C-89.51562982 308.02149887 -90.88500972 309.40601906 -92.2539981 310.790878 C-96.66489664 315.15269551 -100.24289838 318.53265101 -106.26342773 320.2746582 C-114.17434254 319.70141346 -118.07114729 315.26790465 -123.39819336 309.75756836 C-124.27408615 308.87612656 -125.14997894 307.99468475 -126.05241394 307.08653259 C-127.94793071 305.17490682 -129.83706202 303.25883831 -131.71757507 301.33263016 C-134.695491 298.2827911 -137.6953868 295.25521012 -140.6986084 292.23031616 C-146.53048096 286.35028136 -152.33947196 280.44793431 -158.14643097 274.54331207 C-165.53533555 267.03259723 -172.93549024 259.53306445 -180.35408354 252.05167043 C-183.33232414 249.04677047 -186.29975634 246.03171505 -189.25891876 243.00803018 C-191.54093444 240.68106098 -193.83594357 238.3669543 -196.12866211 236.05053711 C-196.93824875 235.2171431 -197.74783539 234.38374908 -198.58195496 233.52510071 C-203.73696244 228.3487199 -208.60411219 224.11280703 -216.02124023 222.77856445 C-222.64090954 222.94241765 -226.69900766 224.13764147 -231.88842773 228.4621582 C-236.05087852 233.39137624 -239.13929658 238.52298026 -238.61360073 245.16874886 C-237.24631915 253.39145902 -231.27812611 258.79838652 -225.59521484 264.34936523 C-224.72162827 265.21871704 -223.84804169 266.08806885 -222.94798279 266.98376465 C-221.05782106 268.86209006 -219.16449957 270.73637807 -217.26457024 272.60474014 C-214.2577193 275.56198221 -211.26591653 278.53414927 -208.27601624 281.5085144 C-202.46868564 287.28166621 -196.64667326 293.03987799 -190.82279205 298.79632568 C-183.40494134 306.12941831 -175.99309073 313.4685093 -168.59597784 320.82252395 C-165.6250115 323.77517223 -162.64654244 326.71996897 -159.66188991 329.65877938 C-157.36948652 331.91952985 -155.08670637 334.18996789 -152.80224609 336.45874023 C-151.97774963 337.26616669 -151.15325317 338.07359314 -150.30377197 338.90548706 C-145.37096329 343.82748085 -141.49683196 347.77359485 -141.01342773 355.0246582 C-141.69735133 358.97766532 -143.60418196 361.09089475 -146.29873657 363.99433899 C-147.11346058 364.8733317 -147.92818459 365.75232441 -148.7675972 366.65795326 C-152.43567765 370.50368081 -156.16575134 374.27696622 -159.94848633 378.00976562 C-161.17217926 379.22403984 -161.17217926 379.22403984 -162.42059326 380.46284485 C-164.17259517 382.20111236 -165.92567931 383.93828965 -167.67975998 385.67445946 C-170.45723815 388.4250608 -173.23011609 391.18022104 -176.00161743 393.93684387 C-176.95612143 394.88620668 -177.91063313 395.83556175 -178.86515236 396.78490925 C-179.34250619 397.25967752 -179.81986002 397.73444579 -180.31167912 398.22360098 C-186.74878046 404.62482437 -193.19080272 411.02103913 -199.64282227 417.40722656 C-204.48623351 422.20132053 -209.31902828 427.00592364 -214.14595413 431.81661415 C-215.98191942 433.6426902 -217.8215327 435.4651062 -219.6648674 437.2837429 C-222.23745 439.82258467 -224.79735226 442.37359653 -227.35473633 444.92773438 C-228.11527313 445.67231903 -228.87580994 446.41690369 -229.65939331 447.18405151 C-234.89115561 452.44620031 -237.7767985 456.56411026 -238.76342773 464.0871582 C-238.4967455 470.04692633 -235.77509486 475.86741488 -231.47827148 479.9855957 C-227.28972179 483.06253454 -223.70724953 484.43410465 -218.57592773 484.5871582 C-217.76768555 484.62454102 -216.95944336 484.66192383 -216.12670898 484.70043945 C-207.42891088 483.40704246 -201.98176664 477.52400505 -196.12866211 471.4987793 C-195.25276932 470.61383286 -194.37687653 469.72888641 -193.47444153 468.81712341 C-191.58147791 466.90230925 -189.69251958 464.98434141 -187.8092804 463.06003952 C-184.82762015 460.01436152 -181.82934848 456.9853995 -178.82824707 453.95889282 C-171.37984083 446.44254908 -163.95037468 438.90756056 -156.53057861 431.36297607 C-150.75600616 425.49136681 -144.97510022 419.62635282 -139.17277193 413.78215277 C-136.19148219 410.77789223 -133.22459121 407.76032177 -130.26793671 404.73182273 C-127.99013117 402.40645966 -125.69261213 400.10070257 -123.39819336 397.79174805 C-122.58860672 396.95430557 -121.77902008 396.1168631 -120.94490051 395.25404358 C-116.25383053 390.57810121 -112.99472393 387.76242482 -106.26342773 387.2746582 C-99.29526396 388.96760926 -95.11392658 393.90956573 -90.22631836 398.92114258 C-89.3489653 399.8043367 -88.47161224 400.68753082 -87.56767273 401.5974884 C-85.66863923 403.51171525 -83.77363248 405.42911486 -81.88444519 407.35298157 C-78.89380623 410.39794905 -75.8877552 413.42738749 -72.87927246 416.45471191 C-65.95305155 423.42899908 -59.04707544 430.42322077 -52.14122772 437.4176712 C-45.8088895 443.830836 -39.47231282 450.2396581 -33.11935377 456.6324048 C-30.13245138 459.63917448 -27.15555991 462.65540863 -24.18608856 465.67938995 C-21.89888554 468.00356671 -19.59863465 470.31477648 -17.30053711 472.62817383 C-16.48578415 473.46359207 -15.67103119 474.29901031 -14.83158875 475.15974426 C-9.57857993 480.41468887 -4.66170002 484.69734578 3.17407227 484.7121582 C8.7077953 484.4953343 13.24498701 482.63976705 17.27563477 478.8137207 C21.26936771 474.21275351 23.04032013 470.5985785 23.17407227 464.5246582 C23.2140332 463.53981445 23.25399414 462.5549707 23.29516602 461.5402832 C21.83375948 452.99667577 14.84744305 446.97176514 8.9230957 441.13647461 C8.04615051 440.26069763 7.16920532 439.38492065 6.26568604 438.48260498 C3.87870663 436.10154841 1.48532234 433.72729604 -0.91108418 431.35575151 C-3.42273317 428.86670909 -5.92537646 426.36864569 -8.42889404 423.87142944 C-13.16393984 419.15082289 -17.90616022 414.43749844 -22.65141463 409.72715604 C-31.16330061 401.27741471 -39.66282065 392.81524197 -48.15972495 384.35043848 C-51.14118106 381.38082043 -54.12578272 378.41441005 -57.11304522 375.45063329 C-59.39966514 373.1810494 -61.68328501 370.9084491 -63.9675293 368.63647461 C-64.79764526 367.81466705 -65.62776123 366.9928595 -66.48303223 366.14614868 C-67.23445496 365.39768677 -67.98587769 364.64922485 -68.7600708 363.87808228 C-69.41634586 363.22662546 -70.07262093 362.57516865 -70.74878311 361.90397072 C-73.63228269 358.80217253 -73.80640999 355.90950191 -73.7061078 351.80277973 C-73.18641667 348.83485227 -72.3730958 347.76849364 -70.33679676 345.58252621 C-69.69703014 344.89087427 -69.05726352 344.19922233 -68.39811003 343.48661125 C-64.49774864 339.44506546 -60.56618855 335.44040999 -56.58952332 331.47377014 C-55.62361798 330.50671046 -54.65793039 329.53943325 -53.69243985 328.57195944 C-51.05778613 325.93315584 -48.42005287 323.29745003 -45.78176987 320.66227567 C-42.92999426 317.81277154 -40.08110868 314.96038041 -37.23184204 312.10836792 C-31.65887807 306.53096697 -26.08322587 300.956261 -20.50659158 295.3825301 C-15.97642856 290.85462789 -11.44724548 286.32574762 -6.91875648 281.79617119 C-6.27362319 281.15088466 -5.6284899 280.50559813 -4.96380711 279.84075747 C-3.65320608 278.52983671 -2.34260728 277.2189137 -1.03201071 275.90798848 C11.24330102 263.62982839 23.52167067 251.35472996 35.80109503 239.0806831 C46.343746 228.54250597 56.88376343 218.0017008 67.421875 207.45898438 C79.66211171 195.21340154 91.90396189 182.96943543 104.14840907 170.72806257 C105.45260143 169.42418877 106.75679169 168.12031287 108.06097984 166.81643486 C108.7026712 166.17489778 109.34436255 165.5333607 110.0054991 164.87238311 C114.53406291 160.34468386 119.06146298 155.81582294 123.58841896 151.28651619 C129.09824242 145.77389439 134.60983128 140.26304512 140.12372325 134.75449265 C142.93837616 131.9424753 145.75220977 129.12965053 148.56389809 126.31466866 C151.13428657 123.74131466 153.70694612 121.17025474 156.28148802 118.60105627 C157.66023323 117.22396868 159.03650614 115.84440721 160.41270858 114.46477848 C161.62965314 113.25174554 161.62965314 113.25174554 162.87118244 112.01420689 C163.92604956 110.9595833 163.92604956 110.9595833 165.00222713 109.88365418 C167.64852308 107.4286183 169.5179029 107.0539614 173.04907227 106.8996582 C173.80833008 106.85067383 174.56758789 106.80168945 175.34985352 106.7512207 C178.97313477 107.54585194 180.39804773 109.46197373 182.73657227 112.2746582 C183.35904884 115.31947803 183.35904884 115.31947803 183.35562134 118.78242493 C183.36657333 120.09875916 183.37752533 121.41509338 183.3888092 122.77131653 C183.37577328 124.22336215 183.3622846 125.67540376 183.34838867 127.12744141 C183.35193096 128.66198371 183.3577098 130.19652224 183.36555481 131.73104858 C183.37772753 135.03239185 183.37427414 138.33321824 183.35872269 141.63454628 C183.33439193 146.85865955 183.34590736 152.08232094 183.36239624 157.30644226 C183.38689027 166.51466152 183.38109272 175.7226752 183.36859131 184.9309082 C183.3500152 198.78300435 183.35490753 212.63506059 183.3886255 226.48712796 C183.40011618 231.67586777 183.39573173 236.86427786 183.37860513 242.05299914 C183.37068409 245.28744419 183.37497353 248.52179415 183.38231468 251.75623703 C183.3831221 253.25095318 183.37881055 254.74568266 183.36887169 256.24036598 C183.13205213 268.65836497 183.13205213 268.65836497 188.56860352 279.5168457 C194.14039533 284.11055177 198.21307175 286.56178247 205.61157227 286.2121582 C212.42526397 285.32966199 216.97390931 282.5344825 221.17407227 277.1496582 C223.60527875 272.67623827 223.88774182 269.07322649 223.89479065 264.10400391 C223.90219762 263.00023155 223.90219762 263.00023155 223.90975422 261.87416077 C223.92515192 259.3995893 223.93349757 256.92504386 223.94189453 254.45043945 C223.9514748 252.6774218 223.96148497 250.90440642 223.97189331 249.13139343 C223.99901936 244.29620818 224.02000955 239.4610132 224.0398953 234.62579346 C224.06184615 229.52761117 224.08922097 224.42945789 224.11595154 219.33129883 C224.1603054 210.72600623 224.20102957 202.12070276 224.23925781 193.51538086 C224.29247397 181.53847327 224.35241451 169.56160662 224.41365349 157.58473778 C224.4564418 149.16118228 224.49747082 140.73761804 224.53824496 132.31405258 C224.54796831 130.30821584 224.55774381 128.30237934 224.56757474 126.29654312 C224.58179368 123.39121829 224.59583658 120.48589269 224.60975647 117.58056641 C224.61428811 116.6366035 224.61881976 115.69264059 224.62348872 114.72007275 C224.64516494 110.07402305 224.66402684 105.42798809 224.67722416 100.78190613 C224.68244631 98.96178181 224.68767212 97.1416575 224.69290161 95.3215332 C224.69664639 93.9754673 224.69664639 93.9754673 224.70046681 92.60220814 C224.71947586 86.82038254 224.76421749 81.03923595 224.823726 75.25769043 C224.86231503 71.29627073 224.88886938 67.33481952 224.91348255 63.37329102 C224.92799582 61.49954269 224.9478347 59.62582672 224.97344887 57.75219727 C225.00832516 55.16062415 225.02417724 52.56954994 225.03599548 49.9777832 C225.05089472 49.22668274 225.06579396 48.47558228 225.08114469 47.70172119 C225.0777625 40.91665458 223.60563033 33.61556085 218.98657227 28.3996582 C218.31368164 27.59915039 218.31368164 27.59915039 217.62719727 26.7824707 C211.88167779 22.20030021 206.16030263 21.83882063 199.1030426 21.88697815 C198.15123846 21.88159261 197.19943431 21.87620707 196.21878761 21.87065834 C193.03911765 21.85638552 189.8598644 21.86348093 186.68017578 21.87060547 C184.3965827 21.86490158 182.11299247 21.85793724 179.82940674 21.84980774 C173.63315961 21.8318638 167.43705401 21.83304705 161.2407887 21.83875012 C156.06672773 21.84184007 150.89269402 21.8357517 145.71863693 21.82971138 C132.81453078 21.8148608 119.91051325 21.81848308 107.00640862 21.83057468 C95.80893751 21.84050684 84.61163164 21.82756538 73.41418601 21.80364049 C61.90585669 21.77923733 50.39762307 21.7700441 38.88926643 21.77629322 C32.43249438 21.77966457 25.97585887 21.77723563 19.51910591 21.76004219 C13.44760002 21.74458022 7.37640977 21.74852069 1.30491638 21.76734734 C-0.92189537 21.77103518 -3.14873046 21.7679191 -5.37552071 21.75746155 C-8.41834916 21.74426387 -11.4601308 21.75578902 -14.50291443 21.77345276 C-15.38142781 21.76384775 -16.2599412 21.75424275 -17.1650762 21.74434668 C-25.37921761 21.84227159 -31.95651285 24.6787372 -37.06420898 31.2277832 Z " fill="#000000" transform="translate(259.263427734375,2.725341796875)"/>
<path d="M0 0 C3.62498322 1.68728809 4.5794581 5.32981493 5.94384766 8.90478516 C6.35560927 10.42588866 6.73841451 11.95511885 7.09228516 13.49072266 C9.30464849 22.73497971 9.30464849 22.73497971 15.38476562 29.71875 C20.94143793 32.79983823 26.78561527 35.06303268 32.80834961 37.0612793 C34.94384766 37.90478516 34.94384766 37.90478516 36.94384766 39.90478516 C37.56884766 42.21728516 37.56884766 42.21728516 36.94384766 44.90478516 C33.09440537 47.9522603 29.99619311 49.64554348 25.20166016 50.82666016 C19.07268232 52.48879315 14.53957641 54.13352097 11.23974609 59.86425781 C7.78428977 67.64283532 5.24063283 75.71657715 2.94384766 83.90478516 C-0.02615234 84.39978516 -0.02615234 84.39978516 -3.05615234 84.90478516 C-5.70682483 79.19564441 -8.0719039 73.4117591 -10.30615234 67.52978516 C-10.57637207 66.82789062 -10.8465918 66.12599609 -11.125 65.40283203 C-12.24119238 62.4311044 -13.05615234 60.10638002 -13.05615234 56.90478516 C-13.86568359 56.65728516 -14.67521484 56.40978516 -15.50927734 56.15478516 C-19.74773721 54.66105481 -23.74778706 52.82606958 -27.80615234 50.90478516 C-28.57314453 50.54900391 -29.34013672 50.19322266 -30.13037109 49.82666016 C-30.86384766 49.48119141 -31.59732422 49.13572266 -32.35302734 48.77978516 C-33.01657227 48.46783203 -33.68011719 48.15587891 -34.36376953 47.83447266 C-36.05615234 46.90478516 -36.05615234 46.90478516 -38.05615234 44.90478516 C-38.55615234 42.52978516 -38.55615234 42.52978516 -38.05615234 39.90478516 C-34.75351419 37.24707162 -31.92837899 35.7603446 -27.84912109 34.64306641 C-21.5424073 32.79094925 -15.92686441 31.02043905 -12.39501953 25.13818359 C-9.59641982 18.76327213 -7.63432581 12.15783956 -5.93725586 5.41333008 C-4.77157019 2.09456581 -3.79377352 -0.17567937 0 0 Z " fill="#000000" transform="translate(48.05615234375,56.09521484375)"/>
<path d="M0 0 C1.20167313 -0.01283524 2.40334625 -0.02567047 3.64143372 -0.03889465 C4.94142807 -0.04628159 6.24142242 -0.05366852 7.58081055 -0.0612793 C8.24355673 -0.06535482 8.90630291 -0.06943035 9.58913231 -0.07362938 C13.09734152 -0.09446897 16.60551187 -0.10877953 20.11376953 -0.11816406 C23.72860463 -0.12922202 27.34282305 -0.16361973 30.95744038 -0.20333576 C33.74479785 -0.2295388 36.53200919 -0.23785911 39.31947899 -0.24144554 C41.29700373 -0.24865603 43.2744284 -0.27507844 45.25178528 -0.30183411 C56.49098726 -0.27468503 56.49098726 -0.27468503 61.1550293 4.17700195 C63.01487219 7.89668774 62.72817619 12.12676388 62.1550293 16.17700195 C59.49696021 19.79492932 57.50794721 21.40149224 53.1550293 22.17700195 C51.26257031 22.27757934 49.36700972 22.32523875 47.47192383 22.33813477 C45.75962082 22.35254608 45.75962082 22.35254608 44.01272583 22.36724854 C42.16890823 22.37362335 42.16890823 22.37362335 40.2878418 22.38012695 C38.38662064 22.38867706 38.38662064 22.38867706 36.44699097 22.3973999 C33.76548677 22.40684596 31.08409438 22.41374505 28.40258789 22.41723633 C24.97733498 22.42271901 21.55247998 22.44675088 18.12735176 22.47520828 C14.84754551 22.49838083 11.56771844 22.50028704 8.2878418 22.50512695 C6.45009689 22.52364716 6.45009689 22.52364716 4.57522583 22.5425415 C-2.33310803 22.52447923 -7.37132393 22.30328405 -12.7199707 17.48950195 C-14.3930411 14.05041281 -14.61697429 10.86703746 -13.8449707 7.17700195 C-10.47320284 1.16982932 -6.56461496 0.06102887 0 0 Z " fill="#000000" transform="translate(306.844970703125,32.822998046875)"/>
<path d="M0 0 C1.65 0 3.3 0 5 0 C6.17192435 3.12305373 7.33663876 6.24874739 8.5 9.375 C8.83386719 10.26445312 9.16773438 11.15390625 9.51171875 12.0703125 C9.98544922 13.34648437 9.98544922 13.34648437 10.46875 14.6484375 C10.76201172 15.43395996 11.05527344 16.21948242 11.35742188 17.02880859 C12 19 12 19 12 21 C12.556875 21.17015625 13.11375 21.3403125 13.6875 21.515625 C26.62376238 25.62376238 26.62376238 25.62376238 30 29 C30.04063832 30.66617115 30.042721 32.33388095 30 34 C27.730384 35.14829977 25.45939222 36.29371978 23.1875 37.4375 C22.54490234 37.76298828 21.90230469 38.08847656 21.24023438 38.42382812 C18.51734534 39.79232676 15.89550206 41.03483265 13 42 C11.96734937 43.86918352 11.96734937 43.86918352 11.24609375 46.18359375 C10.94896484 47.02857422 10.65183594 47.87355469 10.34570312 48.74414062 C9.89614258 50.07735352 9.89614258 50.07735352 9.4375 51.4375 C8.83702815 53.18792006 8.23177193 54.93670824 7.62109375 56.68359375 C7.3573999 57.46275146 7.09370605 58.24190918 6.82202148 59.04467773 C6 61 6 61 4 63 C2.03515625 62.97265625 2.03515625 62.97265625 0 62 C-1.37890625 59.55859375 -1.37890625 59.55859375 -2.5625 56.4375 C-2.95566406 55.42558594 -3.34882813 54.41367187 -3.75390625 53.37109375 C-5 50 -5 50 -5.53637695 47.94262695 C-6.73491208 43.78277145 -6.73491208 43.78277145 -9.70581055 40.78930664 C-11.79704687 39.82912514 -13.88081029 39.04358789 -16.0625 38.3125 C-23.62950687 35.67037007 -23.62950687 35.67037007 -25.49609375 32.29296875 C-25.66238281 31.53628906 -25.82867187 30.77960938 -26 30 C-23.70220303 27.09523779 -20.98943618 26.0864608 -17.60473633 24.7565918 C-11.18152715 22.26415933 -11.18152715 22.26415933 -6.265625 17.671875 C-5.29151071 15.13279022 -4.62885917 12.64433329 -4 10 C-3.27713346 8.11437306 -2.52764225 6.23870532 -1.75 4.375 C-1.24726563 3.11816406 -1.24726563 3.11816406 -0.734375 1.8359375 C-0.49203125 1.23007812 -0.2496875 0.62421875 0 0 Z " fill="#000000" transform="translate(482,370)"/>
<path d="M0 0 C4.67729166 2.52167028 7.51090736 5.96650825 10.046875 10.53125 C11.81360137 17.0092467 11.39009564 22.62406837 8.05859375 28.4921875 C5.22347324 32.51226549 2.07142623 34.752191 -2.515625 36.65625 C-8.46641042 37.6648577 -13.13960593 37.37141102 -18.515625 34.53125 C-23.25253716 30.56546308 -26.6674412 26.50990548 -27.4609375 20.24609375 C-27.76023166 14.42981054 -26.59452114 10.04165009 -23.203125 5.28125 C-17.07754621 -1.16420236 -8.48939031 -2.76958833 0 0 Z " fill="#000000" transform="translate(342.203125,346.71875)"/>
<path d="M0 0 C1.69576172 -0.03867187 1.69576172 -0.03867187 3.42578125 -0.078125 C7.0139752 0.28284301 8.81490663 1.11855617 11.6875 3.25 C13.81488138 5.96424521 14.61659561 7.7739277 15.125 11.1875 C14.55986169 15.14346816 13.24913859 17.20372709 10.6875 20.25 C6.26836486 23.10944038 0.77224726 22.77273103 -4.3125 22.25 C-8.44681974 21.14448593 -10.87318848 19.90896728 -13.3125 16.25 C-13.85852034 12.85892629 -13.85877924 9.64125824 -13.3125 6.25 C-9.22807496 0.98324139 -6.45521028 0.08772653 0 0 Z " fill="#000000" transform="translate(255.3125,32.75)"/>
<path d="M0 0 C2.375 1.625 2.375 1.625 4 4 C4.61566436 8.09675726 4.29548974 9.59069594 1.83984375 12.9921875 C0.88826521 13.96884231 -0.07985643 14.92960697 -1.0625 15.875 C-1.52849609 16.37257813 -1.99449219 16.87015625 -2.47460938 17.3828125 C-5.26306594 20.14471234 -6.81123763 20.98053388 -10.75 21.38671875 C-14 21 -14 21 -15.9375 19.9375 C-17.63887815 16.8349869 -17.35937585 14.48485673 -17 11 C-15.32445111 8.64170965 -13.93774301 6.99431761 -11.875 5.0625 C-11.1634375 4.32290039 -11.1634375 4.32290039 -10.4375 3.56835938 C-7.00919955 0.22808285 -4.73507196 -0.71159087 0 0 Z " fill="#000000" transform="translate(170,356)"/>
<path d="M0 0 C1.9375 1.6875 1.9375 1.6875 3 4 C2.72958654 9.25479127 1.03790896 11.68995866 -2.625 15.375 C-3.88183594 16.68597656 -3.88183594 16.68597656 -5.1640625 18.0234375 C-8.70520891 20.49150924 -10.76855266 20.45786172 -15 20 C-16.9375 18.9375 -16.9375 18.9375 -18 17 C-18.4884788 12.67567717 -18.52692428 10.70580632 -15.8828125 7.1640625 C-14.97273437 6.32617188 -14.06265625 5.48828125 -13.125 4.625 C-12.22007812 3.77164062 -11.31515625 2.91828125 -10.3828125 2.0390625 C-6.56962844 -1.22402288 -4.85958608 -1.28927794 0 0 Z " fill="#000000" transform="translate(190,313)"/>
<path d="M0 0 C2.52301046 2.83838677 3.0149768 4.26613701 2.9375 8.0625 C1.83287356 11.52366286 1.00342896 12.94502229 -2 15 C-5.4375 15.5625 -5.4375 15.5625 -9 15 C-12.38677089 12.54999553 -13.78698584 11.13607554 -14.5625 7 C-13.87206143 3.31766096 -12.63186072 1.63186072 -10 -1 C-5.95205481 -2.34931506 -3.92892826 -1.54350753 0 0 Z " fill="#000000" transform="translate(161,119)"/>
</svg>
