<?xml version="1.0" encoding="UTF-8"?>
<svg version="1.1" xmlns="http://www.w3.org/2000/svg" width="512" height="512">
<path d="M0 0 C2.99191579 2.06955254 5.31688958 4.08858384 7.48046875 7.03125 C10.44211554 11.0423499 12.33653919 13.37096111 17.3125 14.55859375 C19.34621384 14.80390749 21.37151996 14.96696394 23.4152832 15.10375977 C29.97775249 15.55983577 35.45541959 17.43718061 41.5703125 19.7890625 C44.99168239 20.77671739 46.40949152 20.58620869 49.77734375 19.71484375 C61.33265901 19.50281962 69.71325319 22.58124114 78.2890625 30.23046875 C79.77734375 31.71484375 79.77734375 31.71484375 81.90234375 34.46484375 C85.863071 37.56454334 89.5031939 37.53937956 94.4140625 38.12890625 C103.64129848 39.73643865 110.9147826 45.00953787 116.40234375 52.40234375 C120.30455136 58.1583116 122.17329591 63.69460454 123.52734375 70.46484375 C125.03507767 74.38495195 126.49882806 75.11223059 129.90234375 77.2890625 C136.18642444 82.06758219 139.52402464 90.12242301 140.77734375 97.71484375 C141.54372831 106.39107385 140.99059088 113.32196411 137.60546875 121.34375 C136.21781851 125.31688065 137.12982185 128.57230804 138.30859375 132.47265625 C140.67200188 143.77762515 138.7774163 155.87740954 132.9765625 165.79296875 C129.22063092 171.24818588 125.51864467 175.38488922 119.77734375 178.71484375 C119.11734375 178.71484375 118.45734375 178.71484375 117.77734375 178.71484375 C117.71546875 180.32359375 117.71546875 180.32359375 117.65234375 181.96484375 C116.60998122 190.33352575 111.76717272 198.86431313 105.77734375 204.71484375 C104.28678487 205.64678367 102.78584542 206.56223614 101.27734375 207.46484375 C96.75499636 210.32652587 95.37276965 213.09935166 93.2890625 217.91015625 C91.36684599 221.47643907 88.95230446 224.24978401 86.21484375 227.21484375 C85.74320801 227.73127441 85.27157227 228.24770508 84.78564453 228.77978516 C82.327066 231.37855719 80.12595201 233.3911586 76.77734375 234.71484375 C76.88433594 235.32328125 76.99132812 235.93171875 77.1015625 236.55859375 C78.55976374 247.22071037 76.35454352 257.63932475 72.77734375 267.71484375 C73.47182617 267.80983154 74.16630859 267.90481934 74.88183594 268.00268555 C109.12369755 272.79006829 109.12369755 272.79006829 121.15234375 288.08984375 C125.92476657 294.64786694 129.90125608 301.56022836 133.70751953 308.71435547 C134.75081443 310.66523597 135.82278045 312.59807614 136.8984375 314.53125 C140.44690251 321.05282362 143.08788257 326.20903052 141.77734375 333.71484375 C139.98340707 336.58514244 138.79471099 338.20616013 135.77734375 339.71484375 C128.80183084 340.41239504 128.80183084 340.41239504 124.75390625 337.65625 C121.40591578 334.67134551 119.7234401 331.31863402 117.90234375 327.27734375 C117.22042484 325.84883553 116.53546186 324.42177695 115.84765625 322.99609375 C115.50508789 322.28066406 115.16251953 321.56523437 114.80957031 320.828125 C107.4949033 305.0690493 107.4949033 305.0690493 94.69921875 294.31640625 C88.48334446 292.2781777 82.30229255 291.00067988 75.77734375 290.71484375 C73.84761719 290.55048828 73.84761719 290.55048828 71.87890625 290.3828125 C64.2304357 289.66909427 64.2304357 289.66909427 57.4140625 292.5 C55.92195462 294.51915314 54.76481273 296.41074947 53.77734375 298.71484375 C57.3058818 299.74305702 60.82236327 300.72598912 64.390625 301.609375 C78.10845883 305.01348371 88.44147985 309.18002809 96.01953125 321.61328125 C103.84990488 335.4295405 112.97205708 355.44790368 112.71484375 371.65234375 C111.58470272 375.34413778 110.73998895 377.19659533 107.77734375 379.71484375 C103.33888873 381.15776354 99.87145493 381.08642868 95.46484375 379.58984375 C91.64365985 375.50206562 90.80182286 371.20092043 89.37841797 365.86816406 C84.03105215 343.84074135 84.03105215 343.84074135 70.77734375 326.71484375 C62.50289029 323.27464978 53.64912996 321.66381591 44.77734375 320.71484375 C43.7821875 320.58335937 42.78703125 320.451875 41.76171875 320.31640625 C37.54652018 319.98241511 34.93281112 319.79127646 31.5390625 322.50390625 C29.78132887 324.4976482 28.23106689 326.49208618 26.77734375 328.71484375 C27.58558594 328.80378906 28.39382813 328.89273437 29.2265625 328.984375 C33.65973321 329.89636941 37.4805942 331.54077528 41.58984375 333.40234375 C42.39010986 333.76392578 43.19037598 334.12550781 44.01489258 334.49804688 C56.58315604 340.28833847 65.56099626 346.90645211 70.65234375 360.1875 C75.34369619 374.89684461 77.82785384 390.42160616 78.15234375 405.83984375 C78.17844727 406.55084229 78.20455078 407.26184082 78.23144531 407.99438477 C78.24346803 411.58359565 77.86258934 413.57881356 75.94140625 416.64453125 C73.1523391 419.31277238 71.27346189 419.65867943 67.46484375 420.08984375 C62.55187096 419.5902194 61.1885129 418.20723122 57.77734375 414.71484375 C56.78326555 411.73260915 56.45843736 409.23480331 56.1640625 406.11328125 C55.16319025 381.57183588 55.16319025 381.57183588 45.2265625 360.24609375 C39.34178875 356.80134814 33.21445279 354.01394566 26.86083984 351.54248047 C25.40138324 350.96273382 23.95173459 350.35796295 22.51025391 349.73486328 C13.40395274 345.5269459 13.40395274 345.5269459 3.67773438 345.17773438 C-0.78370075 346.98785267 -4.40896162 349.80133592 -8.22265625 352.71484375 C-14.54747076 356.71484375 -14.54747076 356.71484375 -17.22265625 356.71484375 C-17.22265625 357.37484375 -17.22265625 358.03484375 -17.22265625 358.71484375 C-16.68898438 358.95589844 -16.1553125 359.19695312 -15.60546875 359.4453125 C-12.58188551 361.056238 -9.86373149 363.01902702 -7.09765625 365.02734375 C-6.49655029 365.46030762 -5.89544434 365.89327148 -5.27612305 366.33935547 C-3.96194087 367.28660691 -2.64875119 368.23523645 -1.33642578 369.18505859 C0.87788843 370.78761032 3.09495717 372.38629436 5.3125 373.984375 C8.39833937 376.20833324 11.47963065 378.43840967 14.55859375 380.671875 C17.06304487 382.48592498 19.57722607 384.28075494 22.12109375 386.0390625 C30.67958625 392.02295355 38.08751493 398.32250062 40.2421875 409.0234375 C41.52141704 418.23676486 40.10461545 426.00423365 34.5859375 433.57421875 C28.088493 441.26449864 19.51522303 447.17872552 11.58251953 453.3125 C9.81454504 454.68594408 8.05848813 456.07336567 6.3046875 457.46484375 C0.99780138 461.64903068 -4.21014744 465.4054813 -10.2421875 468.50390625 C-13.11902623 470.26292007 -15.1721702 472.62149154 -17.4609375 475.0703125 C-21.47056223 478.81322161 -27.49133191 481.78379724 -33.0078125 481.64453125 C-38.18508075 481.5581406 -41.84292449 481.55338595 -45.9140625 484.98046875 C-47.55897075 486.91316993 -49.1744117 488.87128138 -50.76171875 490.8515625 C-58.99865069 500.43516744 -72.02640266 504.94619326 -84.22265625 506.71484375 C-103.40619221 508.13937147 -122.02388982 507.57226379 -137.46875 494.8671875 C-143.45547823 489.34182181 -147.23833135 483.34830183 -147.78515625 475.08984375 C-147.91542746 471.08975127 -146.12966055 468.47740509 -143.79418945 465.3828125 C-141.13703748 462.56260708 -138.03131401 461.10140011 -134.53515625 459.52734375 C-133.83052246 459.19347656 -133.12588867 458.85960937 -132.39990234 458.515625 C-117.885149 451.71484375 -117.885149 451.71484375 -114.22265625 451.71484375 C-114.55265625 450.72484375 -114.88265625 449.73484375 -115.22265625 448.71484375 C-117.85105705 447.82742543 -117.85105705 447.82742543 -120.97265625 447.27734375 C-125.64106879 446.22264888 -128.8582389 445.31128988 -132.22265625 441.71484375 C-134.11297447 437.93420732 -133.82727056 433.82375321 -133.22265625 429.71484375 C-130.82914397 424.18646583 -126.34577394 422.08457809 -120.97265625 419.90234375 C-115.43284478 417.99314319 -110.03223488 416.47903347 -104.22265625 415.71484375 C-103.24683594 415.58078125 -102.27101562 415.44671875 -101.265625 415.30859375 C-86.78978455 413.79747399 -70.52870068 414.48016573 -57.22265625 420.71484375 C-52.64118036 422.24200238 -49.688501 420.18595067 -45.38671875 418.328125 C-40.84768726 416.01377932 -37.04284109 413.06232895 -33.22265625 409.71484375 C-39.89616245 404.13992457 -46.84863543 399.07170324 -53.98022461 394.10449219 C-54.67124268 393.62270508 -55.36226074 393.14091797 -56.07421875 392.64453125 C-56.76531738 392.16773926 -57.45641602 391.69094727 -58.16845703 391.19970703 C-60.22265625 389.71484375 -60.22265625 389.71484375 -62.17919922 388.06982422 C-67.33400398 383.78512675 -71.49283481 382.69576187 -78.09765625 382.08984375 C-93.54269719 380.18292713 -105.25622941 374.38937695 -115.44140625 362.1796875 C-122.19138205 352.83926046 -124.87719885 342.86626474 -126.53540039 331.58764648 C-127.63782862 325.25909406 -130.25516533 321.17280552 -134.16015625 316.15234375 C-135.33398509 314.59261435 -136.50581953 313.03138224 -137.67578125 311.46875 C-138.26681641 310.68516113 -138.85785156 309.90157227 -139.46679688 309.09423828 C-142.73269586 304.66856372 -145.76748902 300.08121755 -148.79467773 295.48999023 C-149.8883143 293.8642018 -151.0490724 292.28389757 -152.22265625 290.71484375 C-154.3532678 290.48209851 -154.3532678 290.48209851 -155.80859375 292.26171875 C-160.57042472 298.12563287 -164.21044897 304.10795266 -165.22265625 311.71484375 C-164.60596072 314.19818145 -163.69304811 316.04986824 -162.41552734 318.25927734 C-158.37445391 326.57796678 -158.86638173 337.0471863 -158.91015625 346.08984375 C-158.9143457 347.27505615 -158.91853516 348.46026855 -158.92285156 349.68139648 C-159.03120612 358.0690763 -159.63228361 365.68692166 -162.22265625 373.71484375 C-162.50109375 374.65199219 -162.77953125 375.58914063 -163.06640625 376.5546875 C-164.77914282 381.58215994 -166.87699811 385.46555137 -171.16015625 388.71484375 C-175.12722592 390.63827147 -178.95893847 390.54007945 -183.22265625 389.71484375 C-187.73453674 387.41090478 -189.13443316 384.36872018 -190.6640625 379.75390625 C-191.39221035 377.09591198 -191.88097844 374.44826625 -192.22265625 371.71484375 C-193.21265625 371.38484375 -194.20265625 371.05484375 -195.22265625 370.71484375 C-195.57328125 371.86984375 -195.92390625 373.02484375 -196.28515625 374.21484375 C-197.84657229 378.86949158 -199.67585191 383.38753 -201.59765625 387.90234375 C-201.87746338 388.57910156 -202.15727051 389.25585938 -202.44555664 389.953125 C-204.72160097 395.20702083 -207.36548512 399.84084367 -212.27734375 403.0625 C-217.88202556 404.94198165 -222.98166493 404.1418652 -228.28515625 401.71484375 C-239.6736323 395.37614158 -245.53731714 385.34777305 -249.09765625 373.02734375 C-253.22265236 352.72155934 -251.11529716 331.4441326 -240.22265625 313.71484375 C-236.44161551 308.81798154 -232.41204717 304.1562293 -227.22265625 300.71484375 C-226.56265625 300.71484375 -225.90265625 300.71484375 -225.22265625 300.71484375 C-225.29226562 299.8434375 -225.361875 298.97203125 -225.43359375 298.07421875 C-225.89443458 287.93572045 -223.95520837 280.62497926 -217.55859375 272.63671875 C-215.97265625 270.96484375 -215.97265625 270.96484375 -213.22265625 268.71484375 C-212.56265625 268.71484375 -211.90265625 268.71484375 -211.22265625 268.71484375 C-211.10535156 267.96976562 -210.98804688 267.2246875 -210.8671875 266.45703125 C-208.8501826 257.87559224 -200.84563401 250.37141588 -195.38671875 243.64453125 C-193.30271901 241.07243348 -191.2572872 238.47706086 -189.24609375 235.84765625 C-176.00624132 218.54926595 -176.00624132 218.54926595 -166.22265625 216.71484375 C-155.0160599 215.83011246 -147.14974058 216.24680908 -138.41015625 223.40234375 C-132.43541497 229.0487023 -128.15895749 235.70259562 -123.67431641 242.53271484 C-121.2017392 246.24948159 -118.6173516 249.88627719 -116.03515625 253.52734375 C-115.53483887 254.23640869 -115.03452148 254.94547363 -114.51904297 255.67602539 C-110.93649765 260.74371363 -107.27822718 265.74858571 -103.55078125 270.7109375 C-102.22265625 272.71484375 -102.22265625 272.71484375 -102.22265625 274.71484375 C-101.56265625 274.71484375 -100.90265625 274.71484375 -100.22265625 274.71484375 C-100.16078125 274.06902344 -100.09890625 273.42320312 -100.03515625 272.7578125 C-98.86709865 268.38321215 -96.57009185 264.87126955 -94.22265625 261.02734375 C-93.30564449 259.50281169 -92.388962 257.97808151 -91.47265625 256.453125 C-90.86164063 255.4482605 -90.86164063 255.4482605 -90.23828125 254.4230957 C-88.29119765 251.29632327 -88.29119765 251.29632327 -89.0078125 247.546875 C-89.42387719 246.20398218 -89.85041244 244.86430626 -90.28515625 243.52734375 C-90.51267578 242.81698975 -90.74019531 242.10663574 -90.97460938 241.37475586 C-96.34907237 222.30432048 -96.34907237 222.30432048 -108.22265625 207.71484375 C-122.1711031 202.18426424 -138.06868366 201.1132098 -152.90356445 200.015625 C-156.96105971 199.48937654 -159.17738764 197.72406862 -162.03515625 194.96484375 C-163.77512053 191.66806933 -163.66672613 189.39427986 -163.22265625 185.71484375 C-160.14573317 180.17638221 -160.14573317 180.17638221 -157.22265625 178.71484375 C-135.6355606 177.21413657 -105.51393774 179.91859812 -88.53515625 194.52734375 C-81.12186581 202.6855972 -72.22265625 218.62246061 -72.22265625 229.71484375 C-66.64688979 226.07156931 -66.64688979 226.07156931 -63.5859375 220.3984375 C-63.52686709 217.42219755 -63.80572914 214.66486579 -64.22265625 211.71484375 C-64.31015137 211.0609668 -64.39764648 210.40708984 -64.48779297 209.73339844 C-66.2148038 193.54296924 -66.2148038 193.54296924 -74.75 180.66796875 C-79.24603526 177.47974169 -83.9358093 175.5153275 -89.09765625 173.65234375 C-90.00515625 173.31291748 -90.91265625 172.97349121 -91.84765625 172.6237793 C-98.60187002 170.15268246 -105.4315092 168.10821559 -112.44873047 166.52514648 C-117.36403093 165.32479169 -119.99537359 163.59614013 -123.22265625 159.71484375 C-124.65569689 156.84876246 -124.5290978 154.90183592 -124.22265625 151.71484375 C-122.49429832 148.3861544 -121.2741021 146.26771983 -117.9206543 144.50439453 C-109.24488976 141.96549104 -98.12036958 147.06418852 -89.91015625 149.83984375 C-88.73114746 150.23582764 -87.55213867 150.63181152 -86.33740234 151.03979492 C-72.04258064 155.978167 -57.6023965 161.69528444 -50.22265625 175.71484375 C-46.75380527 184.47002821 -44.32375122 193.54177057 -42.22265625 202.71484375 C-38.82331447 201.25798299 -36.47913105 199.67092427 -34.22265625 196.71484375 C-33.28639622 191.31614954 -33.68925564 186.1436485 -34.22265625 180.71484375 C-34.33351563 179.44769531 -34.444375 178.18054688 -34.55859375 176.875 C-35.75779023 166.45556643 -37.80816979 159.36496539 -45.87744141 152.5144043 C-49.8771602 149.44528841 -54.19149336 147.02281196 -58.59765625 144.58984375 C-59.479375 144.09097656 -60.36109375 143.59210938 -61.26953125 143.078125 C-66.48367695 140.14994641 -71.75939838 137.41218115 -77.15234375 134.82788086 C-80.14236447 133.22039213 -81.67421031 131.74135172 -83.22265625 128.71484375 C-84.06414197 124.31942367 -83.77451784 121.57942691 -81.34765625 117.77734375 C-78.0007629 114.52888844 -75.47466413 114.31848038 -70.81738281 114.37988281 C-65.94907158 115.00834753 -61.8882211 117.31192188 -57.59765625 119.58984375 C-56.63778809 120.08581055 -55.67791992 120.58177734 -54.68896484 121.09277344 C-39.03739384 129.32823796 -21.78294562 138.61394897 -16.03515625 156.38671875 C-13.55770835 165.35972537 -12.2317474 174.47369324 -11.22265625 183.71484375 C-10.36285156 183.43769531 -9.50304687 183.16054687 -8.6171875 182.875 C0.13711405 180.19238415 9.02492417 177.90117191 18.2734375 179.015625 C20.74033524 179.30207586 22.38151787 179.40628614 24.77734375 178.71484375 C27.3835463 176.43013 29.49041201 174.01162396 31.63671875 171.29296875 C35.43823381 166.7145017 39.07070304 164.40754467 44.65234375 162.46484375 C49.90983131 160.37343193 52.75397894 158.14157941 56.19140625 153.71484375 C59.58869433 149.43057898 63.30373859 145.75232447 68.77734375 144.71484375 C68.85984375 143.51859375 68.94234375 142.32234375 69.02734375 141.08984375 C69.46886577 136.87231995 70.54304207 133.12230126 71.83984375 129.08984375 C75.66034986 116.11691641 74.66950421 104.89102317 68.36328125 93.0625 C63.3239369 85.41144065 56.64186967 83.16107547 48.3125 80.3828125 C45.04778021 79.28558946 42.33388246 77.90557367 39.40625 76.09765625 C34.27592501 73.14542035 29.4915833 72.66195426 23.65234375 72.40234375 C22.70230469 72.31017578 21.75226563 72.21800781 20.7734375 72.12304688 C15.34059222 71.82787938 15.34059222 71.82787938 10.74438477 74.40332031 C9.55965367 75.8116988 8.41541617 77.2551969 7.31542969 78.73071289 C2.80128322 84.55396183 -6.43071022 87.43435205 -13.53515625 88.52734375 C-28.92798105 89.60126176 -39.66411677 84.51678842 -52.20581055 76.38916016 C-62.04157294 70.12026463 -72.03620083 66.59191083 -83.75390625 66.57421875 C-85.21876567 66.55590077 -86.68360989 66.5363314 -88.1484375 66.515625 C-90.43955508 66.48662351 -92.72968269 66.46484226 -95.02099609 66.46435547 C-97.24534263 66.46101489 -99.46745007 66.42645692 -101.69140625 66.38671875 C-102.37174927 66.39378845 -103.05209229 66.40085815 -103.75305176 66.40814209 C-107.56185567 66.31108202 -109.13666587 65.78469288 -112.13085938 63.35253906 C-114.59788719 60.24168839 -115.22265625 58.6781499 -115.22265625 54.71484375 C-113.35975561 49.19656075 -111.01684147 46.07105953 -106.41015625 42.46484375 C-105.83539551 41.99796143 -105.26063477 41.5310791 -104.66845703 41.05004883 C-102.86386455 39.59106344 -101.04424353 38.1525245 -99.22265625 36.71484375 C-98.1217605 35.82891391 -97.02148466 34.94221312 -95.921875 34.0546875 C-92.39294517 31.22537363 -88.81445145 28.46370282 -85.22265625 25.71484375 C-84.51367188 25.16924805 -83.8046875 24.62365234 -83.07421875 24.06152344 C-29.44003601 -17.02244613 -29.44003601 -17.02244613 0 0 Z M-69.2890625 40.4921875 C-70.0426001 41.0605835 -70.7961377 41.62897949 -71.57250977 42.21459961 C-72.11705811 42.70968018 -72.66160645 43.20476074 -73.22265625 43.71484375 C-73.22265625 44.37484375 -73.22265625 45.03484375 -73.22265625 45.71484375 C-72.25328125 45.91078125 -71.28390625 46.10671875 -70.28515625 46.30859375 C-56.90842674 49.21342832 -45.76515546 54.74798379 -34.28515625 62.08984375 C-27.60239329 66.27584077 -22.35895885 68.49070013 -14.47265625 67.08984375 C-10.57428697 65.99830035 -7.98030998 64.7876579 -5.22265625 61.71484375 C0.01807376 52.22823418 1.39017766 42.01355677 -1.34765625 31.46484375 C-3.50738356 25.13634046 -7.10005142 20.7067878 -12.84765625 17.27734375 C-32.54286375 8.84184922 -54.61251861 29.41095247 -69.2890625 40.4921875 Z M20.77734375 36.71484375 C20.28234375 44.13984375 20.28234375 44.13984375 19.77734375 51.71484375 C27.75555733 51.87484286 27.75555733 51.87484286 35.65234375 51.02734375 C41.11547509 50.48103062 44.32598172 53.3402915 48.375 56.62109375 C52.73591822 59.91285146 57.11409304 61.50939758 62.27734375 63.15234375 C69.35169011 65.60813129 74.9141229 67.79586595 79.77734375 73.71484375 C80.53144531 74.59011719 81.28554688 75.46539062 82.0625 76.3671875 C93.9978762 91.13600261 95.86256956 106.39367859 94.77734375 124.71484375 C93.96193486 129.91439912 92.54284493 134.67350726 90.69921875 139.58984375 C89.35127483 144.15914518 89.4295854 148.63690941 89.31640625 153.375 C88.67844093 157.3276112 87.66439332 158.97264615 84.77734375 161.71484375 C82.48046875 162.54296875 82.48046875 162.54296875 80.02734375 162.96484375 C73.68193346 164.60267089 70.5188263 168.5281914 66.77734375 173.71484375 C66.19984375 174.82859375 65.62234375 175.94234375 65.02734375 177.08984375 C61.82370719 180.82741974 58.415768 180.97021854 53.70703125 181.92578125 C49.6563234 183.0167719 47.66704178 184.74487633 44.77734375 187.71484375 C47.26328127 190.304362 49.87374684 192.68569904 52.58984375 195.02734375 C59.12405017 200.73566535 64.48899151 206.10647687 68.77734375 213.71484375 C73.17588201 209.55406432 76.27883355 206.25271383 77.46484375 200.21484375 C79.08474404 195.89510966 80.65755869 195.18275371 84.54296875 193.02734375 C86.95791334 191.6087749 89.01568501 190.02398546 91.15234375 188.21484375 C92.12300781 187.395 92.12300781 187.395 93.11328125 186.55859375 C96.62382502 182.66897718 96.96674755 178.79418156 97.08984375 173.71484375 C97.38396389 169.71480985 97.52821021 168.07721981 99.83984375 164.71484375 C102.75755412 162.72831754 105.66526588 161.29981052 108.84765625 159.8046875 C112.92778533 157.5003231 115.12068061 154.12197906 117.08984375 149.90234375 C118.22473039 144.64059662 118.73780308 139.81870704 116.46484375 134.83984375 C114.90953781 132.73765499 114.90953781 132.73765499 113.203125 131.38671875 C110.80168966 128.57078909 111.25344691 125.70641879 111.3515625 122.1484375 C111.99247844 118.4852207 113.96095412 117.00725391 116.77734375 114.71484375 C119.86716455 110.87920414 120.23733099 107.70959754 120.0703125 102.9296875 C119.45553068 98.28193694 117.30082908 94.71268092 113.77734375 91.71484375 C111.52199432 90.86908771 109.26082037 90.27296506 106.93359375 89.65625 C104.11365825 88.42508251 103.18816438 87.45936619 101.77734375 84.71484375 C101.6103686 80.92151086 101.8460777 77.23069496 102.0625 73.44140625 C101.64121367 67.93582872 99.22601639 65.02218247 95.21484375 61.40234375 C90.26957902 57.97869894 84.90040787 58.47081314 79.11328125 58.4609375 C74.91231942 58.32139506 73.24023648 58.08912382 69.859375 55.35546875 C67.77734375 52.71484375 67.77734375 52.71484375 65.83984375 49.71484375 C63.01047281 45.5993951 60.06639357 42.57323743 55.27734375 40.77734375 C52.10919591 40.69814005 49.76999389 41.6973427 46.77734375 42.71484375 C40.70623111 43.54813372 36.82437873 41.49215781 31.51171875 38.89453125 C27.85687372 37.31772668 24.73021703 36.93859129 20.77734375 36.71484375 Z M-35.57470703 225.21826172 C-37.15158278 226.65029851 -38.744782 228.06147559 -40.34375 229.46875 C-58.84959381 245.89317165 -78.00224902 267.53598008 -85.22265625 291.71484375 C-85.22265625 292.70484375 -85.22265625 293.69484375 -85.22265625 294.71484375 C-74.57650228 296.13433095 -64.44036044 295.94266996 -53.82983398 294.42651367 C-43.39206197 292.95376358 -43.39206197 292.95376358 -40.33203125 294.9453125 C-38.8904281 297.24477105 -39.05044473 298.37016475 -39.47265625 301.02734375 C-39.5809375 301.76597656 -39.68921875 302.50460937 -39.80078125 303.265625 C-40.09643375 304.982052 -40.41766879 306.69417681 -40.7578125 308.40234375 C-41.36792844 312.75006073 -41.41344483 317.01701741 -41.41015625 321.40234375 C-41.41080078 322.28631836 -41.41144531 323.17029297 -41.41210938 324.08105469 C-41.36065062 330.45492322 -40.81395796 336.52013352 -39.22265625 342.71484375 C-15.70882031 335.99660491 3.29368357 320.1802794 20.77734375 303.71484375 C21.43734375 303.09738281 22.09734375 302.47992188 22.77734375 301.84375 C27.9258653 296.87399656 32.34309893 291.319133 36.77734375 285.71484375 C37.53402344 284.78671875 38.29070312 283.85859375 39.0703125 282.90234375 C50.55564411 268.35293916 57.22846116 253.48634967 55.77734375 234.71484375 C53.335758 223.20230333 43.98403657 213.52900784 34.77734375 206.71484375 C9.05822859 191.68710495 -16.00979133 207.42632827 -35.57470703 225.21826172 Z M-172.09765625 248.46484375 C-172.52675293 248.98272461 -172.95584961 249.50060547 -173.39794922 250.03417969 C-177.10022065 254.52219989 -180.69479918 259.08891197 -184.22265625 263.71484375 C-182.51742574 264.85166409 -180.81113979 265.98691449 -179.1015625 267.1171875 C-178.33714844 267.62378906 -177.57273437 268.13039063 -176.78515625 268.65234375 C-176.02332031 269.15636719 -175.26148438 269.66039062 -174.4765625 270.1796875 C-172.34240321 271.63328299 -170.27510853 273.14862163 -168.22265625 274.71484375 C-165.82356494 271.6095481 -163.42992603 268.5004346 -161.046875 265.3828125 C-159.24413906 263.02825666 -157.41499547 260.69990115 -155.5546875 258.390625 C-154.74386719 257.36324219 -153.93304688 256.33585937 -153.09765625 255.27734375 C-152.35257813 254.35050781 -151.6075 253.42367188 -150.83984375 252.46875 C-148.93600258 249.22670164 -148.75240229 247.41553796 -149.22265625 243.71484375 C-151.02259399 241.01493713 -152.30642925 239.17295725 -155.22265625 237.71484375 C-163.96314404 236.72535457 -166.90877625 242.19840081 -172.09765625 248.46484375 Z M-135.22265625 265.71484375 C-136.58442206 267.69559402 -137.91858741 269.69564038 -139.22265625 271.71484375 C-135.42847015 277.2730311 -131.62734917 282.82640226 -127.82128906 288.37646484 C-126.49689423 290.31370578 -125.18096827 292.2560622 -123.87109375 294.203125 C-123.26523438 295.09386719 -122.659375 295.98460937 -122.03515625 296.90234375 C-121.52597656 297.65902344 -121.01679688 298.41570312 -120.4921875 299.1953125 C-120.07324219 299.69675781 -119.65429688 300.19820313 -119.22265625 300.71484375 C-118.56265625 300.71484375 -117.90265625 300.71484375 -117.22265625 300.71484375 C-115.41811979 299.05989235 -115.41811979 299.05989235 -114.22265625 296.71484375 C-114.38852204 291.39738166 -117.83249412 287.58672855 -120.84765625 283.46484375 C-121.38946533 282.71211182 -121.93127441 281.95937988 -122.48950195 281.18383789 C-128.11340337 273.2580498 -128.11340337 273.2580498 -134.22265625 265.71484375 C-134.55265625 265.71484375 -134.88265625 265.71484375 -135.22265625 265.71484375 Z M-203.09765625 288.40234375 C-204.76950794 291.83892778 -205.00118431 295.02745176 -204.22265625 298.71484375 C-202.46966331 301.73388715 -200.39243224 304.12995576 -197.22265625 305.71484375 C-192.66359581 306.2444751 -192.66359581 306.2444751 -188.46484375 304.66796875 C-186.28638801 302.87889882 -184.49307813 301.2556875 -183.22265625 298.71484375 C-182.71884939 292.98233463 -182.71884939 292.98233463 -184.91015625 287.83984375 C-191.01879978 282.22649565 -197.02391787 282.93597921 -203.09765625 288.40234375 Z M-97.5546875 307.08203125 C-99.27274878 309.2306529 -100.24141809 311.15082577 -101.22265625 313.71484375 C-101.69832031 314.70677734 -101.69832031 314.70677734 -102.18359375 315.71875 C-106.23985597 324.92907017 -105.47864393 333.33545538 -102.22265625 342.71484375 C-97.92735853 350.58955623 -91.00288072 357.18970117 -82.45703125 360.11328125 C-74.06494594 362.37268883 -66.28261494 362.29513518 -58.47265625 358.3125 C-53.59387152 355.77746397 -53.59387152 355.77746397 -50.22265625 351.71484375 C-50.52751097 349.95819839 -50.84176358 348.20269244 -51.2019043 346.45654297 C-53.83083571 333.59620829 -53.51878415 320.78395505 -53.22265625 307.71484375 C-53.8554248 307.72531738 -54.48819336 307.73579102 -55.14013672 307.74658203 C-58.12595758 307.78924433 -61.11162097 307.81653986 -64.09765625 307.83984375 C-65.18288574 307.85080078 -66.26811523 307.86175781 -67.38623047 307.87304688 C-74.20708077 307.8850819 -80.62858805 307.31294043 -87.34765625 306.21484375 C-92.6252951 305.36770034 -92.6252951 305.36770034 -97.5546875 307.08203125 Z M-215.22265625 318.71484375 C-224.83385178 328.05906162 -229.26198124 337.3338619 -229.46386719 350.75927734 C-229.50034681 361.72951141 -229.08608521 370.72138511 -222.22265625 379.71484375 C-219.85995601 377.35214351 -219.04522737 374.92977376 -217.86499023 371.84863281 C-212.09993538 356.85160366 -212.09993538 356.85160366 -207.22265625 353.71484375 C-202.64724356 351.7303274 -197.98007301 350.19911347 -193.22265625 348.71484375 C-187.4554241 346.73750701 -184.01714995 344.30383115 -181.22265625 338.71484375 C-180.94166938 333.84440467 -181.59194839 330.27824756 -183.22265625 325.71484375 C-184.34542969 325.74964844 -185.46820313 325.78445313 -186.625 325.8203125 C-197.70721645 326.06287134 -206.08361887 325.51053821 -215.22265625 318.71484375 Z M-44.22265625 373.71484375 C-40.18985156 378.04195569 -35.76277671 381.35172597 -30.91015625 384.71484375 C-30.18892578 385.22273438 -29.46769531 385.730625 -28.72460938 386.25390625 C-23.98613181 389.56871567 -19.15674645 392.69952008 -14.22265625 395.71484375 C-12.51515645 394.4342189 -10.84892029 393.09716818 -9.22265625 391.71484375 C-9.22265625 391.05484375 -9.22265625 390.39484375 -9.22265625 389.71484375 C-10.76772688 388.3152142 -10.76772688 388.3152142 -12.80859375 386.921875 C-13.57051025 386.37684326 -14.33242676 385.83181152 -15.11743164 385.27026367 C-15.93590576 384.6951001 -16.75437988 384.11993652 -17.59765625 383.52734375 C-18.41806396 382.94380127 -19.23847168 382.36025879 -20.08374023 381.7590332 C-22.45924283 380.0717011 -24.84066942 378.39300263 -27.22265625 376.71484375 C-28.35210206 375.91091375 -29.48109395 375.10634513 -30.609375 374.30078125 C-37.24935685 369.28558497 -37.24935685 369.28558497 -44.22265625 373.71484375 Z M0.58984375 410.15234375 C0.03466064 410.59884277 -0.52052246 411.0453418 -1.0925293 411.50537109 C-2.81407288 412.8950479 -4.51853904 414.30388168 -6.22265625 415.71484375 C-7.31799973 416.60541119 -8.41432297 417.49477522 -9.51171875 418.3828125 C-12.09307036 420.48057756 -14.66275611 422.59099874 -17.22265625 424.71484375 C-16.0737812 427.14024663 -15.02648322 428.94898575 -13.28515625 431.02734375 C-10.88162226 434.15922138 -9.65944232 437.05103927 -8.22265625 440.71484375 C-3.29699591 437.04474389 1.5949116 433.33339233 6.46484375 429.58984375 C7.01100342 429.17041504 7.55716309 428.75098633 8.11987305 428.31884766 C9.67538456 427.12142761 11.22644389 425.91823083 12.77734375 424.71484375 C13.71191406 423.99554688 14.64648438 423.27625 15.609375 422.53515625 C18.52993715 420.0829365 18.7274754 419.24344826 19.08984375 415.40234375 C18.72858433 411.13948264 17.75742321 409.69492321 14.77734375 406.71484375 C9.05601239 403.85417807 5.0314306 406.42687862 0.58984375 410.15234375 Z M-88.22265625 441.71484375 C-90.9228435 445.57521376 -92.23599778 449.61246715 -93.53515625 454.08984375 C-95.55929114 461.06423133 -98.14435156 466.40154524 -104.67602539 470.10644531 C-107.45194851 471.39012643 -110.24807714 472.54224349 -113.09765625 473.65234375 C-114.0721875 474.05001953 -115.04671875 474.44769531 -116.05078125 474.85742188 C-118.43497448 475.82746128 -120.82482098 476.7791577 -123.22265625 477.71484375 C-120.71008302 480.43492861 -118.74153378 482.21334802 -115.22265625 483.40234375 C-114.56265625 483.63308594 -113.90265625 483.86382812 -113.22265625 484.1015625 C-101.10268952 487.81803667 -85.31565644 487.29280751 -73.96484375 481.578125 C-69.83998528 479.16561553 -66.31734519 476.38978687 -63.22265625 472.71484375 C-62.94098784 469.57322713 -62.94098784 469.57322713 -65.09765625 466.96484375 C-69.12179099 460.81028474 -69.50620234 454.89362404 -69.34765625 447.77734375 C-69.33863281 446.99810547 -69.32960937 446.21886719 -69.3203125 445.41601562 C-69.29699316 443.51548928 -69.26113211 441.61512367 -69.22265625 439.71484375 C-76.7701068 437.06475578 -81.78411968 436.30061982 -88.22265625 441.71484375 Z M-48.22265625 444.71484375 C-49.99363298 448.25679721 -49.25116296 451.98650694 -48.22265625 455.71484375 C-45.76628845 458.65050283 -44.02440823 460.3207105 -40.22265625 461.15234375 C-36.66474914 461.36797448 -34.40662146 460.82282333 -31.34765625 459.02734375 C-28.22316359 455.62716056 -27.15427464 453.35600236 -27.34765625 448.71484375 C-28.35734792 445.25304375 -29.7621304 443.32449238 -32.22265625 440.71484375 C-38.86167715 437.3953333 -43.56508054 439.94366863 -48.22265625 444.71484375 Z " fill="#000000" transform="translate(317.22265625,5.28515625)"/>
<path d="M0 0 C2.25 -0.0625 2.25 -0.0625 5 1 C6.85427295 3.76351103 7.8551219 6.89075211 9 10 C9.52581493 11.36257012 10.05327983 12.72450421 10.58203125 14.0859375 C15 25.57627648 15 25.57627648 15 28 C16.794375 28.5259375 16.794375 28.5259375 18.625 29.0625 C24.84074214 31.11786521 34.30253514 34.30253514 39 39 C39.375 41.375 39.375 41.375 39 44 C36.08110471 46.20382456 33.12168265 47.31707231 29.671875 48.3828125 C23.11053267 50.59206115 17.02007975 52.68834709 13.27099609 58.83447266 C10.42578133 65.22108196 8.45036372 71.84684404 6.75170898 78.62084961 C6 81 6 81 4 83 C1.51977539 82.95043945 1.51977539 82.95043945 -1 82 C-2.33032227 79.74682617 -2.33032227 79.74682617 -3.31640625 76.79296875 C-3.68830078 75.73142578 -4.06019531 74.66988281 -4.44335938 73.57617188 C-4.81267578 72.45791016 -5.18199219 71.33964844 -5.5625 70.1875 C-6.30353242 67.98999972 -7.05448893 65.79581542 -7.81640625 63.60546875 C-8.14068604 62.62731201 -8.46496582 61.64915527 -8.79907227 60.64135742 C-10.9596891 55.88923026 -13.97652501 53.71826725 -18.73046875 51.81640625 C-19.61541016 51.44580078 -20.50035156 51.07519531 -21.41210938 50.69335938 C-23.27106987 49.93590819 -25.13310666 49.18596587 -26.99804688 48.44335938 C-27.87912109 48.07146484 -28.76019531 47.69957031 -29.66796875 47.31640625 C-30.47516357 46.99099854 -31.2823584 46.66559082 -32.11401367 46.33032227 C-34 45 -34 45 -34.85400391 42.48706055 C-35 40 -35 40 -33.66796875 37.890625 C-31.15728646 36.11145922 -29.43790111 35.38981361 -26.55078125 34.484375 C-16.54385894 31.37877769 -16.54385894 31.37877769 -9.21923828 24.28417969 C-6.35570394 18.21741815 -4.40105721 11.89018053 -2.73583984 5.40087891 C-2 3 -2 3 0 0 Z " fill="#000000" transform="translate(45,116)"/>
<path d="M0 0 C0.99 0.33 1.98 0.66 3 1 C4.18177362 3.62812343 5.18610751 6.16211969 6.125 8.875 C6.52138672 9.97521484 6.52138672 9.97521484 6.92578125 11.09765625 C7.98641354 14.05342846 9.00695934 17.02087801 10 20 C11.68792916 21.07007593 11.68792916 21.07007593 13.78125 21.8671875 C14.54050781 22.19589844 15.29976562 22.52460937 16.08203125 22.86328125 C17.6912423 23.53660219 19.30323963 24.20330311 20.91796875 24.86328125 C23.06584624 25.80047058 25.05354119 26.69358264 27 28 C28.03125 30.7578125 28.03125 30.7578125 28 33 C25.07128672 35.11518181 22.57595016 36.79778799 19.140625 38.00390625 C13.10001039 40.2263824 13.10001039 40.2263824 8.90136719 44.90283203 C7.31035185 48.61602722 6.16305458 52.40819076 5.0859375 56.296875 C4 60 4 60 2 62 C0.03515625 61.9765625 0.03515625 61.9765625 -2 61 C-3.37890625 58.5234375 -3.37890625 58.5234375 -4.5625 55.375 C-4.95566406 54.35148437 -5.34882813 53.32796875 -5.75390625 52.2734375 C-6.62145814 49.99441404 -7.4131902 47.6856885 -8.14453125 45.359375 C-10.6481031 40.82659229 -13.4686868 39.78171525 -18.125 37.875 C-23.75993176 35.53282837 -23.75993176 35.53282837 -26 34 C-26.9921875 31.2578125 -26.9921875 31.2578125 -27 29 C-21 26 -15 23 -9 20 C-7.65691722 16.44588122 -6.46489471 12.8723207 -5.29882812 9.2578125 C-5.04681641 8.505 -4.79480469 7.7521875 -4.53515625 6.9765625 C-4.312229 6.28643066 -4.08930176 5.59629883 -3.85961914 4.88525391 C-2.89390158 2.76731269 -1.72658386 1.53894433 0 0 Z " fill="#000000" transform="translate(136,11)"/>
<path d="M0 0 C4.745229 2.66476479 7.72349256 6.00195269 9.59375 11.11328125 C11.10776441 17.37120748 10.70619367 22.38596144 7.59375 28.11328125 C3.16133132 33.23348903 -1.4800563 35.82545892 -8.21875 36.48828125 C-13.5783847 36.32648096 -17.97928376 34.30062297 -21.94921875 30.72265625 C-25.37606203 26.90388661 -27.36177362 23.14879429 -27.4375 17.98046875 C-27.01212511 11.70618914 -25.38496629 6.94844495 -20.78515625 2.5703125 C-14.65708878 -1.97796211 -7.13889971 -2.6307309 0 0 Z " fill="#000000" transform="translate(491.40625,223.88671875)"/>
<path d="M0 0 C3.08095872 2.61881491 3.85615133 4.51451074 5 8.375 C5 16.18535671 -0.97339518 21.57919655 -5.7578125 27.2734375 C-7.70655234 29.64315947 -9.48893443 32.05320968 -11.25 34.5625 C-13.52526668 37.60450039 -15.10448792 39.33491257 -19 40 C-23.6054095 40 -25.43901415 39.48937063 -28.9375 36.4375 C-30.95822482 33.56915571 -31.92033008 30.9079358 -31.66796875 27.3203125 C-29.13686146 18.52804508 -18.66998613 4.76900241 -10.984375 -0.33984375 C-7.2603664 -1.57873638 -3.72827473 -1.04857727 0 0 Z " fill="#000000" transform="translate(283,253)"/>
<path d="M0 0 C2.87029869 1.79393668 4.49131638 2.98263276 6 6 C6.58931738 10.96710366 6.58572886 13.89009413 3.5 17.9375 C1.13191734 20.38395892 -0.70160331 21.53190058 -4.0625 22.125 C-9.15182162 21.96343423 -11.18540511 20.68945041 -14.8125 17.3125 C-16.55753327 13.91427732 -16.67523004 10.69174684 -16 7 C-11.8769902 0.46005343 -7.39591663 -1.08992456 0 0 Z " fill="#000000" transform="translate(304,231)"/>
<path d="M0 0 C1.875 1.0625 1.875 1.0625 3 3 C3.45542393 7.20891784 3.48265734 9.29495125 1.05859375 12.8359375 C0.19363281 13.67382812 -0.67132813 14.51171875 -1.5625 15.375 C-2.40941406 16.22835937 -3.25632812 17.08171875 -4.12890625 17.9609375 C-7.53192777 20.37777727 -9.85764796 20.85362714 -14 21 C-16.5 19.5 -16.5 19.5 -18 17 C-18.31220615 13.81549729 -18.32350948 12.79347288 -17 10 C-8.11196172 -0.66220096 -8.11196172 -0.66220096 0 0 Z " fill="#000000" transform="translate(349,237)"/>
<path d="M0 0 C2.375 2.125 2.375 2.125 4 5 C3.78466237 10.11947852 2.24243449 12.35630553 -1.4375 15.8125 C-2.64212891 16.96685547 -2.64212891 16.96685547 -3.87109375 18.14453125 C-6.48019565 20.41851914 -7.46732536 20.95466599 -10.9375 21.25 C-14 21 -14 21 -15.875 19.9375 C-17.66132524 16.86105097 -17.35278416 14.4947681 -17 11 C-14.8828125 8.1640625 -14.8828125 8.1640625 -12.125 5.625 C-11.22007812 4.77164062 -10.31515625 3.91828125 -9.3828125 3.0390625 C-6.14406175 0.26754137 -4.26616178 -0.60945168 0 0 Z " fill="#000000" transform="translate(337,274)"/>
<path d="M0 0 C2.5 1.5625 2.5 1.5625 4 4 C4.45377473 7.63019782 4.43699866 10.02317947 2.9375 13.375 C0.03326481 15.81081016 -2.25957491 15.93550991 -6 16 C-8.94755732 14.65437601 -10.54277272 13.91445456 -12 11 C-12.35173852 7.20122401 -12.52701444 4.85639847 -10.5 1.5625 C-6.97873756 -0.63828902 -4.04560357 -0.80414661 0 0 Z " fill="#000000" transform="translate(152,114)"/>
</svg>
