<?xml version="1.0" encoding="UTF-8"?>
<svg version="1.1" xmlns="http://www.w3.org/2000/svg" width="512" height="512">
<path d="M0 0 C5.20689991 4.33552776 10.19588441 8.88717375 15.07421875 13.5859375 C15.64849609 14.13830078 16.22277344 14.69066406 16.81445312 15.25976562 C23.63916665 21.86313709 30.10056915 28.54901268 36 36.0078125 C38.10529469 38.62456296 40.3093003 41.10661197 42.57421875 43.5859375 C45.66665129 46.97263265 48.59061587 50.4374677 51.44921875 54.0234375 C62.74864903 67.87938827 75.81348224 79.94697179 93.07421875 85.5859375 C93.97269531 85.90304688 94.87117187 86.22015625 95.796875 86.546875 C115.77957159 92.40990038 139.51961124 89.92803339 157.70263672 79.99755859 C164.3456503 76.09229323 169.6681741 71.02243874 175.07421875 65.5859375 C175.94820313 64.74804688 176.8221875 63.91015625 177.72265625 63.046875 C182.83534452 58.09150022 187.40690911 52.87418271 191.8515625 47.31640625 C194.76581466 43.73633198 197.85039437 40.33096947 200.95703125 36.91796875 C202.85473044 34.82769861 204.7215529 32.71607635 206.57421875 30.5859375 C237.07717163 -4.35508935 272.92538117 -27.76016078 319.92041016 -31.26904297 C334.69367908 -32.26375185 348.03742028 -30.43284592 359.69921875 -20.7890625 C368.41755695 -12.68702062 373.22613647 -1.8927959 374.06640625 9.92578125 C374.10480725 23.00132316 369.12121383 34.25993982 360.140625 43.68359375 C351.22028413 51.8957034 340.35585076 54.47466815 328.51171875 54.9609375 C310.98583382 55.94589622 296.52628549 61.99019307 284.07421875 74.5859375 C283.22859375 75.4109375 282.38296875 76.2359375 281.51171875 77.0859375 C280.70734375 77.9109375 279.90296875 78.7359375 279.07421875 79.5859375 C278.42066406 80.21757812 277.76710938 80.84921875 277.09375 81.5 C272.12296722 86.34244932 267.67114269 91.40776234 263.33203125 96.8203125 C260.40004043 100.41174762 257.30427021 103.83435513 254.18359375 107.26171875 C252.32795218 109.30636085 250.50665499 111.37377899 248.69921875 113.4609375 C243.93458156 118.9352015 238.99227923 124.24988634 234.07421875 129.5859375 C235.16999104 132.87325438 235.85226476 133.46597506 238.44921875 135.5859375 C272.96639666 165.13705607 293.73868573 208.92134936 297.7578125 253.9453125 C300.12209952 285.54996977 294.76746083 316.9627993 281.07421875 345.5859375 C280.69249512 346.38515625 280.31077148 347.184375 279.91748047 348.0078125 C267.20375715 374.19631022 248.28583561 396.14424395 225.07421875 413.5859375 C224.22988281 414.2253125 223.38554687 414.8646875 222.515625 415.5234375 C202.87216332 429.83368277 180.51093383 438.7216469 157.07421875 444.5859375 C156.31189941 444.7809082 155.54958008 444.97587891 154.76416016 445.17675781 C132.1532669 450.65532959 103.62246818 449.95405604 81.07421875 444.5859375 C79.97980469 444.35245605 79.97980469 444.35245605 78.86328125 444.11425781 C48.46227851 437.61643257 20.77136992 422.57959001 -1.890625 401.46875 C-3.58487688 399.90132312 -5.30277186 398.45104543 -7.11328125 397.0234375 C-10.79287807 393.83445359 -13.82080342 390.32916077 -16.92578125 386.5859375 C-17.36728516 386.06209473 -17.80878906 385.53825195 -18.26367188 384.99853516 C-25.79780302 376.02969162 -32.31901641 366.87379716 -37.92578125 356.5859375 C-38.44350098 355.64113525 -38.44350098 355.64113525 -38.97167969 354.67724609 C-46.42133319 340.90063334 -51.87551586 326.44473634 -55.73828125 311.2734375 C-55.93317139 310.51063477 -56.12806152 309.74783203 -56.32885742 308.96191406 C-59.44816006 296.0007923 -60.30335817 283.22723308 -60.23828125 269.9609375 C-60.2361261 269.16846619 -60.23397095 268.37599487 -60.23175049 267.55950928 C-60.17852856 255.34523021 -59.67440722 243.53179229 -56.92578125 231.5859375 C-56.73773926 230.73531738 -56.54969727 229.88469727 -56.35595703 229.00830078 C-47.63742649 190.65925116 -26.07961103 155.81669303 4.07421875 130.5859375 C0.7947789 126.63379204 -2.55812517 122.91924737 -6.23828125 119.3359375 C-10.36506557 115.264361 -13.98846228 110.92766798 -17.609375 106.40625 C-20.74964573 102.58285124 -24.10460175 98.97681588 -27.45703125 95.33984375 C-29.8803524 92.63661367 -32.16015988 89.85945298 -34.42578125 87.0234375 C-46.89559938 71.66587201 -61.91376329 58.86659618 -81.92578125 55.5859375 C-84.5970068 55.38251752 -87.25150002 55.21028588 -89.92578125 55.0859375 C-102.65257024 54.48212274 -113.06291364 51.68626426 -122.73828125 43.0859375 C-123.82109375 41.8484375 -123.82109375 41.8484375 -124.92578125 40.5859375 C-125.77140625 39.6578125 -126.61703125 38.7296875 -127.48828125 37.7734375 C-135.37420498 28.0772231 -136.96319619 16.76259534 -135.92578125 4.5859375 C-134.31172767 -3.65857483 -131.59365387 -10.21096704 -125.92578125 -16.4140625 C-125.42433594 -17.01734375 -124.92289063 -17.620625 -124.40625 -18.2421875 C-94.92880459 -51.23397555 -27.72197224 -22.48192197 0 0 Z M-109.92578125 -2.5390625 C-114.33463533 3.08352317 -115.73346113 8.45143187 -114.92578125 15.5859375 C-113.7651454 22.07035955 -110.29241681 25.63194627 -105.47265625 29.921875 C-100.17462694 33.38347084 -94.74177367 33.79499337 -88.55078125 33.9609375 C-59.81662966 35.35792355 -38.87476098 49.94306093 -19.92578125 70.5859375 C-17.55613842 73.34511066 -15.26481943 76.14447646 -13.0078125 78.99609375 C-10.15637254 82.54300687 -7.10548841 85.8893734 -4.04296875 89.25390625 C-2.14526956 91.34417639 -0.2784471 93.45579865 1.57421875 95.5859375 C13.65854021 109.46184135 13.65854021 109.46184135 27.07421875 122.0234375 C30.89566388 125.28758855 30.89566388 125.28758855 31.34765625 128.57421875 C31.38117188 129.34121094 31.4146875 130.10820312 31.44921875 130.8984375 C31.52269531 132.03732422 31.52269531 132.03732422 31.59765625 133.19921875 C30.39513551 138.68235434 23.90473794 142.51514588 19.69921875 146.0234375 C19.12413574 146.5078833 18.54905273 146.9923291 17.95654297 147.49145508 C15.62117567 149.4585148 13.28043144 151.41708218 10.91796875 153.3515625 C6.46686874 157.03383615 2.75965057 161.14431557 -0.92578125 165.5859375 C-1.86744141 166.69582031 -1.86744141 166.69582031 -2.828125 167.828125 C-31.12688374 202.01078407 -41.69943369 243.75830961 -38.72363281 287.56152344 C-34.59962972 328.66149392 -11.6148781 366.87249948 19.94921875 392.83984375 C38.80340683 407.76392261 60.79818003 417.82775371 84.07421875 423.5859375 C85.04705811 423.8336792 85.04705811 423.8336792 86.03955078 424.08642578 C106.86724435 429.14301119 132.31957244 428.71278424 153.07421875 423.5859375 C153.79496582 423.41964844 154.51571289 423.25335938 155.25830078 423.08203125 C167.17039656 420.29919252 178.09985422 415.94778139 189.07421875 410.5859375 C190.23824219 410.01875 191.40226562 409.4515625 192.6015625 408.8671875 C229.00076718 390.16020231 256.16112417 356.81697442 269.20605469 318.3046875 C282.11055884 277.89283198 278.72420442 234.82415649 259.7578125 196.828125 C248.25896471 174.83012612 231.12245647 153.65957085 210.10546875 140.19140625 C207.88744334 138.43831309 207.0394385 137.22114062 206.07421875 134.5859375 C205.61464302 129.5306045 205.88582447 126.57143035 209.07421875 122.5859375 C210.26720254 121.50989234 211.47922642 120.4548102 212.703125 119.4140625 C216.97422099 115.7143087 221.01913982 111.83289746 225.01171875 107.8359375 C226.06093506 106.78660034 226.06093506 106.78660034 227.13134766 105.71606445 C231.72888569 101.0678222 235.95270066 96.31099675 239.99609375 91.171875 C243.07496595 87.34064682 246.40921052 83.75783012 249.734375 80.140625 C251.73256723 77.95895935 253.69570764 75.75582441 255.63671875 73.5234375 C256.19230469 72.88921875 256.74789063 72.255 257.3203125 71.6015625 C258.57261771 70.16238769 259.81359668 68.71332514 261.046875 67.2578125 C277.58816696 48.16477859 297.0886983 36.39918722 322.51171875 34.4609375 C323.42308594 34.40953613 324.33445312 34.35813477 325.2734375 34.30517578 C334.10296523 33.76139821 341.760307 32.19351956 348.07421875 25.5859375 C352.64023263 19.46947031 352.93233226 13.00547988 352.07421875 5.5859375 C349.99021001 -0.44671939 345.48202974 -5.07394395 340.07421875 -8.4140625 C334.33218763 -10.48386442 329.38431206 -10.63344344 323.32421875 -10.2890625 C322.40680908 -10.23903076 321.48939941 -10.18899902 320.54418945 -10.13745117 C282.54404535 -7.61978243 251.60777502 11.91535418 226.38671875 39.5859375 C224.94027751 41.24485033 223.50349477 42.91221288 222.07421875 44.5859375 C221.10988983 45.69966473 220.14500922 46.81291442 219.1796875 47.92578125 C214.56060369 53.26822134 210.00209613 58.64567685 205.57421875 64.1484375 C197.25355258 74.3465103 188.61393638 83.63025168 178.07421875 91.5859375 C177.29949219 92.19953125 176.52476562 92.813125 175.7265625 93.4453125 C165.37743604 101.25467003 152.77818908 106.2366969 140.07421875 108.5859375 C139.09582031 108.76898438 138.11742187 108.95203125 137.109375 109.140625 C109.40950887 112.91223335 81.99476824 108.40777492 59.44921875 91.6328125 C48.52918455 83.06185543 38.75058479 73.03997515 30.1484375 62.1640625 C27.33902856 58.67214179 24.31548914 55.39701932 21.29296875 52.08984375 C19.11771061 49.63501899 17.0980133 47.10377555 15.07421875 44.5234375 C-9.54484891 14.22304654 -41.14183154 -5.82720593 -80.19287109 -9.9074707 C-91.42896267 -10.95000718 -101.66434271 -11.4860976 -109.92578125 -2.5390625 Z " fill="#000000" transform="translate(137.92578125,64.4140625)"/>
<path d="M0 0 C20.45439443 16.24485745 33.95069108 36.64416946 41.015625 61.74609375 C41.3353125 62.83148438 41.655 63.916875 41.984375 65.03515625 C49.4903415 95.26752133 42.46600845 126.69285467 27.04345703 153.0859375 C24.42935585 157.30823869 21.29318829 161.03152202 18.015625 164.74609375 C17.32855469 165.56464844 16.64148438 166.38320313 15.93359375 167.2265625 C-2.59435234 188.75904038 -30.43519966 203.54200119 -58.984375 205.74609375 C-92.99962522 207.40876713 -122.30640516 198.12625931 -148.421875 176.12109375 C-169.70701798 156.68879761 -183.55514901 128.28364745 -185.10864258 99.4387207 C-186.20077476 65.71787169 -175.92342838 35.26968596 -152.70361328 10.42041016 C-112.3476736 -31.202592 -45.57996146 -34.42360963 0 0 Z M-131.984375 20.74609375 C-132.46261719 21.17519043 -132.94085938 21.60428711 -133.43359375 22.04638672 C-152.10201037 39.0411246 -162.65249639 61.76433628 -164.328125 86.9765625 C-164.95429978 113.40635655 -155.3926505 136.92096533 -137.60546875 156.34375 C-124.85153196 169.57670789 -108.79425319 178.32272531 -90.984375 182.74609375 C-90.13230469 182.97039062 -89.28023438 183.1946875 -88.40234375 183.42578125 C-64.37719749 188.81390929 -39.57974689 182.41211661 -18.984375 169.74609375 C-15.50498031 167.23509003 -12.23627334 164.54249569 -8.984375 161.74609375 C-8.36046875 161.25496094 -7.7365625 160.76382813 -7.09375 160.2578125 C9.97283525 146.61223195 20.16436359 124.02018877 23.015625 102.74609375 C25.16530742 75.89299745 18.68166162 51.34587317 1.33203125 30.46875 C-12.90141332 13.96055402 -31.69844373 3.19953327 -52.984375 -1.25390625 C-53.90089844 -1.44597656 -54.81742187 -1.63804687 -55.76171875 -1.8359375 C-83.30912285 -5.40875234 -111.1613365 2.01178596 -131.984375 20.74609375 Z " fill="#000000" transform="translate(326.984375,242.25390625)"/>
<path d="M0 0 C2.625 0.375 2.625 0.375 4.05859375 2.26171875 C6.22284303 6.56323166 7.75649896 11.0114406 9.3125 15.5625 C9.63283203 16.47708984 9.95316406 17.39167969 10.28320312 18.33398438 C12.625 25.09973014 12.625 25.09973014 12.625 27.375 C14.419375 27.9009375 14.419375 27.9009375 16.25 28.4375 C22.46574214 30.49286521 31.92753514 33.67753514 36.625 38.375 C36.66580783 40.37458364 36.66754356 42.37545254 36.625 44.375 C34.10543257 45.64839482 31.58441351 46.91876642 29.0625 48.1875 C28.35802734 48.54392578 27.65355469 48.90035156 26.92773438 49.26757812 C26.22841797 49.61884766 25.52910156 49.97011719 24.80859375 50.33203125 C24.10887451 50.68885986 23.40915527 51.04568848 22.68823242 51.41333008 C20.625 52.375 20.625 52.375 16.828125 53.5625 C12.14309608 56.21354075 11.45332719 59.58192494 9.9375 64.5625 C9.39657912 66.22417782 8.85103719 67.8843588 8.30078125 69.54296875 C7.90366943 70.75025635 7.90366943 70.75025635 7.49853516 71.98193359 C6.17129475 75.61793429 4.43483524 78.95642233 2.625 82.375 C0.375 82.4375 0.375 82.4375 -2.375 81.375 C-4.96382848 77.51674597 -6.23991993 72.958293 -7.39453125 68.5 C-9.78154776 59.83028603 -9.78154776 59.83028603 -16.0390625 53.7421875 C-19.43763239 51.96752135 -22.95083458 50.50529433 -26.52246094 49.1171875 C-30.21442517 47.63806635 -33.23055971 45.79883939 -36.375 43.375 C-36.5625 40.73046875 -36.5625 40.73046875 -36.375 38.375 C-32.46875 36.421875 -28.5625 34.46875 -24.65625 32.515625 C-23.94992432 32.14928955 -23.24359863 31.7829541 -22.51586914 31.40551758 C-20.375 30.375 -20.375 30.375 -18.23217773 29.6628418 C-14.58146249 28.32794592 -12.83042553 27.20192068 -10.92041016 23.73388672 C-9.60769901 20.41828657 -8.49296964 17.09352905 -7.4375 13.6875 C-6.67977173 11.39146911 -5.92073053 9.09587095 -5.16015625 6.80078125 C-4.83926025 5.78411377 -4.51836426 4.76744629 -4.18774414 3.7199707 C-3.06623751 0.48414276 -3.06623751 0.48414276 0 0 Z " fill="#000000" transform="translate(216.375,-0.375)"/>
<path d="M0 0 C14.68304687 9.14901097 30.01251543 27.59556547 38 43 C38.53255319 47.97049643 38.1529475 51.05881562 35 55 C31.57234748 57.57073939 28.16028704 57.43037452 24 57 C18.62580471 54.08989153 15.73671351 50.37725905 12.3125 45.5 C5.23696322 35.74951107 -2.60397536 27.02915387 -11.44140625 18.81640625 C-14.23955996 15.55540005 -15 12.75758777 -15 8.5 C-13.96937147 4.89280013 -12.8828049 3.07969326 -9.7890625 0.90234375 C-6.30327973 -0.8557694 -3.63557209 -1.16992458 0 0 Z " fill="#000000" transform="translate(123,94)"/>
<path d="M0 0 C2.04003906 0.69677734 2.04003906 0.69677734 4 2 C4.84277344 3.75244141 4.84277344 3.75244141 5.359375 5.8515625 C7.9693435 15.79689327 7.9693435 15.79689327 14.9765625 22.79296875 C17.80393784 24.20032553 20.68897637 25.30130268 23.6484375 26.39453125 C27 28 27 28 27.9765625 30.69921875 C27.98816406 31.83810547 27.98816406 31.83810547 28 33 C25.69989557 34.96432276 23.91328688 36.02822427 21.01171875 36.97265625 C14.37579816 39.12324752 14.37579816 39.12324752 9.74707031 44.00537109 C7.60575014 48.59019052 6.04251023 53.35230788 4.66333008 58.21582031 C4 60 4 60 2 62 C-0.04223633 61.87329102 -0.04223633 61.87329102 -2 61 C-2.8269043 59.26928711 -2.8269043 59.26928711 -3.32421875 57.02734375 C-5.8767181 46.43679649 -5.8767181 46.43679649 -13.234375 38.9609375 C-17.36305693 36.91195847 -21.60357756 35.36986391 -26 34 C-26 32.02 -26 30.04 -26 28 C-24.28103516 27.46439453 -24.28103516 27.46439453 -22.52734375 26.91796875 C-13.91681075 23.93716062 -13.91681075 23.93716062 -7.54003906 17.77246094 C-5.3022777 12.94002943 -3.82125157 7.90657738 -2.59985352 2.73071289 C-2 1 -2 1 0 0 Z " fill="#000000" transform="translate(27,205)"/>
<path d="M0 0 C5.12150137 2.70145127 9.06813096 6.80986163 10.90234375 12.3125 C11.65571173 18.97442539 11.3902247 24.12759686 7.40234375 29.65625 C4.00296015 33.40973606 -0.00825157 35.94079648 -5.078125 36.55078125 C-10.9139534 36.74703035 -15.36199465 35.86166687 -20.09765625 32.3125 C-24.7307325 27.25405447 -26.46794946 22.56062896 -26.37890625 15.7265625 C-25.76309676 10.44086436 -23.40689347 6.55627536 -19.59765625 2.9375 C-13.45571604 -1.05476114 -7.19434985 -2.35792472 0 0 Z " fill="#000000" transform="translate(482.09765625,182.6875)"/>
<path d="M0 0 C1.02222656 0.24105469 2.04445313 0.48210937 3.09765625 0.73046875 C6.29365044 1.94819969 7.82452141 3.14192984 9.9375 5.8125 C11.33338692 9.64928207 11.33155172 12.8792196 9.75 16.625 C6.62232162 20.39978425 5.2281946 21.68343054 0.1875 22.1875 C-5.54870866 21.94135672 -10.22582788 20.41958811 -14.5625 16.625 C-16.51910044 12.95637417 -16.97231932 9.82825423 -16.0625 5.8125 C-14.35658947 2.56847341 -12.35836067 0.2268228 -8.765625 -0.921875 C-5.55909329 -1.23696771 -3.12344349 -0.77789933 0 0 Z " fill="#000000" transform="translate(77.0625,70.1875)"/>
<path d="M0 0 C1.69384766 1.27929688 1.69384766 1.27929688 3 3 C3.2981028 5.92257643 3.41882117 8.58345783 3.375 11.5 C3.38660156 12.27214844 3.39820313 13.04429687 3.41015625 13.83984375 C3.38073555 19.49842539 3.38073555 19.49842539 1.69384766 21.72070312 C-1.11451496 23.84174956 -3.61899107 23.36225096 -7 23 C-8.69384766 21.72070312 -8.69384766 21.72070312 -10 20 C-10.2981028 17.07742357 -10.41882117 14.41654217 -10.375 11.5 C-10.38660156 10.72785156 -10.39820313 9.95570313 -10.41015625 9.16015625 C-10.38073555 3.50157461 -10.38073555 3.50157461 -8.69384766 1.27929688 C-5.88548504 -0.84174956 -3.38100893 -0.36225096 0 0 Z " fill="#000000" transform="translate(296,189)"/>
<path d="M0 0 C1.6953125 1.02734375 1.6953125 1.02734375 3 3 C3.29899615 5.740798 3.41906272 8.20316327 3.375 10.9375 C3.38660156 11.65357422 3.39820313 12.36964844 3.41015625 13.10742188 C3.39245673 16.29038549 3.18937908 18.64051995 1.6953125 21.4765625 C0 23 0 23 -3.5 23.4375 C-7 23 -7 23 -8.69384766 21.71679688 C-10.96566904 18.73073184 -10.42906958 15.09863076 -10.375 11.5 C-10.38660156 10.72785156 -10.39820313 9.95570313 -10.41015625 9.16015625 C-10.38073555 3.50157461 -10.38073555 3.50157461 -8.69384766 1.27929688 C-5.88548504 -0.84174956 -3.38100893 -0.36225096 0 0 Z " fill="#000000" transform="translate(332,173)"/>
<path d="M0 0 C2.81972931 2.36493426 2.97850831 3.8280665 3.4375 7.5 C3 11 3 11 1.3125 13.375 C-1.29641704 15.20829306 -2.81896986 15.8448278 -6 16 C-9.81263347 14.93600927 -10.75011007 14.3748349 -13 11 C-13.67092652 4.84984026 -13.67092652 4.84984026 -11.125 1.625 C-7.12931871 -1.43052099 -4.90999475 -1.11982336 0 0 Z " fill="#000000" transform="translate(310,56)"/>
</svg>
