<?xml version="1.0" encoding="UTF-8"?>
<svg version="1.1" xmlns="http://www.w3.org/2000/svg" width="512" height="512">
<path d="M0 0 C2.18047643 1.33067698 2.18047643 1.33067698 5.13671875 1.1015625 C7.40348389 -0.08327064 9.60961353 -1.31079292 11.82421875 -2.5859375 C33.06549574 -14.3254944 57.67668285 -16.93978712 81.13671875 -10.8984375 C87.92874111 -8.89920469 94.67172552 -6.54060301 100.67578125 -2.7421875 C103.82287847 -0.76696021 106.60419364 0.94274474 110.13671875 2.1015625 C114.1516046 1.00875333 116.89203349 -1.37132686 120.13671875 -3.8984375 C141.59880656 -15.90379287 167.54248276 -16.2826295 190.76171875 -9.90234375 C206.34145505 -4.78581671 218.77180611 3.43918173 230.13671875 15.1015625 C230.89597656 15.85179688 231.65523438 16.60203125 232.4375 17.375 C245.86950494 31.40688089 253.92834289 51.89255317 255.13671875 71.1015625 C255.97332031 71.00617188 256.80992187 70.91078125 257.671875 70.8125 C279.93864142 68.69185558 300.57526461 74.83841082 318.1875 88.62890625 C327.46197189 96.40472175 334.38050817 104.43023148 340.13671875 115.1015625 C340.85988281 116.42414063 340.85988281 116.42414063 341.59765625 117.7734375 C351.86199372 138.30211244 351.52004787 162.45395254 345.13671875 184.1015625 C343.54528712 188.85083131 341.48786978 193.3387589 339.26611328 197.82226562 C337.98935972 200.39895633 336.74986821 202.99235074 335.5078125 205.5859375 C328.91468877 219.19118721 321.58386066 232.27263905 313.83349609 245.24804688 C310.90106272 250.17959814 308.0203799 255.14138288 305.13671875 260.1015625 C306.35234497 260.11558105 306.35234497 260.11558105 307.5925293 260.12988281 C310.66642006 260.17450487 313.73939884 260.23638005 316.81274414 260.30908203 C318.7701158 260.3504199 320.72785997 260.37274617 322.68554688 260.39453125 C336.09677558 260.73578389 348.20719945 263.50309669 358.1015625 272.984375 C366.6184103 282.16744557 369.6793281 292.31113325 369.44921875 304.72265625 C368.26945462 317.47885586 361.96950634 326.21842358 352.5078125 334.33984375 C345.12923393 339.82211547 337.55529477 341.2526709 328.5234375 341.24682617 C327.7730571 341.25018478 327.0226767 341.2535434 326.2495575 341.25700378 C323.77442759 341.2664825 321.29936567 341.26845591 318.82421875 341.26953125 C317.09130832 341.27274797 315.35839815 341.27611235 313.62548828 341.27961731 C309.99071627 341.28560233 306.355968 341.28745805 302.72119141 341.28686523 C298.09617323 341.28676411 293.47131029 341.30036767 288.84632874 341.31763744 C285.26348188 341.32884154 281.68067141 341.33078181 278.09780884 341.33025551 C276.39482086 341.33142487 274.6918316 341.33578696 272.98886108 341.34358788 C264.00875432 341.38084549 255.62064651 341.19798207 246.81054688 339.15254211 C243.97795851 338.84741099 243.97795851 338.84741099 241.46630859 340.84855652 C239.10304227 343.12972682 237.15495278 345.50874227 235.13671875 348.1015625 C228.94755493 355.57745477 222.00648987 362.30377682 215.10693359 369.11083984 C208.21695664 375.86964513 208.21695664 375.86964513 201.71875 383 C197.09059986 388.40945405 192.06355788 393.43497595 187.04956055 398.48388672 C185.90019246 399.64480215 184.75531175 400.81017771 183.61499023 401.97998047 C172.22591449 413.662007 162.05453677 421.53030878 144.99609375 422.23046875 C133.89676774 421.7510476 124.39898591 417.51404067 116.40234375 409.83984375 C107.88950374 399.55104919 105.29486865 388.23442413 106.13671875 375.1015625 C108.99690005 359.02148808 121.86608706 348.20145269 132.95703125 337.21875 C134.31137772 335.87008347 134.31137772 335.87008347 135.69308472 334.49417114 C138.54685271 331.65249839 141.40375349 328.814012 144.26171875 325.9765625 C148.03825618 322.22706168 151.81107078 318.47386202 155.58203125 314.71875 C156.43636749 313.8727121 157.29070374 313.02667419 158.17092896 312.15499878 C162.50930014 307.83429149 166.69158252 303.45264195 170.65756226 298.78620911 C173.60774079 295.42618042 176.98968779 292.50305098 180.29296875 289.49609375 C182.40456381 287.28321455 182.40456381 287.28321455 182.0390625 284.66796875 C181.74128906 283.82105469 181.44351562 282.97414063 181.13671875 282.1015625 C180.83894531 281.17601562 180.54117187 280.25046875 180.234375 279.296875 C179.89277344 278.28367187 179.55117188 277.27046875 179.19921875 276.2265625 C175.11964285 262.99768347 174.84497865 249.77482733 174.88134766 236.06225586 C174.87859036 234.30625243 174.87490603 232.55025025 174.87037659 230.79425049 C174.86233277 227.04579412 174.86007859 223.29739715 174.86232376 219.54893303 C174.86517951 213.61896346 174.85072481 207.68911081 174.83334351 201.75917053 C174.78651942 184.90855614 174.76235602 168.05795208 174.75585938 151.20727539 C174.75211009 141.87576525 174.73410312 132.5443898 174.70076501 123.21293741 C174.68056689 117.31948724 174.67817125 111.42638469 174.68904519 105.53291404 C174.69165117 101.87241289 174.67765613 98.21211479 174.65896416 94.55166626 C174.65364115 92.85615847 174.65514085 91.16061332 174.66399956 89.46512032 C174.67512613 87.14882293 174.66168563 84.8338986 174.64224243 82.51768494 C174.6411529 81.22269042 174.64006336 79.9276959 174.63894081 78.59345913 C174.04719175 74.47909075 172.72934081 72.3134076 170.13671875 69.1015625 C166.49453224 66.99292821 163.29863203 66.59194047 159.13671875 67.1015625 C154.18759565 69.62464487 152.14412001 71.97301686 150.13671875 77.1015625 C149.72138598 80.25772734 149.7374617 83.37692887 149.76490784 86.5566864 C149.76108327 87.50143587 149.75725871 88.44618535 149.75331825 89.41956359 C149.74404144 92.58153634 149.75601986 95.74307028 149.76782227 98.9050293 C149.76535403 101.17375368 149.76151539 103.44247692 149.75640869 105.7111969 C149.74807038 110.59589624 149.74887873 115.480479 149.7565937 120.36517906 C149.76817702 128.09367133 149.75601298 135.82201368 149.73997498 143.55049133 C149.71953846 154.39068038 149.70666778 165.23083775 149.70288086 176.07104492 C149.70263599 176.75858913 149.70239112 177.44613333 149.70213883 178.1545122 C149.69959471 185.81954085 149.69902522 193.48456822 149.70007324 201.14959717 C149.70040626 203.92647298 149.70069166 206.70334879 149.70092773 209.48022461 C149.70102192 210.50800541 149.70102192 210.50800541 149.701118 211.55654945 C149.7017239 223.00272907 149.68660027 234.44881342 149.66009468 245.89496547 C149.6433191 253.5724877 149.6450803 261.24971119 149.6609174 268.92723215 C149.66672548 273.71221126 149.65595377 278.49704959 149.64067078 283.2820034 C149.63695294 285.49465366 149.64002822 287.7073278 149.65054131 289.91995621 C149.71600757 304.68688688 149.15721185 317.32191616 139.13671875 329.1015625 C129.48856666 338.29461307 119.21455451 341.64124499 106.09765625 341.375 C96.05811981 340.68193535 88.42071792 336.921243 81.13671875 330.1015625 C80.57210937 329.57820313 80.0075 329.05484375 79.42578125 328.515625 C70.4915891 319.21862302 68.98056722 306.90857318 69.00541687 294.60643005 C69.0022433 293.20110845 69.0022433 293.20110845 68.99900562 291.76739651 C68.9930299 288.63845755 68.99400402 285.5095592 68.99487305 282.38061523 C68.99184005 280.13318819 68.9883182 277.88576176 68.98434448 275.63833618 C68.97646771 270.80388254 68.97131526 265.96943625 68.96805382 261.13497734 C68.96213715 253.49182254 68.94559195 245.84871412 68.92671204 238.20558167 C68.92037515 235.58796981 68.91404952 232.97035792 68.90773487 230.35274601 C68.90456906 229.04210843 68.90140325 227.73147085 68.8981415 226.38111699 C68.8819907 219.60865442 68.86744168 212.83618868 68.85375977 206.0637207 C68.85238389 205.38440229 68.85100802 204.70508388 68.84959046 204.00518007 C68.82764233 192.98748631 68.81689862 181.96980405 68.80938902 170.95209228 C68.80131731 159.63132232 68.77776427 148.31066865 68.74143535 136.98994786 C68.72165271 130.63720271 68.70927768 124.28463027 68.71426964 117.93185234 C68.71890519 111.96046535 68.70517023 105.98940633 68.67725754 100.01808548 C68.67032859 97.82592025 68.67023741 95.63372122 68.67745781 93.44155693 C68.68631526 90.45054926 68.67070243 87.46063042 68.64897156 84.4697113 C68.65741409 83.60093603 68.66585663 82.73216076 68.674555 81.83705896 C68.60222238 76.4587924 67.72503233 73.36329925 64.13671875 69.1015625 C60.4752436 66.76228671 57.22476477 66.88380778 53.06640625 67.56640625 C49.98790946 68.42015941 48.28295003 69.76595787 46.13671875 72.1015625 C43.87288316 77.2754284 43.85814255 82.01258893 43.89189148 87.54995728 C43.88849462 88.96602314 43.88849462 88.96602314 43.88502914 90.41069639 C43.87973727 93.57025305 43.88856121 96.72961326 43.8972168 99.88916016 C43.89610377 102.15626081 43.89404573 104.42336117 43.89111328 106.69046021 C43.88639113 111.57186105 43.88751125 116.45321379 43.89288902 121.3346138 C43.90049835 129.05916053 43.88984304 136.78361459 43.87568665 144.50814819 C43.85706943 155.3441353 43.84181691 166.18011342 43.83325195 177.01611328 C43.83270389 177.70339517 43.83215583 178.39067707 43.83159117 179.09878568 C43.82313966 190.22566404 43.82646651 201.35251817 43.8324063 212.47939666 C43.83803461 223.91995183 43.82413168 235.36035185 43.79485351 246.80087698 C43.77622579 254.47314711 43.77949337 262.14499325 43.79902112 269.81725621 C43.80592097 274.60122643 43.79190946 279.38496868 43.77207184 284.16889572 C43.76704023 286.37951145 43.77046869 288.59016597 43.78320503 290.80075073 C43.86759544 306.57552324 42.8205948 319.25279303 31.13671875 331.1015625 C21.94181909 338.88588097 11.79452876 341.85633875 -0.1484375 341.48046875 C-12.21563574 340.24963991 -20.98066509 335.01668061 -28.67578125 325.7890625 C-35.96039647 315.85088675 -37.01892605 305.48079571 -36.99458313 293.5241394 C-36.9977567 292.12366149 -36.9977567 292.12366149 -37.00099438 290.6948911 C-37.00696072 287.58287766 -37.00599666 284.47090516 -37.00512695 281.35888672 C-37.00816055 279.12116426 -37.01168257 276.88344242 -37.01565552 274.64572144 C-37.02352728 269.83529467 -37.02868283 265.02487526 -37.03194618 260.21444321 C-37.03786658 252.60901378 -37.05441499 245.00363087 -37.07328796 237.39822388 C-37.07962468 234.79283717 -37.08595031 232.18745044 -37.09226513 229.58206367 C-37.09543094 228.27764076 -37.09859675 226.97321785 -37.1018585 225.62926698 C-37.11787098 218.89135624 -37.13255648 212.1534432 -37.14624023 205.41552734 C-37.14761611 204.73976505 -37.14899198 204.06400276 -37.15040954 203.36776282 C-37.17236287 192.40509812 -37.18310294 181.44244498 -37.19061098 170.47976218 C-37.19868265 159.21320688 -37.22223471 147.94674971 -37.25856465 136.68024457 C-37.27834546 130.35881323 -37.29072288 124.03755543 -37.28573036 117.71609116 C-37.28109488 111.77505895 -37.29482935 105.83435638 -37.32274246 99.89339066 C-37.32967122 97.71251253 -37.3297628 95.53160044 -37.32254219 93.35072327 C-37.31368438 90.37509383 -37.32929804 87.40055874 -37.35102844 84.42501831 C-37.34258591 83.56081611 -37.33414337 82.6966139 -37.325445 81.80622375 C-37.39798527 76.43997855 -38.28608199 73.35483787 -41.86328125 69.1015625 C-45.52387843 66.76284764 -48.77651273 66.88008018 -52.93359375 67.5703125 C-56.05660616 68.4300892 -57.7135082 69.69887498 -59.86328125 72.1015625 C-61.23100117 75.48486966 -61.7835678 78.47849612 -62.24609375 82.09375 C-63.70461963 93.36417728 -67.29390853 102.34911441 -75.86328125 110.1015625 C-85.99619496 117.62448329 -96.33774877 120.21357032 -108.86328125 119.1015625 C-118.9251392 117.35420656 -127.88178558 112.2448905 -134.328125 104.3203125 C-143.07289304 91.68156378 -143.47705816 77.59090076 -141.546875 62.65283203 C-137.08995202 38.24252451 -123.08714022 16.47237644 -102.78173828 2.37597656 C-71.48922653 -18.41136263 -32.21423828 -19.23974415 0 0 Z M-103.578125 31.46875 C-115.69259666 45.42627803 -121.94462995 62.82522003 -121.27734375 81.22265625 C-120.73528462 86.30062524 -119.53768634 89.55187612 -115.86328125 93.1015625 C-110.26393524 97.55818484 -105.96987484 98.69377863 -98.86328125 98.1015625 C-92.70141123 96.12308973 -88.33083929 92.56097264 -84.86328125 87.1015625 C-83.77036616 83.85728317 -83.27929056 80.60942351 -82.80078125 77.2265625 C-80.6760168 64.97674682 -77.15133451 57.61431617 -66.86328125 50.1015625 C-58.40497839 45.23214113 -47.98203849 44.78510613 -38.67578125 47.2265625 C-29.67556947 50.29319567 -23.0814726 56.64003767 -18.86328125 65.109375 C-15.77901265 72.67176436 -15.71588261 80.61073821 -15.7387085 88.66552734 C-15.73729835 89.59776815 -15.7358882 90.53000896 -15.73443532 91.4904995 C-15.73080069 94.59784842 -15.73411087 97.70515118 -15.73730469 100.8125 C-15.73590901 103.04697709 -15.7340091 105.28145391 -15.73164368 107.51593018 C-15.72715547 112.31980603 -15.72529079 117.12367337 -15.72518158 121.92755127 C-15.72403932 129.52512774 -15.71118799 137.12265584 -15.69561768 144.72021484 C-15.69304482 146.00347719 -15.69047197 147.28673954 -15.68782115 148.60888863 C-15.68255498 151.23237105 -15.6772695 153.85585344 -15.67196512 156.47933578 C-15.65860197 163.21213349 -15.64631509 169.94493249 -15.63525391 176.67773438 C-15.63414035 177.35297205 -15.63302678 178.02820972 -15.63187948 178.72390914 C-15.6142945 189.67230023 -15.61143637 200.62065437 -15.61310431 211.56905723 C-15.61438426 222.82433221 -15.59628971 234.07947152 -15.56208634 245.33470345 C-15.54362456 251.64841205 -15.53428614 257.96184394 -15.54656219 264.27557373 C-15.5579934 270.21174281 -15.54630734 276.14741589 -15.51692772 282.08351898 C-15.51028507 284.26033379 -15.51215743 286.43719398 -15.52322578 288.61399078 C-15.53709729 291.58911897 -15.52020209 294.56257233 -15.49578857 297.53759766 C-15.50714395 298.39597418 -15.51849933 299.2543507 -15.53019881 300.13873863 C-15.43321659 306.22915597 -13.77936063 310.40290177 -9.86328125 315.1015625 C-3.98718384 319.68491848 0.85847073 320.78818967 8.13671875 320.1015625 C13.81366869 318.02729233 17.55398182 314.620439 20.75801182 309.52132511 C22.53781522 305.1066776 22.54945132 301.41043115 22.50852966 296.69786072 C22.51235423 295.75860593 22.51617879 294.81935114 22.52011925 293.85163409 C22.52939573 290.70814793 22.51741777 287.5651032 22.50561523 284.42163086 C22.50808351 282.16600359 22.5119222 279.91037747 22.51702881 277.65475464 C22.52536738 272.79788838 22.52455847 267.94113937 22.5168438 263.08427238 C22.50525768 255.3972367 22.51742734 247.71035168 22.53346252 240.02333069 C22.55390036 229.23861072 22.56676973 218.45392633 22.57055664 207.66918945 C22.57080151 206.98516049 22.57104638 206.30113152 22.57129867 205.5963744 C22.5738419 197.97334759 22.57441276 190.35032205 22.57336426 182.72729492 C22.57303125 179.96704102 22.57274585 177.20678712 22.57250977 174.4465332 C22.57241558 173.42492911 22.57241558 173.42492911 22.5723195 172.38268655 C22.5717132 160.99751977 22.58685408 149.61244437 22.61334282 138.22730356 C22.63010155 130.59382388 22.62837149 122.96064476 22.6125201 115.32716644 C22.60670392 110.565034 22.61749838 105.80304259 22.63276672 101.04093552 C22.63647848 98.84202579 22.63342705 96.64309197 22.62289619 94.44420433 C22.49358016 65.49992097 22.49358016 65.49992097 33.62890625 54.19921875 C42.1476514 47.07372631 51.28546961 45.31397184 62.13671875 46.1015625 C72.10712027 47.83172041 78.79877291 52.82038492 84.8125 60.78125 C88.63447706 67.47816556 89.57526738 73.20524096 89.51525879 80.77268982 C89.52205398 82.18836867 89.52205398 82.18836867 89.52898645 83.6326471 C89.54056708 86.7792476 89.53098086 89.92541945 89.52148438 93.07202148 C89.52559147 95.33443475 89.53105315 97.5968459 89.5377655 99.85925293 C89.54947733 104.72372713 89.5519795 109.5880879 89.54740906 114.45257378 C89.54059376 122.14707595 89.55647708 129.84142914 89.57580566 137.53590393 C89.60080199 148.32545149 89.61754956 159.11496818 89.62548828 169.90454102 C89.62599546 170.58848822 89.62650264 171.27243543 89.62702519 171.97710831 C89.63055192 176.83109285 89.63368135 181.68507763 89.63671875 186.5390625 C89.64018766 192.08211284 89.64383696 197.62516298 89.64794922 203.16821289 C89.64845183 203.85101845 89.64895445 204.53382401 89.6494723 205.23732065 C89.65822645 216.63608271 89.6788046 228.03478515 89.70743132 239.43351609 C89.72577716 247.07976795 89.72968356 254.72584926 89.72249603 262.37211788 C89.72097287 267.13185033 89.73176635 271.89149764 89.7458744 276.65120697 C89.74987272 278.85502107 89.74875946 281.0588514 89.74210167 283.26265907 C89.73369755 286.27646405 89.74373662 289.28968171 89.75817871 292.30345154 C89.75128478 293.17058806 89.74439084 294.03772459 89.737288 294.93113798 C89.80190014 301.8765822 91.2311518 307.92561758 94.82421875 313.9140625 C99.15428237 318.01006863 103.69161208 320.30425773 109.69921875 320.6015625 C115.26355335 320.30518042 118.95322512 318.27026949 122.8671875 314.3828125 C127.88347872 308.75884705 128.28275181 304.46864479 128.26802063 297.01393127 C128.27013634 296.07245064 128.27225206 295.13097001 128.27443188 294.16095966 C128.28044448 290.9921419 128.27943082 287.82336381 128.27856445 284.65454102 C128.28159522 282.38788281 128.28511645 280.12122522 128.28909302 277.85456848 C128.29699049 272.96494542 128.30213021 268.07532968 128.30538368 263.18570137 C128.31128973 255.44880563 128.3278276 247.711956 128.34672546 239.9750824 C128.35306324 237.32667258 128.35938885 234.67826274 128.36570263 232.02985287 C128.36728639 231.3679186 128.36887015 230.70598433 128.37050191 230.02399145 C128.38844237 222.4871075 128.40466496 214.95022042 128.41967773 207.41333008 C128.42105361 206.72435168 128.42242948 206.03537328 128.42384704 205.32551675 C128.44574194 194.17905824 128.45652449 183.03261108 128.46404848 171.88613487 C128.47213612 160.4321196 128.4957448 148.97822393 128.53200215 137.52425903 C128.55174427 131.09748731 128.56417354 124.67088548 128.55916786 118.2440815 C128.55451201 112.19229539 128.56837861 106.14083076 128.59617996 100.08910942 C128.60307669 97.87366669 128.60323475 95.65819061 128.59597969 93.44274902 C128.5159783 66.25678853 128.5159783 66.25678853 138.13671875 56.1015625 C138.13671875 55.4415625 138.13671875 54.7815625 138.13671875 54.1015625 C138.69488281 53.82441406 139.25304687 53.54726562 139.828125 53.26171875 C141.4047235 52.46941798 142.97483392 51.66410727 144.5390625 50.84765625 C145.79396484 50.19990234 145.79396484 50.19990234 147.07421875 49.5390625 C147.90824219 49.10464844 148.74226563 48.67023438 149.6015625 48.22265625 C157.44306692 44.75499559 167.0146993 45.01617041 174.9453125 48.06640625 C184.69454242 52.67165746 190.74999049 58.76077787 194.4889555 68.92653382 C195.47808588 72.24778883 195.51337338 75.36662735 195.51525879 78.82066345 C195.51978892 79.55462721 195.52431905 80.28859097 195.52898645 81.04479605 C195.54052841 83.48179094 195.53099678 85.91822815 195.52148438 88.35522461 C195.52559357 90.11205395 195.5310565 91.86888057 195.5377655 93.6257019 C195.54946475 97.39993016 195.55198382 101.17401228 195.54740906 104.94825554 C195.54057486 110.93111945 195.55651221 116.91379287 195.57580566 122.8966217 C195.61362233 135.61075838 195.62643981 148.32487824 195.63671875 161.0390625 C195.64781272 174.73690988 195.66338293 188.43466864 195.70743132 202.13245589 C195.72565891 208.06377822 195.72972579 213.99488112 195.72249603 219.92622459 C195.72095962 223.63966767 195.73184958 227.35300393 195.7458744 231.06641769 C195.74983203 232.77020295 195.74883052 234.4740093 195.74210167 236.17778587 C195.68423229 252.06968904 197.28892891 266.5471841 204.13671875 281.1015625 C206.14053429 285.67489661 206.55677636 288.17312727 205.13671875 293.1015625 C201.03875475 299.15216139 195.19225015 304.10616125 189.98046875 309.1953125 C187.86113588 311.30868434 185.89775339 313.51401378 183.95117188 315.78710938 C180.22922337 320.05712556 176.28996296 324.05957377 172.26171875 328.0390625 C171.16947998 329.12562134 171.16947998 329.12562134 170.05517578 330.23413086 C166.97614924 333.29698674 163.89113552 336.35378561 160.80664062 339.41113281 C158.53956417 341.66000367 156.27558909 343.91196488 154.01171875 346.1640625 C153.32609863 346.84138428 152.64047852 347.51870605 151.93408203 348.21655273 C147.99471812 352.13612813 144.2527106 356.16295015 140.63983154 360.38609314 C138.68263542 362.61979776 136.55557896 364.63748567 134.38671875 366.6640625 C129.62794919 371.39040432 127.48995406 374.8046996 126.76171875 381.6015625 C127.48497589 388.35196248 130.01913102 392.71505874 135.13671875 397.1015625 C139.04888562 399.98421177 142.27109332 400.93937499 147.13671875 401.1015625 C156.01330396 399.59814086 161.49932307 394.1988823 167.15380859 387.58276367 C171.53973591 382.56026769 176.24515377 377.88609948 180.98046875 373.1953125 C182.39863525 371.78293318 183.81679882 370.37055089 185.23479462 368.95800018 C188.1973832 366.00844226 191.16455896 363.06349938 194.13092041 360.11773682 C196.58252906 357.68279144 199.03309206 355.24681434 201.4810791 352.80822754 C203.30740304 350.98935637 205.13597236 349.17273598 206.96716309 347.35876465 C211.36071935 342.98253163 215.61038822 338.55410083 219.62843323 333.82907104 C222.61777097 330.4052455 225.93736049 327.29903897 229.21289062 324.15234375 C230.55652068 322.8375907 231.85141851 321.47339362 233.13671875 320.1015625 C233.13671875 319.4415625 233.13671875 318.7815625 233.13671875 318.1015625 C239.6115045 315.94330058 245.9191547 316.95276155 252.42626953 318.59008789 C260.71793592 320.41677266 268.72950729 320.55670932 277.19140625 320.53515625 C278.78891213 320.53973182 280.38641606 320.5450414 281.98391724 320.55104065 C285.30348809 320.55989662 288.62281732 320.55763092 291.94238281 320.54760742 C296.17889455 320.53605544 300.41458038 320.55646169 304.65098381 320.58552456 C307.93856003 320.60392153 311.22593881 320.60358841 314.51355362 320.59788704 C316.07554417 320.59773463 317.63754879 320.60371153 319.19948959 320.61617851 C331.90380844 320.8658386 331.90380844 320.8658386 342.63912964 314.68968201 C346.89172022 309.96296875 348.64175692 305.59657693 348.44921875 299.21875 C347.68523156 294.04273677 345.16374037 289.73668817 341.32421875 286.2265625 C334.37782301 281.595632 327.57040503 281.83181083 319.47265625 281.86328125 C317.19400439 281.84787224 314.91535843 281.83156941 312.63671875 281.81445312 C309.06399467 281.79795833 305.49170462 281.78910194 301.91894531 281.79614258 C298.4571866 281.7987572 294.99673984 281.77069438 291.53515625 281.73828125 C290.46735931 281.74848801 289.39956238 281.75869476 288.29940796 281.76921082 C280.92094838 281.67171929 280.92094838 281.67171929 276.96435547 278.79516602 C274.98138228 275.87262485 274.39680984 273.82108474 274.63867188 270.27929688 C275.62273848 265.97641741 278.00718386 262.51490895 280.38671875 258.8515625 C281.4963966 257.07310559 282.60576306 255.29445436 283.71484375 253.515625 C284.28525391 252.61489258 284.85566406 251.71416016 285.44335938 250.78613281 C288.06315491 246.63283528 290.60633981 242.43477474 293.13671875 238.2265625 C293.62930176 237.40841064 294.12188477 236.59025879 294.62939453 235.74731445 C299.91662786 226.90053867 304.84077826 217.86375579 309.70068359 208.77685547 C311.09966576 206.17059118 312.5167447 203.57491326 313.9375 200.98046875 C325.31423762 180.04511795 332.37850052 158.73265851 325.44921875 134.98828125 C319.84610779 117.57309053 307.84312708 105.61447196 292.13671875 97.1015625 C280.07054724 91.05987035 266.39839628 90.28004353 253.3046875 92.5703125 C248.91118876 93.30707678 244.56066848 93.82878711 240.13671875 93.1015625 C237.56034404 91.21641027 236.54004447 89.90821393 235.13671875 87.1015625 C235.04222883 85.29995474 234.95320937 83.4978175 234.89794922 81.69458008 C234.15081426 59.21868254 226.44491139 40.67525306 209.94921875 24.9140625 C195.23097377 12.40483858 176.42918174 5.82265452 157.13671875 7.1015625 C143.32212654 8.43967443 131.62159501 13.23289592 120.29296875 21.015625 C112.63950168 26.07373319 112.63950168 26.07373319 107.76171875 26.1640625 C103.79786593 25.00224357 101.84683308 23.46340556 98.69140625 20.921875 C89.98306535 14.71684922 79.60935131 10.15710459 69.13671875 8.1015625 C67.98171875 7.8746875 66.82671875 7.6478125 65.63671875 7.4140625 C45.78652687 5.64172394 28.46529699 10.75141813 12.3359375 22.40234375 C8.95008561 24.80831085 6.31570578 25.92373326 2.13671875 26.1015625 C-1.54975597 24.8907204 -4.28902882 23.1888366 -7.36328125 20.8515625 C-38.49305959 -1.350954 -77.65933604 4.60521913 -103.578125 31.46875 Z " fill="#000000" transform="translate(141.86328125,88.8984375)"/>
<path d="M0 0 C5.06186931 3.76232297 9.17818706 8.40956117 11.1875 14.4375 C11.3351894 16.62159902 11.40866711 18.81110316 11.4375 21 C11.46328125 22.15628906 11.4890625 23.31257813 11.515625 24.50390625 C10.66779872 34.66772844 6.07362257 43.16449178 1.375 52.0625 C1.04791046 52.68846069 0.72082092 53.31442139 0.38381958 53.95935059 C-22.34761162 97.46090774 -22.34761162 97.46090774 -29.8125 102.4375 C-38.52948113 102.99095912 -38.52948113 102.99095912 -41.8125 100.4375 C-44.7566729 96.42519574 -45.19089447 93.53379529 -45.20068359 88.6027832 C-45.20594055 87.93536606 -45.21119751 87.26794891 -45.21661377 86.58030701 C-45.22977182 84.38272394 -45.22108617 82.18587122 -45.2109375 79.98828125 C-45.21296065 78.44996503 -45.21587409 76.91164975 -45.21963501 75.37333679 C-45.22405368 72.14959581 -45.21764666 68.92610448 -45.20361328 65.70239258 C-45.18659346 61.59484159 -45.19631921 57.48788187 -45.21433067 53.38035297 C-45.22524271 50.20163127 -45.22168721 47.02304644 -45.2139473 43.8443203 C-45.21196196 42.33144242 -45.21434523 40.81855165 -45.22138596 39.30568886 C-45.26664444 26.8390388 -44.1372129 16.22466246 -35.8125 6.4375 C-26.1944405 -2.51589685 -11.97970477 -7.45944392 0 0 Z M-17.375 18.875 C-20.54555611 20.56266795 -21.94461426 22.90350046 -23.25219727 26.21948242 C-24.42412116 30.85866698 -24.11500681 35.62433424 -24 40.375 C-23.98646484 41.44041016 -23.97292969 42.50582031 -23.95898438 43.60351562 C-23.92384724 46.21537588 -23.87465184 48.82616634 -23.8125 51.4375 C-19.49388592 47.60832357 -17.57253226 42.24429005 -15.125 37.125 C-14.61388672 36.09181641 -14.10277344 35.05863281 -13.57617188 33.99414062 C-13.09341797 32.98931641 -12.61066406 31.98449219 -12.11328125 30.94921875 C-11.67153564 30.03615967 -11.22979004 29.12310059 -10.7746582 28.18237305 C-9.6986808 25.11279326 -9.63762469 22.66690364 -9.8125 19.4375 C-12.84856243 17.00865006 -13.6847027 17.38593267 -17.375 18.875 Z " fill="#000000" transform="translate(420.8125,221.5625)"/>
<path d="M0 0 C1.95117188 0.95043945 1.95117188 0.95043945 3.16796875 3.20361328 C3.49861328 4.17838623 3.82925781 5.15315918 4.16992188 6.1574707 C4.54503906 7.21901367 4.92015625 8.28055664 5.30664062 9.37426758 C5.68433594 10.4925293 6.06203125 11.61079102 6.45117188 12.76293945 C7.20119249 14.96052547 7.96126062 17.15471375 8.73242188 19.3449707 C9.06306641 20.32312744 9.39371094 21.30128418 9.734375 22.30908203 C11.81137934 26.81773171 14.69618628 29.13226051 19.20898438 31.02075195 C19.99917969 31.35977539 20.789375 31.69879883 21.60351562 32.0480957 C22.41949219 32.38711914 23.23546875 32.72614258 24.07617188 33.07543945 C25.70554482 33.76135701 27.33323739 34.45128393 28.95898438 35.14575195 C29.67715332 35.44497559 30.39532227 35.74419922 31.13525391 36.05249023 C32.95117188 36.95043945 32.95117188 36.95043945 34.95117188 38.95043945 C35.07617188 42.07543945 35.07617188 42.07543945 34.95117188 44.95043945 C32.80664843 46.03642856 30.66061229 47.11924644 28.51367188 48.20043945 C27.92134766 48.50079102 27.32902344 48.80114258 26.71875 49.1105957 C26.11611328 49.41352539 25.51347656 49.71645508 24.89257812 50.02856445 C24.26375732 50.35284424 23.63493652 50.67712402 22.98706055 51.01123047 C20.95117188 51.95043945 20.95117188 51.95043945 18.64379883 52.65332031 C14.79300985 53.9238852 12.57300142 54.92384816 10.42651367 58.4675293 C9.12046909 61.61415239 8.03468501 64.76287333 7.01367188 68.01293945 C6.27790839 70.19217655 5.53973472 72.37060181 4.79882812 74.5480957 C4.48953369 75.51239502 4.18023926 76.47669434 3.86157227 77.47021484 C2.95117188 79.95043945 2.95117188 79.95043945 0.95117188 82.95043945 C-1.29882812 83.01293945 -1.29882812 83.01293945 -4.04882812 81.95043945 C-5.90310107 79.18692842 -6.90395003 76.05968734 -8.04882812 72.95043945 C-8.57464305 71.58786933 -9.10210795 70.22593525 -9.63085938 68.86450195 C-14.04882812 57.37416298 -14.04882812 57.37416298 -14.04882812 54.95043945 C-15.24507813 54.59981445 -16.44132812 54.24918945 -17.67382812 53.88793945 C-22.10472343 52.39445877 -26.32825063 50.57559801 -30.54882812 48.57543945 C-31.17225098 48.29563232 -31.79567383 48.0158252 -32.43798828 47.72753906 C-35.34983989 46.30540651 -36.84017485 45.43481312 -38.14257812 42.41137695 C-38.04882812 39.95043945 -38.04882812 39.95043945 -36.82861328 38.39672852 C-34.75564507 36.71219303 -33.03031269 36.1209905 -30.47851562 35.34887695 C-19.9070808 31.75771343 -19.9070808 31.75771343 -12.23242188 24.06860352 C-9.37877972 17.70498152 -7.46894528 11.09588009 -5.88232422 4.3137207 C-4.79255578 1.22380903 -3.37691229 -0.08168651 0 0 Z " fill="#000000" transform="translate(477.048828125,58.049560546875)"/>
<path d="M0 0 C2.04003906 0.69677734 2.04003906 0.69677734 4 2 C4.84277344 3.75244141 4.84277344 3.75244141 5.359375 5.8515625 C7.9693435 15.79689327 7.9693435 15.79689327 14.9765625 22.79296875 C17.80393784 24.20032553 20.68897637 25.30130268 23.6484375 26.39453125 C27 28 27 28 27.9765625 30.69921875 C27.98816406 31.83810547 27.98816406 31.83810547 28 33 C25.14175858 35.08574374 22.83004745 36.76195336 19.3984375 37.74609375 C15.32122828 39.00969165 12.10692541 40.11860299 9.85058594 43.95361328 C7.75127248 48.57073078 6.14662234 53.34403316 4.69506836 58.19995117 C4 60 4 60 2 62 C-0.04223633 61.87329102 -0.04223633 61.87329102 -2 61 C-2.8269043 59.26928711 -2.8269043 59.26928711 -3.32421875 57.02734375 C-5.8767181 46.43679649 -5.8767181 46.43679649 -13.234375 38.9609375 C-17.36305693 36.91195847 -21.60357756 35.36986391 -26 34 C-26 32.02 -26 30.04 -26 28 C-24.28103516 27.46439453 -24.28103516 27.46439453 -22.52734375 26.91796875 C-13.91681075 23.93716062 -13.91681075 23.93716062 -7.54003906 17.77246094 C-5.3022777 12.94002943 -3.82125157 7.90657738 -2.59985352 2.73071289 C-2 1 -2 1 0 0 Z " fill="#000000" transform="translate(26,1)"/>
<path d="M0 0 C4.06826976 3.349468 6.76955057 6.15636835 7.64453125 11.515625 C8.25748947 17.8495266 7.32823738 22.25960528 3.64453125 27.515625 C-0.83978186 32.13721301 -4.21967045 33.68962024 -10.60546875 33.828125 C-16.08317446 33.77383056 -19.2510684 33.41480533 -23.35546875 29.515625 C-28.32853087 24.29731598 -29.73908557 20.26322846 -29.625 13.1484375 C-29.10656341 8.08428881 -27.41695085 4.24572062 -23.484375 0.9453125 C-15.96922009 -4.02690719 -7.8934991 -4.97434438 0 0 Z " fill="#000000" transform="translate(390.35546875,4.484375)"/>
<path d="M0 0 C2.75569447 2.18159145 4.43588747 3.87177494 6 7 C6.24936302 10.89629726 6.13410991 14.59357556 3.6171875 17.71484375 C1.80389481 19.24760461 -0.05614807 20.63698032 -2 22 C-8.84389247 27.06508341 -13.43688011 33.49654635 -17.03515625 41.22265625 C-18.67480892 44.24306906 -20.83449673 44.88621181 -24 46 C-27.8943548 46.19471774 -31.07175834 45.57122564 -34.4375 43.5 C-36.86293553 39.61930315 -37.57938895 36.56851519 -37 32 C-32.32919031 19.27326418 -15.83579219 -4.5602084 0 0 Z " fill="#000000" transform="translate(68,114)"/>
<path d="M0 0 C3.24899677 3.09050912 4.03500043 4.99143216 4.5625 9.4375 C3.15759473 14.12051757 1.78504093 16.94934763 -2.4375 19.4375 C-6.49116518 20.10660567 -10.37663712 20.04773896 -14.4375 19.4375 C-17.41111086 17.22186838 -18.80709793 15.69830415 -20.4375 12.4375 C-20.47977317 8.05799912 -20.22437799 4.48667065 -17.5625 0.9375 C-12.22832306 -2.82780137 -5.75514175 -2.61597352 0 0 Z " fill="#000000" transform="translate(99.4375,106.5625)"/>
<path d="M0 0 C3.375 0.9375 3.375 0.9375 5.375 3.9375 C5.62290112 6.63270404 5.74517523 9.18036697 5.75 11.875 C5.77449219 12.59107422 5.79898437 13.30714844 5.82421875 14.04492188 C5.84367614 17.54401001 5.63823582 19.57011435 3.578125 22.4453125 C1.375 23.9375 1.375 23.9375 -2.25 23.875 C-5.625 22.9375 -5.625 22.9375 -7.625 19.9375 C-7.87290112 17.24229596 -7.99517523 14.69463303 -8 12 C-8.02449219 11.28392578 -8.04898437 10.56785156 -8.07421875 9.83007812 C-8.09367614 6.33098999 -7.88823582 4.30488565 -5.828125 1.4296875 C-3.625 -0.0625 -3.625 -0.0625 0 0 Z " fill="#000000" transform="translate(364.625,333.0625)"/>
<path d="M0 0 C3.84249691 0.54892813 4.74657359 1.35781062 7.0625 4.4375 C7.55859375 7.96875 7.55859375 7.96875 7.5 11.9375 C7.49871094 13.2471875 7.49742187 14.556875 7.49609375 15.90625 C7.05435559 19.50382926 6.61328255 20.93588916 4.0625 23.4375 C0.97572109 24.65596536 -0.4378393 24.61467939 -3.5703125 23.50390625 C-5.9375 21.4375 -5.9375 21.4375 -6.38818359 19.55053711 C-6.54092378 17.16116978 -6.52026485 14.83015661 -6.4375 12.4375 C-6.44007813 11.61765625 -6.44265625 10.7978125 -6.4453125 9.953125 C-6.34746208 3.9646791 -6.34746208 3.9646791 -4.59179688 1.70703125 C-2.9375 0.4375 -2.9375 0.4375 0 0 Z " fill="#000000" transform="translate(389.9375,365.5625)"/>
<path d="M0 0 C2.77039004 2.489521 3.00427475 4.04061013 3.3984375 7.78515625 C3.40636584 9.21093686 3.39809728 10.63688444 3.375 12.0625 C3.38660156 12.78244141 3.39820313 13.50238281 3.41015625 14.24414062 C3.38110249 19.45929048 3.38110249 19.45929048 1.62890625 21.9453125 C-0.61017804 23.3950793 -2.34187771 23.80550325 -5 24 C-7.70637529 23.02269781 -8.70256222 22.59487555 -10 20 C-10.15071519 17.17409019 -10.23132601 14.38927538 -10.25 11.5625 C-10.270625 10.78583984 -10.29125 10.00917969 -10.3125 9.20898438 C-10.35208006 3.46492793 -10.35208006 3.46492793 -8.69824219 1.28100586 C-5.85525597 -0.8634951 -3.41502698 -0.42687837 0 0 Z " fill="#000000" transform="translate(366,194)"/>
<path d="M0 0 C2.4375 2.125 2.4375 2.125 4 5 C3.93923869 8.5241557 3.72255356 10.91616966 1.75 13.875 C-0.56860835 15.36553394 -2.24506837 15.80321917 -5 16 C-8.09653751 15.0638375 -9.70423322 14.29576678 -12 12 C-12.94150513 9.09702584 -13.08504063 7.35717066 -12.375 4.375 C-9.39544443 -0.77150507 -5.52604484 -1.88120675 0 0 Z " fill="#000000" transform="translate(178,28)"/>
</svg>
